<svg width="68" height="68" viewBox="0 0 68 68" fill="none" xmlns="http://www.w3.org/2000/svg">
<g id="Group 2741">
<g id="Ellipse 75" filter="url(#filter0_di_365_10)">
<ellipse cx="34" cy="29.9477" rx="30" ry="29.9477" fill="#F9FAFB" fill-opacity="0.8" shape-rendering="crispEdges"/>
<path d="M62.5976 29.9477C62.5976 45.7106 49.7963 58.493 34 58.493C18.2037 58.493 5.40244 45.7106 5.40244 29.9477C5.40244 14.1849 18.2037 1.40244 34 1.40244C49.7963 1.40244 62.5976 14.1849 62.5976 29.9477Z" stroke="#EEF2F6" stroke-width="2.80488" shape-rendering="crispEdges"/>
</g>
<g id="Group">
<path id="Vector" d="M38.5856 29.5269L33.4239 24.3743C32.8686 23.8199 31.9718 23.8199 31.4165 24.3743C30.8612 24.9286 30.8612 25.8239 31.4165 26.3782L35.5758 30.5275L31.4165 34.6768C30.8612 35.2311 30.8612 36.1264 31.4165 36.6808C31.9718 37.2351 32.8686 37.2351 33.4239 36.6808L38.5856 31.5281C39.1381 30.9765 39.1381 30.0785 38.5856 29.5269Z" fill="#7D8EA0"/>
</g>
</g>
<defs>
<filter id="filter0_di_365_10" x="0" y="0" width="68" height="69.8955" filterUnits="userSpaceOnUse" color-interpolation-filters="sRGB">
<feFlood flood-opacity="0" result="BackgroundImageFix"/>
<feColorMatrix in="SourceAlpha" type="matrix" values="0 0 0 0 0 0 0 0 0 0 0 0 0 0 0 0 0 0 127 0" result="hardAlpha"/>
<feOffset dy="4"/>
<feGaussianBlur stdDeviation="2"/>
<feComposite in2="hardAlpha" operator="out"/>
<feColorMatrix type="matrix" values="0 0 0 0 0.490196 0 0 0 0 0.556863 0 0 0 0 0.627451 0 0 0 0.7 0"/>
<feBlend mode="normal" in2="BackgroundImageFix" result="effect1_dropShadow_365_10"/>
<feBlend mode="normal" in="SourceGraphic" in2="effect1_dropShadow_365_10" result="shape"/>
<feColorMatrix in="SourceAlpha" type="matrix" values="0 0 0 0 0 0 0 0 0 0 0 0 0 0 0 0 0 0 127 0" result="hardAlpha"/>
<feOffset dy="10"/>
<feGaussianBlur stdDeviation="10"/>
<feComposite in2="hardAlpha" operator="arithmetic" k2="-1" k3="1"/>
<feColorMatrix type="matrix" values="0 0 0 0 0.490196 0 0 0 0 0.556863 0 0 0 0 0.627451 0 0 0 0.3 0"/>
<feBlend mode="normal" in2="shape" result="effect2_innerShadow_365_10"/>
</filter>
</defs>
</svg>
