<svg width="35" height="33" viewBox="0 0 35 33" fill="none" xmlns="http://www.w3.org/2000/svg">
<path d="M17.4992 13.7939C16.0037 13.7939 14.793 15.0058 14.793 16.5002C14.793 17.9969 16.0037 19.2065 17.4992 19.2065C18.9948 19.2065 20.2055 17.9959 20.2055 16.5002C20.2055 15.0057 18.9936 13.7939 17.4992 13.7939Z" fill="#EE7828"/>
<path d="M35 16.8869C35 14.3208 33.3171 11.941 30.2552 10.168V9.77511C30.4123 7.9001 30.2351 6.10263 29.7427 4.5767C29.2211 2.9606 28.3664 1.72903 27.2708 1.01513C26.295 0.380904 25.1499 0.0593262 23.8676 0.0593262C21.9905 0.0593262 19.8488 0.925227 17.5 2.6333C15.151 0.925227 13.0092 0.0593262 11.1324 0.0593262C9.84999 0.0593262 8.70489 0.380975 7.72872 1.01541C6.6335 1.72903 5.77889 2.9606 5.25736 4.5767C4.76485 6.1027 4.5877 7.90017 4.74477 9.77518V10.168C1.68292 11.9412 0 14.321 0 16.8869C0 19.5794 1.83835 22.0471 5.18033 23.8466C5.17518 23.8925 5.1709 23.9384 5.16818 23.9835C4.89248 27.786 5.96412 30.6526 8.18558 32.0556C9.11679 32.6431 10.1972 32.9409 11.3966 32.9409C13.2449 32.9409 15.3529 32.221 17.5001 30.8578C19.6472 32.2209 21.7552 32.9408 23.6034 32.9409H23.6037C24.8031 32.9409 25.8832 32.6431 26.8146 32.0555C29.0361 30.6526 30.1077 27.7867 29.8322 23.9881C29.8295 23.941 29.8248 23.8932 29.8198 23.8466C33.1616 22.0471 35 19.5794 35 16.8869ZM19.4345 7.33462C18.3287 7.28031 16.6711 7.28031 15.5653 7.33462C16.1892 6.71105 16.8379 6.12835 17.5 5.59675C18.1616 6.12792 18.8102 6.71076 19.4345 7.33462ZM24.3739 20.6656C23.4644 22.1215 22.9924 22.6292 22.1358 23.5508C22.0526 23.6404 21.9658 23.7336 21.8748 23.8321L21.4457 24.2956C20.3248 24.4322 19.1659 24.5014 17.9965 24.5014H17.0034C15.8345 24.5014 14.6758 24.4322 13.5541 24.2956L13.125 23.832C13.034 23.7336 12.9471 23.6402 12.8639 23.5506C12.0072 22.629 11.5353 22.1211 10.6261 20.6658C9.93024 19.5501 9.35055 18.5062 8.8556 17.4779C9.54135 15.813 10.3781 14.1954 11.3437 12.668C12.0435 11.5536 12.813 10.4804 13.631 9.47754C15.901 9.21357 19.0989 9.21357 21.3689 9.47754C22.1868 10.4804 22.9563 11.5536 23.6568 12.669C24.6219 14.1954 25.4584 15.8128 26.1442 17.4779C25.6497 18.5057 25.07 19.5496 24.3739 20.6656ZM27.077 20.1054C27.3359 20.9902 27.5326 21.8566 27.6634 22.6882C26.6961 23.1045 25.6563 23.4522 24.5614 23.7257C25.0824 23.0946 25.2669 22.8298 25.9364 21.8686L26.0236 21.7435C26.4114 21.1858 26.7586 20.6464 27.077 20.1054ZM10.4383 23.7254C9.34254 23.4516 8.3032 23.1042 7.33661 22.6881C7.46746 21.8565 7.66412 20.9902 7.92303 20.1055C8.24139 20.6461 8.58841 21.1856 8.97666 21.7437L9.06491 21.8703C9.72336 22.8156 9.91724 23.0939 10.4383 23.7254ZM5.47461 21.7387C3.2127 20.3681 1.97134 18.6527 1.97134 16.8869C1.97134 15.2177 3.09358 13.5778 5.14088 12.24L5.16582 12.3936C5.46789 14.2563 5.95762 15.9614 6.6623 17.603C6.12998 19.0151 5.73101 20.4045 5.47461 21.7387ZM6.68903 9.13603C6.54224 6.13743 7.37242 3.59961 8.80451 2.67032C9.45324 2.24655 10.2365 2.03167 11.1324 2.03167C12.5497 2.03167 14.2395 2.73192 16.1575 4.11349C14.937 5.10702 13.7418 6.28321 12.6006 7.61411C10.421 7.92926 8.43662 8.46315 6.69231 9.20292L6.68903 9.13603ZM7.00403 11.2264C8.12376 10.7167 9.38292 10.2974 10.7593 9.97578C10.3832 10.504 10.0164 11.0509 9.66476 11.6072C8.97709 12.7016 8.35773 13.8126 7.81977 14.9163C7.45638 13.8213 7.2072 12.7484 7.06063 11.6504L7.00403 11.2264ZM11.4727 30.915C10.6392 30.9152 9.90052 30.716 9.27716 30.3228C7.82098 29.4053 7.05906 27.4266 7.1278 24.7459C8.56082 25.3106 10.1209 25.7419 11.7784 26.0321L12.3912 26.671C13.4562 27.7812 14.5798 28.7629 15.7349 29.5928C14.1946 30.4588 12.7263 30.915 11.4727 30.915ZM14.9261 26.4061C15.6461 26.4536 16.3287 26.4769 17.0036 26.4769H17.9964C18.6714 26.4769 19.354 26.4536 20.0739 26.4061C19.231 27.1797 18.366 27.8598 17.5 28.43C16.6342 27.8601 15.7691 27.1798 14.9261 26.4061ZM25.7228 30.3229C25.0996 30.7159 24.3609 30.915 23.5272 30.915C22.2737 30.915 20.8054 30.4588 19.265 29.5928C20.4202 28.7629 21.5437 27.7812 22.6086 26.671L23.2215 26.0321C24.8793 25.7418 26.4391 25.3105 27.872 24.7459C27.9408 27.4264 27.1789 29.4053 25.7228 30.3229ZM27.9393 11.6504C27.7928 12.7483 27.5436 13.8212 27.1802 14.9163C26.6423 13.8124 26.0227 12.7011 25.3348 11.6065C24.9832 11.0502 24.6165 10.5036 24.2407 9.97585C25.6167 10.2974 26.876 10.7168 27.9958 11.2264L27.9393 11.6504ZM28.311 9.13596L28.3076 9.20299C26.5623 8.463 24.578 7.92919 22.3993 7.61418C21.2583 6.28371 20.0632 5.10731 18.8423 4.11356C20.7605 2.73199 22.4503 2.03174 23.8675 2.03174C24.7635 2.03174 25.5469 2.2467 26.1964 2.67096C27.6277 3.59968 28.4578 6.13736 28.311 9.13596ZM29.5253 21.7387C29.269 20.4045 28.87 19.0152 28.3376 17.603C29.0422 15.9618 29.532 14.2568 29.834 12.3937L29.859 12.2401C31.9066 13.5784 33.0287 15.2181 33.0287 16.8869C33.0287 18.6527 31.7873 20.3681 29.5253 21.7387Z" fill="#EE7828"/>
</svg>
