<svg width="7" height="7" viewBox="0 0 7 7" fill="none" xmlns="http://www.w3.org/2000/svg">
<g id="Group 2322">
<g id="Group">
<path id="Vector" d="M3.63195 6.01098L6.97968 0.228554C7.00677 0.18169 7.00677 0.123557 6.97968 0.0760799C6.96631 0.0529634 6.9471 0.0337669 6.92397 0.0204143C6.90084 0.00706162 6.87461 2.17097e-05 6.84791 -6.64816e-09L0.152461 -2.99315e-07C0.09798 -3.01697e-07 0.0477638 0.0292162 0.0206871 0.0760796C0.00741624 0.0992455 0.000391478 0.125462 0.000301354 0.15216C0.000301353 0.178637 0.00699185 0.204815 0.0206871 0.228553L3.36842 6.01098C3.39581 6.05785 3.44602 6.08676 3.50019 6.08676C3.55436 6.08676 3.60487 6.05785 3.63195 6.01098Z" fill="#EE7828"/>
</g>
</g>
</svg>
