<svg width="11" height="11" viewBox="0 0 11 11" fill="none" xmlns="http://www.w3.org/2000/svg">
<g id="Group">
<path id="Vector" d="M1.04276 10.8679C0.773079 10.8836 0.507847 10.794 0.302992 10.6179C-0.100997 10.2115 -0.100997 9.55512 0.302992 9.14873L9.14904 0.302643C9.56923 -0.0905386 10.2286 -0.0686818 10.6218 0.351503C10.9773 0.731475 10.998 1.3155 10.6703 1.7197L1.7721 10.6179C1.5699 10.7914 1.3089 10.8809 1.04276 10.8679Z" fill="white"/>
<path id="Vector_2" d="M9.878 10.868C9.60466 10.8668 9.34271 10.7583 9.14863 10.5658L0.302541 1.71968C-0.0717341 1.28262 -0.0208494 0.624856 0.416217 0.250546C0.806311 -0.0835155 1.38162 -0.0835155 1.77168 0.250546L10.6699 9.09663C11.0899 9.48992 11.1117 10.1493 10.7184 10.5694C10.7027 10.5861 10.6866 10.6022 10.6699 10.6179C10.5621 10.7116 10.4361 10.7822 10.2999 10.8252C10.1637 10.8682 10.0201 10.8828 9.878 10.868Z" fill="white"/>
</g>
</svg>
