<svg width="30" height="30" viewBox="0 0 30 30" fill="none" xmlns="http://www.w3.org/2000/svg">
<g id="Frame" clip-path="url(#clip0_13_2965)">
<g id="Group">
<path id="Vector" d="M9.99937 9.99984C15.7225 9.99984 19.9989 7.7374 19.9989 5.71441C19.9989 3.69161 15.7224 1.42908 9.99937 1.42908C4.27635 1.42908 -2.68216e-05 3.69161 -2.68216e-05 5.71441C-2.68216e-05 7.7374 4.27626 9.99984 9.99937 9.99984ZM9.99937 27.1421C10.8347 27.1421 11.6387 27.0935 12.4034 27.0051C11.7539 26.1706 11.2231 25.2501 10.8263 24.2699C10.5519 24.2791 10.2765 24.2855 9.99928 24.2855C6.7291 24.2855 3.63219 23.6375 1.27926 22.461C0.815969 22.2294 0.389636 21.9805 -2.68216e-05 21.717V22.8568C-2.68216e-05 24.8796 4.27626 27.1421 9.99937 27.1421ZM9.99937 21.4281C10.0287 21.4281 10.0576 21.4276 10.0868 21.4275C10.0275 20.9535 9.99768 20.4762 9.99766 19.9985C9.99766 19.5148 10.0281 19.0382 10.0868 18.5703C10.0576 18.5703 10.0286 18.5714 9.99937 18.5714C6.7292 18.5714 3.63238 17.9234 1.27935 16.7469C0.815969 16.5152 0.38954 16.2663 -0.00012207 16.003V17.1426C-2.68216e-05 19.1655 4.27626 21.4281 9.99937 21.4281ZM9.99937 15.7138C10.2828 15.7138 10.5625 15.7081 10.8386 15.6972C11.2792 14.6172 11.8823 13.6108 12.6271 12.713C11.7545 12.8091 10.8773 12.8573 9.99937 12.8573C6.7292 12.8573 3.63238 12.2093 1.27935 11.0328C0.815969 10.8011 0.38954 10.5523 -0.00012207 10.2888V11.4286C-2.68216e-05 13.4515 4.27626 15.7138 9.99937 15.7138ZM14.2856 15.263C13.6564 16.2078 13.2222 17.2687 13.0085 18.3835C12.9064 18.9158 12.8551 19.4565 12.8552 19.9985C12.8552 20.4135 12.8855 20.8215 12.9427 21.2209C13.0807 22.1832 13.3825 23.1147 13.8352 23.9749C14.3001 24.8584 14.9149 25.6545 15.6522 26.3277C17.1769 27.7203 19.2048 28.5709 21.4276 28.5709C26.1544 28.5709 30 24.7253 30 19.9985C30 15.2716 26.1544 11.4261 21.4276 11.4261C20.9391 11.4261 20.4601 11.4678 19.9935 11.5467C17.6173 11.9485 15.5706 13.3314 14.2856 15.263Z" fill="white"/>
</g>
</g>
<defs>
<clipPath id="clip0_13_2965">
<rect width="30" height="30" fill="white"/>
</clipPath>
</defs>
</svg>
