<svg width="35" height="35" viewBox="0 0 35 35" fill="none" xmlns="http://www.w3.org/2000/svg">
<path d="M11.666 11.0522C18.343 11.0522 23.3321 8.13474 23.3321 5.52604C23.3321 2.9176 18.3429 0 11.666 0C4.98921 0 0.000111123 2.9176 0.000111123 5.52604C0.000111123 8.13474 4.98909 11.0522 11.666 11.0522ZM11.666 33.1576C12.6406 33.1576 13.5786 33.095 14.4708 32.9809C13.7129 31.9048 13.0937 30.7178 12.6308 29.4538C12.3107 29.4657 11.9894 29.474 11.6659 29.474C7.85074 29.474 4.23768 28.6384 1.49261 27.1212C0.952103 26.8225 0.454716 26.5016 0.000111123 26.1618V27.6316C0.000111123 30.24 4.98909 33.1576 11.666 33.1576ZM11.666 25.7892C11.7003 25.7892 11.7339 25.7886 11.768 25.7885C11.6988 25.1772 11.6641 24.5617 11.664 23.9457C11.664 23.322 11.6996 22.7074 11.768 22.1041C11.7339 22.1041 11.7002 22.1054 11.666 22.1054C7.85085 22.1054 4.2379 21.2698 1.49272 19.7527C0.952103 19.454 0.454605 19.133 0 18.7934V20.263C0.000111123 22.8716 4.98909 25.7892 11.666 25.7892ZM11.666 18.4205C11.9967 18.4205 12.323 18.4131 12.6451 18.3991C13.1592 17.0064 13.8628 15.7086 14.7317 14.5509C13.7137 14.6748 12.6902 14.7369 11.666 14.737C7.85085 14.737 4.2379 13.9014 1.49272 12.3843C0.952103 12.0854 0.454605 11.7646 0 11.4249V12.8946C0.000111123 15.5032 4.98909 18.4205 11.666 18.4205ZM16.6666 17.8392C15.9325 19.0575 15.426 20.4256 15.1766 21.8632C15.0576 22.5496 14.9977 23.2468 14.9978 23.9457C14.9978 24.4809 15.0332 25.007 15.1 25.522C15.2609 26.7629 15.613 27.9641 16.1412 29.0734C16.6836 30.2127 17.4008 31.2393 18.261 32.1073C20.0398 33.9032 22.4056 35 24.9989 35C30.5135 35 35 30.041 35 23.9457C35 17.8502 30.5135 12.8914 24.9989 12.8914C24.429 12.8914 23.8701 12.9452 23.3259 13.0469C20.5536 13.5651 18.1657 15.3484 16.6666 17.8392Z" fill="#EE7828"/>
</svg>
