<svg width="30" height="28" viewBox="0 0 30 28" fill="none" xmlns="http://www.w3.org/2000/svg">
<g id="Group">
<path id="Vector" d="M9.99949 8.57076C15.7226 8.57076 19.999 6.30832 19.999 4.28533C19.999 2.26254 15.7225 0 9.99949 0C4.27648 0 9.52487e-05 2.26254 9.52487e-05 4.28533C9.52487e-05 6.30832 4.27638 8.57076 9.99949 8.57076ZM9.99949 25.713C10.8348 25.713 11.6388 25.6645 12.4036 25.576C11.754 24.7415 11.2232 23.8211 10.8264 22.8408C10.552 22.8501 10.2767 22.8564 9.9994 22.8564C6.72922 22.8564 3.63231 22.2085 1.27938 21.032C0.816091 20.8003 0.389758 20.5514 9.52487e-05 20.288V21.4277C9.52487e-05 23.4505 4.27638 25.713 9.99949 25.713ZM9.99949 19.999C10.0288 19.999 10.0577 19.9985 10.0869 19.9984C10.0276 19.5244 9.9978 19.0471 9.99778 18.5694C9.99778 18.0857 10.0283 17.6091 10.0869 17.1412C10.0577 17.1412 10.0287 17.1423 9.99949 17.1423C6.72932 17.1423 3.6325 16.4943 1.27948 15.3178C0.816091 15.0862 0.389662 14.8373 0 14.5739V15.7136C9.52487e-05 17.7364 4.27638 19.999 9.99949 19.999ZM9.99949 14.2847C10.283 14.2847 10.5626 14.279 10.8387 14.2682C11.2793 13.1881 11.8825 12.1817 12.6272 11.2839C11.7546 11.38 10.8774 11.4282 9.99949 11.4282C6.72932 11.4282 3.6325 10.7802 1.27948 9.60373C0.816091 9.37199 0.389662 9.1232 0 8.85975V9.99949C9.52487e-05 12.0224 4.27638 14.2847 9.99949 14.2847ZM14.2857 13.8339C13.6565 14.7787 13.2223 15.8396 13.0086 16.9545C12.9066 17.4867 12.8552 18.0274 12.8553 18.5694C12.8553 18.9844 12.8856 19.3924 12.9429 19.7918C13.0808 20.7541 13.3826 21.6856 13.8353 22.5458C14.3003 23.4293 14.915 24.2254 15.6523 24.8986C17.1771 26.2912 19.2049 27.1418 21.4277 27.1418C26.1545 27.1418 30.0001 23.2962 30.0001 18.5694C30.0001 13.8425 26.1545 9.99701 21.4277 9.99701C20.9392 9.99701 20.4602 10.0387 19.9937 10.1176C17.6174 10.5195 15.5707 11.9024 14.2857 13.8339Z" fill="#7D8EA0"/>
</g>
</svg>
