<svg width="35" height="35" viewBox="0 0 35 35" fill="none" xmlns="http://www.w3.org/2000/svg">
<g clip-path="url(#clip0_2513_134)">
<path d="M23.377 32.9492V30.8984H11.6191V32.9492H6.49219V35H28.5039V32.9492H23.377Z" fill="#EE7828"/>
<path d="M35 26.7969H0V28.8477H35V26.7969Z" fill="#EE7828"/>
<path d="M29.152 6.15234C29.6183 7.45527 29.873 8.85896 29.873 10.3223C29.873 17.1557 24.3335 22.6953 17.5 22.6953C10.6665 22.6953 5.12695 17.1557 5.12695 10.3223C5.12695 8.85896 5.38166 7.45527 5.84801 6.15234H0V24.7461H35V6.15234H29.152Z" fill="#EE7828"/>
<path d="M23.5238 1.9397L20.1953 7.70478C20.8535 8.38229 21.2599 9.30549 21.2599 10.3223C21.2599 11.3392 20.8535 12.2624 20.1954 12.9399L23.5239 18.705C26.1271 16.831 27.8224 13.7748 27.8224 10.3223C27.8224 6.86984 26.1271 3.81363 23.5238 1.9397Z" fill="#EE7828"/>
<path d="M17.4989 0C15.9842 0 14.5458 0.326211 13.25 0.912256L16.5782 6.67693C16.873 6.60249 17.1813 6.5625 17.4989 6.5625C17.8164 6.5625 18.1248 6.60249 18.4195 6.67693L21.7478 0.912256C20.4519 0.326211 19.0135 0 17.4989 0Z" fill="#EE7828"/>
<path d="M17.498 8.61328C16.5557 8.61328 15.7891 9.37993 15.7891 10.3223C15.7891 11.2646 16.5557 12.0312 17.498 12.0312C18.4404 12.0312 19.207 11.2646 19.207 10.3223C19.207 9.37993 18.4404 8.61328 17.498 8.61328Z" fill="#EE7828"/>
<path d="M13.7422 10.3223C13.7422 9.30549 14.1486 8.38229 14.8067 7.70478L11.4782 1.9397C8.875 3.81363 7.17969 6.86984 7.17969 10.3223C7.17969 13.7748 8.875 16.831 11.4783 18.705L14.8067 12.9399C14.1486 12.2624 13.7422 11.3392 13.7422 10.3223Z" fill="#EE7828"/>
<path d="M18.4195 13.9675C18.1247 14.042 17.8163 14.082 17.4988 14.082C17.1813 14.082 16.8729 14.042 16.5782 13.9675L13.25 19.7322C14.5458 20.3183 15.9842 20.6445 17.4988 20.6445C19.0134 20.6445 20.4519 20.3183 21.7477 19.7322L18.4195 13.9675Z" fill="#EE7828"/>
</g>
<defs>
<clipPath id="clip0_2513_134">
<rect width="35" height="35" fill="white"/>
</clipPath>
</defs>
</svg>
