<svg width="29" height="29" viewBox="0 0 29 29" fill="none" xmlns="http://www.w3.org/2000/svg">
<path d="M25.1326 1.93311H9.66589C9.13229 1.93311 8.69922 2.36569 8.69922 2.89977V4.83311H19.3326C20.9319 4.83311 22.2326 6.13376 22.2326 7.73311V22.7164H25.1326C25.6662 22.7164 26.0992 22.2834 26.0992 21.7498V2.89977C26.0992 2.36569 25.6662 1.93311 25.1326 1.93311Z" fill="white"/>
<path d="M19.3318 6.7666H3.8651C3.3315 6.7666 2.89844 7.19918 2.89844 7.73327V26.5833C2.89844 27.1169 3.3315 27.5499 3.8651 27.5499H19.3318C19.8654 27.5499 20.2984 27.1169 20.2984 26.5833V7.73327C20.2984 7.19918 19.8654 6.7666 19.3318 6.7666ZM15.4651 19.3333H5.79844V17.3999H15.4651V19.3333ZM17.3984 15.4666H5.79844V13.5333H17.3984V15.4666ZM17.3984 11.5999H5.79844V9.6666H17.3984V11.5999Z" fill="white"/>
</svg>
