<svg width="32" height="33" viewBox="0 0 32 33" fill="none" xmlns="http://www.w3.org/2000/svg">
<g id="Group">
<path id="Vector" d="M13.6488 5.47279C14.5814 4.43718 15.2835 3.79759 15.3729 3.7171C15.545 3.56205 15.7685 3.47625 16.0001 3.47625C16.2318 3.47625 16.4553 3.56205 16.6274 3.7171C16.8488 3.91651 20.827 7.5428 22.7669 12.138L27.1332 10.6586C27.3935 10.5701 27.6304 10.4238 27.8262 10.2308L29.806 8.27426C29.5395 7.82106 29.2513 7.38102 28.9423 6.9557C26.431 3.49876 22.7237 1.22664 18.5036 0.557926C14.9027 -0.0125546 11.2959 0.643539 8.16714 2.40847L13.6488 5.47279ZM28.7483 26.0323L27.633 25.6647C26.8939 25.4212 26.2614 24.9597 25.8041 24.3301L24.1327 22.0293C23.9462 21.7727 23.6956 21.5695 23.4061 21.44L22.5788 21.0702C22.2568 21.5726 21.8789 22.0368 21.4522 22.454C21.5207 22.8532 21.5589 23.2572 21.5589 23.6631C21.5589 26.7373 19.0653 29.2384 16.0001 29.2384C15.413 29.2388 14.8296 29.1455 14.2718 28.9622L12.9537 32.0602C13.1338 32.095 13.3146 32.128 13.4966 32.1568C17.7165 32.8253 21.9447 31.8107 25.4018 29.2994C26.6888 28.3645 27.8113 27.2635 28.7483 26.0323ZM30.695 10.0313L29.144 11.5642C28.7458 11.9566 28.2641 12.254 27.7348 12.4342L23.3885 13.9068C23.656 14.8664 23.8137 15.8523 23.8137 16.8452C23.8137 17.7322 23.6657 18.5852 23.3938 19.381L24.1709 19.7283C24.7601 19.9918 25.2699 20.4053 25.6494 20.9274L27.3208 23.2282C27.5437 23.5362 27.8584 23.7658 28.2197 23.8842L29.8242 24.4129C32.3827 20.0205 32.6969 14.6702 30.695 10.0313ZM7.03199 29.6086C8.29169 30.461 9.66706 31.1284 11.1162 31.5905L12.6103 28.0786C11.2921 27.0582 10.4414 25.4586 10.4414 23.6631C10.4414 23.2572 10.4795 22.8533 10.548 22.454C9.09213 21.0296 8.18651 19.0417 8.18651 16.8453C8.18651 13.0884 10.4327 9.42935 12.4152 6.93095L6.3949 3.56556C3.05256 6.07314 0.856251 9.71712 0.20072 13.8538C-0.300834 17.0189 0.144603 20.1885 1.45804 23.0338C1.89585 23.9823 2.43015 24.8948 3.05794 25.759V25.7589C4.15865 27.2741 5.49571 28.5693 7.03199 29.6086Z" fill="#7D8EA0"/>
<path id="Vector_2" d="M21.9402 16.8452C21.9402 15.207 21.3756 12.4895 18.6855 8.84643C17.6618 7.46019 16.6352 6.35722 16.0025 5.71875C14.3611 7.37939 10.0625 12.1752 10.0625 16.8452C10.0625 18.1486 10.4814 19.3555 11.1907 20.3378C12.5325 17.2 15.2233 14.7472 15.3741 14.6114C15.5462 14.4564 15.7697 14.3706 16.0013 14.3706C16.233 14.3706 16.4565 14.4564 16.6286 14.6114C16.7794 14.7472 19.4702 17.2 20.812 20.3378C21.5213 19.3555 21.9402 18.1486 21.9402 16.8452Z" fill="#7D8EA0"/>
<path id="Vector_3" d="M16.0006 16.6265C14.8045 17.8779 12.3167 20.8226 12.3167 23.6629C12.3167 25.7034 13.9693 27.3635 16.0006 27.3635C18.032 27.3635 19.6846 25.7034 19.6846 23.6629C19.6846 20.8229 17.197 17.8783 16.0006 16.6265Z" fill="#7D8EA0"/>
</g>
</svg>
