<svg width="94" height="94" viewBox="0 0 94 94" fill="none" xmlns="http://www.w3.org/2000/svg">
<g id="Group">
<path id="Vector" d="M40.0933 15.0264C42.8329 11.9843 44.8953 10.1055 45.1578 9.86905C45.6635 9.4136 46.3199 9.16156 47.0004 9.16156C47.681 9.16156 48.3374 9.4136 48.8431 9.86905C49.4935 10.4548 61.1794 21.1071 66.8777 34.6055L79.7039 30.2597C80.4685 29.9996 81.1644 29.57 81.7395 29.003L87.5551 23.2557C86.7724 21.9244 85.9257 20.6318 85.018 19.3824C77.641 9.22767 66.751 2.55334 54.3543 0.588982C43.7766 -1.08681 33.1818 0.840469 23.991 6.02497L40.0933 15.0264ZM84.4482 75.4199L81.1719 74.3402C79.0008 73.6248 77.143 72.2692 75.7996 70.4197L70.8897 63.6611C70.3419 62.9074 69.606 62.3106 68.7554 61.9301L66.3253 60.8439C65.3795 62.3196 64.2693 63.6833 63.016 64.9087C63.2172 66.0815 63.3291 67.268 63.3291 68.4603C63.3291 77.4909 56.0042 84.8378 47.0004 84.8378C45.2758 84.839 43.5619 84.5651 41.9235 84.0265L38.0515 93.127C38.5806 93.2293 39.1116 93.326 39.6464 93.4106C52.0423 95.3744 64.4625 92.394 74.6178 85.0172C78.3984 82.2708 81.6958 79.0367 84.4482 75.4199ZM90.1667 28.4171L85.6106 32.9198C84.4409 34.0727 83.0258 34.9463 81.4711 35.4754L68.7038 39.8012C69.4895 42.6203 69.9526 45.5162 69.9526 48.4327C69.9526 51.0385 69.5181 53.5442 68.7192 55.8817L71.0021 56.902C72.7329 57.6761 74.2304 58.8906 75.3451 60.4243L80.255 67.1829C80.9097 68.0877 81.834 68.7622 82.8954 69.1098L87.6087 70.6629C95.1243 57.7603 96.0471 42.0437 90.1667 28.4171ZM20.6565 85.9253C24.3568 88.4292 28.397 90.3898 32.6537 91.7471L37.0428 81.431C33.1706 78.4335 30.6716 73.7346 30.6716 68.4605C30.6716 67.2681 30.7835 66.0816 30.9847 64.9088C26.7081 60.7244 24.0479 54.8849 24.0479 48.4331C24.0479 37.3974 30.646 26.6488 36.4697 19.3097L18.785 9.4239C8.9669 16.7899 2.51524 27.4941 0.589614 39.6457C-0.883699 48.9432 0.424771 58.2538 4.28299 66.612C5.56907 69.398 7.13857 72.0784 8.98269 74.6172V74.617C12.216 79.0678 16.1437 82.8724 20.6565 85.9253Z" fill="#7D8EA0"/>
<path id="Vector_2" d="M64.4458 48.433C64.4458 43.6207 62.7871 35.6381 54.8849 24.9367C51.878 20.8646 48.8624 17.6246 47.0036 15.7491C42.182 20.6273 29.5549 34.715 29.5549 48.433C29.5549 52.2618 30.7856 55.807 32.8691 58.6925C36.8104 49.4753 44.7147 42.2702 45.1576 41.8713C45.6633 41.4159 46.3197 41.1638 47.0003 41.1638C47.6808 41.1638 48.3372 41.4159 48.8429 41.8713C49.2859 42.2702 57.1901 49.4753 61.1315 58.6925C63.2151 55.807 64.4458 52.2618 64.4458 48.433Z" fill="#EE7828"/>
<path id="Vector_3" d="M47.0014 47.791C43.4879 51.4671 36.1797 60.1172 36.1797 68.4605C36.1797 74.4544 41.0343 79.331 47.0014 79.331C52.9684 79.331 57.823 74.4546 57.823 68.4605C57.823 60.1179 50.5158 51.4684 47.0014 47.791Z" fill="#EE7828"/>
</g>
</svg>
