<svg width="35" height="35" viewBox="0 0 35 35" fill="none" xmlns="http://www.w3.org/2000/svg">
<path d="M14.9284 5.59493C15.9484 4.46224 16.7163 3.76268 16.8141 3.67465C17.0024 3.50506 17.2468 3.41122 17.5002 3.41122C17.7536 3.41122 17.998 3.50506 18.1863 3.67465C18.4284 3.89275 22.7796 7.85901 24.9013 12.885L29.677 11.2669C29.9617 11.1701 30.2208 11.0101 30.4349 10.799L32.6003 8.65904C32.3089 8.16335 31.9936 7.68207 31.6556 7.21687C28.9089 3.43583 24.8541 0.950711 20.2383 0.219302C16.2998 -0.404662 12.3549 0.31294 8.93281 2.24334L14.9284 5.59493ZM31.4435 28.0819L30.2236 27.6799C29.4152 27.4135 28.7234 26.9087 28.2233 26.2201L26.3951 23.7036C26.1911 23.423 25.9171 23.2007 25.6004 23.0591L24.6956 22.6547C24.3434 23.2041 23.93 23.7119 23.4634 24.1681C23.5383 24.6048 23.58 25.0466 23.58 25.4905C23.58 28.853 20.8526 31.5886 17.5002 31.5886C16.858 31.589 16.2199 31.487 15.6098 31.2865L14.1681 34.675C14.3651 34.713 14.5628 34.749 14.7619 34.7806C19.3775 35.5118 24.002 34.402 27.7832 31.6553C29.1909 30.6328 30.4186 29.4286 31.4435 28.0819ZM33.5727 10.5808L31.8763 12.2574C31.4408 12.6866 30.9139 13.0119 30.335 13.2089L25.5812 14.8196C25.8737 15.8692 26.0462 16.9475 26.0462 18.0335C26.0462 19.0037 25.8844 19.9367 25.5869 20.807L26.4369 21.1869C27.0814 21.4751 27.639 21.9273 28.054 22.4984L29.8822 25.0149C30.126 25.3518 30.4701 25.603 30.8653 25.7324L32.6203 26.3107C35.4186 21.5065 35.7622 15.6546 33.5727 10.5808ZM7.69124 31.9935C9.06903 32.9258 10.5733 33.6558 12.1583 34.1612L13.7925 30.3201C12.3508 29.204 11.4203 27.4544 11.4203 25.4906C11.4203 25.0466 11.462 24.6049 11.5369 24.1682C9.94452 22.6102 8.954 20.4359 8.954 18.0336C8.954 13.9246 11.4108 9.92242 13.5792 7.1898L6.99442 3.5089C3.33874 6.25156 0.936525 10.2372 0.219537 14.7617C-0.329037 18.2235 0.158159 21.6902 1.59473 24.8023C2.07359 25.8397 2.65798 26.8377 3.34462 27.783V27.7829C4.54853 29.4401 6.01094 30.8567 7.69124 31.9935Z" fill="#7D8EA0"/>
<path d="M23.9971 18.0335C23.9971 16.2417 23.3795 13.2695 20.4372 9.28491C19.3176 7.76871 18.1948 6.56234 17.5027 5.86401C15.7074 7.68034 11.0059 12.9258 11.0059 18.0335C11.0059 19.4592 11.4641 20.7792 12.2398 21.8536C13.7074 18.4216 16.6504 15.7389 16.8154 15.5904C17.0037 15.4208 17.2481 15.3269 17.5015 15.3269C17.7549 15.3269 17.9993 15.4208 18.1876 15.5904C18.3525 15.7389 21.2955 18.4216 22.7631 21.8536C23.5389 20.7792 23.9971 19.4592 23.9971 18.0335Z" fill="#EE7828"/>
<path d="M17.501 17.7939C16.1928 19.1627 13.4717 22.3835 13.4717 25.49C13.4717 27.7218 15.2793 29.5376 17.501 29.5376C19.7228 29.5376 21.5304 27.7219 21.5304 25.49C21.5304 22.3838 18.8096 19.1632 17.501 17.7939Z" fill="#EE7828"/>
</svg>
