<svg width="42" height="42" viewBox="0 0 42 42" fill="none" xmlns="http://www.w3.org/2000/svg">
<g clip-path="url(#clip0_57_2)">
<path opacity="0.98" fill-rule="evenodd" clip-rule="evenodd" d="M19.5647 -0.0410156C20.7951 -0.0410156 22.0256 -0.0410156 23.2561 -0.0410156C27.8396 0.432808 31.8591 2.18281 35.3147 5.20898C35.2375 5.39537 35.1281 5.55943 34.9865 5.70117C34.4843 5.81788 34.0605 6.06397 33.7151 6.43945C33.6726 6.85325 33.864 7.072 34.2893 7.0957C34.3629 7.32477 34.4585 7.54352 34.5764 7.75195C34.8225 7.64258 35.0686 7.5332 35.3147 7.42383C35.4751 7.75592 35.5571 8.11138 35.5608 8.49023C34.9826 8.3936 34.4084 8.4073 33.8381 8.53125C33.5618 8.85134 33.3157 9.19316 33.0998 9.55664C32.7458 9.64753 32.3903 9.72956 32.0334 9.80273C31.8945 10.0623 31.8534 10.3358 31.9104 10.623C32.0216 10.6952 32.1446 10.7226 32.2795 10.7051C32.244 10.9238 32.203 11.1425 32.1565 11.3613C32.1225 11.3988 32.0815 11.4262 32.0334 11.4434C31.6935 11.3562 31.3517 11.2742 31.008 11.1973C30.6537 11.2456 30.3256 11.3549 30.0236 11.5254C29.8772 12.0356 29.8909 12.5414 30.0647 13.043C30.7542 13.3796 31.4652 13.4206 32.1975 13.166C32.5391 12.5094 32.963 11.9078 33.469 11.3613C33.6432 11.421 33.821 11.4757 34.0022 11.5254C34.2717 11.3653 34.5178 11.1739 34.7404 10.9512C34.8467 11.1011 34.9287 11.2652 34.9865 11.4434C35.5374 11.773 36.057 12.1422 36.5451 12.5508C36.5239 12.6542 36.4692 12.7363 36.3811 12.7969C35.5561 12.7801 35.5287 12.9306 36.299 13.248C36.4486 13.1458 36.6126 13.091 36.7912 13.084C36.7799 12.7636 36.8209 12.4628 36.9143 12.1816C36.5519 11.9525 36.1827 11.7338 35.8069 11.5254C35.6817 11.2593 35.5722 10.9859 35.4787 10.7051C35.8035 10.6099 36.1316 10.5962 36.4631 10.6641C36.8049 10.9512 37.1467 11.2383 37.4885 11.5254C37.5164 11.8583 37.5711 12.1864 37.6526 12.5098C37.8713 12.7285 38.09 12.9472 38.3088 13.166C38.4307 12.8153 38.5401 12.4598 38.6369 12.0996C38.8283 11.9903 39.0198 11.8808 39.2112 11.7715C39.1941 12.3772 39.3992 12.8831 39.8264 13.2891C40.2298 13.3051 40.6263 13.3461 41.0158 13.4121C41.1961 13.8707 41.3601 14.3356 41.508 14.8066C41.5671 14.9389 41.5535 15.0619 41.467 15.1758C40.8655 15.2305 40.2639 15.2305 39.6623 15.1758C39.296 14.7878 38.8584 14.5553 38.3498 14.4785C37.7854 14.399 37.5667 14.6451 37.6936 15.2168C36.8482 14.8958 35.9732 14.6497 35.0686 14.4785C35.0686 14.0684 35.0686 13.6582 35.0686 13.248C34.2761 13.3142 33.4832 13.3827 32.6897 13.4531C32.5117 13.5832 32.3202 13.6927 32.1154 13.7812C31.5685 13.8086 31.0217 13.836 30.4748 13.8633C30.1871 14.0482 29.8864 14.2122 29.5725 14.3555C29.5063 14.7724 29.4653 15.1963 29.4494 15.627C28.6605 16.1565 27.9086 16.7308 27.1936 17.3496C27.2483 17.5137 27.3029 17.6777 27.3576 17.8418C27.5132 17.921 27.6772 17.9484 27.8498 17.9238C27.8143 18.1425 27.7733 18.3612 27.7268 18.5801C27.6357 18.7062 27.5127 18.7608 27.3576 18.7441C27.344 19.3463 27.3576 19.9479 27.3986 20.5488C28.0702 21.2503 28.7127 21.9749 29.3264 22.7227C30.1716 22.6738 31.0193 22.6191 31.8694 22.5586C32.0944 22.2548 32.3952 22.1318 32.7717 22.1895C32.9358 22.2032 33.0998 22.2168 33.2639 22.2305C33.4311 22.4252 33.6225 22.5893 33.8381 22.7227C34.2521 22.7504 34.6623 22.8051 35.0686 22.8867C34.9395 23.493 34.8984 24.1082 34.9455 24.7324C35.4164 25.5717 35.8676 26.4193 36.299 27.2754C36.0865 27.7484 35.8541 28.2133 35.6018 28.6699C35.5471 28.8887 35.5471 29.1074 35.6018 29.3262C35.7626 29.5692 35.954 29.7879 36.176 29.9824C36.2033 30.5566 36.2307 31.1309 36.258 31.7051C36.5041 32.0605 36.7502 32.416 36.9963 32.7715C37.0372 33.2355 37.0509 33.7004 37.0373 34.166C37.2627 34.1403 37.4814 34.1677 37.6936 34.248C33.9068 38.7804 29.067 41.3506 23.174 41.959C21.9709 41.959 20.7678 41.959 19.5647 41.959C12.2987 41.0963 6.78894 37.5417 3.03537 31.2949C0.436988 26.5043 -0.273949 21.4457 0.902553 16.1191C1.18719 14.9371 1.57001 13.7886 2.05099 12.6738C2.07833 13.084 2.10568 13.4941 2.13302 13.9043C2.39928 14.0568 2.67271 14.1935 2.95333 14.3145C2.98068 14.916 3.00802 15.5176 3.03537 16.1191C3.3021 16.5157 3.54819 16.9258 3.77365 17.3496C3.94788 17.4092 4.12561 17.464 4.30685 17.5137C4.42545 17.4586 4.48014 17.3629 4.47091 17.2266C4.26554 16.7203 4.00578 16.2417 3.69162 15.791C3.63027 15.3824 3.58926 14.9723 3.56857 14.5605C3.75663 14.5395 3.93436 14.5669 4.10177 14.6426C4.16411 14.9969 4.21879 15.3523 4.26583 15.709C4.6526 16.3326 5.04909 16.9478 5.45529 17.5547C5.278 17.7579 5.20965 17.9904 5.25021 18.252C5.45261 18.5883 5.68503 18.9028 5.94748 19.1953C6.5157 19.3271 7.07624 19.4775 7.62912 19.6465C7.64707 19.5285 7.68809 19.4192 7.75216 19.3184C7.9662 19.3782 8.18495 19.4193 8.40841 19.4414C8.40439 19.6092 8.43179 19.787 8.49044 19.9746C8.95794 20.0847 9.42281 20.2077 9.88498 20.3438C10.2951 20.8086 10.7053 21.2734 11.1154 21.7383C11.6606 21.8064 12.2075 21.8475 12.7561 21.8613C12.8114 22.3565 12.8114 22.8487 12.7561 23.3379C12.453 23.5727 12.1385 23.7914 11.8127 23.9941C11.742 24.6521 11.6873 25.3084 11.6486 25.9629C12.1408 26.5644 12.633 27.166 13.1252 27.7676C13.1574 28.0246 13.2258 28.2707 13.3303 28.5059C14.0142 28.7378 14.6294 29.0933 15.176 29.5723C15.2033 30.7754 15.2307 31.9785 15.258 33.1816C15.3693 33.2538 15.4923 33.2812 15.6272 33.2637C15.5675 33.7995 15.4855 34.3327 15.3811 34.8633C15.59 35.2649 15.8361 35.6477 16.1194 36.0117C16.0174 36.5653 15.9764 37.1259 15.9963 37.6934C16.2424 38.1308 16.4885 38.5684 16.7346 39.0059C17.1037 39.4843 17.5276 39.9082 18.0061 40.2773C19.6601 40.6178 19.8242 40.276 18.4983 39.252C18.649 38.827 18.7311 38.3895 18.7444 37.9395C17.774 37.8903 17.651 37.5622 18.3752 36.9551C18.4154 36.849 18.4291 36.7396 18.4162 36.627C18.2225 36.6127 18.0312 36.5854 17.842 36.5449C17.8303 36.4004 17.8577 36.2636 17.924 36.1348C18.6785 36.0107 19.3757 35.7372 20.0158 35.3145C20.5056 34.4577 21.0662 33.6511 21.6975 32.8945C21.595 32.4985 21.4856 32.102 21.3694 31.7051C21.4853 31.4458 21.622 31.1997 21.7795 30.9668C22.1838 30.9518 22.5939 30.9381 23.01 30.9258C23.2698 30.7207 23.5295 30.5156 23.7893 30.3105C23.8825 29.4605 23.9918 28.6129 24.1174 27.7676C24.3594 27.3888 24.6329 27.0332 24.9377 26.7012C25.0064 26.4662 25.0747 26.2338 25.1428 26.0039C24.9016 25.9094 24.6555 25.8274 24.4045 25.7578C24.1541 25.48 23.9353 25.1792 23.7483 24.8555C22.6231 24.9564 21.5567 24.765 20.549 24.2812C20.4272 23.9253 20.3589 23.5562 20.344 23.1738C20.2246 22.8939 20.0742 22.6341 19.8928 22.3945C19.4553 22.3672 19.0178 22.3398 18.5803 22.3125C18.317 21.9089 18.0436 21.5124 17.76 21.123C17.5959 21.041 17.4319 20.959 17.2678 20.877C17.1916 20.9745 17.1643 21.0838 17.1858 21.2051C16.7201 21.2187 16.2553 21.205 15.7912 21.1641C15.6702 20.9747 15.5335 20.7969 15.3811 20.6309C14.9484 20.4781 14.5109 20.4235 14.0686 20.4668C13.746 20.8651 13.4042 21.2479 13.0432 21.6152C12.4874 21.4929 11.9269 21.3836 11.3615 21.2871C11.3187 20.6861 11.2777 20.0846 11.2385 19.4824C10.858 19.3346 10.4616 19.2526 10.049 19.2363C10.1252 18.9195 10.2482 18.6187 10.4182 18.334C10.4791 18.1748 10.4654 18.0244 10.3772 17.8828C9.87284 18.1363 9.38065 18.4371 8.9006 18.7852C8.02173 19.0133 7.52955 18.6852 7.42404 17.8008C7.51171 17.1334 7.75781 16.5318 8.16232 15.9961C8.58552 15.7982 8.99568 15.5795 9.39279 15.3398C10.2673 15.2988 11.1424 15.2851 12.0178 15.2988C11.9915 15.5776 12.0189 15.8511 12.0998 16.1191C12.3114 16.2181 12.5165 16.3274 12.7151 16.4473C12.7424 16.0098 12.7698 15.5722 12.7971 15.1348C13.0022 14.9297 13.2072 14.7246 13.4123 14.5195C13.8586 14.2645 14.2824 13.9774 14.6838 13.6582C14.7111 13.4668 14.7385 13.2754 14.7658 13.084C15.4468 12.2245 16.2808 11.5682 17.2678 11.1152C17.5222 10.7375 17.823 10.3957 18.1701 10.0898C18.416 10.0279 18.6211 10.0962 18.7854 10.2949C19.0584 9.97361 18.9627 9.80954 18.4983 9.80273C18.3612 9.18914 18.6073 8.98406 19.2365 9.1875C19.3629 9.31703 19.4587 9.46747 19.5236 9.63867C19.75 9.57116 19.9824 9.51645 20.2209 9.47461C20.3613 9.38593 20.4843 9.2765 20.5901 9.14648C20.7082 9.19964 20.8312 9.22696 20.9592 9.22852C20.9723 9.36789 20.9587 9.50463 20.9182 9.63867C20.6707 9.77156 20.6024 9.96302 20.7131 10.2129C21.1391 10.3741 21.5766 10.4834 22.0256 10.541C22.0387 10.4016 22.0251 10.2649 21.9846 10.1309C21.7095 9.97073 21.4223 9.83399 21.1233 9.7207C21.021 9.59716 21.021 9.47412 21.1233 9.35156C21.7072 9.29701 21.9123 8.9825 21.7385 8.4082C21.5336 8.25095 21.3148 8.11424 21.0822 7.99805C21.0343 7.58699 20.9796 7.17683 20.9182 6.76758C20.4887 7.08535 20.0102 7.24941 19.4826 7.25977C19.5099 6.93164 19.5373 6.60352 19.5647 6.27539C19.1233 6.2198 18.6858 6.13777 18.2522 6.0293C17.9922 6.10987 17.7598 6.24659 17.5549 6.43945C17.514 6.93089 17.5003 7.42307 17.5139 7.91602C17.1496 7.99185 16.7941 8.10123 16.4475 8.24414C16.2675 8.49466 16.1308 8.76816 16.0373 9.06445C15.8377 9.19193 15.619 9.24656 15.3811 9.22852C15.3811 8.81836 15.3811 8.4082 15.3811 7.99805C14.8325 8.03503 14.3403 7.8983 13.9045 7.58789C13.7581 7.30033 13.6897 6.99955 13.6994 6.68555C14.322 6.28531 14.9645 5.91617 15.6272 5.57812C15.92 5.47071 16.2208 5.40235 16.5295 5.37305C16.4479 5.78663 16.6119 5.97804 17.0217 5.94727C17.0077 5.83881 17.0351 5.74311 17.1037 5.66016C17.2589 5.58031 17.423 5.52562 17.5959 5.49609C17.3789 5.39056 17.2969 5.21282 17.3498 4.96289C17.5702 4.97635 17.789 4.96268 18.0061 4.92188C18.1701 4.75781 18.3342 4.59375 18.4983 4.42969C19.0119 4.30051 19.5314 4.24582 20.0569 4.26562C20.233 4.44911 20.4244 4.61317 20.6311 4.75781C20.1389 5.03125 19.6467 5.30469 19.1545 5.57812C19.7109 5.73872 20.2714 5.88911 20.8361 6.0293C20.8995 6.01742 20.9542 5.99008 21.0002 5.94727C21.0459 5.77379 21.1143 5.60973 21.2053 5.45508C21.5233 5.3979 21.8377 5.34321 22.1486 5.29102C22.4504 4.87981 22.3274 4.68841 21.7795 4.7168C21.7795 4.44336 21.7795 4.16992 21.7795 3.89648C21.0982 3.65863 20.4283 3.38519 19.7697 3.07617C19.0595 3.09221 18.4033 3.28361 17.801 3.65039C17.787 3.97797 17.8007 4.3061 17.842 4.63477C17.5702 4.59008 17.2968 4.54906 17.0217 4.51172C16.8702 4.30015 16.8292 4.06773 16.8986 3.81445C17.0795 3.60608 17.2846 3.42835 17.5139 3.28125C17.0994 3.26342 16.6892 3.2224 16.2834 3.1582C15.9723 3.20966 15.7809 3.38739 15.7092 3.69141C15.8678 3.712 16.0181 3.75302 16.1604 3.81445C16.1878 4.00701 16.1741 4.19841 16.1194 4.38867C15.812 4.37985 15.5112 4.42086 15.217 4.51172C15.1483 4.59468 15.121 4.69037 15.135 4.79883C14.6701 4.79883 14.2053 4.79883 13.7404 4.79883C13.6824 4.52927 13.6551 4.25583 13.6584 3.97852C14.3771 4.15742 14.924 3.93867 15.299 3.32227C15.2311 3.24723 15.1491 3.19254 15.0529 3.1582C14.8766 3.29348 14.7125 3.44387 14.5608 3.60938C14.2053 3.66407 13.8498 3.66407 13.4944 3.60938C13.1502 2.88605 12.576 2.63995 11.7717 2.87109C11.4668 3.14874 11.1387 3.39484 10.7873 3.60938C11.1143 3.65029 11.4424 3.66397 11.7717 3.65039C11.76 3.79496 11.7874 3.93168 11.8537 4.06055C11.8146 4.14074 11.76 4.2091 11.6897 4.26562C12.0715 4.30657 12.4543 4.32024 12.8381 4.30664C12.8452 4.48522 12.8999 4.64929 13.0022 4.79883C12.5101 4.87833 12.018 4.86466 11.5256 4.75781C11.4788 4.65896 11.424 4.56326 11.3615 4.4707C10.8981 4.39584 10.4605 4.24545 10.049 4.01953C9.68785 4.01428 9.33241 4.00061 8.98263 3.97852C12.1524 1.69632 15.6797 0.356473 19.5647 -0.0410156ZM31.7053 7.01367C31.787 7.00663 31.8553 7.03398 31.9104 7.0957C32.0091 7.86798 32.3782 8.46956 33.0178 8.90039C32.9038 9.10514 32.7398 9.24189 32.5256 9.31055C32.1456 9.3774 31.7628 9.40472 31.3772 9.39258C31.2375 8.87816 31.4289 8.63207 31.9514 8.6543C31.878 8.23134 31.632 7.94423 31.2131 7.79297C31.0067 7.55885 31.034 7.3401 31.2951 7.13672C31.4495 7.12047 31.5862 7.07945 31.7053 7.01367ZM30.5569 7.99805C30.8117 7.98584 31.0578 8.02686 31.2951 8.12109C31.2457 8.2708 31.191 8.42125 31.1311 8.57227C30.8007 8.87455 30.4179 9.03861 29.9826 9.06445C30.0045 8.60811 30.1959 8.25267 30.5569 7.99805ZM19.7287 10.459C20.1526 10.5673 20.1526 10.6629 19.7287 10.7461C19.6524 11.1387 19.4336 11.2617 19.0725 11.1152C19.0113 11.0138 18.984 10.9044 18.9904 10.7871C19.3415 10.8697 19.5876 10.7604 19.7287 10.459ZM18.2522 10.8691C18.4375 10.9384 18.5195 11.0751 18.4983 11.2793C18.3615 11.2793 18.2248 11.2793 18.0881 11.2793C18.0792 11.1141 18.1339 10.9774 18.2522 10.8691Z" fill="#EE7828"/>
</g>
<defs>
<clipPath id="clip0_57_2">
<rect width="42" height="42" fill="white"/>
</clipPath>
</defs>
</svg>
