<svg width="24" height="35" viewBox="0 0 24 35" fill="none" xmlns="http://www.w3.org/2000/svg">
<path d="M23.6264 11.8632C23.6264 13.4141 22.9082 15.6152 21.7848 18.0878C20.6683 20.5453 19.1765 23.2187 17.6802 25.6953C16.1846 28.1706 14.6884 30.4427 13.5659 32.0964C13.0047 32.923 12.5371 33.5947 12.2101 34.0595C12.1318 34.1708 12.0615 34.2702 12 34.357C11.9385 34.2702 11.8682 34.1708 11.7899 34.0595C11.4629 33.5947 10.9953 32.923 10.4341 32.0964C9.31156 30.4427 7.81539 28.1706 6.3198 25.6953C4.82345 23.2187 3.33168 20.5453 2.21518 18.0878C1.0918 15.6152 0.37364 13.4141 0.37364 11.8632C0.37364 5.5217 5.57489 0.37364 12 0.37364C18.4251 0.37364 23.6264 5.5217 23.6264 11.8632Z" fill="#EE7828" stroke="white" stroke-width="0.747279"/>
<path d="M20.0387 11.6672C20.0387 15.9613 16.4551 19.4602 12.0123 19.4602C7.56948 19.4602 3.98594 15.9613 3.98594 11.6672C3.98594 7.37304 7.56948 3.87413 12.0123 3.87413C16.4551 3.87413 20.0387 7.37304 20.0387 11.6672Z" fill="white" stroke="white" stroke-width="0.747279"/>
</svg>
