<svg width="35" height="35" viewBox="0 0 35 35" fill="none" xmlns="http://www.w3.org/2000/svg">
<path d="M30.2831 32.9416L16.2672 25.6528C15.902 25.4625 15.4565 25.4888 15.1113 25.7184L4.39393 33.0072C4.19858 33.1401 4.05167 33.3309 3.97472 33.5517C3.89777 33.7726 3.89482 34.0118 3.96631 34.2344C4.10885 34.6872 4.54093 35 5.02646 35H29.7597C30.2697 35 30.7174 34.6588 30.8399 34.1688C30.9646 33.6809 30.733 33.1756 30.2831 32.9416ZM34.9736 30.8634L31.6773 16.2881C31.5971 15.9316 31.341 15.6406 30.9958 15.5072C30.8258 15.4418 30.6421 15.4183 30.4608 15.4389C30.2794 15.4595 30.106 15.5235 29.9557 15.6253L19.2361 22.9141C18.9154 23.1328 18.735 23.4981 18.7595 23.8766C18.7703 24.064 18.8304 24.2456 18.9338 24.4035C19.0372 24.5614 19.1805 24.6904 19.3497 24.7778L33.3633 32.0666C33.5281 32.1519 33.7063 32.1956 33.8845 32.1956C34.1228 32.1956 34.3611 32.1213 34.5593 31.9703C34.7287 31.8439 34.8578 31.6725 34.9312 31.4763C35.0046 31.2802 35.0193 31.0675 34.9736 30.8634ZM27.2184 13.8928C27.1473 13.6702 27.0056 13.4757 26.8142 13.3376C26.6227 13.1996 26.3914 13.1251 26.1538 13.125H15.9888C14.1402 16.4128 11.4052 19.5563 10.2805 20.7856C9.64794 21.4769 8.74146 21.875 7.79489 21.875C6.84833 21.875 5.94185 21.4769 5.30932 20.7856C4.87501 20.3109 4.20239 19.5519 3.43178 18.6113L0.736847 30.5244C0.68897 30.7389 0.707738 30.9627 0.790724 31.1666C0.87371 31.3706 1.0171 31.5454 1.20233 31.6684C1.38942 31.7931 1.60769 31.8544 1.82373 31.8544C2.04645 31.8544 2.26694 31.7909 2.45848 31.6597L26.7864 15.1156C27.1895 14.8466 27.361 14.35 27.2184 13.8928Z" fill="#7D8EA0"/>
<path d="M7.79525 0C3.49673 0 0 3.43438 0 7.65625C0 11.585 6.25402 18.5434 6.96673 19.3244C7.17832 19.5541 7.47899 19.6875 7.79525 19.6875C8.11152 19.6875 8.41219 19.5541 8.62378 19.3244C9.33649 18.5434 15.5905 11.585 15.5905 7.65625C15.5905 3.43438 12.0938 0 7.79525 0ZM7.79525 10.9375C5.95112 10.9375 4.45443 9.4675 4.45443 7.65625C4.45443 5.845 5.95112 4.375 7.79525 4.375C9.63939 4.375 11.1361 5.845 11.1361 7.65625C11.1361 9.4675 9.63939 10.9375 7.79525 10.9375Z" fill="#EE7828"/>
</svg>
