<svg width="99" height="100" viewBox="0 0 99 100" fill="none" xmlns="http://www.w3.org/2000/svg">
<g id="Group">
<path id="Vector" d="M84.9813 94.1188L45.6501 73.2938C44.6251 72.75 43.3751 72.825 42.4063 73.4813L12.3313 94.3063C11.7831 94.686 11.3708 95.2312 11.1549 95.8621C10.939 96.4931 10.9307 97.1765 11.1313 97.8125C11.5313 99.1063 12.7438 100 14.1063 100H83.5126C84.9438 100 86.2001 99.025 86.5438 97.625C86.8938 96.2313 86.2438 94.7875 84.9813 94.1188ZM98.1438 88.1813L88.8938 46.5375C88.6688 45.5188 87.9501 44.6875 86.9813 44.3063C86.5044 44.1193 85.9888 44.0523 85.4799 44.1112C84.971 44.17 84.4843 44.3529 84.0626 44.6438L53.9813 65.4688C53.0813 66.0938 52.5751 67.1375 52.6438 68.2188C52.6742 68.7544 52.8428 69.2731 53.133 69.7243C53.4232 70.1755 53.8253 70.5439 54.3001 70.7938L93.6251 91.6188C94.0876 91.8625 94.5876 91.9875 95.0876 91.9875C95.7563 91.9875 96.4251 91.775 96.9813 91.3438C97.4567 90.9825 97.8188 90.4928 98.0248 89.9324C98.2308 89.372 98.2721 88.7644 98.1438 88.1813ZM76.3813 39.6937C76.1816 39.0578 75.7842 38.5021 75.2469 38.1076C74.7096 37.713 74.0604 37.5002 73.3938 37.5H44.8688C39.6813 46.8938 32.0063 55.875 28.8501 59.3875C27.0751 61.3625 24.5313 62.5 21.8751 62.5C19.2188 62.5 16.6751 61.3625 14.9001 59.3875C13.6813 58.0313 11.7938 55.8625 9.6313 53.175L2.0688 87.2125C1.93445 87.8255 1.98712 88.4647 2.21999 89.0475C2.45286 89.6302 2.85523 90.1297 3.37505 90.4813C3.90005 90.8375 4.51255 91.0125 5.1188 91.0125C5.7438 91.0125 6.36255 90.8313 6.90005 90.4563L75.1688 43.1875C76.3001 42.4188 76.7813 41 76.3813 39.6937Z" fill="#7D8EA0"/>
<path id="Vector_2" d="M21.875 0C9.8125 0 0 9.8125 0 21.875C0 33.1 17.55 52.9813 19.55 55.2125C20.1438 55.8688 20.9875 56.25 21.875 56.25C22.7625 56.25 23.6063 55.8688 24.2 55.2125C26.2 52.9813 43.75 33.1 43.75 21.875C43.75 9.8125 33.9375 0 21.875 0ZM21.875 31.25C16.7 31.25 12.5 27.05 12.5 21.875C12.5 16.7 16.7 12.5 21.875 12.5C27.05 12.5 31.25 16.7 31.25 21.875C31.25 27.05 27.05 31.25 21.875 31.25Z" fill="#EE7828"/>
</g>
</svg>
