<svg width="35" height="35" viewBox="0 0 35 35" fill="none" xmlns="http://www.w3.org/2000/svg">
<g clip-path="url(#clip0_2381_1243)">
<path d="M13.7542 5.48201C13.6425 5.44045 13.5246 5.4103 13.3984 5.4103H6.03183C5.60711 4.21928 4.47959 3.31851 3.14453 3.31851C1.44826 3.31851 0.0683594 4.69841 0.0683594 6.39468C0.0683594 8.09095 1.44826 9.47085 3.14453 9.47085C4.47959 9.47085 5.60711 8.63153 6.03183 7.44058H12.7646L11.7392 9.49136H16.4746V0L13.7542 5.48201Z" fill="#EE7828"/>
<path d="M5.58692 21.8167L3.63574 25.6777C3.96031 25.8604 4.29726 25.9987 4.64862 26.0684C5.67299 26.2696 6.73645 25.9362 7.63169 25.1211C9.88577 23.0654 12.9139 23.0663 15.1659 25.1222C15.5735 25.4942 16.0167 25.7544 16.4747 25.9214V21.8167H5.58692Z" fill="#EE7828"/>
<path d="M10.7138 11.5626L9.68844 13.6134H6.03183C5.60711 12.4224 4.47959 11.5216 3.14453 11.5216C1.44826 11.5216 0.0683594 12.9015 0.0683594 14.5978C0.0683594 16.294 1.44826 17.674 3.14453 17.674C4.47959 17.674 5.60711 16.8346 6.03183 15.6437H8.66305L6.61227 19.7452H16.4746V11.5626H10.7138Z" fill="#EE7828"/>
<path d="M34.8235 33.516L24.2862 11.5421H28.9682C29.3929 12.7331 30.5204 13.5724 31.8555 13.5724C33.5517 13.5724 34.9316 12.1925 34.9316 10.4962C34.9316 8.79997 33.5517 7.42007 31.8555 7.42007C30.5204 7.42007 29.3929 8.32091 28.9682 9.51187H23.2608L18.5391 0V35H33.9062C34.2617 35 34.5912 34.8158 34.7784 34.5134C34.9657 34.2109 34.9827 33.8334 34.8235 33.516Z" fill="#EE7828"/>
<path d="M13.7843 26.6361C12.3122 25.2943 10.4858 25.2943 9.01375 26.6361C7.90325 27.6494 6.59745 28.1802 5.25665 28.1802C4.92216 28.1802 4.58577 28.1472 4.2493 28.08C3.7133 27.9737 3.206 27.7707 2.72045 27.5088L0.176794 33.516C0.017585 33.8334 0.0346065 34.2109 0.221843 34.5133C0.409079 34.8158 0.738571 35 1.09404 35H16.4749V28.0624C15.5088 27.856 14.5926 27.3744 13.7843 26.6361Z" fill="#EE7828"/>
</g>
<defs>
<clipPath id="clip0_2381_1243">
<rect width="35" height="35" fill="white"/>
</clipPath>
</defs>
</svg>
