<svg width="70" height="68" viewBox="0 0 70 68" fill="none" xmlns="http://www.w3.org/2000/svg">
<path fill-rule="evenodd" clip-rule="evenodd" d="M22.6353 51.7218C23.8117 52.6609 23.9952 54.3878 23.0562 55.5643L19.3325 60.2054C18.3827 61.3711 16.6557 61.5654 15.4901 60.6264C14.8424 60.0975 14.4647 59.3204 14.4647 58.4893C14.4647 57.8849 14.6698 57.302 15.0799 56.7839L18.6957 52.1104C19.1382 51.5276 19.7858 51.1606 20.5198 51.0742C20.6277 51.0635 20.7356 51.0527 20.8436 51.0527C21.4696 51.0527 22.074 51.2685 22.6353 51.7218ZM17.1414 50.5885L13.5041 55.2729C13.0184 55.8989 12.3168 56.2982 11.5181 56.3846C10.7302 56.4817 9.95305 56.2659 9.31624 55.7694C8.02104 54.7656 7.79437 52.8875 8.79816 51.5815L12.4355 46.8972C12.9212 46.2712 13.6228 45.861 14.4215 45.7639C14.551 45.7531 14.6805 45.7423 14.8101 45.7423C15.4685 45.7423 16.1053 45.9582 16.6234 46.3683C17.3573 46.9512 17.7782 47.8146 17.7782 48.7429C17.7782 49.4121 17.5516 50.0489 17.1414 50.5885ZM9.83432 36.5248L6.58552 40.9285C6.57472 40.9285 6.57472 40.9393 6.57472 40.9393L5.9595 41.7704C5.85157 41.9107 5.72205 41.9538 5.6357 41.9646C5.49539 41.9862 5.36586 41.9538 5.25793 41.8675L0.185045 37.8632C-0.0200287 37.6905 -0.0632022 37.399 0.0986985 37.1832L12.3924 20.4966C12.5003 20.3563 12.6406 20.3239 12.7162 20.3131H12.7809C12.8565 20.3131 12.9644 20.3239 13.0723 20.4103L18.1884 24.447C18.2839 24.5199 18.3473 24.627 18.3654 24.7458C18.3836 24.8646 18.3549 24.9857 18.2855 25.0838L18.1236 25.2997L18.0913 25.332L11.0324 34.9058L11.0108 34.9274L9.83432 36.5248ZM28.1075 60.3458L28.0643 60.4105L25.5063 63.8428C25.1285 64.3393 24.5889 64.6739 23.9629 64.7602C23.3368 64.8466 22.7108 64.6955 22.2791 64.3717L22.0848 64.2098C21.5667 63.8212 21.2429 63.2708 21.1566 62.6339C21.0702 61.9863 21.2429 61.3495 21.6531 60.8422L24.4054 57.4315C24.8587 56.8595 25.5495 56.5573 26.2403 56.5573C26.5489 56.5566 26.8547 56.617 27.1399 56.7351C27.4251 56.8533 27.6841 57.0267 27.9018 57.2455C28.1196 57.4643 28.2919 57.724 28.4087 58.0098C28.5255 58.2955 28.5846 58.6015 28.5824 58.9102C28.5824 59.3851 28.4421 59.8493 28.1723 60.2378C28.1669 60.2486 28.1588 60.2621 28.1507 60.2756C28.1426 60.2891 28.1345 60.3026 28.1291 60.3134C28.1291 60.3242 28.1183 60.335 28.1075 60.3458ZM51.6694 26.3035L54.0224 32.1103L59.1061 44.6846L56.343 45.0731C55.976 45.1271 55.5766 45.1379 55.1125 45.1271C54.929 45.1271 54.7456 45.1163 54.4865 45.0839C54.2942 45.0743 54.1019 45.039 53.8944 45.0009C53.8689 44.9962 53.8432 44.9915 53.8173 44.9868C53.6662 44.9652 53.5151 44.9328 53.31 44.8681C53.1589 44.8357 53.0078 44.7817 52.8675 44.7277C52.6624 44.6522 52.4466 44.5658 52.2631 44.4903C51.7018 44.2528 51.1514 43.9074 50.6225 43.4973L39.7536 34.787L39.1707 34.3229C38.2317 33.5566 37.0768 33.168 35.9111 33.168C35.08 33.168 34.2489 33.3623 33.4934 33.7617L32.3169 34.3769C30.1582 35.5102 27.5678 35.5642 25.366 34.5064C24.8803 34.2798 24.7076 33.8048 24.7076 33.4487C24.7076 33.222 24.7724 32.8982 25.0638 32.6176L29.5322 28.3326L29.543 28.3218L30.6979 27.2101C31.24 26.6951 31.8913 26.3093 32.6034 26.0812C33.3155 25.8532 34.0698 25.789 34.8102 25.8933L46.9851 27.6958C48.1292 27.8577 49.3057 27.631 50.2771 27.0806L51.6694 26.3035ZM60.4736 20.4956C60.5183 20.5422 60.5525 20.5977 60.574 20.6585L69.036 41.5869C69.1331 41.8351 69.0252 42.1049 68.7877 42.2129L62.1606 45.1379C61.9555 45.235 61.6965 45.1703 61.5346 44.8896L54.4865 27.4907L53.5151 25.1054L53.051 23.9613C52.9539 23.7238 53.0726 23.4432 53.3208 23.3353L59.9372 20.3995C59.9957 20.3708 60.0597 20.355 60.1249 20.3532C60.19 20.3513 60.2548 20.3634 60.3149 20.3887C60.3748 20.4126 60.4289 20.4491 60.4736 20.4956Z" fill="#7D8EA0"/>
<path fill-rule="evenodd" clip-rule="evenodd" d="M34.5404 19.1151C39.8075 19.1151 44.0925 14.8301 44.0925 9.56293C44.0925 4.29576 39.8075 0 34.5404 0C29.2732 0 24.9774 4.28497 24.9774 9.56293C24.9774 14.8301 29.2732 19.1151 34.5404 19.1151ZM30.1295 9.09187C29.9989 9.14603 29.8803 9.22542 29.7805 9.32547C29.5795 9.52485 29.4655 9.79567 29.4635 10.0788C29.4615 10.3619 29.5715 10.6343 29.7697 10.8365L32.0795 13.1463C32.2845 13.3406 32.5544 13.4593 32.8458 13.4593C33.1372 13.4593 33.4071 13.3514 33.6121 13.1463L39.2894 7.46901C39.3894 7.36909 39.4686 7.25046 39.5227 7.1199C39.5768 6.98934 39.6046 6.8494 39.6046 6.70808C39.6046 6.56676 39.5768 6.42683 39.5227 6.29627C39.4686 6.16571 39.3894 6.04708 39.2894 5.94715C39.1895 5.84722 39.0709 5.76795 38.9403 5.71387C38.8098 5.65979 38.6698 5.63196 38.5285 5.63196C38.3872 5.63196 38.2473 5.65979 38.1167 5.71387C37.9861 5.76795 37.8675 5.84722 37.7676 5.94715L32.8458 10.8689L31.3023 9.32547C31.2025 9.22542 31.0839 9.14603 30.9533 9.09187C30.8227 9.03771 30.6828 9.00983 30.5414 9.00983C30.4001 9.00983 30.2601 9.03771 30.1295 9.09187Z" fill="#EE7828"/>
<path d="M54.2931 47.2103C54.0665 47.1995 53.775 47.1455 53.4836 47.0915C53.2677 47.0591 53.0087 47.0052 52.7497 46.9188C52.577 46.8757 52.3611 46.8001 52.156 46.7353C51.9186 46.649 51.6703 46.5519 51.4221 46.4439C50.6881 46.1201 49.9866 45.6884 49.3066 45.1595L37.844 35.9851C36.8942 35.2188 35.5882 35.0893 34.5089 35.6506L33.3324 36.2658C31.9678 36.9794 30.4562 37.3664 28.9166 37.3964C27.377 37.4264 25.8515 37.0985 24.4602 36.4385C23.8904 36.1716 23.4087 35.7473 23.0721 35.2157C22.7355 34.684 22.558 34.0672 22.5606 33.4379C22.5606 32.5313 22.9168 31.6894 23.5752 31.0526L26.09 28.6457H21.6324C20.8229 28.6457 20.0457 28.3542 19.4521 27.8254L19.1391 27.5339L12.7602 36.201C12.7278 36.2334 12.7062 36.2766 12.6739 36.3089L12.1018 37.0861L10.3317 39.493L8.96094 41.3495L9.61933 41.8459C10.5584 42.5259 11.1304 43.6592 11.1304 44.8681V45.1811C12.0048 44.2626 13.1894 43.702 14.4541 43.6083C15.7188 43.5145 16.9731 43.8943 17.9734 44.6738C19.2362 45.6668 19.9486 47.1455 19.9486 48.7429C19.9486 48.8293 19.927 48.9156 19.927 49.002C20.0457 48.9804 20.1645 48.9372 20.2832 48.9264C21.6 48.7753 22.8952 49.1423 23.9313 49.9842C24.5853 50.5103 25.0969 51.1921 25.4194 51.967C25.7418 52.742 25.8648 53.5855 25.777 54.4202C26.8671 54.3015 28.0005 54.5821 28.9503 55.2945C30.0944 56.1472 30.7636 57.464 30.7636 58.9103C30.7636 58.9427 30.7528 58.975 30.7528 59.0182C31.8693 58.8385 33.0131 59.0726 33.9692 59.6766C35.286 60.5293 36.0739 61.9756 36.0739 63.5514C36.0739 64.4581 35.8149 65.3215 35.3399 66.0555L35.3723 66.0771C36.3545 66.8218 37.8548 66.7355 38.7291 65.8504C39.2579 65.3215 39.5278 64.6092 39.4738 63.8644C39.4306 63.1305 39.0637 62.4505 38.47 61.9972L32.048 56.9891C31.5839 56.6221 31.4975 55.9421 31.8645 55.478C32.2315 55.0139 32.9114 54.9275 33.3755 55.2945L40.715 61.015C41.6325 61.7165 42.9277 61.6302 43.748 60.8099C44.2337 60.3242 44.4711 59.6658 44.4172 58.9858C44.3632 58.3058 44.0178 57.6906 43.4566 57.3021C42.8953 56.9135 43.4566 57.3021 43.4458 57.3021L36.0091 51.9809C35.7883 51.8088 35.6426 51.5579 35.6027 51.2807C35.5627 51.0036 35.6316 50.7217 35.7949 50.4943C35.9582 50.2668 36.2032 50.1114 36.4785 50.0605C36.7539 50.0097 37.0382 50.0674 37.272 50.2216L45.054 55.791C46.2413 56.6329 47.8926 56.4278 48.8317 55.3161C49.339 54.7117 49.5656 53.9453 49.4685 53.1682C49.3713 52.3911 48.972 51.7003 48.3352 51.2362L44.6007 48.4623L40.1646 45.1703C39.6897 44.8141 39.5817 44.1449 39.9379 43.6592C40.0243 43.5405 40.1322 43.4542 40.2401 43.3894L40.2509 43.3786C40.6179 43.1627 41.082 43.1735 41.449 43.4326L50.4723 50.1029C51.4545 50.826 52.9008 50.7181 53.7966 49.8438C54.4766 49.1639 54.7033 48.1493 54.4118 47.2426C54.3687 47.221 54.3255 47.221 54.2931 47.2103Z" fill="#7D8EA0"/>
<path d="M33.0075 65.667L33.5147 64.8791C33.7738 64.4905 33.9033 64.0264 33.9033 63.5407C33.9033 62.6988 33.4824 61.9217 32.7916 61.4792C32.0037 60.9719 30.9783 60.9719 30.1688 61.4576C30.0825 61.5007 30.0501 61.5439 29.9961 61.5871C29.9853 61.5979 29.9637 61.6087 29.9529 61.6195C29.9421 61.6195 29.9421 61.6303 29.9313 61.6411C29.8882 61.6734 29.8342 61.7382 29.791 61.7814C29.4888 62.1591 28.7225 63.1521 28.0425 64.048C27.6539 64.5984 27.5028 65.2568 27.6216 65.9152C27.7511 66.5844 28.1289 67.1457 28.7009 67.5127L28.852 67.6098C29.3809 67.9552 30.0393 68.0847 30.6653 67.9444C31.3129 67.8041 31.8634 67.4263 32.2195 66.8758L33.0075 65.667C32.9967 65.6778 32.9967 65.6778 33.0075 65.667Z" fill="#7D8EA0"/>
</svg>
