<svg width="33" height="32" viewBox="0 0 33 32" fill="none" xmlns="http://www.w3.org/2000/svg">
<g id="Group 2422">
<g id="Group">
<path id="Vector" d="M16.4997 0.357422C13.421 0.357422 10.4115 1.27036 7.85164 2.98078C5.29181 4.69121 3.29666 7.1223 2.1185 9.96664C0.940338 12.811 0.632077 15.9408 1.2327 18.9603C1.83332 21.9799 3.31585 24.7535 5.49281 26.9304C7.66977 29.1074 10.4434 30.5899 13.4629 31.1905C16.4824 31.7912 19.6123 31.4829 22.4566 30.3047C25.3009 29.1266 27.732 27.1314 29.4425 24.5716C31.1529 22.0118 32.0658 19.0022 32.0658 15.9235C32.0611 11.7966 30.4196 7.84005 27.5014 4.92186C24.5832 2.00368 20.6266 0.36216 16.4997 0.357422Z" fill="#7D8EA0"/>
</g>
<path id="Vector_2" d="M9.64868 18.4537C9.91694 18.4548 10.1802 18.381 10.4088 18.2405C10.6379 18.0997 10.8231 17.8976 10.9433 17.657L10.9437 17.6563L11.7189 16.1001L13.7322 22.1373C13.7322 22.1374 13.7322 22.1374 13.7322 22.1374C13.7322 22.1375 13.7322 22.1375 13.7322 22.1376C13.8278 22.4242 14.011 22.6736 14.2561 22.8504L14.6436 22.3132L14.2561 22.8504C14.5012 23.0273 14.7957 23.1225 15.0979 23.1228H15.0984H15.128H15.1407L15.1533 23.1223C15.465 23.1104 15.7645 22.9976 16.0066 22.8009C16.2486 22.6043 16.4204 22.3345 16.496 22.032C16.496 22.032 16.496 22.0319 16.496 22.0318C16.496 22.0318 16.496 22.0317 16.496 22.0317L18.2582 14.9899L19.933 21.2759L19.9331 21.2765C20.0062 21.5497 20.1581 21.7954 20.3698 21.9828C20.5815 22.1703 20.8438 22.2914 21.1238 22.3308C21.4038 22.3703 21.6893 22.3265 21.9446 22.2049C22.1999 22.0832 22.4138 21.8891 22.5595 21.6468L22.5599 21.6462L24.4754 18.4537H27.5513C27.9334 18.4537 28.2999 18.3019 28.57 18.0317C28.8402 17.7616 28.992 17.3951 28.992 17.013C28.992 16.6309 28.8402 16.2645 28.57 15.9943C28.2999 15.7241 27.9334 15.5723 27.5513 15.5723H23.6598H23.6597C23.4111 15.5724 23.1667 15.6367 22.9504 15.7592C22.734 15.8816 22.553 16.058 22.425 16.2711L22.4249 16.2713L21.8398 17.2458L19.6035 8.85851L19.6035 8.85827C19.5216 8.55169 19.3408 8.28072 19.0892 8.08742C18.8375 7.89413 18.5291 7.78932 18.2118 7.78927H18.2117H18.2054V7.78925L18.1999 7.7893C17.8806 7.79194 17.5711 7.90065 17.3202 8.09832L17.7286 8.61658L17.3202 8.09832C17.0695 8.29591 16.8914 8.57119 16.8141 8.88092C16.8141 8.88106 16.814 8.8812 16.814 8.88134L14.9002 16.5341L13.3514 11.8878L13.3514 11.8877C13.2613 11.6174 13.093 11.3799 12.868 11.2053C12.6429 11.0306 12.3711 10.9266 12.0869 10.9064C11.8027 10.8862 11.5189 10.9507 11.2713 11.0918L11.5993 11.6673L11.2713 11.0918C11.0238 11.2329 10.8237 11.4442 10.6962 11.699L10.6962 11.6991L8.7599 15.5723H5.75877C5.37668 15.5723 5.01023 15.7241 4.74005 15.9943C4.46987 16.2645 4.31808 16.6309 4.31808 17.013C4.31808 17.3951 4.46987 17.7616 4.74005 18.0317C5.01023 18.3019 5.37668 18.4537 5.75877 18.4537H9.64868ZM9.64868 18.4537C9.64802 18.4537 9.64735 18.4537 9.64668 18.4537L9.6503 17.7913M9.64868 18.4537H9.6503V17.7913M9.6503 17.7913C9.79559 17.7921 9.93821 17.7522 10.062 17.6762C10.1858 17.6001 10.2858 17.4909 10.3508 17.3609L9.6503 17.7913Z" fill="#7D8EA0" stroke="#EEF2F6" stroke-width="1.32478"/>
<path id="Rectangle 547" d="M27.707 14.9893H32.9995V19.0364H27.707L28.4287 17.0129L27.707 14.9893Z" fill="#EEF2F6"/>
<path id="Rectangle 548" d="M5.29297 14.9893H0.000491142V19.0364H5.29297L4.57127 17.0129L5.29297 14.9893Z" fill="#EEF2F6"/>
</g>
</svg>
