<svg width="35" height="35" viewBox="0 0 35 35" fill="none" xmlns="http://www.w3.org/2000/svg">
<path d="M17.4993 0C14.2339 0 11.0419 1.02636 8.3268 2.94928C5.61175 4.87221 3.49562 7.60533 2.24601 10.803C0.996411 14.0007 0.669458 17.5194 1.3065 20.9141C1.94354 24.3087 3.51597 27.4269 5.82493 29.8744C8.1339 32.3218 11.0757 33.9885 14.2783 34.6637C17.481 35.339 20.8006 34.9924 23.8174 33.6679C26.8342 32.3433 29.4127 30.1003 31.2268 27.2225C33.041 24.3446 34.0093 20.9612 34.0093 17.5C34.0042 12.8603 32.2632 8.41224 29.1681 5.13151C26.0729 1.85078 21.8764 0.00532642 17.4993 0Z" fill="#EE7828"/>
<path d="M10.2337 20.262C10.5189 20.2632 10.796 20.1798 11.0334 20.0252C11.271 19.8705 11.4577 19.6518 11.5773 19.3982L11.5777 19.3975L12.4357 17.5718L14.5992 24.4488C14.5993 24.4489 14.5993 24.4489 14.5993 24.449C14.6936 24.7488 14.8764 25.0163 15.1289 25.2095L15.5313 24.6833L15.1289 25.2095C15.3822 25.4031 15.6915 25.5109 16.0132 25.5111H16.0137H16.0451H16.0585L16.0719 25.5106C16.4037 25.4971 16.7172 25.3699 16.9662 25.1555C17.2145 24.9417 17.3849 24.6537 17.4592 24.3382L19.364 16.2703L21.1779 23.4868L21.178 23.4874C21.25 23.7725 21.4007 24.0342 21.6172 24.2373C21.834 24.4409 22.1074 24.5764 22.4046 24.6208C22.7022 24.6653 23.0041 24.6155 23.2714 24.4805L22.9728 23.8892L23.2715 24.4804C23.5382 24.3457 23.7556 24.1339 23.9013 23.8771L23.9016 23.8765L25.9477 20.262H29.2217C29.6292 20.262 30.0116 20.0901 30.2873 19.7979C30.5617 19.507 30.7096 19.1203 30.7096 18.7246C30.7096 18.3289 30.5617 17.9422 30.2873 17.6513C30.0116 17.3591 29.6292 17.1872 29.2217 17.1872H25.0942H25.0941C24.8298 17.1873 24.5723 17.26 24.3471 17.3951C24.1221 17.53 23.9385 17.7215 23.8105 17.9474L23.8104 17.9475L23.1513 19.1113L20.7555 9.58727L20.7555 9.58703C20.6749 9.26734 20.4953 8.97762 20.2367 8.76702C19.9773 8.55582 19.6537 8.43727 19.3158 8.43722H19.3157H19.3091V8.4372L19.3033 8.43725C18.9632 8.44023 18.6388 8.56313 18.3805 8.7789L18.8051 9.2873L18.3805 8.7789C18.123 8.99395 17.9463 9.28796 17.8703 9.61076C17.8703 9.61089 17.8702 9.61103 17.8702 9.61116L15.8086 18.3493L14.1262 12.9994L14.1262 12.9993C14.0372 12.7166 13.8694 12.4623 13.6381 12.2721C13.4063 12.0814 13.1216 11.9644 12.8195 11.9416C12.5172 11.9188 12.2178 11.992 11.9599 12.1478C11.7027 12.3032 11.5006 12.5322 11.3739 12.8008L11.3738 12.8009L9.30511 17.1872H6.10773C5.70026 17.1872 5.31786 17.3591 5.0422 17.6513C4.76778 17.9422 4.61984 18.3289 4.61984 18.7246C4.61984 19.1203 4.76778 19.507 5.0422 19.7979C5.31786 20.0901 5.70026 20.262 6.10773 20.262H10.2337ZM10.2337 20.262C10.2329 20.262 10.2322 20.262 10.2314 20.262L10.2352 19.5996M10.2337 20.262H10.2352V19.5996M10.2352 19.5996C10.3893 19.6005 10.5406 19.5556 10.6719 19.4701C10.8032 19.3846 10.9093 19.2619 10.9782 19.1157L10.2352 19.5996Z" fill="#EE7828" stroke="white" stroke-width="1.32478"/>
<path d="M29.3867 16.4492H35.0001V20.9992H29.3867L30.1522 18.7242L29.3867 16.4492Z" fill="white"/>
<path d="M5.61328 16.4492H-0.000119686V20.9992H5.61328L4.84782 18.7242L5.61328 16.4492Z" fill="white"/>
</svg>
