<svg width="100" height="94" viewBox="0 0 100 94" fill="none" xmlns="http://www.w3.org/2000/svg">
<g id="Group 2422">
<g id="Group">
<path id="Vector" d="M49.8203 0C40.5246 0 31.4376 2.7565 23.7085 7.92093C15.9794 13.0854 9.95531 20.4257 6.39799 29.0139C2.84068 37.602 1.90992 47.0521 3.72343 56.1692C5.53693 65.2863 10.0132 73.6609 16.5863 80.234C23.1594 86.8071 31.534 91.2834 40.6511 93.0969C49.7682 94.9104 59.2183 93.9796 67.8064 90.4223C76.3946 86.865 83.7349 80.8409 88.8994 73.1118C94.0638 65.3827 96.8203 56.2957 96.8203 47C96.806 34.5392 91.8496 22.5929 83.0385 13.7818C74.2274 4.97067 62.2811 0.0143052 49.8203 0Z" fill="#7D8EA0"/>
</g>
<path id="Vector_2" d="M67.7104 48.0503L65.9439 50.9928L59.1916 25.6684L59.1914 25.6676C58.9443 24.742 58.3984 23.9238 57.6385 23.3402L56.4202 24.9263L57.6385 23.3402C56.8787 22.7565 55.9475 22.4401 54.9893 22.4399H54.9891H54.9703H54.962L54.9537 22.44C53.9893 22.448 53.055 22.7762 52.2975 23.3731C51.5403 23.9697 51.0028 24.8008 50.7693 25.736C50.7692 25.7365 50.7691 25.7369 50.769 25.7373L44.9905 48.8438L40.3142 34.8149L40.3141 34.8146C40.042 33.9986 39.534 33.2815 38.8544 32.7541C38.1748 32.2267 37.354 31.9127 36.496 31.8517C35.6379 31.7907 34.781 31.9855 34.0336 32.4115C33.2862 32.8374 32.6819 33.4754 32.2971 34.2448L32.2969 34.2452L26.4506 45.9399H17.3891C16.2354 45.9399 15.1289 46.3982 14.3131 47.214C13.4974 48.0298 13.0391 49.1362 13.0391 50.2899C13.0391 51.4436 13.4974 52.5501 14.3131 53.3659C15.1289 54.1816 16.2354 54.6399 17.3891 54.6399H29.1346C29.9444 54.6431 30.7391 54.4202 31.4292 53.9962L30.3821 52.2922L31.4292 53.9962C32.1211 53.5711 32.6802 52.9608 33.0431 52.2344L33.0442 52.2322L35.385 47.5335L41.4637 65.7622C41.4638 65.7624 41.4639 65.7626 41.464 65.7629C41.7524 66.6284 42.3057 67.3814 43.0456 67.9152C43.7857 68.4492 44.6749 68.7369 45.5875 68.7376H45.5891H45.6784H45.7166L45.7548 68.7361C46.696 68.7001 47.6 68.3596 48.3311 67.7658L47.0702 66.2134L48.3311 67.7658C49.0619 67.1722 49.5804 66.3576 49.8087 65.4441C49.8088 65.4438 49.8089 65.4435 49.809 65.4432L55.1296 44.1814L60.1864 63.1611L60.1869 63.163C60.4075 63.9879 60.866 64.7296 61.5053 65.2957C62.1446 65.8618 62.9364 66.2272 63.7819 66.3464C64.6275 66.4656 65.4894 66.3333 66.2602 65.9661L65.4 64.1605L66.2602 65.966C67.0311 65.5988 67.6768 65.0127 68.1169 64.2809L68.118 64.2792L73.9015 54.6399H83.189C84.3427 54.6399 85.4492 54.1816 86.265 53.3659L84.8507 51.9516L86.265 53.3658C87.0807 52.5501 87.539 51.4436 87.539 50.2899C87.539 49.1362 87.0807 48.0298 86.265 47.214L84.8507 48.6282L86.265 47.214C85.4492 46.3982 84.3427 45.9399 83.189 45.9399H71.439H71.4387C70.688 45.9401 69.9503 46.1344 69.297 46.5041C68.6437 46.8738 68.0973 47.4063 67.7107 48.0497L67.7104 48.0503Z" fill="#EE7828" stroke="white" stroke-width="4"/>
<path id="Rectangle 547" d="M83.6602 44.1799H99.6402V56.3999H83.6602L85.8392 50.2899L83.6602 44.1799Z" fill="white"/>
<path id="Rectangle 548" d="M15.9805 44.1799H0.000469208V56.3999H15.9805L13.8014 50.2899L15.9805 44.1799Z" fill="white"/>
</g>
</svg>
