<svg width="35" height="36" viewBox="0 0 35 36" fill="none" xmlns="http://www.w3.org/2000/svg">
<path d="M17.4996 0C14.2343 0 11.0424 1.02636 8.32748 2.94928C5.61253 4.87221 3.49649 7.60533 2.24694 10.803C0.997388 14.0007 0.670448 17.5194 1.30746 20.9141C1.94448 24.3087 3.51684 27.4269 5.82571 29.8744C8.13458 32.3218 11.0763 33.9885 14.2788 34.6637C17.4813 35.339 20.8007 34.9924 23.8174 33.6679C26.8341 32.3433 29.4125 30.1003 31.2266 27.2225C33.0406 24.3446 34.0089 20.9612 34.0089 17.5C34.0039 12.8603 32.2629 8.41224 29.1679 5.13151C26.0729 1.85078 21.8766 0.00532642 17.4996 0Z" fill="#7D8EA0"/>
<mask id="path-2-outside-1_2040_231" maskUnits="userSpaceOnUse" x="1.28223" y="4.09961" width="33" height="32" fill="black">
<rect fill="white" x="1.28223" y="4.09961" width="33" height="32"/>
<path d="M25.5606 19.5996H29.2208C29.4397 19.5996 29.6496 19.5074 29.8045 19.3433C29.9593 19.1792 30.0462 18.9567 30.0462 18.7246C30.0462 18.4925 29.9593 18.27 29.8045 18.1059C29.6496 17.9418 29.4397 17.8496 29.2208 17.8496H25.0934C24.951 17.8496 24.811 17.8887 24.687 17.9631C24.5631 18.0375 24.4594 18.1446 24.386 18.274L22.9117 20.8771L20.1126 9.74886C20.0657 9.56266 19.9621 9.39809 19.8179 9.28069C19.6737 9.16329 19.497 9.09964 19.3152 9.09961H19.3086C19.1256 9.10122 18.9483 9.16724 18.8045 9.2873C18.6608 9.40735 18.5587 9.57464 18.5145 9.76286L15.8994 20.8474L13.494 13.1981C13.4423 13.034 13.3459 12.8897 13.217 12.7836C13.088 12.6776 12.9323 12.6144 12.7694 12.6021C12.6066 12.5899 12.444 12.629 12.3022 12.7147C12.1603 12.8004 12.0457 12.9287 11.9726 13.0835L9.72489 17.8496H6.10769C5.88877 17.8496 5.67881 17.9418 5.524 18.1059C5.3692 18.27 5.28223 18.4925 5.28223 18.7246C5.28223 18.9567 5.3692 19.1792 5.524 19.3433C5.67881 19.5074 5.88877 19.5996 6.10769 19.5996H10.235C10.3891 19.6005 10.5404 19.5556 10.6717 19.4701C10.803 19.3846 10.9091 19.2619 10.9779 19.1157L12.5579 15.754L15.2308 24.2502C15.2855 24.4244 15.3905 24.5759 15.5309 24.6833C15.6714 24.7907 15.8401 24.8486 16.0133 24.8487H16.0447C16.2233 24.8415 16.3948 24.773 16.5336 24.6536C16.6723 24.5341 16.7707 24.3702 16.814 24.1864L19.3432 13.4729L21.8196 23.3254C21.8615 23.4913 21.9485 23.6405 22.0698 23.7544C22.1911 23.8682 22.3414 23.9417 22.5018 23.9657C22.6623 23.9897 22.8258 23.9631 22.9721 23.8892C23.1184 23.8153 23.2409 23.6974 23.3245 23.5502L25.5606 19.5996Z"/>
</mask>
<path d="M25.5606 19.5996H29.2208C29.4397 19.5996 29.6496 19.5074 29.8045 19.3433C29.9593 19.1792 30.0462 18.9567 30.0462 18.7246C30.0462 18.4925 29.9593 18.27 29.8045 18.1059C29.6496 17.9418 29.4397 17.8496 29.2208 17.8496H25.0934C24.951 17.8496 24.811 17.8887 24.687 17.9631C24.5631 18.0375 24.4594 18.1446 24.386 18.274L22.9117 20.8771L20.1126 9.74886C20.0657 9.56266 19.9621 9.39809 19.8179 9.28069C19.6737 9.16329 19.497 9.09964 19.3152 9.09961H19.3086C19.1256 9.10122 18.9483 9.16724 18.8045 9.2873C18.6608 9.40735 18.5587 9.57464 18.5145 9.76286L15.8994 20.8474L13.494 13.1981C13.4423 13.034 13.3459 12.8897 13.217 12.7836C13.088 12.6776 12.9323 12.6144 12.7694 12.6021C12.6066 12.5899 12.444 12.629 12.3022 12.7147C12.1603 12.8004 12.0457 12.9287 11.9726 13.0835L9.72489 17.8496H6.10769C5.88877 17.8496 5.67881 17.9418 5.524 18.1059C5.3692 18.27 5.28223 18.4925 5.28223 18.7246C5.28223 18.9567 5.3692 19.1792 5.524 19.3433C5.67881 19.5074 5.88877 19.5996 6.10769 19.5996H10.235C10.3891 19.6005 10.5404 19.5556 10.6717 19.4701C10.803 19.3846 10.9091 19.2619 10.9779 19.1157L12.5579 15.754L15.2308 24.2502C15.2855 24.4244 15.3905 24.5759 15.5309 24.6833C15.6714 24.7907 15.8401 24.8486 16.0133 24.8487H16.0447C16.2233 24.8415 16.3948 24.773 16.5336 24.6536C16.6723 24.5341 16.7707 24.3702 16.814 24.1864L19.3432 13.4729L21.8196 23.3254C21.8615 23.4913 21.9485 23.6405 22.0698 23.7544C22.1911 23.8682 22.3414 23.9417 22.5018 23.9657C22.6623 23.9897 22.8258 23.9631 22.9721 23.8892C23.1184 23.8153 23.2409 23.6974 23.3245 23.5502L25.5606 19.5996Z" fill="#EE7828"/>
<path d="M25.5606 19.5996V15.5996H23.2284L22.0796 17.6292L25.5606 19.5996ZM23.3245 23.5502L26.8035 25.5242L26.8055 25.5206L23.3245 23.5502ZM22.9721 23.8892L24.7754 27.4597L24.7754 27.4596L22.9721 23.8892ZM22.5018 23.9657L23.093 20.0096L23.093 20.0096L22.5018 23.9657ZM22.0698 23.7544L19.3323 26.6708L19.3323 26.6708L22.0698 23.7544ZM21.8196 23.3254L17.9403 24.3004L17.9412 24.304L21.8196 23.3254ZM19.3432 13.4729L23.2226 12.4978L15.4502 12.5538L19.3432 13.4729ZM16.814 24.1864L12.921 23.2673L12.9206 23.2692L16.814 24.1864ZM16.5336 24.6536L19.1434 27.6848L19.1434 27.6848L16.5336 24.6536ZM16.0447 24.8487V28.8487H16.1257L16.2067 28.8454L16.0447 24.8487ZM16.0133 24.8487L16.0101 28.8487H16.0133V24.8487ZM15.5309 24.6833L17.961 21.5061L17.9609 21.506L15.5309 24.6833ZM15.2308 24.2502L19.0468 23.0512L19.0464 23.0499L15.2308 24.2502ZM12.5579 15.754L16.3735 14.5536L13.2976 4.77599L8.93776 14.0526L12.5579 15.754ZM10.9779 19.1157L14.5961 20.8213L14.5981 20.8171L10.9779 19.1157ZM10.6717 19.4701L8.48863 16.1184L8.48862 16.1184L10.6717 19.4701ZM10.235 19.5996L10.2582 15.5997L10.2466 15.5996H10.235V19.5996ZM5.524 19.3433L8.43358 16.5984H8.43358L5.524 19.3433ZM5.524 18.1059L8.43358 20.8508H8.43358L5.524 18.1059ZM9.72489 17.8496V21.8496H12.261L13.3427 19.5558L9.72489 17.8496ZM11.9726 13.0835L8.35516 11.3765L8.35478 11.3773L11.9726 13.0835ZM12.3022 12.7147L14.3705 16.1384L14.3705 16.1384L12.3022 12.7147ZM12.7694 12.6021L13.07 8.61342L13.0699 8.61342L12.7694 12.6021ZM13.217 12.7836L10.6759 15.8728L10.6759 15.8728L13.217 12.7836ZM13.494 13.1981L17.3097 11.9982L17.3096 11.9977L13.494 13.1981ZM15.8994 20.8474L12.0836 22.0473L16.4502 35.933L19.7925 21.7658L15.8994 20.8474ZM18.5145 9.76286L22.4076 10.6813L22.4082 10.6789L18.5145 9.76286ZM18.8045 9.2873L21.3687 12.3573L21.3687 12.3573L18.8045 9.2873ZM19.3086 9.09961V5.09961H19.291L19.2734 5.09976L19.3086 9.09961ZM19.3152 9.09961L19.3158 5.09961H19.3152V9.09961ZM19.8179 9.28069L22.3434 6.17883V6.17883L19.8179 9.28069ZM20.1126 9.74886L23.9917 8.77311L23.9914 8.7717L20.1126 9.74886ZM22.9117 20.8771L19.0326 21.8529L21.4694 31.5406L26.3923 22.8483L22.9117 20.8771ZM24.386 18.274L20.9061 16.3016L20.9054 16.3028L24.386 18.274ZM24.687 17.9631L22.6293 14.5329L22.6293 14.533L24.687 17.9631ZM25.0934 17.8496V13.8496H25.0926L25.0934 17.8496ZM29.8045 18.1059L32.714 15.361L32.714 15.361L29.8045 18.1059ZM29.8045 19.3433L32.714 22.0882L32.714 22.0882L29.8045 19.3433ZM29.2208 15.5996H25.5606V23.5996H29.2208V15.5996ZM22.0796 17.6292L19.8434 21.5798L26.8055 25.5206L29.0417 21.57L22.0796 17.6292ZM19.8454 21.5763C20.1375 21.0615 20.5874 20.6124 21.1688 20.3187L24.7754 27.4596C25.6494 27.0182 26.3444 26.3333 26.8035 25.5241L19.8454 21.5763ZM21.1689 20.3187C21.7535 20.0234 22.4257 19.9099 23.093 20.0096L21.9106 27.9218C22.8988 28.0694 23.8982 27.9027 24.7754 27.4597L21.1689 20.3187ZM23.093 20.0096C23.7587 20.1091 24.3517 20.4102 24.8073 20.8379L19.3323 26.6708C20.0305 27.3263 20.924 27.7743 21.9107 27.9218L23.093 20.0096ZM24.8074 20.8379C25.2604 21.2631 25.5584 21.7933 25.6981 22.3467L17.9412 24.304C18.1646 25.1893 18.6366 26.0178 19.3323 26.6708L24.8074 20.8379ZM25.699 22.3503L23.2226 12.4978L15.4639 14.4479L17.9403 24.3004L25.699 22.3503ZM15.4502 12.5538L12.921 23.2673L20.707 25.1054L23.2362 14.3919L15.4502 12.5538ZM12.9206 23.2692C13.0645 22.6582 13.4007 22.0726 13.9237 21.6223L19.1434 27.6848C19.9439 26.9957 20.4769 26.0822 20.7074 25.1036L12.9206 23.2692ZM13.9237 21.6223C14.4508 21.1685 15.1364 20.8823 15.8827 20.852L16.2067 28.8454C17.3101 28.8007 18.3389 28.3775 19.1434 27.6848L13.9237 21.6223ZM16.0447 20.8487H16.0133V28.8487H16.0447V20.8487ZM16.0165 20.8487C16.7402 20.8493 17.4203 21.0926 17.961 21.5061L13.1009 27.8606C13.9224 28.4889 14.94 28.8479 16.0101 28.8487L16.0165 20.8487ZM17.9609 21.506C18.4977 21.9166 18.863 22.4662 19.0468 23.0512L11.4147 25.4493C11.708 26.3826 12.2833 27.2352 13.1009 27.8606L17.9609 21.506ZM19.0464 23.0499L16.3735 14.5536L8.74225 16.9544L11.4151 25.4506L19.0464 23.0499ZM8.93776 14.0526L7.35782 17.4144L14.5981 20.8171L16.178 17.4554L8.93776 14.0526ZM7.3598 17.4102C7.59702 16.9069 7.97818 16.4508 8.48863 16.1184L12.8547 22.8219C13.6278 22.3184 14.2211 21.6168 14.5961 20.8213L7.3598 17.4102ZM8.48862 16.1184C9.00171 15.7842 9.6154 15.596 10.2582 15.5997L10.2119 23.5995C11.1629 23.605 12.0791 23.3271 12.8547 22.8219L8.48862 16.1184ZM10.235 15.5996H6.10769V23.5996H10.235V15.5996ZM6.10769 15.5996C7.02733 15.5996 7.85863 15.989 8.43358 16.5984L2.61442 22.0882C3.49898 23.0258 4.7502 23.5996 6.10769 23.5996V15.5996ZM8.43358 16.5984C9.00108 17.2 9.28223 17.9686 9.28223 18.7246H1.28223C1.28223 19.9448 1.73731 21.1585 2.61442 22.0882L8.43358 16.5984ZM9.28223 18.7246C9.28223 19.4806 9.00108 20.2492 8.43358 20.8508L2.61442 15.361C1.73731 16.2907 1.28223 17.5045 1.28223 18.7246H9.28223ZM8.43358 20.8508C7.85863 21.4602 7.02733 21.8496 6.10769 21.8496V13.8496C4.7502 13.8496 3.49898 14.4234 2.61442 15.361L8.43358 20.8508ZM6.10769 21.8496H9.72489V13.8496H6.10769V21.8496ZM13.3427 19.5558L15.5905 14.7897L8.35478 11.3773L6.10704 16.1434L13.3427 19.5558ZM15.5901 14.7905C15.3387 15.3233 14.9258 15.803 14.3705 16.1384L10.2338 9.291C9.39486 9.79782 8.75264 10.5341 8.35516 11.3765L15.5901 14.7905ZM14.3705 16.1384C13.8119 16.4759 13.1482 16.642 12.4689 16.5908L13.0699 8.61342C12.065 8.5377 11.0761 8.78213 10.2338 9.291L14.3705 16.1384ZM12.4689 16.5908C11.7904 16.5397 11.1679 16.2775 10.6759 15.8728L15.758 9.69447C15.0081 9.07759 14.0741 8.68908 13.07 8.61342L12.4689 16.5908ZM10.6759 15.8728C10.1869 15.4705 9.85194 14.9503 9.67833 14.3985L17.3096 11.9977C17.0327 11.1176 16.505 10.3089 15.758 9.69446L10.6759 15.8728ZM9.67819 14.398L12.0836 22.0473L19.7152 19.6474L17.3097 11.9982L9.67819 14.398ZM19.7925 21.7658L22.4076 10.6813L14.6213 8.84439L12.0063 19.9289L19.7925 21.7658ZM22.4082 10.6789C22.261 11.3043 21.9124 11.9032 21.3687 12.3573L16.2404 6.21726C15.4092 6.9115 14.8565 7.84499 14.6208 8.84684L22.4082 10.6789ZM21.3687 12.3573C20.8204 12.8153 20.1092 13.0927 19.3437 13.0995L19.2734 5.09976C18.142 5.1097 17.0761 5.51921 16.2403 6.21727L21.3687 12.3573ZM19.3086 13.0996H19.3152V5.09961H19.3086V13.0996ZM19.3145 13.0996C18.554 13.0995 17.8439 12.8316 17.2923 12.3826L22.3434 6.17883C21.5035 5.49495 20.4399 5.09978 19.3158 5.09961L19.3145 13.0996ZM17.2923 12.3826C16.7453 11.9372 16.3899 11.346 16.2338 10.726L23.9914 8.7717C23.7414 7.77932 23.1788 6.85901 22.3434 6.17883L17.2923 12.3826ZM16.2334 10.7246L19.0326 21.8529L26.7909 19.9014L23.9917 8.77311L16.2334 10.7246ZM26.3923 22.8483L27.8666 20.2452L20.9054 16.3028L19.4312 18.9059L26.3923 22.8483ZM27.8659 20.2464C27.6093 20.6992 27.2304 21.1019 26.7447 21.3932L22.6293 14.533C21.8957 14.973 21.3095 15.59 20.9061 16.3016L27.8659 20.2464ZM26.7447 21.3932C26.2571 21.6858 25.6877 21.8495 25.0942 21.8496L25.0926 13.8496C24.2143 13.8498 23.3649 14.0917 22.6293 14.5329L26.7447 21.3932ZM25.0934 21.8496H29.2208V13.8496H25.0934V21.8496ZM29.2208 21.8496C28.3011 21.8496 27.4698 21.4602 26.8949 20.8508L32.714 15.361C31.8295 14.4234 30.5783 13.8496 29.2208 13.8496V21.8496ZM26.8949 20.8508C26.3274 20.2492 26.0462 19.4806 26.0462 18.7246H34.0462C34.0462 17.5045 33.5911 16.2907 32.714 15.361L26.8949 20.8508ZM26.0462 18.7246C26.0462 17.9686 26.3274 17.2 26.8949 16.5985L32.714 22.0882C33.5911 21.1585 34.0462 19.9448 34.0462 18.7246H26.0462ZM26.8949 16.5984C27.4698 15.989 28.3011 15.5996 29.2208 15.5996V23.5996C30.5783 23.5996 31.8295 23.0258 32.714 22.0882L26.8949 16.5984Z" fill="white" mask="url(#path-2-outside-1_2040_231)"/>
<path d="M29.3867 16.4502H34.9999V21.0002H29.3867L30.1522 18.7252L29.3867 16.4502Z" fill="white"/>
<path d="M5.61328 16.4502H0.000106812V21.0002H5.61328L4.84785 18.7252L5.61328 16.4502Z" fill="white"/>
</svg>
