<svg width="35" height="35" viewBox="0 0 35 35" fill="none" xmlns="http://www.w3.org/2000/svg">
<path d="M17.4998 0C14.2344 0 11.0423 1.02636 8.32729 2.94928C5.61223 4.87221 3.49611 7.60533 2.2465 10.803C0.9969 14.0007 0.669946 17.5194 1.30699 20.9141C1.94403 24.3087 3.51646 27.4269 5.82542 29.8744C8.13439 32.3218 11.0762 33.9885 14.2788 34.6637C17.4814 35.339 20.8011 34.9924 23.8179 33.6679C26.8347 32.3433 29.4132 30.1003 31.2273 27.2225C33.0415 24.3446 34.0098 20.9612 34.0098 17.5C34.0047 12.8603 32.2637 8.41224 29.1685 5.13151C26.0734 1.85078 21.8769 0.00532642 17.4998 0Z" fill="#7D8EA0"/>
<path d="M10.2333 20.262C10.5186 20.2632 10.7957 20.1798 11.033 20.0252C11.2706 19.8705 11.4574 19.6518 11.577 19.3982L11.5773 19.3975L12.4353 17.5718L14.5989 24.4488C14.5989 24.4489 14.5989 24.4489 14.5989 24.449C14.6932 24.7488 14.8761 25.0163 15.1286 25.2095L15.531 24.6833L15.1286 25.2095C15.3818 25.4031 15.6911 25.5109 16.0128 25.5111H16.0134H16.0447H16.0581L16.0716 25.5106C16.4033 25.4971 16.7168 25.3699 16.9658 25.1555C17.2141 24.9417 17.3845 24.6537 17.4588 24.3382L19.3636 16.2703L21.1775 23.4868L21.1777 23.4874C21.2496 23.7725 21.4004 24.0342 21.6168 24.2373C21.8337 24.4409 22.107 24.5764 22.4043 24.6208C22.7018 24.6653 23.0038 24.6155 23.2711 24.4805L22.9725 23.8892L23.2711 24.4804C23.5379 24.3457 23.7552 24.1339 23.9009 23.8771L23.9013 23.8765L25.9473 20.262H29.2214C29.6288 20.262 30.0112 20.0901 30.2869 19.7979C30.5613 19.507 30.7092 19.1203 30.7092 18.7246C30.7092 18.3289 30.5613 17.9422 30.2869 17.6513C30.0112 17.3591 29.6288 17.1872 29.2214 17.1872H25.0939H25.0937C24.8294 17.1873 24.5719 17.26 24.3467 17.3951C24.1218 17.53 23.9382 17.7215 23.8102 17.9474L23.81 17.9475L23.1509 19.1113L20.7552 9.58727L20.7551 9.58703C20.6746 9.26734 20.495 8.97762 20.2363 8.76702C19.9769 8.55582 19.6533 8.43727 19.3155 8.43722H19.3154H19.3088V8.4372L19.3029 8.43725C18.9629 8.44023 18.6384 8.56313 18.3801 8.7789L18.8047 9.2873L18.3801 8.7789C18.1226 8.99395 17.946 9.28796 17.8699 9.61076C17.8699 9.61089 17.8699 9.61103 17.8698 9.61116L15.8082 18.3493L14.1258 12.9994L14.1258 12.9993C14.0368 12.7166 13.869 12.4623 13.6377 12.2721C13.4059 12.0814 13.1213 11.9644 12.8191 11.9416C12.5168 11.9188 12.2174 11.992 11.9596 12.1478C11.7023 12.3032 11.5003 12.5322 11.3735 12.8008L11.3734 12.8009L9.30474 17.1872H6.10736C5.69989 17.1872 5.31749 17.3591 5.04184 17.6513C4.76741 17.9422 4.61947 18.3289 4.61947 18.7246C4.61947 19.1203 4.76741 19.507 5.04184 19.7979C5.31749 20.0901 5.69989 20.262 6.10736 20.262H10.2333ZM10.2333 20.262C10.2326 20.262 10.2318 20.262 10.231 20.262L10.2349 19.5996M10.2333 20.262H10.2349V19.5996M10.2349 19.5996C10.389 19.6005 10.5402 19.5556 10.6715 19.4701C10.8028 19.3846 10.9089 19.2619 10.9778 19.1157L10.2349 19.5996Z" fill="#7D8EA0" stroke="white" stroke-width="1.32478"/>
<path d="M29.3866 16.4497H35V20.9997H29.3866L30.1521 18.7247L29.3866 16.4497Z" fill="white"/>
<path d="M5.6134 16.4497H2.38419e-06V20.9997H5.6134L4.84794 18.7247L5.6134 16.4497Z" fill="white"/>
</svg>
