<svg width="31" height="31" viewBox="0 0 31 31" fill="none" xmlns="http://www.w3.org/2000/svg">
<g id="Group" opacity="0.3">
<path id="Vector" d="M29.569 26.4014L23.3014 20.1338C24.6418 18.1191 25.3561 15.7528 25.3543 13.3329C25.3543 6.5258 19.8163 0.987793 13.0093 0.987793C6.20219 0.987793 0.664185 6.5258 0.664185 13.3329C0.664185 20.14 6.20219 25.678 13.0093 25.678C15.4292 25.6797 17.7955 24.9654 19.8102 23.625L26.0778 29.8926C26.3055 30.1284 26.578 30.3165 26.8792 30.4459C27.1804 30.5753 27.5044 30.6434 27.8323 30.6462C28.1601 30.6491 28.4852 30.5866 28.7886 30.4625C29.0921 30.3383 29.3677 30.155 29.5996 29.9232C29.8314 29.6913 30.0147 29.4157 30.1389 29.1122C30.263 28.8088 30.3255 28.4837 30.3226 28.1559C30.3198 27.828 30.2517 27.504 30.1223 27.2028C29.9929 26.9016 29.8048 26.6291 29.569 26.4014ZM4.36771 13.3329C4.36771 8.56767 8.24406 4.69132 13.0093 4.69132C17.7745 4.69132 21.6508 8.56767 21.6508 13.3329C21.6508 18.0981 17.7745 21.9744 13.0093 21.9744C8.24406 21.9744 4.36771 18.0981 4.36771 13.3329Z" fill="white"/>
<path id="Vector_2" d="M18.8716 13.0236C18.8716 13.351 18.7415 13.665 18.51 13.8965C18.2785 14.1281 17.9645 14.2581 17.6371 14.2581H13.9335V17.9616C13.9335 18.2891 13.8035 18.6031 13.572 18.8346C13.3404 19.0661 13.0264 19.1962 12.699 19.1962C12.3716 19.1962 12.0576 19.0661 11.8261 18.8346C11.5946 18.6031 11.4645 18.2891 11.4645 17.9616V14.2581H7.761C7.43359 14.2581 7.11958 14.1281 6.88807 13.8965C6.65655 13.665 6.52649 13.351 6.52649 13.0236C6.52649 12.6962 6.65655 12.3822 6.88807 12.1507C7.11958 11.9192 7.43359 11.7891 7.761 11.7891H11.4645V8.08558C11.4645 7.75817 11.5946 7.44417 11.8261 7.21265C12.0576 6.98114 12.3716 6.85107 12.699 6.85107C13.0264 6.85107 13.3404 6.98114 13.572 7.21265C13.8035 7.44417 13.9335 7.75817 13.9335 8.08558V11.7891H17.6371C17.9645 11.7891 18.2785 11.9192 18.51 12.1507C18.7415 12.3822 18.8716 12.6962 18.8716 13.0236Z" fill="white"/>
</g>
</svg>
