<svg width="19" height="14" viewBox="0 0 19 14" fill="none" xmlns="http://www.w3.org/2000/svg">
<g id="Group">
<path id="Vector" d="M18.7437 11.1555C18.7437 12.1834 17.9275 12.9996 16.9298 12.9996H1.81391C0.81626 12.9996 0 12.1834 0 11.1555V1.96499C0 0.937109 0.81626 0.12085 1.81391 0.12085H16.9298C17.9275 0.12085 18.7437 0.937109 18.7437 1.96499V11.1555Z" fill="#00AFCA"/>
<path id="Vector_2" d="M1.81445 0.121094H16.9304C17.928 0.121094 18.7443 0.937353 18.7443 1.96524V11.1557C18.7443 12.1836 17.928 12.9999 16.9304 12.9999" fill="#049BAF"/>
<path id="Vector_3" d="M1.81391 0.12085H16.9298C17.9275 0.12085 18.7437 0.937109 18.7437 1.96499V5.32072M18.7437 11.1555C18.7437 12.1834 17.9275 12.9996 16.9298 12.9996H1.81391C0.81626 12.9996 0 12.1834 0 11.1555" fill="#058DA3"/>
<path id="Vector_4" d="M11.7605 3.08371C11.8815 3.11394 11.9419 3.02325 11.9722 2.93255C12.0024 2.81163 11.9419 2.17676 11.9419 2.17676C11.9419 2.17676 11.6396 2.75116 11.6094 2.87209C11.6094 2.96279 11.6396 3.05348 11.7605 3.08371ZM12.2442 3.23487C12.3652 3.29534 12.4256 3.23487 12.4861 3.14418C12.5466 3.02325 12.607 2.38838 12.607 2.38838C12.607 2.38838 12.214 2.87209 12.1535 2.99302C12.0931 3.08371 12.1233 3.17441 12.2442 3.23487ZM12.6675 3.4465C12.7884 3.50696 12.8489 3.47673 12.9093 3.38603C12.9698 3.2651 13.1814 2.66047 13.1814 2.66047C13.1814 2.66047 12.6977 3.08371 12.6373 3.17441C12.5466 3.29534 12.5466 3.38603 12.6675 3.4465ZM13.0303 3.74881C13.121 3.83951 13.2117 3.80928 13.2721 3.74881C13.3628 3.65812 13.6651 3.11394 13.6651 3.11394C13.6651 3.11394 13.121 3.41626 13.0303 3.50696C12.9698 3.56742 12.9396 3.65812 13.0303 3.74881ZM13.3326 4.14183C13.3931 4.23252 13.4837 4.23252 13.5744 4.20229C13.6954 4.14183 14.0884 3.65812 14.0884 3.65812C14.0884 3.65812 13.4837 3.83951 13.3628 3.9302C13.3024 3.9302 13.2721 4.0209 13.3326 4.14183ZM13.5744 4.56507C13.6349 4.686 13.7256 4.686 13.8163 4.65577C13.9372 4.5953 14.4209 4.20229 14.4209 4.20229C14.4209 4.20229 13.7861 4.26275 13.6651 4.32322C13.5744 4.35345 13.514 4.44415 13.5744 4.56507ZM13.8465 4.80693C13.7558 4.83716 13.6954 4.89762 13.6954 5.01855C13.7256 5.13948 13.8163 5.16971 13.907 5.16971C14.0279 5.13948 14.6023 4.83716 14.6023 4.83716C14.6023 4.83716 13.9675 4.7767 13.8465 4.80693ZM13.9372 5.32087C13.8465 5.32087 13.7558 5.38133 13.7558 5.50226C13.7558 5.62319 13.8465 5.68365 13.9372 5.68365C14.0582 5.68365 14.6628 5.50226 14.6628 5.50226C14.6628 5.50226 14.0582 5.32087 13.9372 5.32087ZM13.907 5.83481C13.8163 5.80458 13.7256 5.83481 13.6954 5.98597C13.6651 6.1069 13.7558 6.16736 13.8465 6.19759C13.9675 6.22782 14.6023 6.16736 14.6023 6.16736C14.6023 6.16736 14.0279 5.86504 13.907 5.83481ZM13.7861 6.34875C13.6954 6.31852 13.6047 6.31852 13.5442 6.43945C13.4837 6.56037 13.5442 6.62084 13.6349 6.6813C13.7558 6.74176 14.3907 6.80223 14.3907 6.80223C14.3907 6.80223 13.907 6.37898 13.7861 6.34875ZM13.5744 6.80223C13.4837 6.74177 13.3931 6.74176 13.3326 6.86269C13.2721 6.98362 13.3024 7.04408 13.3931 7.10455C13.514 7.16501 14.1186 7.37663 14.1186 7.37663C14.1186 7.37663 13.6954 6.89292 13.5744 6.80223ZM13.2721 7.22547C13.2117 7.16501 13.121 7.13478 13.0303 7.22547C12.9396 7.31617 12.9698 7.40687 13.0303 7.46733C13.121 7.55802 13.6651 7.86034 13.6651 7.86034C13.6651 7.86034 13.3628 7.31617 13.2721 7.22547ZM13.1814 8.28359C13.1814 8.28359 13 7.67895 12.9093 7.55802C12.8489 7.46733 12.7582 7.4371 12.6675 7.49756C12.5466 7.55802 12.5768 7.64872 12.607 7.73942C12.6675 7.89057 13.1814 8.28359 13.1814 8.28359ZM12.5768 8.61614C12.5768 8.61614 12.5163 7.98127 12.4559 7.86034C12.4256 7.76965 12.3349 7.70918 12.214 7.76965C12.0931 7.83011 12.0931 7.92081 12.1233 8.0115C12.1838 8.1022 12.5768 8.61614 12.5768 8.61614Z" fill="#FCA110"/>
<path id="Vector_5" d="M9.97569 7.76958C10.0361 7.67888 10.0361 7.58819 9.91522 7.52772C9.7943 7.46726 9.73383 7.49749 9.67337 7.58819C9.6129 7.70912 9.40128 8.31375 9.40128 8.31375C9.40128 8.31375 9.91522 7.89051 9.97569 7.76958ZM9.55244 7.22541C9.46175 7.13471 9.37105 7.16494 9.31059 7.22541C9.21989 7.3161 8.91757 7.86028 8.91757 7.86028C8.91757 7.86028 9.46175 7.55796 9.55244 7.46726C9.6129 7.4068 9.64314 7.3161 9.55244 7.22541ZM9.25012 6.86262C9.18966 6.77193 9.09896 6.77193 9.00827 6.80216C8.88734 6.86262 8.49433 7.34633 8.49433 7.34633C8.49433 7.34633 9.09896 7.16494 9.21989 7.07425C9.28035 7.04402 9.31059 6.95332 9.25012 6.86262ZM9.0385 6.43938C8.97804 6.31845 8.88734 6.31845 8.79664 6.34868C8.67572 6.40915 8.19201 6.80216 8.19201 6.80216C8.19201 6.80216 8.82688 6.7417 8.9478 6.68123C9.00827 6.62077 9.06873 6.56031 9.0385 6.43938ZM8.88734 5.9859C8.85711 5.86497 8.76641 5.83474 8.67572 5.83474C8.55479 5.86497 7.98039 6.13706 7.98039 6.13706C7.98039 6.13706 8.61525 6.19752 8.73618 6.16729C8.82688 6.16729 8.91757 6.10683 8.88734 5.9859ZM8.82688 5.50219C8.82688 5.38126 8.73618 5.3208 8.64549 5.3208C8.52456 5.3208 7.91992 5.50219 7.91992 5.50219C7.91992 5.50219 8.52456 5.68358 8.64549 5.68358C8.76641 5.68358 8.82688 5.62312 8.82688 5.50219Z" fill="#FEC50C"/>
<path id="Vector_6" d="M8.88742 5.01837C8.91766 4.89745 8.85719 4.83698 8.73626 4.80675C8.61534 4.77652 7.98047 4.83698 7.98047 4.83698C7.98047 4.83698 8.55487 5.1393 8.6758 5.16953C8.7665 5.16953 8.85719 5.1393 8.88742 5.01837ZM9.03858 4.5649C9.09905 4.44397 9.03858 4.38351 8.94789 4.32304C8.82696 4.26258 8.19209 4.20212 8.19209 4.20212C8.19209 4.20212 8.6758 4.59513 8.79673 4.65559C8.88742 4.68582 8.97812 4.68582 9.03858 4.5649ZM9.00835 4.17188C9.09905 4.23235 9.18974 4.23235 9.25021 4.11142C9.31067 3.99049 9.28044 3.93003 9.18974 3.86957C9.06881 3.8091 8.46418 3.59748 8.46418 3.59748C8.46418 3.59748 8.88742 4.11142 9.00835 4.17188ZM9.55252 3.74864C9.64322 3.65794 9.61299 3.56725 9.55252 3.50678C9.46183 3.41609 8.91766 3.11377 8.91766 3.11377C8.91766 3.11377 9.21997 3.65794 9.31067 3.74864C9.37113 3.8091 9.46183 3.83933 9.55252 3.74864Z" fill="#FCA110"/>
<path id="Vector_7" d="M11.2773 7.64888C12.4628 7.64888 13.4238 6.68787 13.4238 5.50242C13.4238 4.31696 12.4628 3.35596 11.2773 3.35596C10.0919 3.35596 9.13086 4.31696 9.13086 5.50242C9.13086 6.68787 10.0919 7.64888 11.2773 7.64888Z" fill="#FCA110"/>
<path id="Vector_8" d="M11.3064 3.05344C11.4273 3.05344 11.4878 2.96274 11.4878 2.87205C11.4878 2.75112 11.3064 2.14648 11.3064 2.14648C11.3064 2.14648 11.125 2.75112 11.125 2.87205C11.125 2.96274 11.1552 3.05344 11.3064 3.05344ZM11.7599 7.89053C11.6389 7.92076 11.6087 8.01146 11.6087 8.10216C11.6389 8.22308 11.9413 8.79749 11.9413 8.79749C11.9413 8.79749 12.0017 8.16262 11.9715 8.04169C11.9715 7.951 11.911 7.8603 11.7599 7.89053Z" fill="#FCA110"/>
<path id="Vector_9" d="M11.1244 8.13224C11.1244 8.25316 11.3058 8.8578 11.3058 8.8578C11.3058 8.8578 11.4872 8.25316 11.4872 8.13224C11.4872 8.04154 11.4268 7.95085 11.3058 7.95085C11.1547 7.95085 11.1244 8.04154 11.1244 8.13224ZM10.6105 8.04154C10.5803 8.16247 10.6407 8.79734 10.6407 8.79734C10.6407 8.79734 10.943 8.22293 10.9733 8.10201C11.0035 8.01131 10.9733 7.92061 10.8221 7.89038C10.7012 7.86015 10.6105 7.95085 10.6105 8.04154ZM10.3686 7.76946C10.2477 7.70899 10.1873 7.76946 10.1268 7.86015C10.0663 7.98108 10.0059 8.61595 10.0059 8.61595C10.0059 8.61595 10.3989 8.13224 10.4593 8.01131C10.4896 7.89038 10.4593 7.79969 10.3686 7.76946Z" fill="#FEC50C"/>
<path id="Vector_10" d="M9.91535 3.4465C10.0363 3.38603 10.006 3.29534 9.97581 3.20464C9.91535 3.08371 9.43164 2.6907 9.43164 2.6907C9.43164 2.6907 9.61303 3.29534 9.70373 3.41626C9.73396 3.47673 9.82465 3.53719 9.91535 3.4465ZM10.3688 3.23487C10.4898 3.17441 10.4898 3.08371 10.4595 2.99302C10.3991 2.87209 10.006 2.38838 10.006 2.38838C10.006 2.38838 10.0665 3.02325 10.127 3.14418C10.1572 3.20464 10.2479 3.2651 10.3688 3.23487ZM10.8223 3.08371C10.9432 3.05348 10.9735 2.96279 10.9735 2.87209C10.9432 2.75116 10.6409 2.17676 10.6409 2.17676C10.6409 2.17676 10.5804 2.81163 10.6107 2.93255C10.6107 3.05348 10.7014 3.11394 10.8223 3.08371Z" fill="#FCA110"/>
<path id="Vector_11" d="M9.73429 9.12984V9.16007H9.76452L9.79475 9.1903H9.82498L9.88545 9.22053H10.0668L10.1878 9.25076H10.4901L10.5505 9.281H10.611L10.6715 9.31123H10.7017L10.7622 9.34146L10.7924 9.37169L10.8529 9.40192L10.8831 9.37169V9.34146L10.9133 9.281L10.9436 9.22053L10.9738 9.16007L10.8529 9.12984H10.611L10.4599 9.0996L10.3389 9.06937L10.218 9.03914L10.0971 9.00891L9.97614 8.97868L9.85521 8.91821L9.73429 8.88798L9.61336 8.82752L9.49243 8.76706L9.40174 8.73682L9.34127 8.67636L9.25058 8.64613L9.19011 8.58566L9.06919 8.5252L8.97849 8.4345L8.8878 8.34381L8.76687 8.25311L8.67617 8.16242L8.58548 8.07172L8.49478 7.98103L8.43432 7.8601L8.37385 7.79964L8.34362 7.73917L8.28316 7.67871L8.25293 7.61825L8.2227 7.55778L8.16223 7.49732L8.132 7.40662L8.10177 7.34616L8.0413 7.25546L8.01107 7.16477L7.98084 7.04384L7.95061 6.95315L7.92038 6.86245L7.89015 6.77175L7.85991 6.65083L7.82968 6.5299H7.70875V6.56013L7.67852 6.59036V6.83222L7.70875 6.92291V7.07407L7.73899 7.195L7.70875 7.13454L7.67852 7.07407L7.64829 7.04384V6.98338L7.58783 6.86245L7.5576 6.74152L7.52736 6.62059L7.49713 6.49967L7.4669 6.37874L7.43667 6.28804V6.25781H7.31574V6.28804H7.28551V6.65083L7.31574 6.74152L7.34597 6.80199L7.3762 6.89268L7.40644 6.95315L7.43667 7.04384L7.4669 7.1043L7.49713 7.195L7.5576 7.31593L7.61806 7.43685L7.5576 7.40662L7.52736 7.34616L7.4669 7.28569L7.43667 7.25546L7.34597 7.13454L7.28551 7.01361L7.22504 6.92291L7.16458 6.83222L7.13435 6.80199H7.10412L7.07389 6.77175H6.95296L6.92273 6.80199V6.86245L6.95296 6.92291L6.98319 6.98338L7.01342 7.04384L7.04365 7.1043L7.10412 7.16477L7.13435 7.25546L7.19481 7.34616L7.25528 7.40662L7.3762 7.55778L7.4669 7.67871L7.49713 7.73917L7.5576 7.7694L7.58783 7.79964L7.61806 7.82987L7.5576 7.79964L7.52736 7.7694H7.49713L7.43667 7.73917L7.3762 7.64848L7.28551 7.58801L7.19481 7.49732L7.13435 7.43685L7.04365 7.34616L6.98319 7.28569L6.95296 7.25546H6.86226V7.28569H6.83203V7.34616L6.89249 7.40662L6.92273 7.46709L6.95296 7.52755L7.01342 7.58801L7.10412 7.67871L7.22504 7.79964L7.31574 7.89033L7.43667 8.01126L7.52736 8.07172L7.61806 8.13219L7.58783 8.16242H7.5576L7.52736 8.13219H7.4669L7.43667 8.10195H7.40644L7.3762 8.07172L7.31574 8.04149L7.25528 8.01126H7.22504L7.19481 7.98103H7.13435V8.01126L7.16458 8.04149V8.07172L7.19481 8.10195V8.13219H7.22504L7.25528 8.16242L7.28551 8.22288L7.34597 8.25311L7.40644 8.28334L7.4669 8.34381L7.52736 8.37404L7.58783 8.40427L7.67852 8.4345L7.73899 8.46474L7.82968 8.5252L7.92038 8.55543H7.49713V8.58566L7.52736 8.6159L7.5576 8.64613H7.61806L7.64829 8.67636H7.70875L7.76922 8.70659H7.92038L7.95061 8.73682H8.0413V8.76706H8.01107L7.98084 8.79729H7.85991L7.82968 8.82752H7.73899V8.85775H7.76922L7.79945 8.88798H7.85991L7.98084 8.91821L8.16223 8.94845L8.10177 8.97868L8.01107 9.00891H7.95061L7.92038 9.03914L7.95061 9.06937H7.98084L8.0413 9.0996L8.132 9.12984H8.25293L8.37385 9.16007L8.31339 9.1903H8.25293L8.2227 9.22053H8.16223V9.25076H8.2227L8.28316 9.281L8.37385 9.31123L8.43432 9.34146L8.61571 9.43216L8.76687 9.49262L8.85756 9.52285L8.94826 9.55308L9.03895 9.58331L9.12965 9.61355L9.25058 9.64378H9.34127L9.4622 9.67401H9.5529H9.49243L9.43197 9.64378H9.37151L9.31104 9.61355L9.12965 9.55308L8.94826 9.49262L8.7971 9.43216L8.64594 9.37169L8.55525 9.34146L8.52501 9.31123L8.46455 9.281L8.43432 9.25076L8.46455 9.22053L8.52501 9.1903L8.55525 9.16007L8.61571 9.12984H8.46455L8.40409 9.0996L8.37385 9.06937H8.31339L8.28316 9.03914L8.25293 9.00891L8.37385 8.91821H8.34362L8.31339 8.88798H8.25293L8.19246 8.85775L8.132 8.82752V8.76706H8.16223V8.73682H8.19246V8.70659L8.16223 8.67636H8.10177V8.64613H8.07154V8.58566L8.10177 8.55543V8.5252H8.0413L8.01107 8.49497H7.95061L7.92038 8.46474L7.85991 8.4345L7.82968 8.40427L7.76922 8.37404L7.73899 8.34381L7.70875 8.31358H7.89015L7.85991 8.28334L7.82968 8.25311L7.76922 8.19265L7.73899 8.16242L7.70875 8.13219L7.67852 8.10195L7.64829 8.04149L7.61806 8.01126H7.79945V7.9508L7.76922 7.92056V7.8601L7.73899 7.79964L7.70875 7.73917L7.67852 7.70894L7.64829 7.64848L7.61806 7.61825H7.76922V7.64848H7.79945L7.82968 7.61825V7.55778H7.85991L7.92038 7.58801L7.95061 7.61825L8.01107 7.67871L8.0413 7.70894L8.132 7.79964L8.19246 7.8601L8.34362 8.04149L8.46455 8.19265L8.52501 8.28334L8.58548 8.34381L8.61571 8.37404L8.64594 8.4345L8.7064 8.46474L8.73664 8.49497L8.76687 8.5252H8.82733L8.85756 8.55543L8.91803 8.58566L8.94826 8.6159H9.00872L9.06919 8.64613H9.12965L9.15988 8.67636H9.19011L9.22035 8.70659L9.25058 8.73682L9.31104 8.79729L9.40174 8.85775L9.49243 8.94845L9.5529 9.03914L9.61336 9.06937L9.64359 9.0996L9.67382 9.12984H9.73429ZM10.4901 10.4298H11.4877H10.8529L10.8226 10.3996L10.7924 10.4298H10.4901L10.5203 10.3996L10.5505 10.3693L10.5808 10.3391L10.611 10.3089H10.4901L10.5203 10.2786L10.5808 10.2484L10.6412 10.2182L10.6715 10.188H10.5505L10.4901 10.2182H10.4296L10.3692 10.2484L10.3087 10.2786H10.1878V10.3693C10.1878 10.3693 10.1878 10.3996 10.1575 10.3996C10.1575 10.3996 10.1575 10.3693 10.1273 10.3693C10.0971 10.3693 10.0971 10.3693 10.0971 10.3996C10.0668 10.4298 10.0064 10.4298 9.94591 10.3996H9.85521C9.82498 10.3996 9.79475 10.3693 9.76452 10.3693L9.70406 10.3996L9.64359 10.4298L9.61336 10.46L9.58313 10.4903L9.5529 10.5205V10.7926V10.7321L9.58313 10.7019H9.73429L9.82498 10.4903V10.5205H9.94591L9.97614 10.4903H10.3692L10.4901 10.4298Z" fill="#FEC50C"/>
<path id="Vector_12" d="M16.0531 6.95337L16.0229 6.92314H15.9927V6.89291H15.9322V6.92314H15.8717L15.8113 7.01384L15.7206 7.10453L15.6299 7.19523L15.5392 7.28592L15.4182 7.37662L15.3276 7.46731L15.2671 7.49755L15.2369 7.52778L15.1764 7.55801H15.1462L15.1764 7.52778L15.2066 7.49755L15.2671 7.46731L15.2973 7.40685L15.4182 7.25569L15.5694 7.0743L15.6299 6.9836L15.6903 6.89291L15.7508 6.80221L15.8113 6.71152L15.8717 6.62082L15.902 6.56036L15.9322 6.4999L15.9624 6.43943V6.37897L15.9322 6.34874V6.3185H15.7508V6.34874L15.7206 6.37897L15.6903 6.4092L15.5996 6.4999L15.5392 6.62082L15.4485 6.74175L15.3578 6.89291L15.2973 6.95337L15.2369 7.01384L15.1764 7.0743L15.1159 7.10453L15.2066 6.9836L15.2671 6.80221L15.3276 6.74175L15.3578 6.65105L15.388 6.56036L15.4182 6.46966L15.4485 6.37897L15.4787 6.28827L15.5089 6.19758V6.10688L15.5392 6.01619V5.83479L15.5089 5.80456V5.7441H15.4787V5.71387H15.3578L15.3276 5.7441L15.2973 5.86503L15.2671 6.01619L15.2369 6.16734L15.1764 6.28827L15.1462 6.43943L15.0857 6.56036V6.62082L15.0555 6.68129L15.0252 6.74175L14.9648 6.80221L14.995 6.68129L15.0252 6.59059V6.46966L15.0555 6.37897V6.13711L15.0252 6.10688V6.04642H14.995V6.01619H14.9043L14.8741 6.04642L14.8438 6.16734L14.8136 6.3185L14.7834 6.4092L14.7531 6.53013L14.6927 6.65105L14.6625 6.77198L14.602 6.89291L14.5415 7.01384L14.5113 7.10453L14.4811 7.165L14.4206 7.25569L14.3904 7.31615L14.3299 7.40685L14.2694 7.46731L14.209 7.55801L14.1787 7.61847L14.0578 7.7394L13.9671 7.86033L13.8462 7.98125L13.7555 8.10218L13.6346 8.19288L13.5136 8.28357L13.3927 8.4045L13.2718 8.4952L13.1811 8.52543L13.0904 8.58589L12.9997 8.64635L12.909 8.70682L12.7578 8.76728L12.6067 8.82775L12.4555 8.88821L12.3044 8.94867L12.1834 8.97891L12.0625 9.00914L11.9416 9.03937L11.7904 9.0696L11.6695 9.09983H11.5486L11.4276 9.13006H11.2765L11.2463 9.1603L11.216 9.19053L11.1556 9.22076L11.0951 9.28122L11.0346 9.34169L10.9742 9.43238L10.8835 9.52308L10.7928 9.61377L10.7625 9.64401L10.7021 9.70447L10.6416 9.7347L10.6114 9.76493L10.5509 9.79516L10.5207 9.8254L10.4602 9.85563L10.43 9.88586L10.3393 9.91609L10.2184 9.94632L10.1277 9.97656L10.037 10.037H10.0067L9.97652 10.0673H9.94629L9.91605 10.0975L9.88582 10.1277H9.85559V10.2184L9.94629 10.2789V10.2486L10.0067 10.2184L10.037 10.1882H10.0672L10.1881 10.1277L10.3091 10.0673H10.3393L10.3998 10.037L10.43 10.0068L10.4905 9.97656L10.5812 9.91609L10.6719 9.85563L10.7625 9.79516L10.8532 9.7347L10.9137 9.70447L10.9439 9.64401L11.0044 9.61377L11.0649 9.55331L11.0951 9.52308H11.1253L11.1556 9.49285L11.1858 9.46261L11.2463 9.43238H11.3067L11.3974 9.40215L11.5183 9.37192L11.609 9.34169H11.73L11.8811 9.31146L12.0323 9.28122H12.1834L12.3346 9.25099H12.3648L12.4253 9.22076H12.4858L12.516 9.19053L12.5765 9.13006L12.6369 9.03937L12.6974 9.00914L12.7578 8.94867L12.8485 8.88821L12.909 8.82775L13.0299 8.76728L13.1811 8.70682L13.302 8.61612L13.4532 8.55566L13.5741 8.4952L13.695 8.43473L13.7857 8.4045L13.8462 8.34404L13.8764 8.28357L13.9067 8.22311L13.9369 8.16265L13.9974 8.10218L14.0276 8.04172L14.088 7.98125L14.1787 7.89056L14.2392 7.8301L14.3299 7.7394L14.3904 7.67894L14.4508 7.6487L14.4811 7.61847L14.5415 7.58824H14.5718L14.6322 7.55801L14.6625 7.52778H14.7531L14.8136 7.49755H14.9043L14.9648 7.52778L14.9345 7.55801V7.61847L14.9043 7.67894V7.70917L14.8741 7.76963L14.8438 7.8301L14.7834 7.89056L14.7229 7.95102H14.7834L14.8136 7.92079H14.8741L14.9043 7.89056H14.995V8.01149L14.9648 8.04172L14.9345 8.07195V8.10218L14.8438 8.16265L14.7531 8.25334H14.8136L14.8438 8.28357H14.9648L14.9043 8.34404L14.8438 8.37427L14.7834 8.4045L14.7229 8.43473L14.6625 8.4952L14.5718 8.52543L14.5113 8.55566L14.4508 8.61612H14.4811L14.5113 8.64635H14.5718L14.5113 8.70682L14.3904 8.73705L14.3601 8.76728L14.2997 8.79751H14.2694V8.88821H14.2997V8.91844H14.2694V8.94867H14.2392L14.209 8.97891L14.1787 9.00914H14.1183L14.0578 9.03937H14.0276L13.9974 9.0696L14.088 9.13006L14.0578 9.1603L14.0276 9.19053H13.9974L13.9671 9.22076H13.8462V9.25099L13.8764 9.31146V9.37192L13.816 9.43238L13.7253 9.49285L13.6346 9.55331L13.5136 9.61377L13.4532 9.64401L13.3927 9.67424L13.3323 9.70447L13.2718 9.7347L13.1811 9.76493H13.1206L13.0299 9.79516H12.9392H13.4532L13.5741 9.76493L13.6648 9.7347L13.7555 9.70447L13.8462 9.67424L13.9369 9.61377L14.0578 9.55331L14.1787 9.49285L14.2694 9.43238L14.209 9.40215L14.1485 9.37192L14.1183 9.34169H14.088L14.0578 9.31146H13.9974L14.0276 9.28122L14.088 9.25099H14.1183L14.1787 9.22076H14.2694L14.3904 9.19053H14.5415L14.5718 9.1603H14.6322V9.13006H14.602V9.09983H14.3904L14.3299 9.0696H14.2997L14.4206 9.03937L14.5113 9.00914L14.6322 8.97891H14.6927L14.7834 8.94867L14.8438 8.91844H14.8741V8.88821H14.9043L14.9345 8.85798H14.7531L14.6927 8.82775H14.5415L14.5718 8.79751H14.602L14.6927 8.76728L14.7834 8.73705H14.8741L14.9345 8.70682L15.0252 8.67659L15.0857 8.64635L15.1462 8.61612L15.1764 8.58589V8.55566H15.2066V8.52543H14.9043L14.8741 8.4952L15.0555 8.4045L15.2066 8.28357L15.3276 8.22311L15.4485 8.13241L15.5089 8.07195L15.5392 8.04172L15.5996 8.01149L15.6299 7.95102L15.6601 7.92079V7.86033L15.6903 7.8301V7.76963H15.5996L15.5694 7.79986L15.4787 7.8301L15.4182 7.89056H15.388L15.3578 7.92079H15.2973L15.2671 7.95102H15.1462L15.2369 7.86033L15.3578 7.76963L15.4787 7.67894L15.5996 7.52778L15.7206 7.40685L15.8415 7.28592L15.902 7.19523L15.9624 7.13476L15.9927 7.0743L16.0531 7.01384V6.9836V6.95337Z" fill="#FEC50C"/>
<path id="Vector_13" d="M16.0523 6.95337L16.0221 6.92314H15.9919V6.89291H15.9314V6.92314H15.8709L15.8105 7.01384L15.7198 7.10453L15.6291 7.19523L15.5384 7.28592L15.4175 7.37662L15.3268 7.46731L15.2663 7.49755L15.2361 7.52778L15.1756 7.55801H15.1454L15.1756 7.52778L15.2058 7.49755L15.2663 7.46731L15.2965 7.40685L15.4175 7.25569L15.5686 7.0743L15.6291 6.9836L15.6896 6.89291L15.75 6.80221L15.8105 6.71152L15.8709 6.62082L15.9012 6.56036L15.9314 6.49989L15.9616 6.43943V6.37897L15.9314 6.34874V6.3185H15.75V6.34874L15.7198 6.37897L15.6896 6.4092L15.5989 6.49989L15.5384 6.62082L15.4477 6.74175L15.357 6.89291L15.2965 6.95337L15.2361 7.01384L15.1756 7.0743L15.1151 7.10453L15.2058 6.9836L15.2663 6.80221L15.3268 6.74175L15.357 6.65105L15.3872 6.56036L15.4175 6.46966L15.4477 6.37897L15.4779 6.28827L15.5082 6.19758V6.10688L15.5384 6.01619V5.83479L15.5082 5.80456V5.7441H15.4779V5.71387H15.357L15.3268 5.7441L15.2965 5.86503L15.2663 6.01619L15.2361 6.16734L15.1756 6.28827L15.1454 6.43943L15.0849 6.56036V6.62082L15.0547 6.68129L15.0245 6.74175L14.964 6.80221L14.9942 6.68129L15.0245 6.59059V6.46966L15.0547 6.37897V6.13711L15.0245 6.10688V6.04642H14.9942V6.01619H14.9035L14.8733 6.04642L14.8431 6.16734L14.8128 6.3185L14.7826 6.4092L14.7524 6.53013L14.6919 6.65105L14.6617 6.77198L14.6012 6.89291L14.5407 7.01384L14.5105 7.10453L14.4803 7.165L14.4198 7.25569L14.3896 7.31615L14.3291 7.40685L14.2687 7.46731L14.2082 7.55801L14.178 7.61847L14.057 7.7394L13.9663 7.86033L13.8454 7.98125L13.7547 8.10218L13.6338 8.19288L13.5129 8.28357L13.3919 8.4045L13.271 8.4952L13.1803 8.52543L13.0896 8.58589L12.9989 8.64635L12.9082 8.70682L12.7571 8.76728L12.6059 8.82775L12.4547 8.88821L12.3036 8.94867L12.2129 8.97891L12.485 9.22076L12.5152 9.19053L12.5757 9.13006L12.6361 9.03937L12.6966 9.00914L12.7571 8.94867L12.8478 8.88821L12.9082 8.82775L13.0291 8.76728L13.1803 8.70682L13.3012 8.61612L13.4524 8.55566L13.5733 8.4952L13.6942 8.43473L13.7849 8.4045L13.8454 8.34404L13.8756 8.28357L13.9059 8.22311L13.9361 8.16265L13.9966 8.10218L14.0268 8.04172L14.0873 7.98125L14.178 7.89056L14.2384 7.8301L14.3291 7.7394L14.3896 7.67894L14.45 7.6487L14.4803 7.61847L14.5407 7.58824H14.571L14.6314 7.55801L14.6617 7.52778H14.7524L14.8128 7.49755H14.9035L14.964 7.52778L14.9338 7.55801V7.61847L14.9035 7.67894V7.70917L14.8733 7.76963L14.8431 7.8301L14.7826 7.89056L14.7221 7.95102H14.7826L14.8128 7.92079H14.8733L14.9035 7.89056H14.9942V8.01149L14.964 8.04172L14.9338 8.07195V8.10218L14.8431 8.16265L14.7524 8.25334H14.8128L14.8431 8.28357H14.964L14.9035 8.34404L14.8431 8.37427L14.7826 8.4045L14.7221 8.43473L14.6617 8.4952L14.571 8.52543L14.5105 8.55566L14.45 8.61612H14.4803L14.5105 8.64635H14.571L14.5105 8.70682L14.3896 8.73705L14.3594 8.76728L14.2989 8.79751H14.2687V8.88821H14.2989V8.91844H14.2687V8.94867H14.2384L14.2082 8.97891L14.178 9.00914H14.1175L14.057 9.03937H14.0268L13.9966 9.0696L14.0873 9.13006L14.057 9.1603L14.0268 9.19053H13.9966L13.9663 9.22076H13.8454V9.25099L13.8756 9.31146V9.37192L13.8152 9.43238L13.7245 9.49285L13.6338 9.55331L13.5129 9.61377L13.4524 9.64401L13.3919 9.67424L13.3315 9.70447L13.271 9.7347L13.1803 9.76493H13.1501L13.1803 9.79516H13.4524L13.5733 9.76493L13.664 9.7347L13.7547 9.70447L13.8454 9.67424L13.9361 9.61377L14.057 9.55331L14.178 9.49285L14.2687 9.43238L14.2082 9.40215L14.1477 9.37192L14.1175 9.34169H14.0873L14.057 9.31146H13.9966L14.0268 9.28122L14.0873 9.25099H14.1175L14.178 9.22076H14.2687L14.3896 9.19053H14.5407L14.571 9.1603H14.6314V9.13006H14.6012V9.09983H14.3896L14.3291 9.0696H14.2989L14.4198 9.03937L14.5105 9.00914L14.6314 8.97891H14.6919L14.7826 8.94867L14.8431 8.91844H14.8733V8.88821H14.9035L14.9338 8.85798H14.7524L14.6919 8.82775H14.5407L14.571 8.79751H14.6012L14.6919 8.76728L14.7826 8.73705H14.8733L14.9338 8.70682L15.0245 8.67659L15.0849 8.64635L15.1454 8.61612L15.1756 8.58589V8.55566H15.2058V8.52543H14.9035L14.8733 8.4952L15.0547 8.4045L15.2058 8.28357L15.3268 8.22311L15.4477 8.13241L15.5082 8.07195L15.5384 8.04172L15.5989 8.01149L15.6291 7.95102L15.6593 7.92079V7.86033L15.6896 7.8301V7.76963H15.5989L15.5686 7.79986L15.4779 7.8301L15.4175 7.89056H15.3872L15.357 7.92079H15.2965L15.2663 7.95102H15.1454L15.2361 7.86033L15.357 7.76963L15.4779 7.67894L15.5989 7.52778L15.7198 7.40685L15.8407 7.28592L15.9012 7.19523L15.9616 7.13476L15.9919 7.0743L16.0523 7.01384V6.9836V6.95337Z" fill="#FCA110"/>
<path id="Vector_14" d="M13.4524 10.1277H13.2711L13.0897 10.0974H12.9083L12.7571 10.0672H12.6664L12.5757 10.0974H12.4548V10.1881H12.4246V10.2184H12.3943V10.2486H12.3036L12.2734 10.2788L12.3339 10.3393L12.2734 10.3997L12.2432 10.43L12.1827 10.4602L12.1525 10.4904L12.092 10.5207H12.0315L11.9711 10.5509H11.7292L11.6688 10.5811H10.8827L10.8223 10.6114H10.7618L10.7013 10.6416H10.6409L10.5804 10.6718L10.52 10.7021L10.4595 10.7323V10.7625L10.4293 10.7928V10.823H10.399L10.3688 10.8532V10.9137L10.3386 10.9439L10.3688 10.9742H10.4293L10.4595 10.9439H10.52L10.5502 10.9137H10.5804L10.7013 10.823L10.8223 10.7625L10.792 10.9137L10.8223 10.9439V11.0044H10.8827L10.913 10.9742H10.9432V10.9439L11.0037 10.8835L11.0641 10.823L11.0944 10.7928L11.1246 10.7323L11.1548 10.7625V10.9137L11.1246 10.9439V10.9742H11.1548V11.0044H11.2153L11.2455 10.9742H11.2757L11.306 10.9439L11.3362 10.9137L11.3664 10.8532L11.4269 10.823L11.4571 10.7928V10.7625H11.4874L11.5176 10.7323L11.4874 10.9439L11.5176 10.9742H11.6385L11.6688 10.9439H11.699L11.8199 10.7625L11.8502 10.7928V10.8532L11.8804 10.8835V10.9137H11.9106V10.9439H11.9711L12.0013 10.9137L12.0315 10.8835H12.0618V10.8532L12.1222 10.7928L12.1525 10.7323L12.2129 10.7928L12.2432 10.8532H12.2734L12.3036 10.8835V10.8532H12.3641L12.3943 10.823L12.4246 10.7928L12.4548 10.7625L12.485 10.7323L12.5153 10.6718L12.5455 10.6416H12.5757V10.7323H12.606V10.7625H12.6362L12.6664 10.7928L12.6966 10.7625L12.7269 10.7323H12.7571V10.7021L12.8176 10.6114L12.8478 10.5207H12.878L12.9083 10.5509L12.9687 10.5811L12.999 10.6114H13.0292L13.0594 10.6416H13.1501L13.1804 10.6114V10.5811H13.2106V10.5207L13.2408 10.4904V10.3091L13.2711 10.3393L13.3013 10.3695L13.3617 10.3997L13.392 10.43H13.6036L13.6641 10.3997L13.6943 10.3695L13.7245 10.3393L13.7548 10.3091V10.2788L13.785 10.2486V10.1579H13.6036L13.4524 10.1277ZM3.26431 4.68593C3.32478 4.56501 3.35501 4.50454 3.35501 4.35338C3.35501 4.14176 3.20385 3.9906 2.962 3.96037C3.23408 3.96037 3.35501 3.77898 3.35501 3.56736C3.35501 3.44643 3.32478 3.35573 3.26431 3.23481C3.26431 3.23481 2.81084 2.26739 2.62944 1.90461C2.59921 1.84414 2.59921 1.81391 2.59921 1.72321C2.59921 1.60229 2.72014 1.51159 2.84107 1.51159C2.96199 1.51159 3.08292 1.60229 3.08292 1.72321C3.08292 1.87437 2.99223 1.93484 2.93176 1.93484C2.84107 1.93484 2.81084 1.90461 2.81084 1.81391C2.81084 1.75345 2.84107 1.75345 2.8713 1.75345C2.962 1.75345 2.93176 1.87437 2.93176 1.87437C2.96199 1.87437 2.99223 1.81391 2.99223 1.78368C3.02246 1.78368 3.05269 1.75345 3.08292 1.72321C3.05269 1.69298 3.02246 1.69298 2.99223 1.69298C3.02246 1.63252 2.99223 1.60229 2.93176 1.57206V1.63252C2.84107 1.60229 2.72014 1.63252 2.72014 1.78368C2.72014 1.93484 2.81084 2.05576 3.02246 2.02553C2.962 2.05576 2.962 2.086 2.962 2.14646C2.99223 2.14646 3.02246 2.11623 3.02246 2.11623C2.99223 2.14646 2.962 2.17669 2.962 2.26739C2.99223 2.23716 3.02246 2.20692 3.08292 2.23716C3.02246 2.38831 3.11315 2.56971 3.32478 2.63017C3.23408 2.53947 3.20385 2.41855 3.20385 2.32785C3.20385 1.9953 3.29455 1.93484 3.29455 1.69298C3.29455 1.60229 3.23408 1.48136 3.14339 1.4209C3.20385 1.39066 3.26431 1.36043 3.26431 1.3302C3.20385 1.26974 3.17362 1.23951 3.11315 1.23951C3.20385 1.20927 3.29455 1.08835 3.29455 0.937187C3.29455 0.695332 3.20385 0.604637 3.20385 0.33255C3.20385 0.181391 3.32478 0 3.32478 0C3.11315 0.0302318 3.02246 0.211623 3.05269 0.362782C3.02246 0.362782 2.99223 0.362782 2.962 0.33255C2.93176 0.362782 2.96199 0.423246 2.99223 0.483709H2.90153C2.90153 0.513941 2.93176 0.574405 2.99223 0.634869C2.81084 0.574405 2.68991 0.725564 2.68991 0.846491C2.68991 0.937187 2.75037 1.02788 2.84107 1.02788C2.8713 1.02788 2.90153 1.02788 2.93176 0.997651V1.08835C2.99223 1.08835 3.02246 1.05811 2.99223 0.967419C3.02246 0.967419 3.05269 0.937187 3.08292 0.937187C3.05269 0.906955 3.02246 0.906955 2.99223 0.906955C3.02246 0.846491 2.99223 0.81626 2.93176 0.786028C2.93176 0.786028 2.962 0.906955 2.8713 0.906955C2.84107 0.906955 2.81084 0.906955 2.81084 0.846491C2.81084 0.81626 2.84107 0.725564 2.93176 0.755796C3.02246 0.755796 3.08292 0.816259 3.08292 0.967419C3.08292 1.08835 2.96199 1.17904 2.84107 1.17904C2.72014 1.17904 2.62944 1.11858 2.62944 0.967419C2.62944 0.786028 2.8713 0.393014 2.8713 0.241855C2.8713 0.120927 2.7806 0.0604636 2.65968 0.0604636C2.59921 0.0604636 2.53875 0.0906957 2.47829 0.120928C2.44805 0.0906957 2.38759 0.0604636 2.29689 0.0604636C2.2062 0.0604636 2.08527 0.120927 2.08527 0.241855C2.08527 0.393014 2.32713 0.786028 2.32713 0.967419C2.32713 1.08835 2.23643 1.17904 2.1155 1.17904C1.96434 1.17904 1.87365 1.11858 1.87365 0.967419C1.87365 0.816259 1.93411 0.755796 2.02481 0.755796C2.1155 0.755796 2.14574 0.81626 2.14574 0.846491C2.14574 0.906955 2.1155 0.906955 2.08527 0.906955C1.99458 0.906955 2.02481 0.786028 2.02481 0.786028C1.96434 0.81626 1.93411 0.846491 1.96434 0.906955C1.93411 0.906955 1.90388 0.906955 1.87365 0.937187C1.90388 0.967419 1.93411 0.967419 1.96434 0.967419C1.93411 1.02788 1.96434 1.05811 2.02481 1.08835C2.02481 1.05811 1.99458 1.02788 2.02481 0.997651C2.05504 0.997651 2.08527 1.02788 2.1155 1.02788C2.17597 1.02788 2.26666 0.967419 2.26666 0.846491C2.26666 0.695332 2.14574 0.574405 1.96434 0.634869C2.02481 0.604637 2.05504 0.544173 2.05504 0.483709C2.02481 0.483709 1.99458 0.513941 1.96434 0.483709C1.99458 0.453478 2.02481 0.393014 1.99458 0.33255C1.96434 0.362782 1.93411 0.362782 1.90388 0.362782C1.96434 0.211623 1.84342 0 1.63179 0C1.63179 0 1.75272 0.181391 1.75272 0.33255C1.75272 0.604637 1.66203 0.695332 1.66203 0.937187C1.66203 1.08835 1.75272 1.17904 1.84342 1.23951C1.75272 1.23951 1.72249 1.26974 1.69226 1.3302C1.72249 1.36043 1.75272 1.4209 1.81319 1.4209C1.72249 1.48136 1.66203 1.60229 1.66203 1.69298C1.66203 1.93484 1.75272 1.9953 1.75272 2.32785C1.75272 2.41855 1.72249 2.53947 1.63179 2.63017C1.87365 2.56971 1.93411 2.38831 1.87365 2.23716C1.93411 2.20692 1.96434 2.23716 1.99458 2.26739C1.99458 2.17669 1.96434 2.14646 1.93411 2.11623C1.93411 2.11623 1.96434 2.11623 1.99458 2.14646C1.99458 2.086 1.96434 2.05576 1.93411 2.02553C2.1155 2.05576 2.23643 1.93484 2.23643 1.78368C2.23643 1.63252 2.1155 1.60229 2.02481 1.63252V1.57206C1.96434 1.57206 1.93411 1.60229 1.96434 1.69298C1.93411 1.69298 1.90388 1.72321 1.87365 1.72321C1.90388 1.75345 1.93411 1.75345 1.96434 1.78368C1.93411 1.84414 1.96434 1.87437 2.02481 1.87437C2.02481 1.87437 1.99458 1.75345 2.08527 1.75345C2.1155 1.75345 2.14574 1.78368 2.14574 1.81391C2.14574 1.87437 2.1155 1.93484 2.02481 1.93484C1.93411 1.93484 1.87365 1.87437 1.87365 1.72321C1.87365 1.60229 1.99458 1.51159 2.1155 1.51159C2.23643 1.51159 2.35736 1.60229 2.35736 1.72321C2.35736 1.81391 2.35736 1.84414 2.32713 1.90461C2.14574 2.26739 1.69226 3.23481 1.69226 3.23481C1.63179 3.35573 1.60156 3.4162 1.60156 3.56736C1.60156 3.77898 1.75272 3.93014 1.99458 3.96037C1.72249 3.96037 1.60156 4.14176 1.60156 4.35338C1.60156 4.47431 1.63179 4.56501 1.69226 4.68593C1.69226 4.68593 2.14574 5.65335 2.32713 6.01614C2.35736 6.0766 2.35736 6.10683 2.35736 6.19753C2.35736 6.31845 2.23643 6.40915 2.1155 6.40915C1.99458 6.40915 1.87365 6.31845 1.87365 6.19753C1.87365 6.04637 1.96434 5.9859 2.02481 5.9859C2.1155 5.9859 2.14574 6.01614 2.14574 6.10683C2.14574 6.16729 2.1155 6.16729 2.08527 6.16729C1.99458 6.16729 2.02481 6.04637 2.02481 6.04637C1.99458 6.04637 1.96434 6.10683 1.96434 6.13706C1.93411 6.13706 1.90388 6.16729 1.87365 6.19753C1.90388 6.22776 1.93411 6.22776 1.96434 6.22776C1.93411 6.28822 1.96434 6.31845 2.02481 6.34869V6.28822C2.1155 6.31845 2.23643 6.28822 2.23643 6.13706C2.23643 5.9859 2.14574 5.86498 1.93411 5.89521C1.99458 5.86498 1.99458 5.83474 1.99458 5.77428C1.96434 5.77428 1.93411 5.80451 1.93411 5.80451C1.96434 5.77428 1.99458 5.74405 1.99458 5.65335C1.96434 5.68358 1.93411 5.71382 1.87365 5.68358C1.93411 5.53243 1.84342 5.35103 1.63179 5.29057C1.72249 5.38127 1.75272 5.50219 1.75272 5.59289C1.75272 5.92544 1.66203 5.9859 1.66203 6.22776C1.66203 6.31845 1.72249 6.43938 1.81319 6.49984C1.75272 6.53008 1.69226 6.56031 1.69226 6.59054C1.72249 6.62077 1.75272 6.68123 1.81319 6.68123C1.72249 6.7417 1.66203 6.86263 1.66203 6.95332C1.66203 7.19518 1.75272 7.25564 1.75272 7.58819C1.75272 7.67889 1.72249 7.79981 1.63179 7.89051C1.87365 7.83004 1.93411 7.64865 1.87365 7.49749C1.93411 7.46726 1.96434 7.49749 1.99458 7.52773C1.99458 7.43703 1.96434 7.4068 1.93411 7.37657C1.93411 7.37657 1.96434 7.37657 1.99458 7.4068C1.99458 7.34634 1.96434 7.3161 1.93411 7.28587C2.1155 7.3161 2.23643 7.19518 2.23643 7.04402C2.23643 6.89286 2.1155 6.86263 2.02481 6.89286V6.83239C1.96434 6.83239 1.93411 6.86263 1.96434 6.95332C1.93411 6.95332 1.90388 6.98355 1.87365 6.98355C1.90388 7.01378 1.93411 7.01379 1.96434 7.04402C1.93411 7.10448 1.96434 7.13471 2.02481 7.13471C2.02481 7.13471 1.99458 7.01379 2.08527 7.01379C2.1155 7.01379 2.14574 7.04402 2.14574 7.07425C2.14574 7.13471 2.1155 7.19518 2.02481 7.19518C1.93411 7.19518 1.87365 7.13471 1.87365 6.98355C1.87365 6.86263 1.99458 6.77193 2.1155 6.77193C2.23643 6.77193 2.35736 6.86263 2.35736 6.98355C2.35736 7.07425 2.35736 7.10448 2.32713 7.16494C2.14574 7.52773 1.69226 8.49514 1.69226 8.49514C1.63179 8.61607 1.60156 8.67654 1.60156 8.8277C1.60156 9.03932 1.75272 9.19048 1.99458 9.22071C1.72249 9.22071 1.60156 9.4021 1.60156 9.61372C1.60156 9.73465 1.63179 9.82535 1.69226 9.94627C1.69226 9.94627 2.14574 10.9137 2.32713 11.2765C2.35736 11.3369 2.35736 11.3672 2.35736 11.4579C2.35736 11.5788 2.23643 11.6695 2.1155 11.6695C1.99458 11.6695 1.87365 11.5788 1.87365 11.4579C1.87365 11.3067 1.96434 11.2462 2.02481 11.2462C2.1155 11.2462 2.14574 11.2765 2.14574 11.3672C2.14574 11.4276 2.1155 11.4276 2.08527 11.4276C1.99458 11.4276 2.02481 11.3067 2.02481 11.3067C1.99458 11.3067 1.96434 11.3672 1.96434 11.3974C1.93411 11.3974 1.90388 11.4276 1.87365 11.4579C1.90388 11.4881 1.93411 11.4881 1.96434 11.4881C1.93411 11.5486 1.96434 11.5788 2.02481 11.609V11.5486C2.1155 11.5788 2.23643 11.5486 2.23643 11.3974C2.23643 11.2462 2.14574 11.1253 1.93411 11.1555C1.99458 11.1253 1.99458 11.0951 1.99458 11.0346C1.96434 11.0346 1.93411 11.0649 1.93411 11.0649C1.96434 11.0346 1.99458 11.0044 1.99458 10.9137C1.96434 10.9439 1.93411 10.9742 1.87365 10.9439C1.93411 10.7928 1.84342 10.6114 1.63179 10.5509C1.72249 10.6416 1.75272 10.7625 1.75272 10.8532C1.75272 11.1858 1.66203 11.2462 1.66203 11.4881C1.66203 11.5788 1.72249 11.6997 1.81319 11.7602C1.75272 11.7904 1.69226 11.8206 1.69226 11.8509C1.75272 11.9113 1.78295 11.9416 1.84342 11.9416C1.75272 11.9718 1.66203 12.0927 1.66203 12.2439C1.66203 12.4857 1.75272 12.5764 1.75272 12.8485C1.75272 12.9997 1.63179 13.1811 1.63179 13.1811C1.84342 13.1508 1.93411 12.9695 1.90388 12.8183C1.93411 12.8183 1.96434 12.8183 1.99458 12.8485C1.99458 12.8183 1.99458 12.7578 1.96434 12.6974H2.05504C2.05504 12.6671 2.02481 12.6067 1.96434 12.5462C2.14574 12.6067 2.26666 12.4555 2.26666 12.3346C2.26666 12.2439 2.2062 12.1532 2.1155 12.1532C2.08527 12.1532 2.05504 12.1532 2.02481 12.1834V12.0927C1.96434 12.0927 1.93411 12.123 1.96434 12.2137C1.93411 12.2137 1.90388 12.2439 1.87365 12.2439C1.90388 12.2741 1.93411 12.2741 1.96434 12.2741C1.93411 12.3346 1.96434 12.3648 2.02481 12.3951C2.02481 12.3951 1.99458 12.2741 2.08527 12.2741C2.1155 12.2741 2.14574 12.2741 2.14574 12.3346C2.14574 12.3648 2.1155 12.4555 2.02481 12.4253C1.93411 12.4253 1.87365 12.3648 1.87365 12.2137C1.87365 12.0927 1.99458 12.002 2.1155 12.002C2.23643 12.002 2.32713 12.0625 2.32713 12.2137C2.32713 12.3951 2.08527 12.7881 2.08527 12.9392C2.08527 13.0602 2.17597 13.1206 2.29689 13.1206C2.35736 13.1206 2.41782 13.0904 2.47829 13.0602C2.50852 13.0904 2.56898 13.1206 2.65968 13.1206C2.75037 13.1206 2.8713 13.0602 2.8713 12.9392C2.8713 12.7881 2.62944 12.3951 2.62944 12.2137C2.62944 12.0927 2.72014 12.002 2.84107 12.002C2.99223 12.002 3.08292 12.0625 3.08292 12.2137C3.08292 12.3648 3.02246 12.4253 2.93176 12.4253C2.84107 12.4253 2.81084 12.3648 2.81084 12.3346C2.81084 12.2741 2.84107 12.2741 2.8713 12.2741C2.962 12.2741 2.93176 12.3951 2.93176 12.3951C2.99223 12.3648 3.02246 12.3346 2.99223 12.2741C3.02246 12.2741 3.05269 12.2741 3.08292 12.2439C3.05269 12.2137 3.02246 12.2137 2.99223 12.2137C3.02246 12.1532 2.99223 12.123 2.93176 12.0927C2.93176 12.123 2.96199 12.1532 2.93176 12.1834C2.90153 12.1834 2.8713 12.1532 2.84107 12.1532C2.7806 12.1532 2.68991 12.2137 2.68991 12.3346C2.68991 12.4857 2.81084 12.6067 2.99223 12.5462C2.93176 12.5764 2.90153 12.6369 2.90153 12.6974C2.93176 12.6974 2.96199 12.6671 2.99223 12.6974C2.96199 12.7276 2.93176 12.7881 2.962 12.8485C2.99223 12.8183 3.02246 12.8183 3.05269 12.8183C2.99223 12.9695 3.08292 13.1811 3.32478 13.1811C3.32478 13.1811 3.20385 12.9997 3.20385 12.8485C3.20385 12.5764 3.29455 12.4857 3.29455 12.2439C3.29455 12.0927 3.20385 12.002 3.11315 11.9416C3.20385 11.9416 3.23408 11.9113 3.26431 11.8509C3.23408 11.8206 3.20385 11.7602 3.14339 11.7602C3.23408 11.6997 3.29455 11.5788 3.29455 11.4881C3.29455 11.2462 3.20385 11.1858 3.20385 10.8532C3.20385 10.7625 3.23408 10.6416 3.32478 10.5509C3.08292 10.6114 3.02246 10.7928 3.08292 10.9439C3.02246 10.9742 2.99223 10.9439 2.962 10.9137C2.962 11.0044 2.99223 11.0346 3.02246 11.0649C3.02246 11.0649 2.99223 11.0649 2.962 11.0346C2.962 11.0951 2.99223 11.1253 3.02246 11.1555C2.84107 11.1253 2.72014 11.2462 2.72014 11.3974C2.72014 11.5486 2.84107 11.5788 2.93176 11.5486V11.609C2.99223 11.609 3.02246 11.5788 2.99223 11.4881C3.02246 11.4881 3.05269 11.4579 3.08292 11.4579C3.05269 11.4276 3.02246 11.4276 2.99223 11.3974C3.02246 11.3369 2.99223 11.3067 2.93176 11.3067C2.93176 11.3067 2.962 11.4276 2.8713 11.4276C2.84107 11.4276 2.81084 11.3974 2.81084 11.3672C2.81084 11.3067 2.84107 11.2462 2.93176 11.2462C3.02246 11.2462 3.08292 11.3067 3.08292 11.4579C3.08292 11.5788 2.96199 11.6695 2.84107 11.6695C2.72014 11.6695 2.59921 11.5788 2.59921 11.4579C2.59921 11.3672 2.59921 11.3369 2.62944 11.2765C2.81084 10.9137 3.26431 9.94627 3.26431 9.94627C3.32478 9.82535 3.35501 9.76488 3.35501 9.61372C3.35501 9.4021 3.20385 9.25094 2.962 9.22071C3.23408 9.22071 3.35501 9.03932 3.35501 8.8277C3.35501 8.70677 3.32478 8.61607 3.26431 8.49514C3.26431 8.49514 2.81084 7.52773 2.62944 7.16494C2.59921 7.10448 2.59921 7.07425 2.59921 6.98355C2.59921 6.86263 2.72014 6.77193 2.84107 6.77193C2.96199 6.77193 3.08292 6.86263 3.08292 6.98355C3.08292 7.13471 2.99223 7.19518 2.93176 7.19518C2.84107 7.19518 2.81084 7.16494 2.81084 7.07425C2.81084 7.01378 2.84107 7.01379 2.8713 7.01379C2.962 7.01379 2.93176 7.13471 2.93176 7.13471C2.96199 7.13471 2.99223 7.07425 2.99223 7.04402C3.02246 7.04402 3.05269 7.01378 3.08292 6.98355C3.05269 6.95332 3.02246 6.95332 2.99223 6.95332C3.02246 6.89286 2.99223 6.86263 2.93176 6.83239V6.89286C2.84107 6.86263 2.72014 6.92309 2.72014 7.04402C2.72014 7.19518 2.81084 7.3161 3.02246 7.28587C2.962 7.3161 2.962 7.34634 2.962 7.4068C2.99223 7.4068 3.02246 7.37657 3.02246 7.37657C2.99223 7.4068 2.962 7.43703 2.962 7.52773C2.99223 7.49749 3.02246 7.46726 3.08292 7.49749C3.02246 7.64865 3.11315 7.83004 3.32478 7.89051C3.23408 7.79981 3.20385 7.67889 3.20385 7.58819C3.20385 7.25564 3.29455 7.19518 3.29455 6.95332C3.29455 6.86263 3.23408 6.7417 3.14339 6.68123C3.20385 6.651 3.26431 6.62077 3.26431 6.59054C3.23408 6.56031 3.20385 6.49984 3.14339 6.49984C3.23408 6.43938 3.29455 6.31845 3.29455 6.22776C3.29455 5.9859 3.20385 5.92544 3.20385 5.59289C3.20385 5.50219 3.23408 5.38127 3.32478 5.29057C3.08292 5.35103 3.02246 5.53243 3.08292 5.68358C3.02246 5.71382 2.99223 5.68358 2.962 5.65335C2.962 5.74405 2.99223 5.77428 3.02246 5.80451C3.02246 5.80451 2.99223 5.80451 2.962 5.77428C2.962 5.83474 2.99223 5.86498 3.02246 5.89521C2.84107 5.86498 2.72014 5.9859 2.72014 6.13706C2.72014 6.28822 2.84107 6.31845 2.93176 6.28822V6.34869C2.99223 6.34869 3.02246 6.31845 2.99223 6.22776C3.02246 6.22776 3.05269 6.19753 3.08292 6.19753C3.05269 6.16729 3.02246 6.16729 2.99223 6.13706C3.02246 6.0766 2.99223 6.04637 2.93176 6.04637C2.93176 6.04637 2.962 6.16729 2.8713 6.16729C2.84107 6.16729 2.81084 6.13706 2.81084 6.10683C2.81084 6.04637 2.84107 5.9859 2.93176 5.9859C3.02246 5.9859 3.08292 6.04637 3.08292 6.19753C3.08292 6.31845 2.96199 6.40915 2.84107 6.40915C2.72014 6.40915 2.59921 6.31845 2.59921 6.19753C2.59921 6.10683 2.59921 6.0766 2.62944 6.01614C2.81084 5.65335 3.26431 4.68593 3.26431 4.68593ZM2.47829 4.29292C2.41782 4.11153 2.23643 4.02083 2.08527 3.9906C2.23643 3.96037 2.41782 3.86967 2.47829 3.68828C2.53875 3.86967 2.72014 3.96037 2.8713 3.9906C2.72014 4.02083 2.53875 4.11153 2.47829 4.29292ZM2.29689 0.33255C2.35736 0.272087 2.47829 0.393014 2.47829 0.393014C2.47829 0.393014 2.62944 0.272087 2.65968 0.33255C2.72014 0.393014 2.56898 0.695332 2.47829 0.876723C2.38759 0.665101 2.23643 0.393014 2.29689 0.33255ZM2.2062 1.4209H2.17597C2.29689 1.39066 2.41782 1.3302 2.47829 1.23951C2.53875 1.3302 2.62944 1.39066 2.7806 1.4209H2.75037C2.59921 1.45113 2.50852 1.54182 2.47829 1.60229C2.44805 1.54182 2.35736 1.45113 2.2062 1.4209ZM1.78295 3.59759C1.78295 3.53712 1.81319 3.47666 1.84342 3.4162C1.96434 3.14411 2.38759 2.23716 2.50852 2.02553C2.59921 2.20692 3.02246 3.11388 3.17362 3.4162C3.20385 3.47666 3.20385 3.53712 3.20385 3.59759C3.20385 3.77898 3.05269 3.83944 2.962 3.83944C2.84107 3.83944 2.75037 3.74875 2.75037 3.65805C2.75037 3.59759 2.7806 3.56736 2.84107 3.56736C2.96199 3.56736 2.96199 3.65805 2.93176 3.74875C3.02246 3.71852 3.05269 3.65805 3.05269 3.59759C3.08292 3.59759 3.14339 3.56736 3.17362 3.53712C3.14339 3.50689 3.11315 3.47666 3.05269 3.47666C3.08292 3.38597 3.02246 3.3255 2.93176 3.3255C2.96199 3.38597 2.96199 3.47666 2.84107 3.47666C2.75037 3.47666 2.68991 3.50689 2.62944 3.53712V3.14411C2.62944 3.02318 2.7806 3.02318 2.90153 3.05342C2.8713 2.93249 2.7806 2.84179 2.59921 2.87202C2.62944 2.84179 2.68991 2.81156 2.68991 2.72087C2.68991 2.59994 2.59921 2.47901 2.53875 2.44878C2.47829 2.47901 2.38759 2.59994 2.38759 2.72087C2.38759 2.81156 2.44805 2.84179 2.47829 2.87202C2.29689 2.84179 2.2062 2.93249 2.17597 3.05342C2.26666 3.02318 2.44805 3.02318 2.44805 3.14411V3.53712C2.41782 3.47666 2.32713 3.47666 2.23643 3.47666C2.1155 3.47666 2.1155 3.38597 2.14574 3.3255C2.08527 3.35573 2.02481 3.38597 2.02481 3.47666C1.96434 3.47666 1.93411 3.50689 1.90388 3.53712C1.87365 3.50689 1.90388 3.53712 1.96434 3.53712C1.96434 3.59759 1.99458 3.65805 2.08527 3.68828C2.05504 3.62782 2.02481 3.53712 2.14574 3.53712C2.2062 3.53712 2.23643 3.56736 2.23643 3.62782C2.23643 3.71852 2.1155 3.80921 2.02481 3.80921C1.93411 3.83944 1.78295 3.77898 1.78295 3.59759ZM2.47829 8.8277C2.53875 9.00909 2.72014 9.09978 2.8713 9.13001C2.72014 9.16025 2.53875 9.25094 2.47829 9.43233C2.41782 9.25094 2.23643 9.16025 2.08527 9.13001C2.23643 9.09978 2.41782 9.00909 2.47829 8.8277ZM2.65968 12.7881C2.59921 12.8485 2.47829 12.7276 2.47829 12.7276C2.47829 12.7276 2.32713 12.8485 2.29689 12.7881C2.23643 12.7276 2.38759 12.4253 2.47829 12.2439C2.53875 12.4555 2.72014 12.7276 2.65968 12.7881ZM2.72014 11.6997H2.75037C2.62944 11.73 2.50852 11.7904 2.44805 11.8811C2.38759 11.7904 2.29689 11.73 2.14574 11.6997H2.17597C2.32713 11.6695 2.41782 11.5788 2.44805 11.5183C2.50852 11.5788 2.59921 11.6695 2.72014 11.6997ZM3.17362 9.52303C3.17362 9.58349 3.14339 9.64395 3.14339 9.70442C3.02246 9.9765 2.56898 10.8835 2.47829 11.0951C2.38759 10.9137 1.96434 10.0067 1.81319 9.70442C1.78295 9.64395 1.75272 9.58349 1.75272 9.52303C1.75272 9.34164 1.90388 9.28117 1.99458 9.28117C2.1155 9.28117 2.2062 9.37187 2.2062 9.46256C2.2062 9.52303 2.17597 9.55326 2.1155 9.55326C1.99458 9.55326 1.99458 9.46256 2.02481 9.37187C1.93411 9.4021 1.90388 9.46256 1.90388 9.52303C1.87365 9.52303 1.81319 9.55326 1.78295 9.58349C1.81319 9.61372 1.84342 9.64395 1.90388 9.64395C1.87365 9.73465 1.93411 9.79511 2.02481 9.79511C1.99458 9.73465 1.99458 9.64395 2.1155 9.64395C2.2062 9.64395 2.26666 9.61372 2.32713 9.58349V9.97651C2.32713 10.0974 2.17597 10.0974 2.05504 10.0672C2.08527 10.1881 2.17597 10.2788 2.35736 10.2486C2.32713 10.2788 2.26666 10.3091 2.26666 10.3997C2.26666 10.5207 2.35736 10.6416 2.41782 10.6718C2.47829 10.6416 2.56898 10.5207 2.56898 10.3997C2.56898 10.3091 2.50852 10.2788 2.47829 10.2486C2.65968 10.2788 2.75037 10.1881 2.7806 10.0672C2.68991 10.0974 2.50852 10.0974 2.50852 9.97651V9.58349C2.53875 9.64396 2.62944 9.64395 2.72014 9.64395C2.84107 9.64395 2.84107 9.73465 2.81084 9.79511C2.8713 9.76488 2.93176 9.73465 2.93176 9.64395C2.99223 9.64395 3.02246 9.61372 3.05269 9.58349C3.05269 9.61372 3.02246 9.58349 2.99223 9.58349C2.99223 9.52303 2.962 9.46256 2.8713 9.43233C2.90153 9.4928 2.90153 9.61372 2.7806 9.61372C2.72014 9.61372 2.68991 9.58349 2.68991 9.52303C2.68991 9.43233 2.81084 9.34164 2.90153 9.34164C2.99223 9.28117 3.17362 9.34164 3.17362 9.52303ZM3.11315 8.52538C3.14339 8.58584 3.14339 8.6463 3.14339 8.70677C3.14339 8.88816 2.99223 8.94862 2.90153 8.94862C2.7806 8.94862 2.68991 8.85793 2.68991 8.76723C2.68991 8.70677 2.72014 8.67654 2.7806 8.67654C2.90153 8.67654 2.90153 8.76723 2.8713 8.85793C2.962 8.82769 2.99223 8.76723 2.99223 8.70677C3.02246 8.70677 3.08292 8.67654 3.11315 8.6463C3.08292 8.61607 3.05269 8.58584 2.99223 8.58584C3.02246 8.49514 2.962 8.43468 2.8713 8.43468C2.90153 8.49514 2.90153 8.58584 2.7806 8.58584C2.68991 8.58584 2.62944 8.61607 2.56898 8.6463V8.25329C2.56898 8.13236 2.72014 8.13236 2.84107 8.16259C2.81084 8.04167 2.72014 7.95097 2.53875 7.9812C2.56898 7.95097 2.62944 7.92074 2.62944 7.83004C2.62944 7.70912 2.53875 7.58819 2.47829 7.55796C2.41782 7.58819 2.32713 7.70912 2.32713 7.83004C2.32713 7.92074 2.38759 7.95097 2.41782 7.9812C2.23643 7.95097 2.14574 8.04167 2.1155 8.16259C2.2062 8.13236 2.38759 8.13236 2.38759 8.25329V8.6463C2.35736 8.58584 2.26666 8.58584 2.17597 8.58584C2.05504 8.58584 2.05504 8.49514 2.08527 8.43468C2.02481 8.46491 1.96434 8.49514 1.96434 8.58584C1.90388 8.58584 1.87365 8.61607 1.84342 8.6463C1.87365 8.6463 1.90388 8.67654 1.96434 8.67654C1.96434 8.737 1.99458 8.79746 2.08527 8.8277C2.05504 8.76723 2.02481 8.67654 2.14574 8.67654C2.2062 8.67654 2.23643 8.70677 2.23643 8.76723C2.23643 8.85793 2.1155 8.94862 2.02481 8.94862C1.93411 8.94862 1.78295 8.88816 1.78295 8.70677C1.78295 8.6463 1.81319 8.58584 1.84342 8.52538C1.96434 8.25329 2.38759 7.34633 2.50852 7.13471C2.56898 7.34633 2.99223 8.25329 3.11315 8.52538ZM2.72014 6.56031C2.56898 6.59054 2.47829 6.68123 2.44805 6.7417C2.41782 6.68123 2.32713 6.59054 2.17597 6.56031C2.32713 6.53008 2.41782 6.43938 2.44805 6.37892C2.50852 6.43938 2.59921 6.53008 2.72014 6.56031ZM2.47829 5.95567C2.38759 5.77428 1.96434 4.86732 1.81319 4.56501C1.78295 4.50454 1.75272 4.44408 1.75272 4.38362C1.75272 4.20223 1.90388 4.14176 1.99458 4.14176C2.1155 4.14176 2.2062 4.23246 2.2062 4.32315C2.2062 4.38362 2.17597 4.41385 2.1155 4.41385C1.99458 4.41385 1.99458 4.32315 2.02481 4.23246C1.93411 4.26269 1.90388 4.32315 1.90388 4.38362C1.87365 4.38362 1.81319 4.41385 1.78295 4.44408C1.81319 4.47431 1.84342 4.50454 1.90388 4.50454C1.87365 4.59524 1.93411 4.6557 2.02481 4.6557C1.99458 4.59524 1.99458 4.50454 2.1155 4.50454C2.2062 4.50454 2.26666 4.47431 2.32713 4.44408V4.83709C2.32713 4.95802 2.17597 4.95802 2.05504 4.92779C2.08527 5.04872 2.17597 5.13941 2.35736 5.10918C2.32713 5.13941 2.26666 5.16964 2.26666 5.26034C2.26666 5.38127 2.35736 5.50219 2.41782 5.53243C2.47829 5.50219 2.56898 5.38127 2.56898 5.26034C2.56898 5.16964 2.50852 5.13941 2.47829 5.10918C2.65968 5.13941 2.75037 5.04872 2.7806 4.92779C2.68991 4.95802 2.50852 4.95802 2.50852 4.83709V4.44408C2.53875 4.50454 2.62944 4.50454 2.72014 4.50454C2.84107 4.50454 2.84107 4.59524 2.81084 4.6557C2.8713 4.62547 2.93176 4.59524 2.93176 4.50454C2.99223 4.50454 3.02246 4.47431 3.05269 4.44408C3.05269 4.47431 3.02246 4.44408 2.99223 4.44408C2.99223 4.38362 2.962 4.32315 2.8713 4.29292C2.90153 4.35338 2.90153 4.47431 2.7806 4.47431C2.72014 4.47431 2.68991 4.44408 2.68991 4.38362C2.68991 4.29292 2.81084 4.20223 2.90153 4.20223C2.99223 4.20223 3.14339 4.26269 3.14339 4.44408C3.14339 4.50454 3.11315 4.56501 3.11315 4.62547C2.99223 4.86733 2.56898 5.77428 2.47829 5.95567Z" fill="#FEC50C"/>
<path id="Vector_15" d="M2.69039 11.1558C2.69039 11.186 2.66016 11.2162 2.66016 11.2465C2.66016 11.3976 2.78108 11.4278 2.87178 11.3976V11.4581C2.93224 11.4581 2.96247 11.4278 2.93224 11.3372C2.96247 11.3372 2.99271 11.3069 3.02294 11.3069C2.99271 11.2767 2.96247 11.2767 2.93224 11.2465C2.96247 11.186 2.93224 11.1558 2.87178 11.1558C2.87178 11.1558 2.90201 11.2767 2.81132 11.2767C2.78108 11.2767 2.75085 11.2465 2.75085 11.2162C2.75085 11.186 2.75085 11.186 2.78108 11.1558H2.69039Z" fill="#FCA110"/>
<path id="Vector_16" d="M3.23416 12.0627C3.23416 11.9115 3.14347 11.8208 3.05277 11.7604C3.14347 11.7604 3.1737 11.7301 3.20393 11.6697C3.1737 11.6394 3.14347 11.579 3.08301 11.579C3.1737 11.5185 3.23416 11.3976 3.23416 11.3069C3.23416 11.2464 3.23416 11.186 3.20393 11.1557H2.99231C3.02254 11.186 3.05277 11.2464 3.05277 11.3069C3.05277 11.4278 2.93185 11.5185 2.81092 11.5185C2.68999 11.5185 2.56906 11.4278 2.56906 11.3069C2.56906 11.2464 2.56906 11.186 2.5993 11.1255H2.29698C2.32721 11.1557 2.32721 11.2162 2.32721 11.3069C2.32721 11.4278 2.20628 11.5185 2.08536 11.5185C1.96443 11.5185 1.8435 11.4278 1.8435 11.3069C1.8435 11.2162 1.87373 11.186 1.90396 11.1557H1.72257C1.72257 11.2162 1.69234 11.2464 1.69234 11.3069C1.69234 11.3976 1.7528 11.5185 1.8435 11.579C1.78304 11.6092 1.72257 11.6394 1.72257 11.6697C1.78304 11.7301 1.81327 11.7604 1.87373 11.7604C1.78304 11.7906 1.69234 11.9115 1.69234 12.0627C1.69234 12.3045 1.78304 12.3952 1.78304 12.6673C1.78304 12.7882 1.69234 12.9696 1.66211 12.9999C1.87373 12.9696 1.96443 12.7882 1.90396 12.6371C1.9342 12.6371 1.96443 12.6371 1.99466 12.6673C1.99466 12.6371 1.99466 12.5766 1.96443 12.5162H2.05512C2.05512 12.4859 2.02489 12.4255 1.96443 12.365C2.14582 12.4255 2.26675 12.2743 2.26675 12.1534C2.26675 12.0627 2.20628 11.972 2.11559 11.972C2.08536 11.972 2.05512 11.972 2.02489 12.0022V11.9115C1.96443 11.9115 1.9342 11.9417 1.96443 12.0324C1.9342 12.0324 1.90396 12.0627 1.87373 12.0627C1.90396 12.0929 1.9342 12.0929 1.96443 12.0929C1.9342 12.1534 1.96443 12.1836 2.02489 12.2138C2.02489 12.2138 1.99466 12.0929 2.08536 12.0929C2.11559 12.0929 2.14582 12.0929 2.14582 12.1534C2.14582 12.1836 2.11559 12.2743 2.02489 12.2441C1.9342 12.2441 1.87373 12.1836 1.87373 12.0324C1.87373 11.9115 1.99466 11.8208 2.11559 11.8208C2.23651 11.8208 2.32721 11.8813 2.32721 12.0324C2.32721 12.2138 2.08536 12.6068 2.08536 12.758C2.08536 12.8789 2.17605 12.9394 2.29698 12.9394C2.35744 12.9394 2.41791 12.9092 2.47837 12.8789C2.5086 12.9092 2.56906 12.9394 2.65976 12.9394C2.75046 12.9394 2.87138 12.8789 2.87138 12.758C2.87138 12.6068 2.62953 12.2138 2.62953 12.0324C2.62953 11.9115 2.72022 11.8208 2.84115 11.8208C2.99231 11.8208 3.08301 11.8813 3.08301 12.0324C3.08301 12.1836 3.02254 12.2441 2.93185 12.2441C2.84115 12.2441 2.81092 12.1836 2.81092 12.1534C2.81092 12.0929 2.84115 12.0929 2.87138 12.0929C2.96208 12.0929 2.93185 12.2138 2.93185 12.2138C2.99231 12.1836 3.02254 12.1534 2.99231 12.0929C3.02254 12.0929 3.05277 12.0929 3.08301 12.0627C3.05277 12.0324 3.02254 12.0324 2.99231 12.0324C3.02254 11.972 2.99231 11.9417 2.93185 11.9115C2.93185 11.9417 2.96208 11.972 2.93185 12.0022C2.90161 12.0022 2.87138 11.972 2.84115 11.972C2.78069 11.972 2.68999 12.0324 2.68999 12.1534C2.68999 12.3045 2.81092 12.4255 2.99231 12.365C2.93185 12.3952 2.90161 12.4557 2.90161 12.5162C2.93185 12.5162 2.96208 12.4859 2.99231 12.5162C2.96208 12.5464 2.93185 12.6068 2.96208 12.6673C2.99231 12.6371 3.02254 12.6371 3.05277 12.6371C2.99231 12.7882 3.08301 12.9999 3.32486 12.9999C3.32486 12.9999 3.20393 12.8185 3.20393 12.6673C3.14347 12.3952 3.23416 12.3045 3.23416 12.0627ZM2.65976 12.7882C2.5993 12.8487 2.47837 12.7278 2.47837 12.7278C2.47837 12.7278 2.32721 12.8487 2.29698 12.7882C2.23651 12.7278 2.38767 12.4255 2.47837 12.2441C2.53883 12.4557 2.72022 12.7278 2.65976 12.7882ZM2.47837 11.8813C2.41791 11.7906 2.32721 11.7301 2.17605 11.6999H2.20628C2.35744 11.6697 2.44814 11.579 2.47837 11.5185C2.5086 11.579 2.5993 11.6697 2.75046 11.6999H2.78069C2.62953 11.7301 2.53883 11.7906 2.47837 11.8813Z" fill="#FCA110"/>
<path id="Vector_17" d="M2.17638 11.2162C2.17638 11.2767 2.14615 11.2767 2.11592 11.2767C2.02522 11.2767 2.05546 11.1558 2.05546 11.1558C2.02522 11.1558 1.99499 11.2162 1.99499 11.2465C1.96476 11.2465 1.93453 11.2767 1.9043 11.3069C1.93453 11.3372 1.96476 11.3372 1.99499 11.3372C1.96476 11.3976 1.99499 11.4278 2.05546 11.4581V11.3976C2.14615 11.4278 2.26708 11.3976 2.26708 11.2465C2.26708 11.2162 2.26708 11.186 2.23685 11.1558H2.14615C2.17638 11.186 2.17638 11.186 2.17638 11.2162Z" fill="#FCA110"/>
</g>
</svg>
