<svg width="35" height="35" viewBox="0 0 35 35" fill="none" xmlns="http://www.w3.org/2000/svg">
<path d="M9.35989 12.3426L0.34468 20.0908C0.1753 20.2365 0.0621706 20.4192 0.0192556 20.6164C-0.0236594 20.8137 0.00551874 21.0168 0.103188 21.2007C0.200858 21.3847 0.362744 21.5414 0.568862 21.6515C0.774981 21.7616 1.01631 21.8203 1.26306 21.8203H13.1759L9.50903 33.7259C9.32283 34.3308 9.85979 35 10.7341 35C11.0733 35 11.4079 34.8892 11.653 34.6786L23.9047 24.1488L27.3756 21.1657L34.6553 14.9091C34.8247 14.7635 34.9378 14.5807 34.9807 14.3835C35.0237 14.1863 34.9945 13.9831 34.8968 13.7992C34.7991 13.6153 34.6373 13.4586 34.4311 13.3485C34.225 13.2384 33.9837 13.1797 33.7369 13.1796H21.8241L25.491 1.27402C25.5587 1.05404 25.5347 0.822047 25.4227 0.614321C25.3107 0.406595 25.1171 0.234857 24.872 0.125971C24.627 0.0170845 24.3444 -0.022808 24.0685 0.0125333C23.7926 0.0478746 23.5389 0.156456 23.3471 0.321294L12.8308 9.35953L9.35989 12.3426Z" fill="#7D8EA0"/>
</svg>
