<svg width="28" height="35" viewBox="0 0 28 35" fill="none" xmlns="http://www.w3.org/2000/svg">
<g id="Group">
<path id="Vector" d="M7.33706 12.2769L0.270188 19.7594C0.137415 19.9001 0.0487345 20.0765 0.0150941 20.267C-0.0185462 20.4575 0.00432605 20.6536 0.0808877 20.8313C0.157449 21.0089 0.284349 21.1602 0.445922 21.2665C0.607495 21.3729 0.796669 21.4296 0.990092 21.4296H10.3284L7.45397 32.927C7.30801 33.5111 7.72893 34.1574 8.4143 34.1574C8.68015 34.1574 8.9425 34.0504 9.1346 33.8471L18.7385 23.6783L21.4592 20.7975L27.1657 14.7554C27.2985 14.6147 27.3872 14.4382 27.4208 14.2478C27.4545 14.0573 27.4316 13.8611 27.355 13.6835C27.2785 13.5059 27.1516 13.3546 26.99 13.2482C26.8284 13.1419 26.6392 13.0852 26.4458 13.0852H17.1075L19.9819 1.58776C20.035 1.37533 20.0162 1.15128 19.9284 0.95068C19.8406 0.750076 19.6888 0.584226 19.4968 0.479074C19.3047 0.373921 19.0832 0.335396 18.8669 0.369525C18.6506 0.403655 18.4517 0.508514 18.3014 0.6677L10.0578 9.39605L7.33706 12.2769Z" fill="#7D8EA0"/>
</g>
</svg>
