<svg width="35" height="35" viewBox="0 0 35 35" fill="none" xmlns="http://www.w3.org/2000/svg">
<path d="M34.6299 29.9546L2.15646 3.5951C1.66321 3.19465 0.863334 3.19465 0.37 3.5951C-0.123333 3.99556 -0.123333 4.64477 0.37 5.04522L9.36 12.3426L0.344904 20.0908C0.175527 20.2365 0.0623989 20.4192 0.0194844 20.6164C-0.0234301 20.8137 0.00574772 21.0168 0.103416 21.2007C0.201085 21.3847 0.362968 21.5414 0.569084 21.6515C0.775201 21.7616 1.01653 21.8203 1.26327 21.8203H13.176L9.50914 33.7259C9.32294 34.3308 9.8599 35 10.7342 35C11.0734 35 11.408 34.8892 11.6531 34.6786L23.9047 24.1488L32.8436 31.4047C33.0902 31.6049 33.4135 31.7051 33.7367 31.7051C34.06 31.7051 34.3834 31.605 34.6299 31.4047C35.1234 31.0042 35.1234 30.355 34.6299 29.9546ZM34.6551 14.9091C34.8245 14.7635 34.9376 14.5807 34.9805 14.3835C35.0234 14.1863 34.9943 13.9831 34.8966 13.7992C34.7989 13.6153 34.6371 13.4586 34.4309 13.3485C34.2248 13.2384 33.9835 13.1797 33.7367 13.1796H21.8241L25.4909 1.27402C25.5586 1.05404 25.5346 0.822047 25.4226 0.614321C25.3106 0.406595 25.117 0.234857 24.872 0.125971C24.6269 0.0170845 24.3444 -0.022808 24.0684 0.0125333C23.7925 0.0478746 23.5388 0.156456 23.347 0.321294L12.8309 9.35953L27.3754 21.1657L34.6551 14.9091Z" fill="#7D8EA0"/>
</svg>
