<svg width="35" height="35" viewBox="0 0 35 35" fill="none" xmlns="http://www.w3.org/2000/svg">
<path d="M8.13789 9.57123C5.54558 8.89119 3.89032 8.06275 3.04178 7.55969C1.24298 10.1666 0.192226 13.2047 0 16.4068H7.21156C7.28108 13.948 7.59129 11.6593 8.13789 9.57123Z" fill="#EE7828"/>
<path d="M16.7491 10.6887C14.2218 10.6333 12.0627 10.3853 10.2448 10.0433C9.72985 11.9791 9.4316 14.1108 9.36133 16.407H16.7491V10.6887Z" fill="#EE7828"/>
<path d="M16.7499 8.53757V0.455322C15.9391 0.948192 14.7539 1.82469 13.5789 3.25511C12.4782 4.59502 11.5846 6.18014 10.9062 7.97545C12.5216 8.26482 14.466 8.48418 16.7499 8.53757Z" fill="#EE7828"/>
<path d="M23.3887 17.4796C23.3887 14.7792 21.4548 12.5228 18.8994 12.0204V22.9387C21.4548 22.4364 23.3887 20.18 23.3887 17.4796Z" fill="#EE7828"/>
<path d="M10.667 26.9431C12.4801 32.548 15.6067 34.5305 16.4184 34.9634C16.5286 34.9699 16.6389 34.9756 16.7495 34.9801V26.3427C14.3708 26.397 12.3527 26.6285 10.667 26.9431Z" fill="#EE7828"/>
<path d="M29.3805 17.4796C29.3805 11.47 24.7693 6.51796 18.8994 5.97375V9.84029C22.646 10.3651 25.5388 13.5905 25.5388 17.4795C25.5388 21.3685 22.646 24.5939 18.8994 25.1187V28.9852C24.7693 28.4412 29.3805 23.4892 29.3805 17.4796Z" fill="#EE7828"/>
<path d="M29.8692 5.09338C26.8969 2.12106 23.0442 0.349457 18.8994 0.0198975V3.8152C25.9565 4.36536 31.5306 10.2837 31.5306 17.4795C31.5306 24.6754 25.9565 30.5936 18.8994 31.1438V34.9391C23.0443 34.6095 26.8968 32.838 29.8693 29.8656C33.1777 26.5572 34.9998 22.1584 34.9998 17.4795C34.9997 12.8007 33.1777 8.4019 29.8692 5.09338Z" fill="#EE7828"/>
<path d="M8.56478 27.4164C6.44742 27.9814 5.07148 28.6386 4.33594 29.0535C4.58053 29.3306 4.83366 29.602 5.09739 29.8657C7.12021 31.8885 9.5512 33.3545 12.204 34.1893C11.9275 33.8711 11.6474 33.5219 11.3681 33.1374C10.1935 31.5204 9.25158 29.5963 8.56478 27.4164Z" fill="#EE7828"/>
<path d="M10.1001 24.8651C11.948 24.5088 14.1546 24.2489 16.7497 24.1919V18.557H9.35938C9.42192 20.9855 9.69447 23.0736 10.1001 24.8651Z" fill="#EE7828"/>
<path d="M7.2093 18.557H0C0.191543 21.7345 1.22869 24.7505 3.00316 27.3436C3.82559 26.8514 5.44974 26.0276 8.00644 25.3438C7.53661 23.2701 7.2696 20.9979 7.2093 18.557Z" fill="#EE7828"/>
<path d="M8.7763 7.51361C9.57118 5.32092 10.6614 3.38758 12.0207 1.76535C12.4236 1.28451 12.8274 0.859111 13.2217 0.482178C10.1727 1.24083 7.37617 2.81439 5.09714 5.09342C4.85111 5.33944 4.61432 5.59224 4.38477 5.85002C4.92439 6.14916 5.77964 6.56424 6.97722 6.97672C7.48705 7.15233 8.08649 7.33608 8.7763 7.51361Z" fill="#EE7828"/>
</svg>
