<?xml version="1.0" encoding="UTF-8"?>
<!DOCTYPE svg PUBLIC "-//W3C//DTD SVG 1.1//EN" "http://www.w3.org/Graphics/SVG/1.1/DTD/svg11.dtd">
<svg xmlns="http://www.w3.org/2000/svg" version="1.1" width="6518px" height="855px" style="shape-rendering:geometricPrecision; text-rendering:geometricPrecision; image-rendering:optimizeQuality; fill-rule:evenodd; clip-rule:evenodd" xmlns:xlink="http://www.w3.org/1999/xlink">
<g><path style="opacity:0.014" fill="#fffcfc" d="M 1624.5,-0.5 C 1651.5,-0.5 1678.5,-0.5 1705.5,-0.5C 1705.5,6.16667 1705.5,12.8333 1705.5,19.5C 1681.16,19.3334 1656.83,19.5 1632.5,20C 1606.39,23.3699 1589.39,37.5365 1581.5,62.5C 1577.57,63.5515 1573.57,64.2182 1569.5,64.5C 1569.33,55.4938 1569.5,46.4938 1570,37.5C 1582.6,16.7121 1600.77,4.04543 1624.5,-0.5 Z"/></g>
<g><path style="opacity:0.051" fill="#fff8f6" d="M 1705.5,-0.5 C 1757.5,-0.5 1809.5,-0.5 1861.5,-0.5C 1861.5,6.16667 1861.5,12.8333 1861.5,19.5C 1809.5,19.5 1757.5,19.5 1705.5,19.5C 1705.5,12.8333 1705.5,6.16667 1705.5,-0.5 Z"/></g>
<g><path style="opacity:0.073" fill="#fff4f0" d="M 1861.5,-0.5 C 1913.17,-0.5 1964.83,-0.5 2016.5,-0.5C 2016.5,6.16667 2016.5,12.8333 2016.5,19.5C 1964.83,19.5 1913.17,19.5 1861.5,19.5C 1861.5,12.8333 1861.5,6.16667 1861.5,-0.5 Z"/></g>
<g><path style="opacity:0.108" fill="#ffefea" d="M 2016.5,-0.5 C 2074.83,-0.5 2133.17,-0.5 2191.5,-0.5C 2191.5,6.16667 2191.5,12.8333 2191.5,19.5C 2133.17,19.5 2074.83,19.5 2016.5,19.5C 2016.5,12.8333 2016.5,6.16667 2016.5,-0.5 Z"/></g>
<g><path style="opacity:0.145" fill="#ffeae3" d="M 2191.5,-0.5 C 2249.83,-0.5 2308.17,-0.5 2366.5,-0.5C 2366.5,6.16667 2366.5,12.8333 2366.5,19.5C 2308.17,19.5 2249.83,19.5 2191.5,19.5C 2191.5,12.8333 2191.5,6.16667 2191.5,-0.5 Z"/></g>
<g><path style="opacity:0.182" fill="#ffe6dd" d="M 2366.5,-0.5 C 2418.5,-0.5 2470.5,-0.5 2522.5,-0.5C 2522.5,6.16667 2522.5,12.8333 2522.5,19.5C 2470.5,19.5 2418.5,19.5 2366.5,19.5C 2366.5,12.8333 2366.5,6.16667 2366.5,-0.5 Z"/></g>
<g><path style="opacity:0.206" fill="#ffe1d7" d="M 2522.5,-0.5 C 2574.17,-0.5 2625.83,-0.5 2677.5,-0.5C 2677.5,6.16667 2677.5,12.8333 2677.5,19.5C 2625.83,19.5 2574.17,19.5 2522.5,19.5C 2522.5,12.8333 2522.5,6.16667 2522.5,-0.5 Z"/></g>
<g><path style="opacity:0.241" fill="#ffddd1" d="M 2677.5,-0.5 C 2729.5,-0.5 2781.5,-0.5 2833.5,-0.5C 2833.5,6.16667 2833.5,12.8333 2833.5,19.5C 2781.5,19.5 2729.5,19.5 2677.5,19.5C 2677.5,12.8333 2677.5,6.16667 2677.5,-0.5 Z"/></g>
<g><path style="opacity:0.278" fill="#ffd8ca" d="M 2833.5,-0.5 C 2898.17,-0.5 2962.83,-0.5 3027.5,-0.5C 3027.5,6.16667 3027.5,12.8333 3027.5,19.5C 2962.83,19.5 2898.17,19.5 2833.5,19.5C 2833.5,12.8333 2833.5,6.16667 2833.5,-0.5 Z"/></g>
<g><path style="opacity:0.316" fill="#ffd3c4" d="M 3027.5,-0.5 C 3079.5,-0.5 3131.5,-0.5 3183.5,-0.5C 3183.5,6.16667 3183.5,12.8333 3183.5,19.5C 3131.5,19.5 3079.5,19.5 3027.5,19.5C 3027.5,12.8333 3027.5,6.16667 3027.5,-0.5 Z"/></g>
<g><path style="opacity:0.337" fill="#ffcfbe" d="M 3183.5,-0.5 C 3235.5,-0.5 3287.5,-0.5 3339.5,-0.5C 3339.5,6.16667 3339.5,12.8333 3339.5,19.5C 3287.5,19.5 3235.5,19.5 3183.5,19.5C 3183.5,12.8333 3183.5,6.16667 3183.5,-0.5 Z"/></g>
<g><path style="opacity:0.375" fill="#ffcbb8" d="M 3339.5,-0.5 C 3391.17,-0.5 3442.83,-0.5 3494.5,-0.5C 3494.5,6.16667 3494.5,12.8333 3494.5,19.5C 3442.83,19.5 3391.17,19.5 3339.5,19.5C 3339.5,12.8333 3339.5,6.16667 3339.5,-0.5 Z"/></g>
<g><path style="opacity:0.414" fill="#ffc5b1" d="M 3494.5,-0.5 C 3559.5,-0.5 3624.5,-0.5 3689.5,-0.5C 3689.5,6.16667 3689.5,12.8333 3689.5,19.5C 3624.5,19.5 3559.5,19.5 3494.5,19.5C 3494.5,12.8333 3494.5,6.16667 3494.5,-0.5 Z"/></g>
<g><path style="opacity:0.451" fill="#ffc0aa" d="M 3689.5,-0.5 C 3741.17,-0.5 3792.83,-0.5 3844.5,-0.5C 3844.5,6.16667 3844.5,12.8333 3844.5,19.5C 3792.83,19.5 3741.17,19.5 3689.5,19.5C 3689.5,12.8333 3689.5,6.16667 3689.5,-0.5 Z"/></g>
<g><path style="opacity:0.473" fill="#ffbca5" d="M 3844.5,-0.5 C 3896.5,-0.5 3948.5,-0.5 4000.5,-0.5C 4000.5,6.16667 4000.5,12.8333 4000.5,19.5C 3948.5,19.5 3896.5,19.5 3844.5,19.5C 3844.5,12.8333 3844.5,6.16667 3844.5,-0.5 Z"/></g>
<g><path style="opacity:0.508" fill="#ffb89f" d="M 4000.5,-0.5 C 4058.83,-0.5 4117.17,-0.5 4175.5,-0.5C 4175.5,6.16667 4175.5,12.8333 4175.5,19.5C 4117.17,19.5 4058.83,19.5 4000.5,19.5C 4000.5,12.8333 4000.5,6.16667 4000.5,-0.5 Z"/></g>
<g><path style="opacity:0.545" fill="#ffb398" d="M 4175.5,-0.5 C 4233.83,-0.5 4292.17,-0.5 4350.5,-0.5C 4350.5,6.16667 4350.5,12.8333 4350.5,19.5C 4292.17,19.5 4233.83,19.5 4175.5,19.5C 4175.5,12.8333 4175.5,6.16667 4175.5,-0.5 Z"/></g>
<g><path style="opacity:0.586" fill="#ffae91" d="M 4350.5,-0.5 C 4402.17,-0.5 4453.83,-0.5 4505.5,-0.5C 4505.5,6.16667 4505.5,12.8333 4505.5,19.5C 4453.83,19.5 4402.17,19.5 4350.5,19.5C 4350.5,12.8333 4350.5,6.16667 4350.5,-0.5 Z"/></g>
<g><path style="opacity:0.608" fill="#ffaa8c" d="M 4505.5,-0.5 C 4557.5,-0.5 4609.5,-0.5 4661.5,-0.5C 4661.5,6.16667 4661.5,12.8333 4661.5,19.5C 4609.5,19.5 4557.5,19.5 4505.5,19.5C 4505.5,12.8333 4505.5,6.16667 4505.5,-0.5 Z"/></g>
<g><path style="opacity:0.641" fill="#ffa686" d="M 4661.5,-0.5 C 4713.17,-0.5 4764.83,-0.5 4816.5,-0.5C 4816.5,6.16667 4816.5,12.8333 4816.5,19.5C 4764.83,19.5 4713.17,19.5 4661.5,19.5C 4661.5,12.8333 4661.5,6.16667 4661.5,-0.5 Z"/></g>
<g><path style="opacity:0.68" fill="#ffa07f" d="M 4816.5,-0.5 C 4881.5,-0.5 4946.5,-0.5 5011.5,-0.5C 5011.5,6.16667 5011.5,12.8333 5011.5,19.5C 4946.5,19.5 4881.5,19.5 4816.5,19.5C 4816.5,12.8333 4816.5,6.16667 4816.5,-0.5 Z"/></g>
<g><path style="opacity:0.718" fill="#ff9b78" d="M 5011.5,-0.5 C 5063.17,-0.5 5114.83,-0.5 5166.5,-0.5C 5166.5,6.16667 5166.5,12.8333 5166.5,19.5C 5114.83,19.5 5063.17,19.5 5011.5,19.5C 5011.5,12.8333 5011.5,6.16667 5011.5,-0.5 Z"/></g>
<g><path style="opacity:0.743" fill="#ff9773" d="M 5166.5,-0.5 C 5218.5,-0.5 5270.5,-0.5 5322.5,-0.5C 5322.5,6.16667 5322.5,12.8333 5322.5,19.5C 5270.5,19.5 5218.5,19.5 5166.5,19.5C 5166.5,12.8333 5166.5,6.16667 5166.5,-0.5 Z"/></g>
<g><path style="opacity:0.774" fill="#ff936d" d="M 5322.5,-0.5 C 5374.17,-0.5 5425.83,-0.5 5477.5,-0.5C 5477.5,6.16667 5477.5,12.8333 5477.5,19.5C 5425.83,19.5 5374.17,19.5 5322.5,19.5C 5322.5,12.8333 5322.5,6.16667 5322.5,-0.5 Z"/></g>
<g><path style="opacity:0.814" fill="#ff8e66" d="M 5477.5,-0.5 C 5535.83,-0.5 5594.17,-0.5 5652.5,-0.5C 5652.5,6.16667 5652.5,12.8333 5652.5,19.5C 5594.17,19.5 5535.83,19.5 5477.5,19.5C 5477.5,12.8333 5477.5,6.16667 5477.5,-0.5 Z"/></g>
<g><path style="opacity:0.853" fill="#ff895f" d="M 5652.5,-0.5 C 5710.83,-0.5 5769.17,-0.5 5827.5,-0.5C 5827.5,6.16667 5827.5,12.8333 5827.5,19.5C 5769.17,19.5 5710.83,19.5 5652.5,19.5C 5652.5,12.8333 5652.5,6.16667 5652.5,-0.5 Z"/></g>
<g><path style="opacity:0.874" fill="#ff855a" d="M 5827.5,-0.5 C 5879.5,-0.5 5931.5,-0.5 5983.5,-0.5C 5983.5,6.16667 5983.5,12.8333 5983.5,19.5C 5931.5,19.5 5879.5,19.5 5827.5,19.5C 5827.5,12.8333 5827.5,6.16667 5827.5,-0.5 Z"/></g>
<g><path style="opacity:0.908" fill="#ff8054" d="M 5983.5,-0.5 C 6035.17,-0.5 6086.83,-0.5 6138.5,-0.5C 6138.5,6.16667 6138.5,12.8333 6138.5,19.5C 6086.83,19.5 6035.17,19.5 5983.5,19.5C 5983.5,12.8333 5983.5,6.16667 5983.5,-0.5 Z"/></g>
<g><path style="opacity:0.904" fill="#ff7b4d" d="M 6138.5,-0.5 C 6145.5,-0.5 6152.5,-0.5 6159.5,-0.5C 6214,3.62644 6265.34,18.6264 6313.5,44.5C 6313.5,52.1667 6313.5,59.8333 6313.5,67.5C 6259.13,37.3218 6200.79,21.3218 6138.5,19.5C 6138.5,12.8333 6138.5,6.16667 6138.5,-0.5 Z"/></g>
<g><path style="opacity:0.923" fill="#ff7748" d="M 6313.5,44.5 C 6359.05,68.3709 6398.05,100.371 6430.5,140.5C 6430.5,151.5 6430.5,162.5 6430.5,173.5C 6398.41,130.405 6359.41,95.0719 6313.5,67.5C 6313.5,59.8333 6313.5,52.1667 6313.5,44.5 Z"/></g>
<g><path style="opacity:0.989" fill="#fe7343" d="M 636.5,468.5 C 659.833,468.5 683.167,468.5 706.5,468.5C 686.05,568.442 629.05,638.609 535.5,679C 496.838,693.565 456.838,700.065 415.5,698.5C 415.831,727.671 415.498,756.671 414.5,785.5C 280.769,799.856 169.936,756.523 82,655.5C 33.8638,595.616 6.36377,527.283 -0.5,450.5C -0.5,432.167 -0.5,413.833 -0.5,395.5C 10.8406,281.952 62.174,191.452 153.5,124C 222.509,76.1715 299.176,53.6715 383.5,56.5C 383.5,87.1667 383.5,117.833 383.5,148.5C 269.835,146.066 183.668,193.066 125,289.5C 84.9754,364.769 79.6421,442.436 109,522.5C 133.464,583.586 174.297,630.419 231.5,663C 309.492,704.179 389.492,708.512 471.5,676C 561.412,634.714 616.412,565.547 636.5,468.5 Z"/></g>
<g><path style="opacity:0.988" fill="#fe7342" d="M 1038.5,58.5 C 914.737,75.1735 820.904,136.84 757,243.5C 756.257,241.355 755.424,241.189 754.5,243C 743.486,268.04 733.653,293.54 725,319.5C 719.581,338.511 715.748,357.844 713.5,377.5C 689.833,377.5 666.167,377.5 642.5,377.5C 661.632,251.303 726.966,157.803 838.5,97C 901.516,65.2301 968.183,52.3968 1038.5,58.5 Z"/></g>
<g><path style="opacity:0.996" fill="#27323f" d="M 1361.5,192.5 C 1372.87,208.391 1383.7,224.724 1394,241.5C 1400.82,254.134 1407.32,266.801 1413.5,279.5C 1426.54,310.982 1435.2,343.648 1439.5,377.5C 1482.83,377.5 1526.17,377.5 1569.5,377.5C 1572.83,377.5 1576.17,377.5 1579.5,377.5C 1640.17,377.5 1700.83,377.5 1761.5,377.5C 1761.5,407.833 1761.5,438.167 1761.5,468.5C 1700.83,468.5 1640.17,468.5 1579.5,468.5C 1576.17,468.5 1572.83,468.5 1569.5,468.5C 1528.5,468.5 1487.5,468.5 1446.5,468.5C 1458.04,535.109 1489.38,590.276 1540.5,634C 1549.84,641.335 1559.51,648.168 1569.5,654.5C 1572.49,657 1575.83,659 1579.5,660.5C 1611.06,678.909 1645.06,690.575 1681.5,695.5C 1693.11,697.381 1704.94,698.381 1717,698.5C 1731.86,697.77 1746.69,696.77 1761.5,695.5C 1761.5,720.5 1761.5,745.5 1761.5,770.5C 1761.81,776.093 1761.47,781.593 1760.5,787C 1733.51,789.956 1706.51,790.123 1679.5,787.5C 1555.65,771.021 1461.81,709.355 1398,602.5C 1397.26,604.645 1396.42,604.811 1395.5,603C 1384.88,577.814 1375.05,552.314 1366,526.5C 1360.6,507.302 1356.43,487.969 1353.5,468.5C 1254.67,467.501 1155.67,467.167 1056.5,467.5C 1056.5,437.5 1056.5,407.5 1056.5,377.5C 1129.83,377.5 1203.17,377.5 1276.5,377.5C 1300.17,377.5 1323.83,377.5 1347.5,377.5C 1328.74,283.458 1276.41,215.292 1190.5,173C 1142.56,150.955 1092.56,143.455 1040.5,150.5C 948.011,165.875 878.845,214.208 833,295.5C 798.074,364.018 792.074,435.018 815,508.5C 847.74,598.24 909.573,657.74 1000.5,687C 1031.24,695.708 1062.58,699.208 1094.5,697.5C 1094.5,728.167 1094.5,758.833 1094.5,789.5C 1071.06,789.67 1047.73,788.337 1024.5,785.5C 920.516,768.444 837.683,717.444 776,632.5C 768.936,621.763 762.269,610.763 756,599.5C 745.148,617.885 733.315,635.551 720.5,652.5C 647.016,740.902 552.349,786.568 436.5,789.5C 429.177,788.882 421.844,788.548 414.5,788.5C 414.5,787.5 414.5,786.5 414.5,785.5C 415.498,756.671 415.831,727.671 415.5,698.5C 456.838,700.065 496.838,693.565 535.5,679C 629.05,638.609 686.05,568.442 706.5,468.5C 610.001,467.501 513.335,467.167 416.5,467.5C 416.5,437.5 416.5,407.5 416.5,377.5C 491.833,377.5 567.167,377.5 642.5,377.5C 666.167,377.5 689.833,377.5 713.5,377.5C 715.748,357.844 719.581,338.511 725,319.5C 733.653,293.54 743.486,268.04 754.5,243C 755.424,241.189 756.257,241.355 757,243.5C 820.904,136.84 914.737,75.1735 1038.5,58.5C 1169.18,49.0252 1276.84,93.6919 1361.5,192.5 Z"/></g>
<g><path style="opacity:0.989" fill="#fe7343" d="M 1761.5,770.5 C 1761.5,745.5 1761.5,720.5 1761.5,695.5C 1746.69,696.77 1731.86,697.77 1717,698.5C 1704.94,698.381 1693.11,697.381 1681.5,695.5C 1781.67,679.807 1853.83,626.474 1898,535.5C 1935.38,444.73 1928.71,357.396 1878,273.5C 1827.63,199.873 1757.79,158.373 1668.5,149C 1638.41,146.742 1608.75,149.242 1579.5,156.5C 1576.27,157.807 1572.94,158.807 1569.5,159.5C 1502.94,180.759 1450.94,220.759 1413.5,279.5C 1407.32,266.801 1400.82,254.134 1394,241.5C 1383.7,224.724 1372.87,208.391 1361.5,192.5C 1416.22,126.511 1485.56,83.8446 1569.5,64.5C 1573.57,64.2182 1577.57,63.5515 1581.5,62.5C 1701.43,43.7666 1806.43,74.5999 1896.5,155C 1993.56,250.666 2029.73,365.832 2005,500.5C 1974.53,623.627 1901.36,710.794 1785.5,762C 1777.67,765.333 1769.67,768.167 1761.5,770.5 Z"/></g>
<g><path style="opacity:0.989" fill="#fe7342" d="M 1276.5,377.5 C 1261.5,297.619 1220.16,235.452 1152.5,191C 1118.12,169.482 1080.78,155.982 1040.5,150.5C 1092.56,143.455 1142.56,150.955 1190.5,173C 1276.41,215.292 1328.74,283.458 1347.5,377.5C 1323.83,377.5 1300.17,377.5 1276.5,377.5 Z"/></g>
<g><path style="opacity:0.004" fill="#fefefd" d="M 1579.5,156.5 C 1579.5,230.167 1579.5,303.833 1579.5,377.5C 1576.17,377.5 1572.83,377.5 1569.5,377.5C 1569.5,304.833 1569.5,232.167 1569.5,159.5C 1572.94,158.807 1576.27,157.807 1579.5,156.5 Z"/></g>
<g><path style="opacity:0.962" fill="#ff7544" d="M 6430.5,140.5 C 6481.98,203.574 6510.98,275.908 6517.5,357.5C 6517.5,403.833 6517.5,450.167 6517.5,496.5C 6510.98,578.092 6481.98,650.426 6430.5,713.5C 6430.5,702.167 6430.5,690.833 6430.5,679.5C 6472.32,619.215 6494.48,552.215 6497,478.5C 6497.67,444.167 6497.67,409.833 6497,375.5C 6494.29,301.545 6472.13,234.212 6430.5,173.5C 6430.5,162.5 6430.5,151.5 6430.5,140.5 Z"/></g>
<g><path style="opacity:0.986" fill="#27323e" d="M 2951.5,244.5 C 3002.1,241.391 3047.76,254.558 3088.5,284C 3134.81,322.802 3157.81,372.635 3157.5,433.5C 3156.8,513.447 3120.8,570.947 3049.5,606C 2992.83,628 2936.17,628 2879.5,606C 2808.2,570.947 2772.2,513.447 2771.5,433.5C 2772.66,350.285 2810.99,291.785 2886.5,258C 2907.68,250.465 2929.35,245.965 2951.5,244.5 Z M 2952.5,309.5 C 3012.79,306.705 3054.29,333.038 3077,388.5C 3089.71,430.348 3085.05,470.015 3063,507.5C 3038.87,540.98 3006.04,557.647 2964.5,557.5C 2918.29,556.988 2883.46,536.988 2860,497.5C 2845.53,467.565 2841.53,436.232 2848,403.5C 2861.94,348.719 2896.77,317.386 2952.5,309.5 Z"/></g>
<g><path style="opacity:0.986" fill="#27323e" d="M 2286.5,252.5 C 2350.5,252.5 2414.5,252.5 2478.5,252.5C 2478.5,273.167 2478.5,293.833 2478.5,314.5C 2438.17,314.5 2397.83,314.5 2357.5,314.5C 2357.5,414.167 2357.5,513.833 2357.5,613.5C 2333.83,613.5 2310.17,613.5 2286.5,613.5C 2286.5,493.167 2286.5,372.833 2286.5,252.5 Z"/></g>
<g><path style="opacity:0.987" fill="#27323e" d="M 2522.5,252.5 C 2589.17,252.5 2655.83,252.5 2722.5,252.5C 2722.5,273.167 2722.5,293.833 2722.5,314.5C 2679.5,314.5 2636.5,314.5 2593.5,314.5C 2593.5,340.833 2593.5,367.167 2593.5,393.5C 2634.83,393.5 2676.17,393.5 2717.5,393.5C 2717.5,414.167 2717.5,434.833 2717.5,455.5C 2676.17,455.5 2634.83,455.5 2593.5,455.5C 2593.5,487.833 2593.5,520.167 2593.5,552.5C 2636.5,552.5 2679.5,552.5 2722.5,552.5C 2722.5,572.833 2722.5,593.167 2722.5,613.5C 2655.83,613.5 2589.17,613.5 2522.5,613.5C 2522.5,493.167 2522.5,372.833 2522.5,252.5 Z"/></g>
<g><path style="opacity:0.989" fill="#27323e" d="M 3255.5,252.5 C 3336.83,252.5 3418.17,252.5 3499.5,252.5C 3499.5,352.5 3499.5,452.5 3499.5,552.5C 3512.17,552.5 3524.83,552.5 3537.5,552.5C 3537.5,599.833 3537.5,647.167 3537.5,694.5C 3515.5,694.5 3493.5,694.5 3471.5,694.5C 3471.5,667.5 3471.5,640.5 3471.5,613.5C 3398.17,613.5 3324.83,613.5 3251.5,613.5C 3251.5,640.5 3251.5,667.5 3251.5,694.5C 3229.5,694.5 3207.5,694.5 3185.5,694.5C 3185.5,647.167 3185.5,599.833 3185.5,552.5C 3201.58,552.209 3214.75,545.876 3225,533.5C 3237.4,518.674 3245.4,501.674 3249,482.5C 3252.31,466.666 3254.31,450.666 3255,434.5C 3255.5,373.834 3255.67,313.168 3255.5,252.5 Z M 3324.5,314.5 C 3359.17,314.5 3393.83,314.5 3428.5,314.5C 3428.5,393.833 3428.5,473.167 3428.5,552.5C 3380.83,552.667 3333.17,552.5 3285.5,552C 3304.86,532.102 3316.36,508.268 3320,480.5C 3321.99,466.899 3323.33,453.232 3324,439.5C 3324.5,397.835 3324.67,356.168 3324.5,314.5 Z"/></g>
<g><path style="opacity:0.984" fill="#27323e" d="M 3550.5,252.5 C 3577.51,252.167 3604.51,252.5 3631.5,253.5C 3670.67,303.167 3709.83,352.833 3749,402.5C 3749.5,352.501 3749.67,302.501 3749.5,252.5C 3772.17,252.5 3794.83,252.5 3817.5,252.5C 3817.33,302.834 3817.5,353.168 3818,403.5C 3857.5,353.333 3897,303.167 3936.5,253C 3963.51,252.167 3990.51,252.333 4017.5,253.5C 3971.83,308.833 3926.17,364.167 3880.5,419.5C 3927.71,484.089 3975.04,548.589 4022.5,613C 3994.83,613.833 3967.16,613.667 3939.5,612.5C 3901.53,559.36 3863.36,506.36 3825,453.5C 3822.67,455.833 3820.33,458.167 3818,460.5C 3817.5,511.499 3817.33,562.499 3817.5,613.5C 3794.83,613.5 3772.17,613.5 3749.5,613.5C 3749.67,562.166 3749.5,510.832 3749,459.5C 3746.98,457.316 3744.82,455.316 3742.5,453.5C 3704.29,506.755 3665.96,559.922 3627.5,613C 3600.16,613.833 3572.83,613.667 3545.5,612.5C 3592.64,548.193 3639.97,484.026 3687.5,420C 3642.33,365.5 3597.17,311 3552,256.5C 3551.21,255.255 3550.71,253.922 3550.5,252.5 Z"/></g>
<g><path style="opacity:0.987" fill="#27323e" d="M 4066.5,252.5 C 4133.17,252.5 4199.83,252.5 4266.5,252.5C 4266.5,273.167 4266.5,293.833 4266.5,314.5C 4223.5,314.5 4180.5,314.5 4137.5,314.5C 4137.5,340.833 4137.5,367.167 4137.5,393.5C 4178.83,393.5 4220.17,393.5 4261.5,393.5C 4261.5,414.167 4261.5,434.833 4261.5,455.5C 4220.17,455.5 4178.83,455.5 4137.5,455.5C 4137.5,487.833 4137.5,520.167 4137.5,552.5C 4180.5,552.5 4223.5,552.5 4266.5,552.5C 4266.5,572.833 4266.5,593.167 4266.5,613.5C 4199.83,613.5 4133.17,613.5 4066.5,613.5C 4066.5,493.167 4066.5,372.833 4066.5,252.5 Z"/></g>
<g><path style="opacity:0.988" fill="#27323e" d="M 4296.5,252.5 C 4374.17,252.5 4451.83,252.5 4529.5,252.5C 4529.5,273.167 4529.5,293.833 4529.5,314.5C 4502.5,314.5 4475.5,314.5 4448.5,314.5C 4448.5,414.167 4448.5,513.833 4448.5,613.5C 4424.83,613.5 4401.17,613.5 4377.5,613.5C 4377.5,513.833 4377.5,414.167 4377.5,314.5C 4350.5,314.5 4323.5,314.5 4296.5,314.5C 4296.5,293.833 4296.5,273.167 4296.5,252.5 Z"/></g>
<g><path style="opacity:0.986" fill="#27323e" d="M 4756.5,252.5 C 4820.5,252.5 4884.5,252.5 4948.5,252.5C 4948.5,273.167 4948.5,293.833 4948.5,314.5C 4908.17,314.5 4867.83,314.5 4827.5,314.5C 4827.5,414.167 4827.5,513.833 4827.5,613.5C 4803.83,613.5 4780.17,613.5 4756.5,613.5C 4756.5,493.167 4756.5,372.833 4756.5,252.5 Z"/></g>
<g><path style="opacity:0.989" fill="#27323e" d="M 4991.5,252.5 C 5030.5,252.333 5069.5,252.5 5108.5,253C 5146.73,251.176 5178.57,264.343 5204,292.5C 5220.96,314.716 5229.13,339.883 5228.5,368C 5226.24,435.929 5191.24,473.263 5123.5,480C 5103.17,480.5 5082.84,480.667 5062.5,480.5C 5062.5,524.833 5062.5,569.167 5062.5,613.5C 5038.83,613.5 5015.17,613.5 4991.5,613.5C 4991.5,493.167 4991.5,372.833 4991.5,252.5 Z M 5062.5,314.5 C 5077.87,314.121 5093.21,314.621 5108.5,316C 5137.86,320.188 5153.52,337.021 5155.5,366.5C 5153.82,397.009 5137.82,414.176 5107.5,418C 5092.53,419.283 5077.53,419.783 5062.5,419.5C 5062.5,384.5 5062.5,349.5 5062.5,314.5 Z"/></g>
<g><path style="opacity:0.984" fill="#27323e" d="M 5240.5,252.5 C 5268.17,252.167 5295.84,252.5 5323.5,253.5C 5353.67,313.167 5383.83,372.833 5414,432.5C 5439.5,372.833 5465,313.167 5490.5,253.5C 5516.5,252.167 5542.5,252.167 5568.5,253.5C 5512.96,373.409 5457.3,493.242 5401.5,613C 5375.5,613.667 5349.5,613.667 5323.5,613C 5340.43,579.806 5357.1,546.473 5373.5,513C 5332.47,433.104 5291.3,353.271 5250,273.5C 5246.27,266.705 5243.1,259.705 5240.5,252.5 Z"/></g>
<g><path style="opacity:0.983" fill="#27323e" d="M 5609.5,252.5 C 5704.83,252.5 5800.17,252.5 5895.5,252.5C 5895.5,372.833 5895.5,493.167 5895.5,613.5C 5871.5,613.5 5847.5,613.5 5823.5,613.5C 5823.5,513.833 5823.5,414.167 5823.5,314.5C 5775.83,314.5 5728.17,314.5 5680.5,314.5C 5680.5,414.167 5680.5,513.833 5680.5,613.5C 5656.83,613.5 5633.17,613.5 5609.5,613.5C 5609.5,493.167 5609.5,372.833 5609.5,252.5 Z"/></g>
<g><path style="opacity:0.983" fill="#27323e" d="M 5976.5,252.5 C 6071.83,252.5 6167.17,252.5 6262.5,252.5C 6262.5,372.833 6262.5,493.167 6262.5,613.5C 6238.5,613.5 6214.5,613.5 6190.5,613.5C 6190.5,513.833 6190.5,414.167 6190.5,314.5C 6142.83,314.5 6095.17,314.5 6047.5,314.5C 6047.5,414.167 6047.5,513.833 6047.5,613.5C 6023.83,613.5 6000.17,613.5 5976.5,613.5C 5976.5,493.167 5976.5,372.833 5976.5,252.5 Z"/></g>
<g><path style="opacity:0.987" fill="#fe7442" d="M 415.5,377.5 C 415.5,407.833 415.5,438.167 415.5,468.5C 392.167,468.5 368.833,468.5 345.5,468.5C 345.5,438.167 345.5,407.833 345.5,377.5C 368.833,377.5 392.167,377.5 415.5,377.5 Z"/></g>
<g><path style="opacity:0.987" fill="#fe7442" d="M 1055.5,377.5 C 1055.5,407.833 1055.5,438.167 1055.5,468.5C 1032.17,468.5 1008.83,468.5 985.5,468.5C 985.5,438.167 985.5,407.833 985.5,377.5C 1008.83,377.5 1032.17,377.5 1055.5,377.5 Z"/></g>
<g><path style="opacity:0.976" fill="#27323e" d="M 4552.5,458.5 C 4599.5,458.5 4646.5,458.5 4693.5,458.5C 4693.5,479.167 4693.5,499.833 4693.5,520.5C 4646.5,520.5 4599.5,520.5 4552.5,520.5C 4552.5,499.833 4552.5,479.167 4552.5,458.5 Z"/></g>
<g><path style="opacity:0.937" fill="#5f4340" d="M 415.5,377.5 C 415.833,377.5 416.167,377.5 416.5,377.5C 416.5,407.5 416.5,437.5 416.5,467.5C 513.335,467.167 610.001,467.501 706.5,468.5C 683.167,468.5 659.833,468.5 636.5,468.5C 562.833,468.5 489.167,468.5 415.5,468.5C 415.5,438.167 415.5,407.833 415.5,377.5 Z"/></g>
<g><path style="opacity:0.937" fill="#5f4340" d="M 1055.5,377.5 C 1055.83,377.5 1056.17,377.5 1056.5,377.5C 1056.5,407.5 1056.5,437.5 1056.5,467.5C 1155.67,467.167 1254.67,467.501 1353.5,468.5C 1330.17,468.5 1306.83,468.5 1283.5,468.5C 1207.5,468.5 1131.5,468.5 1055.5,468.5C 1055.5,438.167 1055.5,407.833 1055.5,377.5 Z"/></g>
<g><path style="opacity:0.988" fill="#fe7343" d="M 1283.5,468.5 C 1306.83,468.5 1330.17,468.5 1353.5,468.5C 1356.43,487.969 1360.6,507.302 1366,526.5C 1375.05,552.314 1384.88,577.814 1395.5,603C 1396.42,604.811 1397.26,604.645 1398,602.5C 1461.81,709.355 1555.65,771.021 1679.5,787.5C 1646.03,790.265 1612.7,788.932 1579.5,783.5C 1576.41,782.215 1573.08,781.549 1569.5,781.5C 1450.99,752.817 1365.49,683.483 1313,573.5C 1298.19,539.896 1288.35,504.896 1283.5,468.5 Z"/></g>
<g><path style="opacity:0.004" fill="#fefefd" d="M 1569.5,468.5 C 1572.83,468.5 1576.17,468.5 1579.5,468.5C 1579.5,532.5 1579.5,596.5 1579.5,660.5C 1575.83,659 1572.49,657 1569.5,654.5C 1569.5,592.5 1569.5,530.5 1569.5,468.5 Z"/></g>
<g><path style="opacity:0.985" fill="#fe7342" d="M 1024.5,785.5 C 1024.5,786.833 1024.5,788.167 1024.5,789.5C 900.876,792 799.543,746.333 720.5,652.5C 733.315,635.551 745.148,617.885 756,599.5C 762.269,610.763 768.936,621.763 776,632.5C 837.683,717.444 920.516,768.444 1024.5,785.5 Z"/></g>
<g><path style="opacity:0.923" fill="#ff7748" d="M 6430.5,679.5 C 6430.5,690.833 6430.5,702.167 6430.5,713.5C 6398.05,753.629 6359.05,785.629 6313.5,809.5C 6313.5,801.833 6313.5,794.167 6313.5,786.5C 6359.78,758.89 6398.78,723.223 6430.5,679.5 Z"/></g>
<g><path style="opacity:0.014" fill="#fffcfc" d="M 1569.5,781.5 C 1573.08,781.549 1576.41,782.215 1579.5,783.5C 1585.1,813.6 1603.1,830.434 1633.5,834C 1657.5,834.5 1681.5,834.667 1705.5,834.5C 1705.5,841.167 1705.5,847.833 1705.5,854.5C 1678.5,854.5 1651.5,854.5 1624.5,854.5C 1600.77,849.955 1582.6,837.288 1570,816.5C 1569.5,804.838 1569.33,793.171 1569.5,781.5 Z"/></g>
<g><path style="opacity:0.894" fill="#ff7c4e" d="M 6313.5,786.5 C 6313.5,794.167 6313.5,801.833 6313.5,809.5C 6265.34,835.374 6214,850.374 6159.5,854.5C 6152.5,854.5 6145.5,854.5 6138.5,854.5C 6138.5,847.833 6138.5,841.167 6138.5,834.5C 6200.79,832.679 6259.12,816.679 6313.5,786.5 Z"/></g>
<g><path style="opacity:0.051" fill="#fff8f6" d="M 1705.5,834.5 C 1757.5,834.5 1809.5,834.5 1861.5,834.5C 1861.5,841.167 1861.5,847.833 1861.5,854.5C 1809.5,854.5 1757.5,854.5 1705.5,854.5C 1705.5,847.833 1705.5,841.167 1705.5,834.5 Z"/></g>
<g><path style="opacity:0.073" fill="#fff4f0" d="M 1861.5,834.5 C 1913.17,834.5 1964.83,834.5 2016.5,834.5C 2016.5,841.167 2016.5,847.833 2016.5,854.5C 1964.83,854.5 1913.17,854.5 1861.5,854.5C 1861.5,847.833 1861.5,841.167 1861.5,834.5 Z"/></g>
<g><path style="opacity:0.108" fill="#ffefea" d="M 2016.5,834.5 C 2074.83,834.5 2133.17,834.5 2191.5,834.5C 2191.5,841.167 2191.5,847.833 2191.5,854.5C 2133.17,854.5 2074.83,854.5 2016.5,854.5C 2016.5,847.833 2016.5,841.167 2016.5,834.5 Z"/></g>
<g><path style="opacity:0.145" fill="#ffeae3" d="M 2191.5,834.5 C 2249.83,834.5 2308.17,834.5 2366.5,834.5C 2366.5,841.167 2366.5,847.833 2366.5,854.5C 2308.17,854.5 2249.83,854.5 2191.5,854.5C 2191.5,847.833 2191.5,841.167 2191.5,834.5 Z"/></g>
<g><path style="opacity:0.182" fill="#ffe6dd" d="M 2366.5,834.5 C 2418.5,834.5 2470.5,834.5 2522.5,834.5C 2522.5,841.167 2522.5,847.833 2522.5,854.5C 2470.5,854.5 2418.5,854.5 2366.5,854.5C 2366.5,847.833 2366.5,841.167 2366.5,834.5 Z"/></g>
<g><path style="opacity:0.206" fill="#ffe1d7" d="M 2522.5,834.5 C 2574.17,834.5 2625.83,834.5 2677.5,834.5C 2677.5,841.167 2677.5,847.833 2677.5,854.5C 2625.83,854.5 2574.17,854.5 2522.5,854.5C 2522.5,847.833 2522.5,841.167 2522.5,834.5 Z"/></g>
<g><path style="opacity:0.241" fill="#ffddd1" d="M 2677.5,834.5 C 2729.5,834.5 2781.5,834.5 2833.5,834.5C 2833.5,841.167 2833.5,847.833 2833.5,854.5C 2781.5,854.5 2729.5,854.5 2677.5,854.5C 2677.5,847.833 2677.5,841.167 2677.5,834.5 Z"/></g>
<g><path style="opacity:0.278" fill="#ffd8ca" d="M 2833.5,834.5 C 2898.17,834.5 2962.83,834.5 3027.5,834.5C 3027.5,841.167 3027.5,847.833 3027.5,854.5C 2962.83,854.5 2898.17,854.5 2833.5,854.5C 2833.5,847.833 2833.5,841.167 2833.5,834.5 Z"/></g>
<g><path style="opacity:0.316" fill="#ffd3c4" d="M 3027.5,834.5 C 3079.5,834.5 3131.5,834.5 3183.5,834.5C 3183.5,841.167 3183.5,847.833 3183.5,854.5C 3131.5,854.5 3079.5,854.5 3027.5,854.5C 3027.5,847.833 3027.5,841.167 3027.5,834.5 Z"/></g>
<g><path style="opacity:0.337" fill="#ffcfbe" d="M 3183.5,834.5 C 3235.5,834.5 3287.5,834.5 3339.5,834.5C 3339.5,841.167 3339.5,847.833 3339.5,854.5C 3287.5,854.5 3235.5,854.5 3183.5,854.5C 3183.5,847.833 3183.5,841.167 3183.5,834.5 Z"/></g>
<g><path style="opacity:0.375" fill="#ffcbb8" d="M 3339.5,834.5 C 3391.17,834.5 3442.83,834.5 3494.5,834.5C 3494.5,841.167 3494.5,847.833 3494.5,854.5C 3442.83,854.5 3391.17,854.5 3339.5,854.5C 3339.5,847.833 3339.5,841.167 3339.5,834.5 Z"/></g>
<g><path style="opacity:0.414" fill="#ffc5b1" d="M 3494.5,834.5 C 3559.5,834.5 3624.5,834.5 3689.5,834.5C 3689.5,841.167 3689.5,847.833 3689.5,854.5C 3624.5,854.5 3559.5,854.5 3494.5,854.5C 3494.5,847.833 3494.5,841.167 3494.5,834.5 Z"/></g>
<g><path style="opacity:0.451" fill="#ffc0aa" d="M 3689.5,834.5 C 3741.17,834.5 3792.83,834.5 3844.5,834.5C 3844.5,841.167 3844.5,847.833 3844.5,854.5C 3792.83,854.5 3741.17,854.5 3689.5,854.5C 3689.5,847.833 3689.5,841.167 3689.5,834.5 Z"/></g>
<g><path style="opacity:0.473" fill="#ffbca5" d="M 3844.5,834.5 C 3896.5,834.5 3948.5,834.5 4000.5,834.5C 4000.5,841.167 4000.5,847.833 4000.5,854.5C 3948.5,854.5 3896.5,854.5 3844.5,854.5C 3844.5,847.833 3844.5,841.167 3844.5,834.5 Z"/></g>
<g><path style="opacity:0.508" fill="#ffb89f" d="M 4000.5,834.5 C 4058.83,834.5 4117.17,834.5 4175.5,834.5C 4175.5,841.167 4175.5,847.833 4175.5,854.5C 4117.17,854.5 4058.83,854.5 4000.5,854.5C 4000.5,847.833 4000.5,841.167 4000.5,834.5 Z"/></g>
<g><path style="opacity:0.545" fill="#ffb398" d="M 4175.5,834.5 C 4233.83,834.5 4292.17,834.5 4350.5,834.5C 4350.5,841.167 4350.5,847.833 4350.5,854.5C 4292.17,854.5 4233.83,854.5 4175.5,854.5C 4175.5,847.833 4175.5,841.167 4175.5,834.5 Z"/></g>
<g><path style="opacity:0.586" fill="#ffae91" d="M 4350.5,834.5 C 4402.17,834.5 4453.83,834.5 4505.5,834.5C 4505.5,841.167 4505.5,847.833 4505.5,854.5C 4453.83,854.5 4402.17,854.5 4350.5,854.5C 4350.5,847.833 4350.5,841.167 4350.5,834.5 Z"/></g>
<g><path style="opacity:0.608" fill="#ffaa8c" d="M 4505.5,834.5 C 4557.5,834.5 4609.5,834.5 4661.5,834.5C 4661.5,841.167 4661.5,847.833 4661.5,854.5C 4609.5,854.5 4557.5,854.5 4505.5,854.5C 4505.5,847.833 4505.5,841.167 4505.5,834.5 Z"/></g>
<g><path style="opacity:0.641" fill="#ffa686" d="M 4661.5,834.5 C 4713.17,834.5 4764.83,834.5 4816.5,834.5C 4816.5,841.167 4816.5,847.833 4816.5,854.5C 4764.83,854.5 4713.17,854.5 4661.5,854.5C 4661.5,847.833 4661.5,841.167 4661.5,834.5 Z"/></g>
<g><path style="opacity:0.68" fill="#ffa07f" d="M 4816.5,834.5 C 4881.5,834.5 4946.5,834.5 5011.5,834.5C 5011.5,841.167 5011.5,847.833 5011.5,854.5C 4946.5,854.5 4881.5,854.5 4816.5,854.5C 4816.5,847.833 4816.5,841.167 4816.5,834.5 Z"/></g>
<g><path style="opacity:0.718" fill="#ff9b78" d="M 5011.5,834.5 C 5063.17,834.5 5114.83,834.5 5166.5,834.5C 5166.5,841.167 5166.5,847.833 5166.5,854.5C 5114.83,854.5 5063.17,854.5 5011.5,854.5C 5011.5,847.833 5011.5,841.167 5011.5,834.5 Z"/></g>
<g><path style="opacity:0.743" fill="#ff9773" d="M 5166.5,834.5 C 5218.5,834.5 5270.5,834.5 5322.5,834.5C 5322.5,841.167 5322.5,847.833 5322.5,854.5C 5270.5,854.5 5218.5,854.5 5166.5,854.5C 5166.5,847.833 5166.5,841.167 5166.5,834.5 Z"/></g>
<g><path style="opacity:0.774" fill="#ff936d" d="M 5322.5,834.5 C 5374.17,834.5 5425.83,834.5 5477.5,834.5C 5477.5,841.167 5477.5,847.833 5477.5,854.5C 5425.83,854.5 5374.17,854.5 5322.5,854.5C 5322.5,847.833 5322.5,841.167 5322.5,834.5 Z"/></g>
<g><path style="opacity:0.814" fill="#ff8e66" d="M 5477.5,834.5 C 5535.83,834.5 5594.17,834.5 5652.5,834.5C 5652.5,841.167 5652.5,847.833 5652.5,854.5C 5594.17,854.5 5535.83,854.5 5477.5,854.5C 5477.5,847.833 5477.5,841.167 5477.5,834.5 Z"/></g>
<g><path style="opacity:0.853" fill="#ff895f" d="M 5652.5,834.5 C 5710.83,834.5 5769.17,834.5 5827.5,834.5C 5827.5,841.167 5827.5,847.833 5827.5,854.5C 5769.17,854.5 5710.83,854.5 5652.5,854.5C 5652.5,847.833 5652.5,841.167 5652.5,834.5 Z"/></g>
<g><path style="opacity:0.874" fill="#ff855a" d="M 5827.5,834.5 C 5879.5,834.5 5931.5,834.5 5983.5,834.5C 5983.5,841.167 5983.5,847.833 5983.5,854.5C 5931.5,854.5 5879.5,854.5 5827.5,854.5C 5827.5,847.833 5827.5,841.167 5827.5,834.5 Z"/></g>
<g><path style="opacity:0.908" fill="#ff8054" d="M 5983.5,834.5 C 6035.17,834.5 6086.83,834.5 6138.5,834.5C 6138.5,841.167 6138.5,847.833 6138.5,854.5C 6086.83,854.5 6035.17,854.5 5983.5,854.5C 5983.5,847.833 5983.5,841.167 5983.5,834.5 Z"/></g>
</svg>
