<svg width="67" height="67" viewBox="0 0 67 67" fill="none" xmlns="http://www.w3.org/2000/svg">
<path d="M59.0498 46.3973C69.6496 35.7974 69.6493 18.5499 59.0498 7.94995C48.4499 -2.64998 31.2026 -2.64998 20.6029 7.94995C11.6103 16.9425 10.2484 30.3168 16.5135 40.7607C16.5135 40.7607 16.9635 41.5157 16.3557 42.1231L2.48542 55.9934C-0.275339 58.7539 -0.93256 62.6141 1.51567 65.0628L1.9372 65.4839C4.38543 67.9326 8.24587 67.2756 11.0064 64.5148L24.8476 50.6736C25.4845 50.0367 26.2393 50.4867 26.2393 50.4867C36.6829 56.7516 50.0572 55.3899 59.0498 46.3973ZM25.622 41.378C17.7897 33.5458 17.7899 20.8019 25.6222 12.9697C33.4545 5.1376 46.1983 5.13739 54.0303 12.9697C61.8626 20.8017 61.8626 33.5458 54.0303 41.378C46.1981 49.2099 33.4545 49.2099 25.622 41.378Z" fill="#7D8EA0"/>
<path d="M25.622 41.378C17.7897 33.5458 17.7899 20.8019 25.6222 12.9697C33.4545 5.1376 46.1983 5.13739 54.0303 12.9697C61.8626 20.8017 61.8626 33.5458 54.0303 41.378C46.1981 49.2099 33.4545 49.2099 25.622 41.378Z" fill="white"/>
<path d="M30.6522 29.5649L29.2727 31.079V34.7583H25.9102V20.8074H29.2727V26.958L30.442 25.1851L33.4499 20.8064H37.6078L32.8939 26.9764L37.6078 34.7564H33.6224L30.6522 29.5639V29.5649ZM42.8778 20.8083L45.9914 30.5142L49.0952 20.8083H53.5214V34.7583H50.1492L50.4747 24.8325L47.1025 34.7583H44.8802L41.4983 24.8228L41.8238 34.7583H38.4613V20.8074H42.8778V20.8083Z" fill="#EE7828"/>
</svg>
