<svg width="35" height="35" viewBox="0 0 35 35" fill="none" xmlns="http://www.w3.org/2000/svg">
<path d="M11.4379 33.1628C8.94542 33.1628 6.65317 31.4482 4.98356 28.3348C3.42242 25.4238 2.56266 21.5759 2.56266 17.5C2.56266 13.4241 3.42242 9.57617 4.98356 6.66519C6.65324 3.55175 8.94542 1.83715 11.4379 1.83715C11.9937 1.83715 12.5401 1.92532 13.0724 2.09435C11.7995 0.74473 10.3699 0 8.90756 0C6.65016 0 4.47671 1.7349 2.78761 4.88511C0.989971 8.23769 0 12.7178 0 17.5C0 22.2822 0.989971 26.7623 2.78761 30.1148C4.47671 33.2651 6.65016 35 8.90763 35C10.37 35 11.7995 34.2553 13.0724 32.9057C12.5401 33.0747 11.9937 33.1628 11.4379 33.1628ZM35 17.5C35 12.7178 34.01 8.23769 32.2124 4.88511C30.5233 1.7349 28.3499 0 26.0924 0C24.6301 0 23.2005 0.74473 21.9276 2.09435C22.46 1.92532 23.0064 1.83715 23.5622 1.83715C26.0546 1.83715 28.3469 3.55175 30.0165 6.66519C31.5776 9.57624 32.4374 13.4241 32.4374 17.5C32.4374 21.5759 31.5776 25.4238 30.0165 28.3348C28.3468 31.4482 26.0546 33.1628 23.5622 33.1628C23.0064 33.1628 22.46 33.0747 21.9276 32.9057C23.2005 34.2553 24.6301 35 26.0924 35C28.3499 35 30.5234 33.2651 32.2125 30.1148C34.01 26.7623 35 22.2822 35 17.5Z" fill="#7D8EA0"/>
<path d="M23.5624 31.1125C27.2617 31.1125 30.387 24.8788 30.387 17.5001C30.387 10.1214 27.2617 3.8877 23.5624 3.8877C21.9349 3.8877 20.3516 5.11326 19.0995 7.29927C24.0364 8.0701 27.8259 12.3508 27.8259 17.5001C27.8259 22.6493 24.0364 26.93 19.0996 27.701C20.3516 29.8869 21.9349 31.1125 23.5624 31.1125ZM11.4381 3.8877C7.73881 3.8877 4.61353 10.1214 4.61353 17.5001C4.61353 24.8788 7.73881 31.1125 11.4381 31.1125C13.0656 31.1125 14.6489 29.8869 15.9009 27.7009C10.9641 26.93 7.17461 22.6493 7.17461 17.5C7.17461 12.3507 10.9641 8.07004 15.901 7.2992C14.6489 5.11326 13.0656 3.8877 11.4381 3.8877Z" fill="#7D8EA0"/>
<path d="M17.5021 25.7754C22.0722 25.7754 25.7771 22.0708 25.7771 17.501C25.7771 12.9311 22.0722 9.22656 17.5021 9.22656C12.9319 9.22656 9.22705 12.9311 9.22705 17.501C9.22705 22.0708 12.9319 25.7754 17.5021 25.7754Z" fill="#7D8EA0"/>
</svg>
