<svg width="31" height="32" viewBox="0 0 31 32" fill="none" xmlns="http://www.w3.org/2000/svg">
<g id="Group">
<path id="Vector" d="M10.1299 29.7302C7.9225 29.7302 5.89237 28.2116 4.41368 25.454C3.03106 22.8757 2.26962 19.4675 2.26962 15.8574C2.26962 12.2473 3.03106 8.83917 4.41368 6.26087C5.89243 3.50326 7.9225 1.98461 10.1299 1.98461C10.6222 1.98461 11.1061 2.06271 11.5776 2.21242C10.4503 1.01704 9.18411 0.357422 7.88896 0.357422C5.88971 0.357422 3.96479 1.89405 2.46885 4.68423C0.876767 7.65366 0 11.6217 0 15.8574C0 20.0931 0.876767 24.0612 2.46885 27.0306C3.96479 29.8208 5.88971 31.3574 7.88903 31.3574C9.18417 31.3574 10.4503 30.6978 11.5776 29.5024C11.1061 29.6521 10.6222 29.7302 10.1299 29.7302ZM30.9977 15.8574C30.9977 11.6217 30.1209 7.65366 28.5289 4.68423C27.0329 1.89405 25.108 0.357422 23.1087 0.357422C21.8136 0.357422 20.5475 1.01704 19.4202 2.21242C19.8916 2.06271 20.3756 1.98461 20.8678 1.98461C23.0753 1.98461 25.1054 3.50326 26.5841 6.26087C27.9667 8.83923 28.7281 12.2474 28.7281 15.8574C28.7281 19.4675 27.9667 22.8757 26.5841 25.454C25.1053 28.2116 23.0753 29.7302 20.8678 29.7302C20.3756 29.7302 19.8916 29.6521 19.4202 29.5024C20.5475 30.6979 21.8137 31.3574 23.1087 31.3574C25.108 31.3574 27.033 29.8208 28.5289 27.0306C30.1209 24.0612 30.9977 20.0931 30.9977 15.8574Z" fill="#7D8EA0"/>
<path id="Vector_2" d="M20.8679 27.9141C24.1442 27.9141 26.9121 22.3929 26.9121 15.8575C26.9121 9.32206 24.1442 3.80078 20.8679 3.80078C19.4266 3.80078 18.0243 4.88628 16.9154 6.82246C21.2878 7.5052 24.6439 11.2967 24.6439 15.8575C24.6439 20.4182 21.2878 24.2097 16.9155 24.8925C18.0244 26.8286 19.4266 27.9141 20.8679 27.9141ZM10.1301 3.80078C6.85384 3.80078 4.08594 9.32206 4.08594 15.8575C4.08594 22.3929 6.85384 27.9141 10.1301 27.9141C11.5715 27.9141 12.9737 26.8286 14.0826 24.8925C9.71031 24.2097 6.35416 20.4182 6.35416 15.8574C6.35416 11.2966 9.71031 7.50514 14.0826 6.8224C12.9738 4.88628 11.5715 3.80078 10.1301 3.80078Z" fill="#7D8EA0"/>
<path id="Vector_3" d="M15.5006 23.1863C19.5482 23.1863 22.8294 19.9051 22.8294 15.8576C22.8294 11.81 19.5482 8.52881 15.5006 8.52881C11.4531 8.52881 8.17188 11.81 8.17188 15.8576C8.17188 19.9051 11.4531 23.1863 15.5006 23.1863Z" fill="#7D8EA0"/>
</g>
</svg>
