<svg width="35" height="35" viewBox="0 0 35 35" fill="none" xmlns="http://www.w3.org/2000/svg">
<g clip-path="url(#clip0_2513_125)">
<path d="M34.9943 15.4804C34.9646 15.197 34.8188 14.9386 34.5917 14.7665L31.8192 12.6664L32.8279 9.33808C32.9106 9.06526 32.8767 8.77049 32.7342 8.52365C32.5918 8.27687 32.3534 8.10009 32.0759 8.03529L28.6888 7.24444L28.2565 3.79345C28.2211 3.51072 28.0702 3.25519 27.8396 3.08778C27.6092 2.92016 27.3195 2.85549 27.0397 2.90929L23.6239 3.56445L21.825 0.587738C21.6776 0.3439 21.4358 0.171839 21.1571 0.11264C20.8784 0.0533724 20.5876 0.112093 20.3537 0.274993L17.4999 2.26282L14.646 0.275062C14.4121 0.11223 14.1212 0.0534408 13.8426 0.112708C13.5638 0.171908 13.3221 0.3439 13.1747 0.587874L11.3761 3.56465L7.9603 2.9095C7.68044 2.8559 7.3908 2.92043 7.16029 3.08798C6.92978 3.25546 6.77884 3.51085 6.7435 3.79366L6.31113 7.24464L2.92406 8.03549C2.64652 8.1003 2.40829 8.27707 2.26576 8.52385C2.1233 8.7707 2.08939 9.06539 2.17197 9.33808L3.18054 12.6666L0.408296 14.7665C0.181138 14.9386 0.0353959 15.197 0.00565957 15.4804C-0.0241451 15.7638 0.0646537 16.0469 0.251138 16.2624L2.52621 18.8929L0.847642 21.939C0.710103 22.1885 0.682076 22.4839 0.770122 22.755C0.858238 23.0259 1.0545 23.2484 1.31249 23.3695L4.46084 24.8471L4.16628 28.3127C4.14209 28.5966 4.23656 28.8779 4.42735 29.0897C4.61794 29.3015 4.88789 29.4248 5.17274 29.4305L8.65018 29.4999L9.79055 32.7855C9.88393 33.0547 10.0846 33.2733 10.3449 33.3892C10.6054 33.5052 10.902 33.508 11.1646 33.3974L14.3697 32.0464L16.748 34.5842C16.9429 34.7921 17.2151 34.9101 17.5 34.9101C17.785 34.9101 18.0572 34.7921 18.2521 34.5842L20.6304 32.0464L23.8352 33.3974C24.0978 33.5079 24.3945 33.505 24.6548 33.3892C24.9151 33.2733 25.1159 33.0548 25.2093 32.7855L26.3498 29.4999L29.8271 29.4305C30.1119 29.4249 30.3818 29.3015 30.5725 29.0897C30.7631 28.8779 30.8577 28.5967 30.8335 28.3127L30.539 24.8471L33.6876 23.3695C33.9456 23.2484 34.1419 23.0259 34.2299 22.7549C34.318 22.484 34.2899 22.1885 34.1523 21.9389L32.4736 18.8929L34.7489 16.2623C34.9352 16.0469 35.024 15.7638 34.9943 15.4804ZM17.4999 27.3628C12.0615 27.3628 7.63716 22.9384 7.63716 17.5001C7.63716 12.0617 12.0616 7.6373 17.4999 7.6373C22.9382 7.6373 27.3627 12.0618 27.3627 17.5001C27.3627 22.9383 22.9382 27.3628 17.4999 27.3628Z" fill="#EE7828"/>
<path d="M17.5005 9.69873C13.1989 9.69873 9.69922 13.1984 9.69922 17.5C9.69922 21.8017 13.1989 25.3013 17.5005 25.3013C21.8023 25.3013 25.3018 21.8017 25.3018 17.5C25.3018 13.1984 21.8022 9.69873 17.5005 9.69873ZM21.5414 16.0209L17.1254 20.4369C16.9241 20.6381 16.6604 20.7388 16.3966 20.7388C16.1329 20.7388 15.8691 20.6381 15.6679 20.4369L13.4597 18.2289C13.0573 17.8265 13.0573 17.1738 13.4597 16.7713C13.8622 16.3688 14.5149 16.3687 14.9174 16.7713L16.3966 18.2504L20.0838 14.5633C20.4863 14.1609 21.1389 14.1608 21.5415 14.5633C21.9439 14.9658 21.9439 15.6184 21.5414 16.0209Z" fill="#EE7828"/>
</g>
<defs>
<clipPath id="clip0_2513_125">
<rect width="35" height="35" fill="white"/>
</clipPath>
</defs>
</svg>
