<svg width="80" height="80" viewBox="0 0 80 80" fill="none" xmlns="http://www.w3.org/2000/svg">
<circle cx="40" cy="40" r="40" fill="#7D8EA0"/>
<path d="M51.0343 22.7778H29.5193C24.5762 22.7778 20.5547 26.7993 20.5547 31.7424V46.0858C20.558 48.1512 21.2731 50.1523 22.5794 51.7522C23.8856 53.3521 25.7033 54.4529 27.7264 54.8693V60.4291C27.7263 60.7537 27.8144 61.0722 27.9812 61.3507C28.148 61.6291 28.3872 61.8571 28.6734 62.0102C28.9596 62.1633 29.282 62.2359 29.6063 62.2202C29.9305 62.2044 30.2443 62.1009 30.5143 61.9208L40.82 55.0503H51.0343C55.9774 55.0503 59.9989 51.0288 59.9989 46.0858V31.7424C59.9989 26.7993 55.9774 22.7778 51.0343 22.7778ZM39.2817 51.7657L31.3122 57.0781V53.2574C31.3122 52.7819 31.1233 52.3259 30.7871 51.9896C30.4508 51.6534 29.9948 51.4645 29.5193 51.4645C26.5538 51.4645 24.1405 49.0512 24.1405 46.0858V31.7424C24.1405 28.7769 26.5538 26.3637 29.5193 26.3637H51.0343C53.9998 26.3637 56.413 28.7769 56.413 31.7424V46.0858C56.413 49.0512 53.9998 51.4645 51.0343 51.4645H40.2768C39.9218 51.4589 39.574 51.5642 39.2817 51.7657Z" fill="white"/>
<path d="M51.0343 33.5354H29.5193C29.0438 33.5354 28.5878 33.7243 28.2515 34.0605C27.9153 34.3968 27.7264 34.8528 27.7264 35.3283C27.7264 35.8038 27.9153 36.2599 28.2515 36.5961C28.5878 36.9323 29.0438 37.1212 29.5193 37.1212H51.0343C51.5098 37.1212 51.9658 36.9323 52.3021 36.5961C52.6383 36.2599 52.8272 35.8038 52.8272 35.3283C52.8272 34.8528 52.6383 34.3968 52.3021 34.0605C51.9658 33.7243 51.5098 33.5354 51.0343 33.5354ZM47.4485 40.7071H33.1051C32.6296 40.7071 32.1736 40.896 31.8373 41.2322C31.5011 41.5684 31.3122 42.0245 31.3122 42.5C31.3122 42.9755 31.5011 43.4315 31.8373 43.7678C32.1736 44.104 32.6296 44.2929 33.1051 44.2929H47.4485C47.924 44.2929 48.38 44.104 48.7163 43.7678C49.0525 43.4315 49.2414 42.9755 49.2414 42.5C49.2414 42.0245 49.0525 41.5684 48.7163 41.2322C48.38 40.896 47.924 40.7071 47.4485 40.7071Z" fill="white"/>
</svg>
