<svg width="80" height="80" viewBox="0 0 80 80" fill="none" xmlns="http://www.w3.org/2000/svg">
<rect width="80" height="80" fill="white"/>
<circle cx="40" cy="40" r="40" fill="white"/>
<path d="M42.6071 40.4999L51.5629 31.5439C52.1457 30.9614 52.1457 30.0194 51.5629 29.4369C50.9804 28.8544 50.0384 28.8544 49.4559 29.4369L40.4999 38.3929L31.5441 29.4369C30.9613 28.8544 30.0197 28.8544 29.4371 29.4369C28.8543 30.0195 28.8543 30.9614 29.4371 31.5439L38.3928 40.4999L29.4372 49.4559C28.8544 50.0384 28.8544 50.9804 29.4372 51.5629C29.5754 51.7014 29.7396 51.8113 29.9204 51.8863C30.1012 51.9612 30.295 51.9996 30.4907 51.9994C30.8721 51.9994 31.2536 51.8534 31.5442 51.5629L40.4999 42.6069L49.4559 51.5629C49.5941 51.7014 49.7583 51.8113 49.9391 51.8862C50.1199 51.9611 50.3137 51.9996 50.5094 51.9994C50.8908 51.9994 51.2723 51.8534 51.5629 51.5629C52.1457 50.9803 52.1457 50.0384 51.5629 49.4559L42.6071 40.4999Z" fill="#806D61"/>
</svg>
