<svg width="35" height="35" viewBox="0 0 35 35" fill="none" xmlns="http://www.w3.org/2000/svg">
<path d="M17.5031 14.7935C16.0076 14.7935 14.7969 16.0053 14.7969 17.4997C14.7969 18.9964 16.0076 20.206 17.5031 20.206C18.9987 20.206 20.2094 18.9954 20.2094 17.4997C20.2094 16.0052 18.9975 14.7934 17.5031 14.7935Z" fill="white"/>
<path d="M35 17.8867C35 15.3205 33.3171 12.9407 30.2552 11.1678V10.7749C30.4123 8.89986 30.2351 7.10238 29.7427 5.57646C29.2211 3.96035 28.3664 2.72878 27.2708 2.01488C26.295 1.38066 25.1499 1.05908 23.8676 1.05908C21.9905 1.05908 19.8488 1.92498 17.5 3.63306C15.151 1.92498 13.0092 1.05908 11.1324 1.05908C9.84999 1.05908 8.70489 1.38073 7.72872 2.01517C6.6335 2.72878 5.77889 3.96035 5.25736 5.57646C4.76485 7.10245 4.5877 8.89993 4.74477 10.7749V11.1678C1.68292 12.9409 0 15.3208 0 17.8867C0 20.5791 1.83835 23.0468 5.18033 24.8464C5.17518 24.8923 5.1709 24.9381 5.16818 24.9833C4.89248 28.7858 5.96412 31.6524 8.18558 33.0553C9.11679 33.6428 10.1972 33.9407 11.3966 33.9407C13.2449 33.9407 15.3529 33.2208 17.5001 31.8576C19.6472 33.2206 21.7552 33.9405 23.6034 33.9407H23.6037C24.8031 33.9407 25.8832 33.6428 26.8146 33.0553C29.0361 31.6523 30.1077 28.7864 29.8322 24.9879C29.8295 24.9407 29.8248 24.8929 29.8198 24.8464C33.1616 23.0468 35 20.5791 35 17.8867ZM19.4345 8.33438C18.3287 8.28007 16.6711 8.28007 15.5653 8.33438C16.1892 7.71081 16.8379 7.12811 17.5 6.5965C18.1616 7.12768 18.8102 7.71052 19.4345 8.33438ZM24.3739 21.6653C23.4644 23.1212 22.9924 23.629 22.1358 24.5505C22.0526 24.6401 21.9658 24.7334 21.8748 24.8318L21.4457 25.2954C20.3248 25.4319 19.1659 25.5012 17.9965 25.5012H17.0034C15.8345 25.5012 14.6758 25.4319 13.5541 25.2954L13.125 24.8317C13.034 24.7333 12.9471 24.6399 12.8639 24.5503C12.0072 23.6287 11.5353 23.1209 10.6261 21.6656C9.93024 20.5499 9.35055 19.506 8.8556 18.4776C9.54135 16.8127 10.3781 15.1951 11.3437 13.6678C12.0435 12.5533 12.813 11.4801 13.631 10.4773C15.901 10.2133 19.0989 10.2133 21.3689 10.4773C22.1868 11.4801 22.9563 12.5534 23.6568 13.6687C24.6219 15.1951 25.4584 16.8126 26.1442 18.4776C25.6497 19.5054 25.07 20.5493 24.3739 21.6653ZM27.077 21.1052C27.3359 21.99 27.5326 22.8563 27.6634 23.6879C26.6961 24.1043 25.6563 24.4519 24.5614 24.7255C25.0824 24.0944 25.2669 23.8296 25.9364 22.8684L26.0236 22.7433C26.4114 22.1856 26.7586 21.6461 27.077 21.1052ZM10.4383 24.7252C9.34254 24.4513 8.3032 24.104 7.33661 23.6878C7.46746 22.8562 7.66412 21.99 7.92303 21.1052C8.24139 21.6458 8.58841 22.1854 8.97666 22.7435L9.06491 22.87C9.72336 23.8153 9.91724 24.0936 10.4383 24.7252ZM5.47461 22.7385C3.2127 21.3678 1.97134 19.6524 1.97134 17.8867C1.97134 16.2175 3.09358 14.5776 5.14088 13.2397L5.16582 13.3934C5.46789 15.2561 5.95762 16.9612 6.6623 18.6027C6.12998 20.0149 5.73101 21.4043 5.47461 22.7385ZM6.68903 10.1358C6.54224 7.13718 7.37242 4.59936 8.80451 3.67008C9.45324 3.24631 10.2365 3.03142 11.1324 3.03142C12.5497 3.03142 14.2395 3.73168 16.1575 5.11325C14.937 6.10678 13.7418 7.28296 12.6006 8.61387C10.421 8.92901 8.43662 9.4629 6.69231 10.2027L6.68903 10.1358ZM7.00403 12.2262C8.12376 11.7164 9.38292 11.2971 10.7593 10.9755C10.3832 11.5038 10.0164 12.0507 9.66476 12.607C8.97709 13.7014 8.35773 14.8124 7.81977 15.9161C7.45638 14.8211 7.2072 13.7482 7.06063 12.6502L7.00403 12.2262ZM11.4727 31.9148C10.6392 31.9149 9.90052 31.7157 9.27716 31.3226C7.82098 30.4051 7.05906 28.4263 7.1278 25.7457C8.56082 26.3103 10.1209 26.7417 11.7784 27.0318L12.3912 27.6708C13.4562 28.7809 14.5798 29.7627 15.7349 30.5925C14.1946 31.4585 12.7263 31.9148 11.4727 31.9148ZM14.9261 27.4059C15.6461 27.4534 16.3287 27.4767 17.0036 27.4767H17.9964C18.6714 27.4767 19.354 27.4534 20.0739 27.4059C19.231 28.1795 18.366 28.8596 17.5 29.4298C16.6342 28.8598 15.7691 28.1796 14.9261 27.4059ZM25.7228 31.3227C25.0996 31.7156 24.3609 31.9148 23.5272 31.9148C22.2737 31.9148 20.8054 31.4585 19.265 30.5925C20.4202 29.7627 21.5437 28.7809 22.6086 27.6708L23.2215 27.0318C24.8793 26.7416 26.4391 26.3103 27.872 25.7457C27.9408 28.4262 27.1789 30.4051 25.7228 31.3227ZM27.9393 12.6502C27.7928 13.748 27.5436 14.821 27.1802 15.9161C26.6423 14.8122 26.0227 13.7009 25.3348 12.6062C24.9832 12.05 24.6165 11.5033 24.2407 10.9756C25.6167 11.2971 26.876 11.7165 27.9958 12.2262L27.9393 12.6502ZM28.311 10.1357L28.3076 10.2027C26.5623 9.46276 24.578 8.92894 22.3993 8.61394C21.2583 7.28346 20.0632 6.10706 18.8423 5.11332C20.7605 3.73175 22.4503 3.0315 23.8675 3.0315C24.7635 3.0315 25.5469 3.24645 26.1964 3.67072C27.6277 4.59944 28.4578 7.13711 28.311 10.1357ZM29.5253 22.7385C29.269 21.4043 28.87 20.0149 28.3376 18.6028C29.0422 16.9615 29.532 15.2565 29.834 13.3934L29.859 13.2399C31.9066 14.5781 33.0287 16.2178 33.0287 17.8867C33.0287 19.6524 31.7873 21.3678 29.5253 22.7385Z" fill="white"/>
</svg>
