<svg width="61" height="60" viewBox="0 0 61 60" fill="none" xmlns="http://www.w3.org/2000/svg">
<path fill-rule="evenodd" clip-rule="evenodd" d="M32.5982 19.3736H13.51C12.9743 19.3733 12.4508 19.214 12.0057 18.916C11.5605 18.618 11.2138 18.1947 11.0095 17.6995C10.8051 17.2044 10.7522 16.6597 10.8575 16.1345C10.9629 15.6093 11.2217 15.1271 11.6012 14.7491C12.0833 14.2571 12.7622 13.9521 13.51 13.9521H32.5982C34.0938 13.9521 35.304 15.1722 35.304 16.6678C35.304 17.4155 34.999 18.0945 34.5071 18.5766C34.0249 19.0685 33.346 19.3736 32.5982 19.3736ZM31.142 10.1345L30.4926 11.9843H15.4582L12.0735 0L14.7793 1.29879L17.4851 0L18.7543 0.610036L19.4234 0.934733L20.1909 1.29879L22.9164 0L25.6222 1.29879L28.328 0L31.0338 1.29879L33.7593 0L31.6832 8.02886L31.142 10.1345Z" fill="#7D8EA0"/>
<path fill-rule="evenodd" clip-rule="evenodd" d="M58.2788 31.3873H40.5976C39.1709 31.3873 38.0197 32.5484 38.0197 33.9751V57.4221C38.0197 58.8488 39.1709 60 40.5976 60H58.2788C59.7055 60 60.8665 58.8488 60.8665 57.4221V33.9751C60.8665 32.5484 59.7055 31.3873 58.2788 31.3873ZM56.9997 35.1951H41.7684V41.2365H56.9997V35.1951ZM46.1174 56.202C46.8258 56.202 47.3965 55.6314 47.3965 54.9229V52.5615C47.3965 51.8531 46.8258 51.2824 46.1174 51.2824H43.0377C42.3293 51.2824 41.7586 51.8531 41.7586 52.5615V54.9229C41.7586 55.6314 42.3293 56.202 43.0377 56.202H46.1174ZM46.1174 48.7242C46.8258 48.7242 47.3965 48.1535 47.3965 47.4451V45.0836C47.3965 44.3654 46.8258 43.7947 46.1174 43.7947H43.0377C42.3293 43.7947 41.7586 44.3654 41.7586 45.0836V47.4451C41.7586 48.1535 42.3293 48.7242 43.0377 48.7242H46.1174ZM55.8386 56.202C56.5471 56.202 57.1177 55.6314 57.1177 54.9229V52.5615C57.1177 51.8531 56.5471 51.2824 55.8386 51.2824H52.7589C52.0505 51.2824 51.4798 51.8531 51.4798 52.5615V54.9229C51.4798 55.6314 52.0505 56.202 52.7589 56.202H55.8386ZM55.8386 48.7242C56.5471 48.7242 57.1177 48.1535 57.1177 47.4451V45.0836C57.1177 44.3654 56.5471 43.7947 55.8386 43.7947H52.7589C52.0505 43.7947 51.4798 44.3654 51.4798 45.0836V47.4451C51.4798 48.1535 52.0505 48.7242 52.7589 48.7242H55.8386Z" fill="#EE7828"/>
<path d="M42.4172 29.4193C40.5182 26.0542 38.0387 22.9549 35.2739 20.5049C34.5064 21.0362 33.5717 21.3412 32.6074 21.3412H13.5093C12.5549 21.3412 11.6694 21.0559 10.9216 20.5639C4.72286 26.0542 0 34.7915 0 42.4859C0 54.8637 12.2401 59.862 23.1223 59.862C27.5107 59.862 32.1056 59.0454 36.0413 57.2645V33.9749C36.0413 31.4659 38.0781 29.4193 40.5871 29.4193H42.4172ZM23.1223 50.928C16.8153 50.928 11.6989 45.8115 11.6989 39.5046C11.6989 33.1976 16.8153 28.0811 23.1223 28.0811C29.4293 28.0811 34.5457 33.1976 34.5457 39.5046C34.5457 45.8115 29.4293 50.928 23.1223 50.928Z" fill="#7D8EA0"/>
<path d="M24.3746 41.7245C26.5837 41.7245 28.3678 39.9366 28.3678 37.7312C28.3678 35.5294 26.5765 33.738 24.3746 33.738H20.3547C20.1474 33.738 19.9794 33.9061 19.9794 34.1133V39.3659H19.1487C18.9415 39.3659 18.7734 39.5339 18.7734 39.7412V41.3492C18.7734 41.5564 18.9415 41.7245 19.1487 41.7245H19.9794V42.5818H19.1487C18.9415 42.5818 18.7734 42.7499 18.7734 42.9571V44.5651C18.7734 44.7724 18.9415 44.9404 19.1487 44.9404H19.9794V46.173C19.9794 46.3803 20.1474 46.5483 20.3547 46.5483H21.9627C22.1699 46.5483 22.338 46.3803 22.338 46.173V44.9404H24.7766C24.9839 44.9404 25.1519 44.7723 25.1519 44.5651V42.9571C25.1519 42.7498 24.9839 42.5818 24.7766 42.5818H22.338V41.7245H24.3746ZM22.338 36.0966H24.3746C25.2759 36.0966 26.0092 36.8299 26.0092 37.7312C26.0092 38.6326 25.2759 39.3659 24.3746 39.3659H22.338V36.0966Z" fill="#7D8EA0"/>
</svg>
