<svg width="38" height="38" viewBox="0 0 38 38" fill="none" xmlns="http://www.w3.org/2000/svg">
<g clip-path="url(#clip0_58_12)">
<path opacity="0.973" fill-rule="evenodd" clip-rule="evenodd" d="M8.64645 0.630644C11.1997 0.441717 13.216 1.38182 14.6953 3.45096C15.7864 5.31522 15.9101 7.24491 15.0664 9.24002C13.5395 12.5312 11.6717 15.5989 9.46285 18.4431C7.17204 15.5466 5.25472 12.4046 3.7109 9.01736C2.6423 5.79999 3.52055 3.26418 6.34567 1.40994C7.08386 1.0361 7.85082 0.776336 8.64645 0.630644ZM8.94332 3.52518C10.8778 3.42065 12.1272 4.28654 12.6914 6.12283C12.892 8.49204 11.8158 9.85277 9.46285 10.2049C7.10988 9.85277 6.0337 8.49204 6.23434 6.12283C6.62052 4.70981 7.52352 3.84393 8.94332 3.52518Z" fill="#EE7828"/>
<path opacity="0.977" fill-rule="evenodd" clip-rule="evenodd" d="M0.482178 10.4277C1.54719 10.7003 2.58626 11.0466 3.59937 11.4668C5.15345 14.2933 6.89759 16.9899 8.83179 19.5566C8.89361 21.7094 8.88129 23.8618 8.79468 26.0137C7.82798 26.7701 6.85079 27.5123 5.86304 28.2402C4.74593 27.5532 3.78109 27.7264 2.96851 28.7598C2.40179 29.9091 2.63681 30.8616 3.67358 31.6172C5.14177 32.1752 6.14372 31.7176 6.67944 30.2441C6.68863 29.8191 6.701 29.3986 6.71655 28.9824C7.41324 28.4342 8.13072 27.9146 8.8689 27.4238C8.94312 30.7138 8.96783 34.0042 8.94312 37.2949C6.12328 36.4663 3.31534 35.6004 0.519287 34.6973C0.482178 26.6075 0.469808 18.5177 0.482178 10.4277Z" fill="#EE7828"/>
<path opacity="0.983" fill-rule="evenodd" clip-rule="evenodd" d="M19.4822 10.4277C22.2778 11.2689 25.0733 12.1101 27.8689 12.9512C27.8813 17.3054 27.8689 21.6596 27.8318 26.0137C26.8518 26.9196 25.8499 27.7978 24.8259 28.6484C24.4912 28.459 24.1201 28.3477 23.7127 28.3145C23.2815 28.3264 22.8856 28.4501 22.5252 28.6855C21.5028 27.8958 20.5008 27.0794 19.5193 26.2363C19.4822 20.9669 19.4698 15.6973 19.4822 10.4277Z" fill="#EE7828"/>
<path opacity="0.978" fill-rule="evenodd" clip-rule="evenodd" d="M37.1463 10.4277C37.2452 10.4277 37.3442 10.4277 37.4431 10.4277C37.4555 18.5177 37.4431 26.6075 37.406 34.6973C34.61 35.6004 31.8021 36.4663 28.9822 37.2949C28.9698 33.6828 28.9822 30.0709 29.0193 26.459C30.0556 25.596 31.07 24.7053 32.0623 23.7871C33.1445 24.4059 34.0845 24.2327 34.8826 23.2676C35.5268 21.885 35.1681 20.8583 33.8064 20.1875C32.2647 19.9566 31.374 20.6122 31.1345 22.1543C31.2088 22.4747 31.2459 22.7963 31.2459 23.1191C30.5269 23.7516 29.7971 24.37 29.0564 24.9746C28.9698 20.9917 28.9575 17.0087 29.0193 13.0254C31.7402 12.1755 34.4492 11.3096 37.1463 10.4277Z" fill="#EE7828"/>
<path opacity="0.969" fill-rule="evenodd" clip-rule="evenodd" d="M18.1467 10.502C18.2456 10.502 18.3446 10.502 18.4436 10.502C18.4683 15.4501 18.4436 20.3981 18.3694 25.3457C17.6503 24.7379 16.9205 24.1442 16.1799 23.5645C16.4095 22.7647 16.2857 22.0226 15.8088 21.3379C14.7221 20.3339 13.6583 20.3586 12.6174 21.4121C12.4368 21.6567 12.313 21.9288 12.2463 22.2285C12.224 22.6505 12.224 23.0711 12.2463 23.4902C11.5041 24.0345 10.7619 24.5788 10.0197 25.123C9.94694 23.2363 9.97173 21.3561 10.094 19.4824C12.0169 16.9493 13.7363 14.2774 15.2522 11.4668C16.2163 11.129 17.1812 10.8073 18.1467 10.502Z" fill="#EE7828"/>
<path opacity="0.896" fill-rule="evenodd" clip-rule="evenodd" d="M33.0643 21.2636C33.7197 21.2391 34.0908 21.5483 34.1776 22.1913C33.982 23.0291 33.4872 23.2766 32.6932 22.9335C32.2946 22.5485 32.2328 22.1155 32.5077 21.6346C32.6687 21.4622 32.8543 21.3385 33.0643 21.2636Z" fill="#EE7828"/>
<path opacity="0.901" fill-rule="evenodd" clip-rule="evenodd" d="M13.8416 21.7833C14.8563 21.6471 15.2645 22.0677 15.0662 23.045C14.8835 23.3779 14.5989 23.5511 14.2127 23.5645C13.5357 23.4977 13.2512 23.1266 13.3592 22.4512C13.4491 22.1708 13.6098 21.9481 13.8416 21.7833Z" fill="#EE7828"/>
<path opacity="0.979" fill-rule="evenodd" clip-rule="evenodd" d="M12.8767 24.3066C13.2959 24.5157 13.7412 24.6394 14.2127 24.6777C14.6385 24.6736 15.0219 24.5499 15.363 24.3066C16.3774 25.123 17.3917 25.9395 18.406 26.7559C18.4555 29.403 18.4555 32.0501 18.406 34.6973C15.6056 35.6102 12.7976 36.5008 9.98219 37.3691C9.96979 33.7571 9.98219 30.1451 10.0193 26.5332C10.9643 25.7728 11.9168 25.0306 12.8767 24.3066Z" fill="#EE7828"/>
<path opacity="0.961" fill-rule="evenodd" clip-rule="evenodd" d="M27.7949 27.498C27.943 30.738 27.9924 34.0036 27.9434 37.2949C25.1235 36.4663 22.3156 35.6004 19.5195 34.6973C19.47 32.347 19.47 29.9968 19.5195 27.6465C20.2865 28.2649 21.0534 28.8835 21.8203 29.502C21.5102 30.6004 21.8195 31.4786 22.7481 32.1367C24.419 32.7053 25.4332 32.124 25.791 30.3926C25.7095 30.0731 25.6724 29.7514 25.6797 29.4277C26.3973 28.7919 27.1023 28.1487 27.7949 27.498Z" fill="#EE7828"/>
<path opacity="0.9" fill-rule="evenodd" clip-rule="evenodd" d="M4.26778 28.9824C5.27794 28.8419 5.68615 29.2625 5.49239 30.2442C5.03015 30.8659 4.51062 30.9153 3.9338 30.3926C3.6718 29.8348 3.78313 29.3647 4.26778 28.9824Z" fill="#EE7828"/>
<path opacity="0.898" fill-rule="evenodd" clip-rule="evenodd" d="M23.7127 29.4277C24.5742 29.6085 24.834 30.1033 24.492 30.9121C23.9972 31.4069 23.5024 31.4069 23.0076 30.9121C22.6693 30.1301 22.9044 29.6353 23.7127 29.4277Z" fill="#EE7828"/>
</g>
<defs>
<clipPath id="clip0_58_12">
<rect width="38" height="38" fill="white"/>
</clipPath>
</defs>
</svg>
