<svg width="35" height="35" viewBox="0 0 35 35" fill="none" xmlns="http://www.w3.org/2000/svg">
<path d="M27.379 30.8243H7.62097C6.99746 30.8243 6.49194 30.3188 6.49194 29.6953V26.3527C6.49194 24.7603 7.43143 23.3118 8.88548 22.6626C13.1144 20.7743 12.8826 20.8382 13.2121 20.8382H14.5541C15.0737 20.8382 15.5262 21.1928 15.6504 21.6974C16.1237 23.6208 18.8762 23.6217 19.3496 21.6974C19.4738 21.1929 19.9264 20.8382 20.446 20.8382C21.8902 20.8382 21.9643 20.8095 22.2482 20.9363L26.1146 22.6626C27.5686 23.3118 28.5081 24.7603 28.5081 26.3527V29.6953C28.5081 30.3188 28.0025 30.8243 27.379 30.8243ZM17.5276 4.17578C13.7249 4.17578 10.6312 7.26947 10.6312 11.0722C10.6312 14.8749 13.7249 17.9686 17.5276 17.9686C21.3303 17.9686 24.424 14.8749 24.424 11.0722C24.424 7.26947 21.3303 4.17578 17.5276 4.17578ZM6.64845 11.5523C4.25412 11.5523 2.30619 13.5002 2.30619 15.8946C2.30619 18.289 4.25412 20.2369 6.64845 20.2369C9.04284 20.2369 10.9908 18.289 10.9908 15.8946C10.9907 13.5002 9.04277 11.5523 6.64845 11.5523ZM28.3516 11.5523C25.9572 11.5523 24.0092 13.5002 24.0092 15.8946C24.0092 18.289 25.9572 20.2369 28.3516 20.2369C30.7459 20.2369 32.6938 18.289 32.6938 15.8946C32.6938 13.5002 30.7459 11.5523 28.3516 11.5523ZM33.37 21.8955C31.0207 20.8464 31.077 20.8356 30.7555 20.8356C29.0738 20.8356 27.9736 20.8239 27.2294 20.8202C26.4898 20.8165 26.2448 21.8086 26.9002 22.1514C27.4368 22.4321 27.7626 22.6715 28.1496 23.0938C29.2788 24.3203 29.3841 25.6183 29.3838 26.6945C29.3838 27.0842 29.6995 27.3996 30.0893 27.3996H33.871C34.4948 27.3996 35 26.8937 35 26.2706V24.4083C35 23.3237 34.36 22.338 33.37 21.8955ZM4.24446 20.8356C3.92452 20.8356 3.98746 20.8427 1.63004 21.8955C0.64002 22.338 0 23.3237 0 24.4083V26.2705C0 26.8936 0.505242 27.3996 1.12903 27.3996H4.91044C5.30038 27.3996 5.61637 27.0837 5.61588 26.6938C5.61461 25.6138 5.71671 24.3251 6.8504 23.0937C7.23547 22.6735 7.56402 22.4319 8.08881 22.1563C8.74287 21.8127 8.50119 20.8235 7.76238 20.8248C7.01376 20.826 5.91373 20.8356 4.24446 20.8356Z" fill="#EE7828"/>
</svg>
