<svg width="24" height="24" viewBox="0 0 24 24" fill="none" xmlns="http://www.w3.org/2000/svg">
<path fill-rule="evenodd" clip-rule="evenodd" d="M5.12109 3.57392C5.31793 3.37738 5.55429 3.22491 5.81451 3.12663C6.07473 3.02834 6.35287 2.98648 6.6305 3.00382C6.90812 3.02116 7.17889 3.0973 7.42486 3.2272C7.67083 3.3571 7.88639 3.53779 8.05725 3.75729L10.0766 6.35146C10.4467 6.82732 10.5772 7.44718 10.4309 8.03216L9.81557 10.4958C9.78397 10.6234 9.7858 10.7571 9.82088 10.8838C9.85595 11.0105 9.92309 11.126 10.0158 11.2192L12.7798 13.9832C12.8732 14.0761 12.9889 14.1434 13.1158 14.1785C13.2427 14.2135 13.3765 14.2153 13.5043 14.1835L15.9669 13.5681C16.2556 13.4964 16.5568 13.491 16.8479 13.5523C17.139 13.6137 17.4124 13.7403 17.6476 13.9225L20.2417 15.9407C21.1743 16.6663 21.2598 18.0443 20.4251 18.8779L19.2619 20.0412C18.4294 20.8736 17.1852 21.2392 16.0254 20.8309C13.0562 19.7876 10.3607 18.0879 8.13937 15.8585C5.91011 13.6376 4.21049 10.9424 3.16702 7.97366C2.75979 6.81495 3.1254 5.56961 3.95787 4.73714L5.12109 3.57392Z" fill="#EE7828"/>
</svg>
