<svg width="48" height="48" viewBox="0 0 48 48" fill="none" xmlns="http://www.w3.org/2000/svg">
<g id="Group 2372">
<circle id="Ellipse 80" cx="24" cy="24" r="24" fill="white"/>
<g id="Group">
<path id="Vector" d="M36.1637 29.72C36.0926 29.6637 30.9333 25.9448 29.5172 26.2117C28.8412 26.3313 28.4547 26.7924 27.679 27.7154C27.5542 27.8645 27.2543 28.2215 27.0212 28.4755C26.531 28.3156 26.0528 28.121 25.5903 27.8931C23.2031 26.7309 21.2743 24.8021 20.1121 22.4149C19.8841 21.9524 19.6895 21.4743 19.5297 20.984C19.7845 20.75 20.1416 20.4501 20.2941 20.3219C21.2128 19.5505 21.6747 19.164 21.7943 18.4863C22.0396 17.0823 18.3233 11.8875 18.2843 11.8407C18.1157 11.5998 17.8957 11.3994 17.6401 11.254C17.3846 11.1086 17.0999 11.0219 16.8067 11C15.3004 11 11 16.5787 11 17.5182C11 17.5728 11.0789 23.1229 17.9229 30.0849C24.8779 36.9211 30.4272 37 30.4818 37C31.4221 37 37 32.6996 37 31.1933C36.9784 30.9012 36.8921 30.6174 36.7475 30.3626C36.6029 30.1078 36.4035 29.8883 36.1637 29.72Z" fill="#7D8EA0"/>
</g>
</g>
</svg>
