<svg width="37" height="34" viewBox="0 0 37 34" fill="none" xmlns="http://www.w3.org/2000/svg">
<g id="Group 2443">
<g id="Group 2442">
<path id="Vector" d="M10.3395 10.3279C10.7678 10.1204 11.1828 9.82279 11.6214 9.50746C12.5024 8.87611 13.4992 8.16057 14.7656 8.16057C14.7715 8.16057 14.7782 8.16498 14.7855 8.16057C15.0175 8.16057 15.7469 7.84749 16.1826 7.66066C17.2319 7.20878 17.926 6.9112 18.4651 7.26711C19.1725 7.73309 19.5026 8.5793 19.3711 9.58941C19.2316 10.6668 18.5279 11.9982 17.4992 12.3437C16.9395 12.5335 16.3709 12.3902 15.9404 11.9538C15.7994 11.8127 15.7026 11.7699 15.6775 11.7655C15.6857 11.7958 15.6376 11.9885 15.6671 12.0608C16.1206 12.54 16.3029 13.3139 16.1235 14.0545C15.9574 14.7398 15.5018 15.2759 14.9044 15.4893C14.2841 15.7116 13.4932 15.3505 12.5769 14.9332C12.4365 14.869 12.2957 14.8057 12.1545 14.7434C12.2985 15.5284 12.0504 16.2291 11.7831 16.7586C11.8694 16.7393 11.964 16.7172 12.0673 16.6929C13.8019 16.2772 14.1852 17.3382 14.3698 17.8485C14.4584 18.0922 14.5182 18.2458 14.6304 18.3315C15.2078 18.7745 15.2078 18.7745 16.3908 18.2259L16.5164 18.1683C17.102 17.9017 17.7703 17.6698 18.3248 17.9637C18.8498 18.2429 18.9421 18.7871 19.0086 19.185C19.047 19.4147 19.0838 19.6318 19.1784 19.775C19.7463 20.6346 20.9026 21.5207 21.8566 21.5207H21.8655C22.3248 21.5177 22.6947 21.3006 22.9945 20.8561C23.0225 20.7505 23.0572 20.4928 23.0831 20.3008C23.2131 19.3334 23.3748 18.1291 24.3214 17.8227C25.0627 17.5834 25.7605 18.1195 26.1527 18.4931H27.9803C27.2396 11.4486 21.2666 5.93994 14.0293 5.93994C12.9394 5.93994 11.8828 6.07727 10.8638 6.31359L10.2981 7.67304C10.1511 8.35163 9.83807 8.87888 9.52863 9.36105C9.33072 9.66894 9.43854 9.97907 9.60469 10.1667C9.68015 10.2518 9.95489 10.5155 10.3395 10.3279Z" fill="#7D8EA0"/>
<path id="Vector_2" d="M25.5271 19.9702L25.3093 19.7398C25.0619 19.4799 24.8928 19.3536 24.7931 19.2931C24.6705 19.5766 24.5864 20.205 24.5472 20.4974C24.4778 21.0128 24.432 21.3532 24.2636 21.6147C23.5311 22.7503 22.5601 22.994 21.8741 22.9977H21.8563C20.2643 22.9977 18.7144 21.7513 17.9456 20.589C17.6798 20.1844 17.606 19.748 17.5528 19.4297C17.5483 19.4046 17.5432 19.3773 17.5387 19.3492C17.4442 19.3787 17.312 19.4282 17.1326 19.5102L17.0116 19.5663C15.3974 20.3128 14.9684 20.4531 13.7301 19.5027C13.2707 19.1491 13.1039 18.6883 12.9821 18.3516C12.9466 18.2548 12.8949 18.1108 12.861 18.0621C12.8522 18.071 12.7229 18.0548 12.4113 18.1294C11.1966 18.4196 10.4286 18.5561 10.0196 17.9994C9.64595 17.4914 9.96197 16.9597 10.2167 16.5321C10.5867 15.9111 10.8732 15.3499 10.6288 14.7658C10.5276 14.5259 10.216 13.7896 10.7314 13.2883C11.3022 12.7315 12.1352 13.1096 13.1896 13.5896C13.5735 13.7645 14.2042 14.0511 14.4508 14.0792C14.5586 14.0186 14.6458 13.8835 14.6886 13.7063C14.7492 13.456 14.6997 13.182 14.5682 13.0409C13.9472 12.3772 14.134 11.251 14.7159 10.6891C15.1966 10.2239 16.0806 10.0046 16.9895 10.9135C17.1859 10.9217 17.6681 10.4262 17.8587 9.65603C17.903 9.47586 18.0115 8.92499 17.7774 8.61711C17.5256 8.69092 17.0804 8.88216 16.7657 9.01732C16.0192 9.33776 15.2934 9.61622 14.7757 9.63759H14.7661C13.9738 9.63759 13.2501 10.1575 12.4829 10.7076C12.0119 11.0458 11.5252 11.3951 10.9832 11.6572C10.1208 12.0752 9.14527 11.8743 8.49991 11.1477C7.85082 10.4152 7.76446 9.37696 8.28574 8.56467C8.53971 8.16817 8.77456 7.77453 8.86464 7.31383L8.90748 7.17131L9.0301 6.87744C3.75849 8.89765 0 13.9971 0 19.9702C0 22.2128 0.541958 24.3269 1.48197 26.2091L2.45962 25.3288L3.90836 23.8786C3.96427 23.8224 4.02884 23.7756 4.0996 23.7398L5.57646 23.0014C5.62476 22.9776 5.6755 22.959 5.72781 22.9461L8.68145 22.2077C8.778 22.1831 8.87855 22.1785 8.97694 22.1941C9.07533 22.2098 9.1695 22.2453 9.2537 22.2985L10.3672 22.9993L11.9615 23.6624H14.0298C14.1088 23.6624 14.1878 23.6749 14.2632 23.7L16.4784 24.4384C16.6255 24.4875 16.7534 24.5815 16.8441 24.7073C16.9347 24.833 16.9835 24.9841 16.9835 25.1392V26.616H19.9372C20.0542 26.616 20.1696 26.6438 20.2738 26.6972C20.3779 26.7507 20.4678 26.8281 20.5361 26.9232C20.6045 27.018 20.6494 27.1277 20.667 27.2433C20.6846 27.3589 20.6744 27.477 20.6372 27.5878L19.8988 29.8031C19.8628 29.9118 19.8018 30.0106 19.7208 30.0917L18.4604 31.3522V33.2721C24.0295 31.4113 28.0598 26.1574 28.0598 19.9703H25.5271V19.9702Z" fill="#7D8EA0"/>
<path id="Vector_3" d="M16.2454 28.0926H18.9133L18.5537 29.1706L17.2001 30.5242C17.0618 30.6627 16.984 30.8505 16.9838 31.0463V33.6809C16.0305 33.8862 15.044 33.9999 14.0301 33.9999C9.07611 33.9999 4.72391 31.4118 2.22656 27.524L3.47593 26.3994L4.86782 25.0075L6.16521 24.3584L8.7349 23.7168L9.63433 24.2824C9.66951 24.3041 9.70627 24.3231 9.74431 24.3392L11.5313 25.0821C11.6211 25.1197 11.7175 25.139 11.8149 25.139H13.9105L15.507 25.6714V27.3542C15.5071 27.55 15.5849 27.7378 15.7233 27.8763C15.8618 28.0147 16.0496 28.0925 16.2454 28.0926Z" fill="#7D8EA0"/>
</g>
<g id="Group">
<path id="Vector_4" d="M13.8586 2.67439H14.4646L15.3868 3.59666V4.20261C15.3868 4.41349 15.558 4.58465 15.7689 4.58465C15.9797 4.58465 16.1509 4.41349 16.1509 4.20261V3.59666L17.0732 2.67439H17.6791C17.89 2.67439 18.0612 2.50323 18.0612 2.29235C18.0612 2.08147 17.89 1.91031 17.6791 1.91031H17.0733L16.151 0.987993V0.382043C16.151 0.171165 15.9798 0 15.7689 0C15.558 0 15.3869 0.171165 15.3869 0.382043V0.987993L14.4646 1.91026H13.8586C13.6477 1.91026 13.4766 2.08143 13.4766 2.29235C13.4766 2.50327 13.6477 2.67439 13.8586 2.67439ZM15.7689 1.6864L16.3749 2.29235L15.7689 2.89825L15.163 2.29235L15.7689 1.6864Z" fill="#7D8EA0"/>
<path id="Vector_5" d="M30.9367 20.6114H31.5427L32.4649 21.5337V22.1396C32.4649 22.3505 32.6361 22.5217 32.847 22.5217C33.0579 22.5217 33.229 22.3505 33.229 22.1396V21.5337L34.1513 20.6114H34.7573C34.9681 20.6114 35.1393 20.4402 35.1393 20.2294C35.1393 20.0185 34.9681 19.8473 34.7573 19.8473H34.1514L33.2291 18.925V18.3191C33.2291 18.1082 33.0579 17.937 32.847 17.937C32.6362 17.937 32.465 18.1082 32.465 18.3191V18.925L31.5427 19.8473H30.9367C30.7259 19.8473 30.5547 20.0184 30.5547 20.2294C30.5547 20.4403 30.7259 20.6114 30.9367 20.6114ZM32.847 19.6234L33.453 20.2294L32.847 20.8353L32.2411 20.2294L32.847 19.6234Z" fill="#7D8EA0"/>
<g id="Vector_6">
<mask id="path-6-outside-1_365_656" maskUnits="userSpaceOnUse" x="18.4453" y="-0.144531" width="18" height="18" fill="black">
<rect fill="white" x="18.4453" y="-0.144531" width="18" height="18"/>
<path d="M34.7942 12.7527L32.4929 10.4514C32.2814 10.2399 31.938 10.2399 31.726 10.4514L30.9591 11.2189L30.1921 10.452L30.9672 9.67633C31.3854 9.2576 31.3854 8.57693 30.9672 8.15877L30.1921 7.38372L31.5399 6.0353C31.752 5.82377 31.752 5.48042 31.5399 5.26838C31.4382 5.16681 31.3003 5.10976 31.1565 5.10976C31.0127 5.10976 30.8748 5.16681 30.773 5.26838L29.4252 6.61674L28.6496 5.84112C28.2314 5.42296 27.5507 5.42296 27.1321 5.84112L26.357 6.61617L25.5901 5.84926L26.357 5.08234C26.5685 4.87031 26.5685 4.52696 26.357 4.31543L24.0556 2.01411C23.8441 1.80259 23.5007 1.80259 23.2887 2.01411L20.9874 4.31543C20.7759 4.52696 20.7759 4.87031 20.9874 5.08234L23.2887 7.38366C23.339 7.43409 23.3988 7.47409 23.4646 7.50136C23.5304 7.52862 23.6009 7.54263 23.6722 7.54256C23.7434 7.54263 23.8139 7.52863 23.8797 7.50136C23.9455 7.47409 24.0053 7.43409 24.0556 7.38366L24.8225 6.61617L25.59 7.38366L24.815 8.15871C24.3962 8.57687 24.3962 9.2576 24.815 9.67684L25.59 10.4519L24.784 11.2573C23.5143 10.3553 21.7413 10.4643 20.6039 11.6023C20.5024 11.704 20.4453 11.8419 20.4453 11.9857C20.4453 12.1295 20.5024 12.2674 20.6039 12.3692L22.1383 13.903L21.0102 15.0311C20.7981 15.2432 20.7981 15.5865 21.0102 15.798C21.0604 15.8486 21.1202 15.8886 21.186 15.9159C21.2518 15.9432 21.3224 15.9571 21.3937 15.9569C21.4649 15.9571 21.5355 15.9432 21.6013 15.9159C21.6671 15.8886 21.7269 15.8486 21.7771 15.798L22.9053 14.6699L24.4391 16.2043C24.4894 16.2547 24.5492 16.2947 24.615 16.3219C24.6808 16.3492 24.7513 16.3632 24.8225 16.3632C24.8938 16.3633 24.9643 16.3493 25.0301 16.322C25.0959 16.2948 25.1557 16.2548 25.206 16.2043C26.3433 15.067 26.4529 13.2945 25.5509 12.0242L26.3569 11.2188L27.132 11.9939C27.2317 12.0934 27.35 12.1723 27.4802 12.2261C27.6104 12.2799 27.7499 12.3075 27.8908 12.3073C28.1657 12.3073 28.4407 12.2026 28.6495 11.9939L29.4252 11.2182L30.1921 11.9857L29.4252 12.7526C29.3748 12.803 29.3348 12.8627 29.3075 12.9285C29.2802 12.9943 29.2661 13.0649 29.2661 13.1361C29.2661 13.2073 29.2802 13.2779 29.3075 13.3436C29.3348 13.4094 29.3748 13.4692 29.4252 13.5195L31.7259 15.8209C31.7762 15.8712 31.836 15.9112 31.9018 15.9385C31.9676 15.9657 32.0381 15.9798 32.1094 15.9798C32.1806 15.9798 32.2511 15.9658 32.3169 15.9386C32.3828 15.9113 32.4425 15.8713 32.4928 15.8209L34.7941 13.5195C34.8446 13.4692 34.8846 13.4095 34.9119 13.3437C34.9392 13.2779 34.9532 13.2074 34.9532 13.1361C34.9532 13.0649 34.9392 12.9944 34.9119 12.9286C34.8846 12.8628 34.8446 12.803 34.7942 12.7527Z"/>
</mask>
<path d="M34.7942 12.7527L32.4929 10.4514C32.2814 10.2399 31.938 10.2399 31.726 10.4514L30.9591 11.2189L30.1921 10.452L30.9672 9.67633C31.3854 9.2576 31.3854 8.57693 30.9672 8.15877L30.1921 7.38372L31.5399 6.0353C31.752 5.82377 31.752 5.48042 31.5399 5.26838C31.4382 5.16681 31.3003 5.10976 31.1565 5.10976C31.0127 5.10976 30.8748 5.16681 30.773 5.26838L29.4252 6.61674L28.6496 5.84112C28.2314 5.42296 27.5507 5.42296 27.1321 5.84112L26.357 6.61617L25.5901 5.84926L26.357 5.08234C26.5685 4.87031 26.5685 4.52696 26.357 4.31543L24.0556 2.01411C23.8441 1.80259 23.5007 1.80259 23.2887 2.01411L20.9874 4.31543C20.7759 4.52696 20.7759 4.87031 20.9874 5.08234L23.2887 7.38366C23.339 7.43409 23.3988 7.47409 23.4646 7.50136C23.5304 7.52862 23.6009 7.54263 23.6722 7.54256C23.7434 7.54263 23.8139 7.52863 23.8797 7.50136C23.9455 7.47409 24.0053 7.43409 24.0556 7.38366L24.8225 6.61617L25.59 7.38366L24.815 8.15871C24.3962 8.57687 24.3962 9.2576 24.815 9.67684L25.59 10.4519L24.784 11.2573C23.5143 10.3553 21.7413 10.4643 20.6039 11.6023C20.5024 11.704 20.4453 11.8419 20.4453 11.9857C20.4453 12.1295 20.5024 12.2674 20.6039 12.3692L22.1383 13.903L21.0102 15.0311C20.7981 15.2432 20.7981 15.5865 21.0102 15.798C21.0604 15.8486 21.1202 15.8886 21.186 15.9159C21.2518 15.9432 21.3224 15.9571 21.3937 15.9569C21.4649 15.9571 21.5355 15.9432 21.6013 15.9159C21.6671 15.8886 21.7269 15.8486 21.7771 15.798L22.9053 14.6699L24.4391 16.2043C24.4894 16.2547 24.5492 16.2947 24.615 16.3219C24.6808 16.3492 24.7513 16.3632 24.8225 16.3632C24.8938 16.3633 24.9643 16.3493 25.0301 16.322C25.0959 16.2948 25.1557 16.2548 25.206 16.2043C26.3433 15.067 26.4529 13.2945 25.5509 12.0242L26.3569 11.2188L27.132 11.9939C27.2317 12.0934 27.35 12.1723 27.4802 12.2261C27.6104 12.2799 27.7499 12.3075 27.8908 12.3073C28.1657 12.3073 28.4407 12.2026 28.6495 11.9939L29.4252 11.2182L30.1921 11.9857L29.4252 12.7526C29.3748 12.803 29.3348 12.8627 29.3075 12.9285C29.2802 12.9943 29.2661 13.0649 29.2661 13.1361C29.2661 13.2073 29.2802 13.2779 29.3075 13.3436C29.3348 13.4094 29.3748 13.4692 29.4252 13.5195L31.7259 15.8209C31.7762 15.8712 31.836 15.9112 31.9018 15.9385C31.9676 15.9657 32.0381 15.9798 32.1094 15.9798C32.1806 15.9798 32.2511 15.9658 32.3169 15.9386C32.3828 15.9113 32.4425 15.8713 32.4928 15.8209L34.7941 13.5195C34.8446 13.4692 34.8846 13.4095 34.9119 13.3437C34.9392 13.2779 34.9532 13.2074 34.9532 13.1361C34.9532 13.0649 34.9392 12.9944 34.9119 12.9286C34.8846 12.8628 34.8446 12.803 34.7942 12.7527Z" fill="#7D8EA0"/>
<path d="M34.7942 12.7527L33.9355 13.6114L33.9364 13.6122L34.7942 12.7527ZM32.4929 10.4514L31.6342 11.3101L32.4929 10.4514ZM31.726 10.4514L30.8683 9.59166L30.867 9.59301L31.726 10.4514ZM30.9591 11.2189L30.1004 12.0776L30.9594 12.9366L31.8181 12.0772L30.9591 11.2189ZM30.1921 10.452L29.3331 9.59358L28.4751 10.4523L29.3335 11.3106L30.1921 10.452ZM30.9672 9.67633L31.8262 10.5347L31.8265 10.5344L30.9672 9.67633ZM30.9672 8.15877L30.1085 9.01746L30.1085 9.01747L30.9672 8.15877ZM30.1921 7.38372L29.3332 6.52523L28.475 7.38393L29.3335 8.24241L30.1921 7.38372ZM31.5399 6.0353L30.6824 5.17545L30.681 5.17681L31.5399 6.0353ZM31.5399 5.26838L32.3985 4.40956L32.3978 4.40888L31.5399 5.26838ZM31.1565 5.10976V3.89539V5.10976ZM30.773 5.26838L29.9151 4.40888L29.9141 4.40987L30.773 5.26838ZM29.4252 6.61674L28.5665 7.47544L29.4254 8.33431L30.2841 7.47525L29.4252 6.61674ZM28.6496 5.84112L27.7909 6.69981L27.7909 6.69982L28.6496 5.84112ZM27.1321 5.84112L26.2739 4.98191L26.2734 4.98243L27.1321 5.84112ZM26.357 6.61617L25.4983 7.47487L26.357 8.33356L27.2157 7.47486L26.357 6.61617ZM25.5901 5.84926L24.7314 4.99057L23.8727 5.84926L24.7314 6.70795L25.5901 5.84926ZM26.357 5.08234L27.2157 5.94104L27.2167 5.94L26.357 5.08234ZM26.357 4.31543L27.2157 3.45674L27.2157 3.45673L26.357 4.31543ZM24.0556 2.01411L23.1969 2.87281L23.1969 2.87282L24.0556 2.01411ZM23.2887 2.01411L22.431 1.15439L22.43 1.15542L23.2887 2.01411ZM20.9874 4.31543L21.8461 5.17412L21.8461 5.17412L20.9874 4.31543ZM20.9874 5.08234L20.1277 5.94001L20.1287 5.94104L20.9874 5.08234ZM23.2887 7.38366L24.1485 6.52603L24.1474 6.52497L23.2887 7.38366ZM23.6722 7.54256L23.6734 6.32818L23.671 6.32819L23.6722 7.54256ZM24.0556 7.38366L23.1966 6.52529L23.1958 6.52608L24.0556 7.38366ZM24.8225 6.61617L25.6812 5.75748L24.8222 4.89847L23.9635 5.7578L24.8225 6.61617ZM25.59 7.38366L26.4487 8.24235L27.3074 7.38366L26.4487 6.52497L25.59 7.38366ZM24.815 8.15871L25.6731 9.01799L25.6737 9.0174L24.815 8.15871ZM24.815 9.67684L23.9558 10.535L23.9563 10.5355L24.815 9.67684ZM25.59 10.4519L26.4484 11.3109L27.3077 10.4522L26.4487 9.5932L25.59 10.4519ZM24.784 11.2573L24.0807 12.2473L24.9169 12.8413L25.6424 12.1163L24.784 11.2573ZM20.6039 11.6023L19.745 10.7438L19.7444 10.7444L20.6039 11.6023ZM20.4453 11.9857H21.6597H20.4453ZM20.6039 12.3692L19.7444 13.2271L19.7454 13.228L20.6039 12.3692ZM22.1383 13.903L22.997 14.7617L23.8559 13.9028L22.9969 13.0442L22.1383 13.903ZM21.0102 15.0311L21.8689 15.8898L21.8689 15.8898L21.0102 15.0311ZM21.0102 15.798L21.8715 14.942L21.8677 14.9382L21.0102 15.798ZM21.3937 15.9569L21.3969 14.7426L21.3903 14.7426L21.3937 15.9569ZM21.7771 15.798L20.9184 14.9393L20.9159 14.9419L21.7771 15.798ZM22.9053 14.6699L23.7641 13.8114L22.9054 12.9524L22.0466 13.8112L22.9053 14.6699ZM24.4391 16.2043L25.2982 15.346L25.2979 15.3458L24.4391 16.2043ZM24.8225 16.3632L24.8237 15.1488L24.8223 15.1488L24.8225 16.3632ZM25.206 16.2043L24.3473 15.3456L24.3462 15.3467L25.206 16.2043ZM25.5509 12.0242L24.6925 11.1652L23.9667 11.8906L24.5608 12.7273L25.5509 12.0242ZM26.3569 11.2188L27.2156 10.3601L26.3572 9.50172L25.4986 10.3598L26.3569 11.2188ZM27.132 11.9939L26.2733 12.8525L26.2738 12.8531L27.132 11.9939ZM27.8908 12.3073V11.093L27.8893 11.093L27.8908 12.3073ZM28.6495 11.9939L27.7909 11.1352L27.7909 11.1352L28.6495 11.9939ZM29.4252 11.2182L30.2842 10.3599L29.4255 9.50053L28.5665 10.3595L29.4252 11.2182ZM30.1921 11.9857L31.0508 12.8444L31.9091 11.986L31.0511 11.1273L30.1921 11.9857ZM29.4252 12.7526L30.2832 13.612L30.2839 13.6113L29.4252 12.7526ZM29.2661 13.1361H28.0518H29.2661ZM29.4252 13.5195L30.284 12.661L30.2832 12.6602L29.4252 13.5195ZM31.7259 15.8209L32.585 14.9626L32.5847 14.9623L31.7259 15.8209ZM32.1094 15.9798L32.1106 14.7654L32.1092 14.7654L32.1094 15.9798ZM32.4928 15.8209L31.6341 14.9622L31.633 14.9633L32.4928 15.8209ZM34.7941 13.5195L33.9365 12.6599L33.9354 12.6609L34.7941 13.5195ZM35.6529 11.894L33.3516 9.59269L31.6342 11.3101L33.9355 13.6114L35.6529 11.894ZM33.3516 9.59269C32.6652 8.90635 31.5538 8.90783 30.8683 9.59166L32.5836 11.3111C32.3222 11.5719 31.8975 11.5734 31.6342 11.3101L33.3516 9.59269ZM30.867 9.59301L30.1 10.3605L31.8181 12.0772L32.585 11.3098L30.867 9.59301ZM31.8177 10.3602L31.0508 9.59326L29.3335 11.3106L30.1004 12.0776L31.8177 10.3602ZM31.0512 11.3103L31.8262 10.5347L30.1082 8.81796L29.3331 9.59358L31.0512 11.3103ZM31.8265 10.5344C32.7178 9.64192 32.7186 8.19281 31.8259 7.30008L30.1085 9.01747C30.0521 8.96106 30.0529 8.87328 30.1079 8.81823L31.8265 10.5344ZM31.8259 7.30008L31.0508 6.52503L29.3335 8.24241L30.1085 9.01746L31.8259 7.30008ZM31.051 8.24221L32.3988 6.89379L30.681 5.17681L29.3332 6.52523L31.051 8.24221ZM32.3975 6.89515C33.0859 6.20855 33.0844 5.0953 32.3985 4.40956L30.6814 6.1272C30.4196 5.86554 30.4181 5.439 30.6824 5.17545L32.3975 6.89515ZM32.3978 4.40888C32.0684 4.08007 31.6219 3.89539 31.1565 3.89539V6.32414C30.9786 6.32414 30.808 6.25355 30.682 6.12788L32.3978 4.40888ZM31.1565 3.89539C30.691 3.89539 30.2446 4.08007 29.9151 4.40888L31.6309 6.12788C31.505 6.25355 31.3344 6.32414 31.1565 6.32414V3.89539ZM29.9141 4.40987L28.5664 5.75823L30.2841 7.47525L31.6319 6.12689L29.9141 4.40987ZM30.2839 5.75805L29.5083 4.98243L27.7909 6.69982L28.5665 7.47544L30.2839 5.75805ZM29.5083 4.98243C28.6156 4.08974 27.1664 4.09049 26.2739 4.98191L27.9902 6.70034C27.9351 6.75543 27.8473 6.75618 27.7909 6.69981L29.5083 4.98243ZM26.2734 4.98243L25.4983 5.75748L27.2157 7.47486L27.9907 6.69981L26.2734 4.98243ZM27.2157 5.75748L26.4488 4.99057L24.7314 6.70795L25.4983 7.47487L27.2157 5.75748ZM26.4488 6.70795L27.2157 5.94104L25.4983 4.22365L24.7314 4.99057L26.4488 6.70795ZM27.2167 5.94C27.9006 5.25453 27.902 4.14308 27.2157 3.45674L25.4983 5.17412C25.235 4.91084 25.2365 4.48608 25.4973 4.22468L27.2167 5.94ZM27.2157 3.45673L24.9143 1.15541L23.1969 2.87282L25.4983 5.17413L27.2157 3.45673ZM24.9143 1.15542C24.228 0.469084 23.1165 0.470565 22.431 1.15439L24.1464 2.87384C23.885 3.13461 23.4602 3.13609 23.1969 2.87281L24.9143 1.15542ZM22.43 1.15542L20.1287 3.45674L21.8461 5.17412L24.1474 2.87281L22.43 1.15542ZM20.1287 3.45674C19.4424 4.14308 19.4438 5.25453 20.1277 5.94L21.8471 4.22468C22.1079 4.48608 22.1094 4.91084 21.8461 5.17412L20.1287 3.45674ZM20.1287 5.94104L22.43 8.24235L24.1474 6.52497L21.8461 4.22365L20.1287 5.94104ZM22.4289 8.24128C22.5922 8.40494 22.7862 8.53473 22.9997 8.62322L23.9295 6.37949C24.0114 6.41344 24.0858 6.46324 24.1485 6.52603L22.4289 8.24128ZM22.9997 8.62322C23.2132 8.71171 23.4422 8.75715 23.6733 8.75693L23.671 6.32819C23.7597 6.3281 23.8475 6.34554 23.9295 6.37949L22.9997 8.62322ZM23.671 8.75693C23.9021 8.75716 24.1311 8.71172 24.3446 8.62323L23.4149 6.37949C23.4968 6.34553 23.5847 6.3281 23.6734 6.32819L23.671 8.75693ZM24.3446 8.62323C24.5582 8.53473 24.7522 8.40491 24.9154 8.24124L23.1958 6.52608C23.2585 6.46327 23.3329 6.41346 23.4149 6.37949L24.3446 8.62323ZM24.9146 8.24203L25.6815 7.47455L23.9635 5.7578L23.1966 6.52529L24.9146 8.24203ZM23.9638 7.47486L24.7313 8.24235L26.4487 6.52497L25.6812 5.75748L23.9638 7.47486ZM24.7313 6.52497L23.9563 7.30002L25.6737 9.0174L26.4487 8.24235L24.7313 6.52497ZM23.9569 7.29943C23.0625 8.19258 23.0641 9.64226 23.9558 10.535L25.6742 8.81867C25.7284 8.87294 25.73 8.96116 25.6731 9.01799L23.9569 7.29943ZM23.9563 10.5355L24.7313 11.3106L26.4487 9.5932L25.6737 8.81815L23.9563 10.5355ZM24.7316 9.59289L23.9256 10.3983L25.6424 12.1163L26.4484 11.3109L24.7316 9.59289ZM25.4873 10.2673C23.7482 9.03191 21.313 9.17498 19.745 10.7438L21.4628 12.4607C22.1695 11.7537 23.2804 11.6788 24.0807 12.2473L25.4873 10.2673ZM19.7444 10.7444C19.4156 11.0738 19.2309 11.5203 19.2309 11.9857H21.6597C21.6597 12.1636 21.5891 12.3342 21.4634 12.4601L19.7444 10.7444ZM19.2309 11.9857C19.2309 12.4512 19.4156 12.8976 19.7444 13.2271L21.4634 11.5113C21.5891 11.6372 21.6597 11.8078 21.6597 11.9857H19.2309ZM19.7454 13.228L21.2798 14.7619L22.9969 13.0442L21.4625 11.5103L19.7454 13.228ZM21.2796 13.0443L20.1515 14.1724L21.8689 15.8898L22.997 14.7617L21.2796 13.0443ZM20.1515 14.1724C19.4658 14.8581 19.4641 15.9712 20.1527 16.6579L21.8677 14.9382C22.1321 15.2018 22.1304 15.6283 21.8689 15.8898L20.1515 14.1724ZM20.1489 16.6541C20.3124 16.8186 20.5069 16.949 20.7211 17.0378L21.6509 14.7941C21.7335 14.8283 21.8085 14.8786 21.8715 14.942L20.1489 16.6541ZM20.7211 17.0378C20.9354 17.1266 21.1651 17.172 21.397 17.1713L21.3903 14.7426C21.4797 14.7423 21.5683 14.7598 21.6509 14.7941L20.7211 17.0378ZM21.3904 17.1713C21.6223 17.1719 21.852 17.1265 22.0662 17.0378L21.1364 14.794C21.219 14.7598 21.3075 14.7423 21.3969 14.7426L21.3904 17.1713ZM22.0662 17.0378C22.2804 16.949 22.4749 16.8186 22.6384 16.6542L20.9159 14.9419C20.9789 14.8785 21.0539 14.8283 21.1364 14.794L22.0662 17.0378ZM22.6358 16.6567L23.7639 15.5286L22.0466 13.8112L20.9184 14.9394L22.6358 16.6567ZM22.0464 15.5284L23.5802 17.0628L25.2979 15.3458L23.7641 13.8114L22.0464 15.5284ZM23.58 17.0626C23.7431 17.2259 23.9369 17.3554 24.1501 17.4438L25.0799 15.2001C25.1615 15.2339 25.2357 15.2835 25.2982 15.346L23.58 17.0626ZM24.1501 17.4438C24.3633 17.5322 24.5919 17.5776 24.8227 17.5776L24.8223 15.1488C24.9107 15.1488 24.9982 15.1662 25.0799 15.2001L24.1501 17.4438ZM24.8213 17.5776C25.0525 17.5778 25.2814 17.5324 25.495 17.4439L24.5652 15.2002C24.6472 15.1662 24.735 15.1488 24.8237 15.1488L24.8213 17.5776ZM25.495 17.4439C25.7086 17.3554 25.9025 17.2256 26.0658 17.0619L24.3462 15.3467C24.4088 15.2839 24.4833 15.2341 24.5652 15.2002L25.495 17.4439ZM26.0647 17.063C27.6325 15.4952 27.7764 13.0609 26.5411 11.3212L24.5608 12.7273C25.1294 13.5281 25.0542 14.6387 24.3473 15.3456L26.0647 17.063ZM26.4093 12.8832L27.2153 12.0778L25.4986 10.3598L24.6925 11.1652L26.4093 12.8832ZM25.4982 12.0775L26.2733 12.8525L27.9907 11.1352L27.2156 10.3601L25.4982 12.0775ZM26.2738 12.8531C26.4864 13.0654 26.7388 13.2337 27.0165 13.3485L27.9439 11.1038C27.9612 11.1109 27.9769 11.1214 27.9901 11.1346L26.2738 12.8531ZM27.0165 13.3485C27.2942 13.4632 27.5918 13.5221 27.8922 13.5217L27.8893 11.093C27.908 11.0929 27.9266 11.0966 27.9439 11.1038L27.0165 13.3485ZM27.8908 13.5217C28.4731 13.5217 29.0615 13.2993 29.5082 12.8525L27.7909 11.1352C27.82 11.106 27.8584 11.093 27.8908 11.093V13.5217ZM29.5082 12.8525L30.2839 12.0769L28.5665 10.3595L27.7909 11.1352L29.5082 12.8525ZM28.5662 12.0766L29.3331 12.8441L31.0511 11.1273L30.2842 10.3599L28.5662 12.0766ZM29.3334 11.127L28.5665 11.8939L30.2839 13.6113L31.0508 12.8444L29.3334 11.127ZM28.5672 11.8932C28.4038 12.0563 28.2742 12.2501 28.1857 12.4633L30.4292 13.3937C30.3954 13.4754 30.3457 13.5496 30.2832 13.612L28.5672 11.8932ZM28.1857 12.4633C28.0973 12.6766 28.0518 12.9052 28.0518 13.1361H30.4805C30.4805 13.2245 30.4631 13.312 30.4292 13.3937L28.1857 12.4633ZM28.0518 13.1361C28.0518 13.367 28.0973 13.5956 28.1857 13.8088L30.4292 12.8785C30.4631 12.9601 30.4805 13.0477 30.4805 13.1361H28.0518ZM28.1857 13.8088C28.2742 14.0221 28.4038 14.2158 28.5672 14.3789L30.2832 12.6602C30.3457 12.7226 30.3954 12.7968 30.4292 12.8785L28.1857 13.8088ZM28.5664 14.3781L30.8671 16.6794L32.5847 14.9623L30.284 12.661L28.5664 14.3781ZM30.8668 16.6792C31.03 16.8424 31.2237 16.972 31.4369 17.0603L32.3667 14.8166C32.4484 14.8504 32.5225 14.9 32.585 14.9626L30.8668 16.6792ZM31.4369 17.0603C31.6502 17.1487 31.8787 17.1942 32.1096 17.1941L32.1092 14.7654C32.1975 14.7654 32.2851 14.7828 32.3667 14.8166L31.4369 17.0603ZM32.1082 17.1941C32.3393 17.1944 32.5683 17.1489 32.7818 17.0604L31.8521 14.8167C31.934 14.7827 32.0219 14.7653 32.1106 14.7654L32.1082 17.1941ZM32.7818 17.0604C32.9954 16.9719 33.1894 16.8421 33.3526 16.6784L31.633 14.9633C31.6957 14.9005 31.7701 14.8507 31.8521 14.8167L32.7818 17.0604ZM33.3515 16.6796L35.6528 14.3782L33.9354 12.6609L31.6341 14.9622L33.3515 16.6796ZM35.6518 14.3792C35.8153 14.2161 35.945 14.0224 36.0335 13.8091L33.7902 12.8783C33.8241 12.7966 33.8738 12.7223 33.9365 12.6599L35.6518 14.3792ZM36.0335 13.8091C36.122 13.5958 36.1676 13.3672 36.1676 13.1362L33.7389 13.136C33.7389 13.0476 33.7563 12.96 33.7902 12.8783L36.0335 13.8091ZM36.1676 13.1362C36.1676 12.9053 36.1221 12.6766 36.0336 12.4633L33.7902 13.3938C33.7563 13.3121 33.7389 13.2245 33.7389 13.136L36.1676 13.1362ZM36.0336 12.4633C35.9452 12.25 35.8155 12.0563 35.652 11.8931L33.9364 13.6122C33.8737 13.5497 33.8241 13.4755 33.7902 13.3938L36.0336 12.4633Z" fill="#E8EDF3" mask="url(#path-6-outside-1_365_656)"/>
</g>
</g>
</g>
</svg>
