<svg width="37" height="35" viewBox="0 0 37 35" fill="none" xmlns="http://www.w3.org/2000/svg">
<path d="M10.2988 10.6318C10.7253 10.4181 11.1387 10.1118 11.5756 9.7872C12.453 9.13728 13.4459 8.40068 14.7073 8.40068C14.7132 8.40068 14.7198 8.40523 14.7272 8.40068C14.9582 8.40068 15.6847 8.0784 16.1187 7.88608C17.1639 7.42091 17.8552 7.11457 18.3922 7.48095C19.0968 7.96064 19.4255 8.83174 19.2946 9.87155C19.1556 10.9806 18.4547 12.3511 17.4301 12.7068C16.8726 12.9022 16.3063 12.7548 15.8775 12.3054C15.737 12.1603 15.6406 12.1162 15.6156 12.1116C15.6237 12.1428 15.5759 12.3412 15.6053 12.4156C16.0569 12.909 16.2385 13.7056 16.0599 14.468C15.8944 15.1734 15.4406 15.7253 14.8455 15.9449C14.2277 16.1738 13.44 15.8021 12.5272 15.3725C12.3874 15.3064 12.2472 15.2413 12.1065 15.1772C12.25 15.9852 12.0029 16.7066 11.7366 17.2515C11.8226 17.2318 11.9168 17.209 12.0198 17.1839C13.7474 16.756 14.1292 17.8483 14.313 18.3736C14.4013 18.6244 14.4608 18.7825 14.5726 18.8707C15.1478 19.3268 15.1478 19.3268 16.3261 18.7621L16.4512 18.7027C17.0344 18.4283 17.7001 18.1896 18.2524 18.4921C18.7753 18.7795 18.8673 19.3397 18.9334 19.7494C18.9717 19.9858 19.0084 20.2093 19.1026 20.3567C19.6682 21.2416 20.82 22.1537 21.7702 22.1537H21.779C22.2365 22.1507 22.605 21.9272 22.9036 21.4696C22.9315 21.3609 22.966 21.0957 22.9918 20.898C23.1213 19.9022 23.2824 18.6624 24.2252 18.3469C24.9636 18.1006 25.6586 18.6525 26.0493 19.0371H27.8696C27.1319 11.7854 21.1825 6.11475 13.974 6.11475C12.8884 6.11475 11.8359 6.25611 10.8209 6.49939L10.2575 7.89881C10.1111 8.59737 9.79931 9.14013 9.49109 9.63647C9.29398 9.95342 9.40137 10.2727 9.56685 10.4658C9.64201 10.5535 9.91567 10.8249 10.2988 10.6318Z" fill="#7D8EA0"/>
<path d="M25.4259 20.5577L25.2089 20.3205C24.9625 20.0529 24.7941 19.923 24.6948 19.8606C24.5727 20.1525 24.4889 20.7994 24.4499 21.1004C24.3807 21.631 24.3351 21.9814 24.1674 22.2505C23.4378 23.4196 22.4707 23.6704 21.7873 23.6742H21.7697C20.1839 23.6742 18.6402 22.3912 17.8745 21.1947C17.6097 20.7781 17.5362 20.3289 17.4832 20.0013C17.4788 19.9754 17.4736 19.9473 17.4692 19.9184C17.3751 19.9488 17.2434 19.9998 17.0647 20.0841L16.9441 20.1418C15.3364 20.9103 14.909 21.0548 13.6756 20.0765C13.2181 19.7124 13.052 19.2381 12.9306 18.8914C12.8953 18.7919 12.8438 18.6436 12.81 18.5935C12.8012 18.6026 12.6725 18.5859 12.3621 18.6627C11.1522 18.9615 10.3873 19.102 9.97988 18.5289C9.60771 18.0059 9.92248 17.4586 10.1762 17.0185C10.5447 16.3792 10.8301 15.8015 10.5867 15.2002C10.4859 14.9532 10.1755 14.1953 10.6889 13.6792C11.2574 13.1061 12.0871 13.4953 13.1373 13.9894C13.5197 14.1695 14.1479 14.4644 14.3935 14.4934C14.5009 14.431 14.5877 14.292 14.6304 14.1095C14.6907 13.8518 14.6414 13.5698 14.5105 13.4246C13.8919 12.7413 14.078 11.582 14.6576 11.0036C15.1364 10.5247 16.0168 10.2989 16.9222 11.2346C17.1178 11.243 17.5981 10.7329 17.7879 9.94014C17.832 9.75468 17.9401 9.18761 17.7069 8.87067C17.4561 8.94665 17.0127 9.14351 16.6993 9.28265C15.9557 9.61251 15.2327 9.89917 14.7172 9.92117H14.7076C13.9184 9.92117 13.1976 10.4564 12.4335 11.0226C11.9642 11.3707 11.4795 11.7304 10.9397 12.0002C10.0806 12.4304 9.10902 12.2237 8.46621 11.4757C7.8197 10.7216 7.73368 9.65286 8.25289 8.81668C8.50586 8.40853 8.73978 8.00331 8.8295 7.52906L8.87217 7.38235L8.9943 7.07983C3.74359 9.15946 0 14.4089 0 20.5577C0 22.8662 0.53981 25.0425 1.47609 26.98L2.44987 26.0739L3.89287 24.5811C3.94856 24.5232 4.01287 24.475 4.08335 24.4382L5.55436 23.6781C5.60246 23.6535 5.65301 23.6344 5.70511 23.6211L8.64704 22.861C8.74321 22.8357 8.84335 22.8309 8.94135 22.847C9.03935 22.8631 9.13315 22.8997 9.21701 22.9545L10.3261 23.6759L11.9141 24.3585H13.9742C14.0529 24.3585 14.1316 24.3714 14.2067 24.3972L16.4131 25.1573C16.5596 25.2078 16.687 25.3046 16.7773 25.4341C16.8676 25.5635 16.9162 25.7191 16.9162 25.8787V27.399H19.8581C19.9747 27.3989 20.0897 27.4276 20.1934 27.4826C20.2971 27.5376 20.3867 27.6173 20.4547 27.7152C20.5228 27.8128 20.5675 27.9257 20.5851 28.0447C20.6026 28.1636 20.5924 28.2852 20.5554 28.3993L19.82 30.6797C19.784 30.7917 19.7233 30.8934 19.6427 30.9769L18.3872 32.2744V34.2508C23.9343 32.3353 27.9486 26.9269 27.9486 20.5578H25.4259V20.5577Z" fill="#7D8EA0"/>
<path d="M16.181 28.9191H18.8384L18.4802 30.0288L17.132 31.4222C16.9942 31.5648 16.9167 31.758 16.9165 31.9596V34.6717C15.967 34.883 14.9844 35.0001 13.9746 35.0001C9.04016 35.0001 4.70522 32.3358 2.21777 28.3337L3.46219 27.1761L4.84856 25.7432L6.14081 25.0751L8.70032 24.4146L9.59618 24.9968C9.63121 25.0191 9.66783 25.0387 9.70572 25.0553L11.4856 25.82C11.5751 25.8587 11.6711 25.8786 11.7681 25.8786H13.8554L15.4456 26.4267V28.159C15.4456 28.3605 15.5231 28.5538 15.6611 28.6964C15.799 28.8389 15.986 28.919 16.181 28.9191Z" fill="#7D8EA0"/>
<path d="M13.8034 2.75305H14.4069L15.3255 3.70244V4.32622C15.3255 4.5433 15.496 4.7195 15.7061 4.7195C15.9161 4.7195 16.0866 4.5433 16.0866 4.32622V3.70244L17.0052 2.75305H17.6088C17.8188 2.75305 17.9893 2.57685 17.9893 2.35977C17.9893 2.14269 17.8188 1.96649 17.6088 1.96649H17.0053L16.0866 1.01705V0.39328C16.0866 0.176199 15.9162 0 15.7061 0C15.4961 0 15.3256 0.176199 15.3256 0.39328V1.01705L14.4069 1.96645H13.8034C13.5933 1.96645 13.4229 2.14264 13.4229 2.35977C13.4229 2.5769 13.5933 2.75305 13.8034 2.75305ZM15.7061 1.736L16.3097 2.35977L15.7061 2.9835L15.1026 2.35977L15.7061 1.736Z" fill="#EE7828"/>
<path d="M30.8141 21.2174H31.4177L32.3363 22.1668V22.7906C32.3363 23.0077 32.5068 23.1839 32.7168 23.1839C32.9269 23.1839 33.0973 23.0077 33.0973 22.7906V22.1668L34.016 21.2174H34.6195C34.8295 21.2174 35 21.0412 35 20.8241C35 20.607 34.8295 20.4308 34.6195 20.4308H34.016L33.0974 19.4814V18.8576C33.0974 18.6406 32.9269 18.4644 32.7169 18.4644C32.5068 18.4644 32.3363 18.6406 32.3363 18.8576V19.4814L31.4177 20.4308H30.8141C30.6041 20.4308 30.4336 20.607 30.4336 20.8241C30.4336 21.0413 30.6041 21.2174 30.8141 21.2174ZM32.7169 20.2004L33.3204 20.8241L32.7169 21.4479L32.1133 20.8241L32.7169 20.2004Z" fill="#EE7828"/>
<mask id="path-6-outside-1_2040_217" maskUnits="userSpaceOnUse" x="18.3643" y="-0.0898438" width="18" height="19" fill="black">
<rect fill="white" x="18.3643" y="-0.0898438" width="18" height="19"/>
<path d="M34.6563 13.1279L32.3641 10.7589C32.1534 10.5411 31.8114 10.5411 31.6002 10.7589L30.8363 11.5489L30.0725 10.7595L30.8444 9.96104C31.2609 9.52999 31.2609 8.82931 30.8444 8.39885L30.0725 7.60101L31.4149 6.21292C31.6262 5.99517 31.6262 5.64172 31.4149 5.42345C31.3135 5.31889 31.1762 5.26016 31.033 5.26016C30.8897 5.26016 30.7524 5.31889 30.651 5.42345L29.3086 6.81147L28.536 6.01304C28.1195 5.58258 27.4415 5.58258 27.0245 6.01304L26.2525 6.81088L25.4886 6.02141L26.2525 5.23194C26.4632 5.01367 26.4632 4.66022 26.2525 4.44247L23.9603 2.07347C23.7496 1.85572 23.4076 1.85572 23.1964 2.07347L20.9042 4.44247C20.6935 4.66022 20.6935 5.01367 20.9042 5.23194L23.1964 7.60094C23.2465 7.65285 23.306 7.69403 23.3716 7.7221C23.4371 7.75017 23.5074 7.76458 23.5783 7.76451C23.6493 7.76459 23.7195 7.75017 23.7851 7.7221C23.8506 7.69403 23.9102 7.65286 23.9603 7.60094L24.7241 6.81088L25.4886 7.60094L24.7166 8.39879C24.2995 8.82925 24.2995 9.52999 24.7166 9.96157L25.4886 10.7594L24.6858 11.5885C23.4211 10.66 21.6551 10.7722 20.5223 11.9436C20.4211 12.0484 20.3643 12.1903 20.3643 12.3384C20.3643 12.4864 20.4211 12.6283 20.5223 12.7331L22.0506 14.312L20.9269 15.4733C20.7157 15.6917 20.7157 16.0451 20.9269 16.2628C20.9769 16.3148 21.0365 16.3561 21.102 16.3842C21.1676 16.4122 21.2379 16.4266 21.3089 16.4264C21.3798 16.4266 21.4501 16.4122 21.5157 16.3841C21.5812 16.3561 21.6408 16.3148 21.6908 16.2628L22.8144 15.1015L24.3422 16.681C24.3923 16.7329 24.4519 16.774 24.5174 16.8021C24.5829 16.8302 24.6532 16.8446 24.7241 16.8446C24.7951 16.8447 24.8653 16.8303 24.9309 16.8022C24.9964 16.7741 25.056 16.7329 25.1061 16.681C26.2389 15.5102 26.348 13.6856 25.4496 12.378L26.2524 11.5489L27.0244 12.3467C27.1237 12.4492 27.2416 12.5304 27.3712 12.5858C27.5009 12.6412 27.6399 12.6696 27.7802 12.6694C28.0541 12.6694 28.328 12.5617 28.536 12.3467L29.3085 11.5483L30.0724 12.3384L29.3085 13.1278C29.2583 13.1796 29.2185 13.2412 29.1913 13.3089C29.1641 13.3766 29.1501 13.4492 29.1501 13.5226C29.1501 13.5959 29.1641 13.6685 29.1913 13.7362C29.2185 13.804 29.2583 13.8655 29.3085 13.9173L31.6001 16.2863C31.6503 16.3382 31.7098 16.3793 31.7754 16.4074C31.8409 16.4354 31.9111 16.4499 31.9821 16.4499C32.053 16.4499 32.1233 16.4355 32.1888 16.4075C32.2544 16.3794 32.3139 16.3382 32.364 16.2863L34.6562 13.9173C34.7064 13.8655 34.7463 13.804 34.7735 13.7363C34.8007 13.6685 34.8147 13.5959 34.8147 13.5226C34.8147 13.4493 34.8007 13.3767 34.7735 13.3089C34.7463 13.2412 34.7065 13.1797 34.6563 13.1279Z"/>
</mask>
<path d="M34.6563 13.1279L32.3641 10.7589C32.1534 10.5411 31.8114 10.5411 31.6002 10.7589L30.8363 11.5489L30.0725 10.7595L30.8444 9.96104C31.2609 9.52999 31.2609 8.82931 30.8444 8.39885L30.0725 7.60101L31.4149 6.21292C31.6262 5.99517 31.6262 5.64172 31.4149 5.42345C31.3135 5.31889 31.1762 5.26016 31.033 5.26016C30.8897 5.26016 30.7524 5.31889 30.651 5.42345L29.3086 6.81147L28.536 6.01304C28.1195 5.58258 27.4415 5.58258 27.0245 6.01304L26.2525 6.81088L25.4886 6.02141L26.2525 5.23194C26.4632 5.01367 26.4632 4.66022 26.2525 4.44247L23.9603 2.07347C23.7496 1.85572 23.4076 1.85572 23.1964 2.07347L20.9042 4.44247C20.6935 4.66022 20.6935 5.01367 20.9042 5.23194L23.1964 7.60094C23.2465 7.65285 23.306 7.69403 23.3716 7.7221C23.4371 7.75017 23.5074 7.76458 23.5783 7.76451C23.6493 7.76459 23.7195 7.75017 23.7851 7.7221C23.8506 7.69403 23.9102 7.65286 23.9603 7.60094L24.7241 6.81088L25.4886 7.60094L24.7166 8.39879C24.2995 8.82925 24.2995 9.52999 24.7166 9.96157L25.4886 10.7594L24.6858 11.5885C23.4211 10.66 21.6551 10.7722 20.5223 11.9436C20.4211 12.0484 20.3643 12.1903 20.3643 12.3384C20.3643 12.4864 20.4211 12.6283 20.5223 12.7331L22.0506 14.312L20.9269 15.4733C20.7157 15.6917 20.7157 16.0451 20.9269 16.2628C20.9769 16.3148 21.0365 16.3561 21.102 16.3842C21.1676 16.4122 21.2379 16.4266 21.3089 16.4264C21.3798 16.4266 21.4501 16.4122 21.5157 16.3841C21.5812 16.3561 21.6408 16.3148 21.6908 16.2628L22.8144 15.1015L24.3422 16.681C24.3923 16.7329 24.4519 16.774 24.5174 16.8021C24.5829 16.8302 24.6532 16.8446 24.7241 16.8446C24.7951 16.8447 24.8653 16.8303 24.9309 16.8022C24.9964 16.7741 25.056 16.7329 25.1061 16.681C26.2389 15.5102 26.348 13.6856 25.4496 12.378L26.2524 11.5489L27.0244 12.3467C27.1237 12.4492 27.2416 12.5304 27.3712 12.5858C27.5009 12.6412 27.6399 12.6696 27.7802 12.6694C28.0541 12.6694 28.328 12.5617 28.536 12.3467L29.3085 11.5483L30.0724 12.3384L29.3085 13.1278C29.2583 13.1796 29.2185 13.2412 29.1913 13.3089C29.1641 13.3766 29.1501 13.4492 29.1501 13.5226C29.1501 13.5959 29.1641 13.6685 29.1913 13.7362C29.2185 13.804 29.2583 13.8655 29.3085 13.9173L31.6001 16.2863C31.6503 16.3382 31.7098 16.3793 31.7754 16.4074C31.8409 16.4354 31.9111 16.4499 31.9821 16.4499C32.053 16.4499 32.1233 16.4355 32.1888 16.4075C32.2544 16.3794 32.3139 16.3382 32.364 16.2863L34.6562 13.9173C34.7064 13.8655 34.7463 13.804 34.7735 13.7363C34.8007 13.6685 34.8147 13.5959 34.8147 13.5226C34.8147 13.4493 34.8007 13.3767 34.7735 13.3089C34.7463 13.2412 34.7065 13.1797 34.6563 13.1279Z" fill="#EE7828"/>
<path d="M34.6563 13.1279L33.7835 13.9723L33.7844 13.9732L34.6563 13.1279ZM32.3641 10.7589L31.4914 11.6033V11.6033L32.3641 10.7589ZM31.6002 10.7589L30.7285 9.91341L30.7272 9.91479L31.6002 10.7589ZM30.8363 11.5489L29.9636 12.3934L30.8367 13.2957L31.7094 12.3931L30.8363 11.5489ZM30.0725 10.7595L29.1994 9.91537L28.383 10.7598L29.1997 11.6039L30.0725 10.7595ZM30.8444 9.96104L31.7175 10.8051L31.7177 10.8049L30.8444 9.96104ZM30.8444 8.39885L29.9717 9.24328V9.24328L30.8444 8.39885ZM30.0725 7.60101L29.1995 6.75678L28.3829 7.60121L29.1997 8.44543L30.0725 7.60101ZM31.4149 6.21292L30.5433 5.36732L30.542 5.3687L31.4149 6.21292ZM31.4149 5.42345L32.2875 4.57889L32.2868 4.5782L31.4149 5.42345ZM31.033 5.26016V4.04579V5.26016ZM30.651 5.42345L29.7791 4.5782L29.7781 4.57921L30.651 5.42345ZM29.3086 6.81147L28.4359 7.6559L29.3088 8.55805L30.1815 7.65571L29.3086 6.81147ZM28.536 6.01304L27.6633 6.85746L27.6633 6.85746L28.536 6.01304ZM27.0245 6.01304L26.1523 5.16808L26.1518 5.16861L27.0245 6.01304ZM26.2525 6.81088L25.3798 7.65531L26.2525 8.55727L27.1252 7.65531L26.2525 6.81088ZM25.4886 6.02141L24.6159 5.17698L23.7989 6.02141L24.6159 6.86584L25.4886 6.02141ZM26.2525 5.23194L27.1252 6.07637L27.1262 6.07532L26.2525 5.23194ZM26.2525 4.44247L27.1252 3.59804L27.1252 3.59803L26.2525 4.44247ZM23.9603 2.07347L23.0875 2.9179L23.0875 2.91791L23.9603 2.07347ZM23.1964 2.07347L22.3247 1.22799L22.3237 1.22904L23.1964 2.07347ZM20.9042 4.44247L21.7769 5.2869L21.7769 5.2869L20.9042 4.44247ZM20.9042 5.23194L20.0305 6.07532L20.0315 6.07637L20.9042 5.23194ZM23.1964 7.60094L24.0702 6.7576L24.0691 6.75651L23.1964 7.60094ZM23.5783 7.76451L23.5796 6.55014L23.5771 6.55014L23.5783 7.76451ZM23.9603 7.60094L23.0872 6.75684L23.0864 6.75764L23.9603 7.60094ZM24.7241 6.81088L25.5969 5.96645L24.7238 5.06415L23.8511 5.96678L24.7241 6.81088ZM25.4886 7.60094L26.3613 8.44537L27.1783 7.60094L26.3613 6.75651L25.4886 7.60094ZM24.7166 8.39879L25.5887 9.24381L25.5893 9.24321L24.7166 8.39879ZM24.7166 9.96157L23.8434 10.8055L23.8439 10.806L24.7166 9.96157ZM25.4886 10.7594L26.361 11.6041L27.1786 10.7597L26.3613 9.91498L25.4886 10.7594ZM24.6858 11.5885L23.9671 12.5674L24.8212 13.1945L25.5582 12.4333L24.6858 11.5885ZM20.5223 11.9436L19.6493 11.0994L19.6487 11.1L20.5223 11.9436ZM20.3643 12.3384H21.5786H20.3643ZM20.5223 12.7331L19.6487 13.5767L19.6497 13.5777L20.5223 12.7331ZM22.0506 14.312L22.9233 15.1565L23.7405 14.3119L22.9231 13.4674L22.0506 14.312ZM20.9269 15.4733L21.7996 16.3178L21.7996 16.3178L20.9269 15.4733ZM20.9269 16.2628L21.8022 15.421L21.7985 15.4172L20.9269 16.2628ZM21.3089 16.4264L21.3122 15.212L21.3054 15.212L21.3089 16.4264ZM21.6908 16.2628L20.8181 15.4184L20.8156 15.421L21.6908 16.2628ZM22.8144 15.1015L23.6873 14.2572L22.8146 13.3549L21.9417 14.2571L22.8144 15.1015ZM24.3422 16.681L25.2153 15.837L25.2151 15.8368L24.3422 16.681ZM24.7241 16.8446L24.7254 15.6302H24.7239L24.7241 16.8446ZM25.1061 16.681L24.2333 15.8366L24.2323 15.8377L25.1061 16.681ZM25.4496 12.378L24.5772 11.5333L23.8862 12.2469L24.4487 13.0657L25.4496 12.378ZM26.2524 11.5489L27.1252 10.7045L26.2528 9.80281L25.38 10.7041L26.2524 11.5489ZM27.0244 12.3467L26.1517 13.1912L26.1522 13.1917L27.0244 12.3467ZM27.7802 12.6694V11.4551L27.7787 11.4551L27.7802 12.6694ZM28.536 12.3467L27.6632 11.5023L27.6632 11.5023L28.536 12.3467ZM29.3085 11.5483L30.1816 10.7042L29.3088 9.80156L28.4358 10.7039L29.3085 11.5483ZM30.0724 12.3384L30.9451 13.1828L31.7619 12.3387L30.9454 11.4943L30.0724 12.3384ZM29.3085 13.1278L30.1805 13.973L30.1812 13.9722L29.3085 13.1278ZM29.1501 13.5226H27.9358H29.1501ZM29.3085 13.9173L30.1813 13.073L30.1805 13.0722L29.3085 13.9173ZM31.6001 16.2863L32.4733 15.4423L32.473 15.442L31.6001 16.2863ZM31.9821 16.4499L31.9833 15.2355L31.9819 15.2355L31.9821 16.4499ZM32.364 16.2863L31.4913 15.4419L31.4902 15.443L32.364 16.2863ZM34.6562 13.9173L33.7845 13.0718L33.7835 13.0729L34.6562 13.9173ZM35.529 12.2835L33.2368 9.91446L31.4914 11.6033L33.7835 13.9723L35.529 12.2835ZM33.2368 9.91446C32.5483 9.20286 31.4162 9.20439 30.7285 9.91341L32.4719 11.6044C32.2066 11.8779 31.7585 11.8794 31.4914 11.6033L33.2368 9.91446ZM30.7272 9.91479L29.9633 10.7048L31.7094 12.3931L32.4732 11.603L30.7272 9.91479ZM31.709 10.7045L30.9452 9.91505L29.1997 11.6039L29.9636 12.3934L31.709 10.7045ZM30.9455 11.6036L31.7175 10.8051L29.9714 9.11694L29.1994 9.91537L30.9455 11.6036ZM31.7177 10.8049C32.5887 9.9035 32.5895 8.456 31.7172 7.55442L29.9717 9.24328C29.9474 9.21812 29.9424 9.19211 29.9424 9.17973C29.9424 9.16735 29.9473 9.14184 29.9711 9.11721L31.7177 10.8049ZM31.7172 7.55443L30.9452 6.75658L29.1997 8.44543L29.9717 9.24328L31.7172 7.55443ZM30.9454 8.44523L32.2878 7.05714L30.542 5.3687L29.1995 6.75678L30.9454 8.44523ZM32.2865 7.05853C32.9553 6.36912 32.9539 5.26743 32.2875 4.57889L30.5423 6.26801C30.2984 6.01602 30.297 5.62123 30.5433 5.36732L32.2865 7.05853ZM32.2868 4.5782C31.9611 4.24218 31.511 4.04579 31.033 4.04579V6.47454C30.8414 6.47454 30.666 6.3956 30.543 6.2687L32.2868 4.5782ZM31.033 4.04579C30.5549 4.04579 30.1048 4.24218 29.7791 4.5782L31.523 6.2687C31.3999 6.3956 31.2246 6.47454 31.033 6.47454V4.04579ZM29.7781 4.57921L28.4357 5.96723L30.1815 7.65571L31.5239 6.26769L29.7781 4.57921ZM30.1813 5.96704L29.4088 5.16861L27.6633 6.85746L28.4359 7.6559L30.1813 5.96704ZM29.4088 5.16861C28.5147 4.24459 27.0462 4.24536 26.1523 5.16808L27.8967 6.85799C27.8708 6.88476 27.8272 6.90456 27.7804 6.90456C27.7336 6.90456 27.6897 6.88472 27.6633 6.85746L29.4088 5.16861ZM26.1518 5.16861L25.3798 5.96645L27.1252 7.65531L27.8972 6.85746L26.1518 5.16861ZM27.1252 5.96645L26.3614 5.17698L24.6159 6.86584L25.3798 7.65531L27.1252 5.96645ZM26.3614 6.86584L27.1252 6.07637L25.3798 4.38751L24.6159 5.17698L26.3614 6.86584ZM27.1262 6.07532C27.7906 5.38708 27.792 4.28715 27.1252 3.59804L25.3798 5.2869C25.1344 5.03328 25.1358 4.64025 25.3788 4.38856L27.1262 6.07532ZM27.1252 3.59803L24.833 1.22903L23.0875 2.91791L25.3798 5.28691L27.1252 3.59803ZM24.833 1.22904C24.1444 0.517439 23.0124 0.51897 22.3247 1.22799L24.0681 2.91894C23.8028 3.19247 23.3547 3.194 23.0875 2.9179L24.833 1.22904ZM22.3237 1.22904L20.0315 3.59804L21.7769 5.2869L24.0691 2.9179L22.3237 1.22904ZM20.0315 3.59804C19.3647 4.28715 19.3661 5.38708 20.0305 6.07532L21.7779 4.38856C22.0209 4.64025 22.0223 5.03328 21.7769 5.2869L20.0315 3.59804ZM20.0315 6.07637L22.3237 8.44537L24.0691 6.75651L21.7769 4.38751L20.0315 6.07637ZM22.3226 8.44428C22.4837 8.61122 22.6774 8.74585 22.8935 8.8384L23.8496 6.60579C23.9347 6.64221 24.0092 6.69449 24.0702 6.7576L22.3226 8.44428ZM22.8935 8.8384C23.1097 8.931 23.343 8.97912 23.5795 8.97889L23.5771 6.55014C23.6718 6.55005 23.7645 6.56933 23.8496 6.60579L22.8935 8.8384ZM23.5771 8.97889C23.8136 8.97913 24.0469 8.93102 24.2632 8.83841L23.307 6.6058C23.3921 6.56933 23.4849 6.55004 23.5796 6.55014L23.5771 8.97889ZM24.2632 8.83841C24.4793 8.74584 24.6729 8.61119 24.8341 8.44424L23.0864 6.75764C23.1474 6.69452 23.2219 6.64222 23.307 6.6058L24.2632 8.83841ZM24.8333 8.44504L25.5972 7.65498L23.8511 5.96678L23.0872 6.75684L24.8333 8.44504ZM23.8514 7.65531L24.6158 8.44537L26.3613 6.75651L25.5969 5.96645L23.8514 7.65531ZM24.6158 6.75651L23.8439 7.55436L25.5893 9.24321L26.3613 8.44537L24.6158 6.75651ZM23.8444 7.55376C22.9705 8.45578 22.972 9.90384 23.8434 10.8055L25.5898 9.11767C25.6131 9.14177 25.6182 9.16704 25.6182 9.17976C25.6182 9.1925 25.6131 9.2187 25.5887 9.24381L23.8444 7.55376ZM23.8439 10.806L24.6158 11.6038L26.3613 9.91498L25.5893 9.11714L23.8439 10.806ZM24.6161 9.91467L23.8133 10.7438L25.5582 12.4333L26.361 11.6041L24.6161 9.91467ZM25.4044 10.6096C23.6602 9.32908 21.213 9.48256 19.6493 11.0994L21.3952 12.7878C22.0972 12.0619 23.1819 11.991 23.9671 12.5674L25.4044 10.6096ZM19.6487 11.1C19.325 11.4353 19.1499 11.8813 19.1499 12.3384H21.5786C21.5786 12.4994 21.5172 12.6615 21.3958 12.7872L19.6487 11.1ZM19.1499 12.3384C19.1499 12.7954 19.325 13.2414 19.6487 13.5767L21.3958 11.8895C21.5172 12.0152 21.5786 12.1773 21.5786 12.3384H19.1499ZM19.6497 13.5777L21.178 15.1566L22.9231 13.4674L21.3948 11.8885L19.6497 13.5777ZM21.1778 13.4676L20.0542 14.6289L21.7996 16.3178L22.9233 15.1565L21.1778 13.4676ZM20.0542 14.6289C19.388 15.3174 19.3864 16.4189 20.0553 17.1084L21.7985 15.4172C22.0449 15.6712 22.0433 16.0659 21.7996 16.3178L20.0542 14.6289ZM20.0516 17.1046C20.2129 17.2723 20.4071 17.4076 20.6239 17.5005L21.5801 15.2678C21.6658 15.3046 21.7409 15.3573 21.8022 15.421L20.0516 17.1046ZM20.6239 17.5005C20.8409 17.5934 21.075 17.6414 21.3123 17.6407L21.3054 15.212C21.4008 15.2117 21.4943 15.2311 21.5801 15.2678L20.6239 17.5005ZM21.3055 17.6407C21.5428 17.6414 21.7769 17.5933 21.9938 17.5004L21.0376 15.2678C21.1234 15.2311 21.2168 15.2117 21.3122 15.212L21.3055 17.6407ZM21.9938 17.5004C22.2106 17.4076 22.4047 17.2724 22.566 17.1046L20.8156 15.421C20.8768 15.3573 20.9519 15.3045 21.0376 15.2678L21.9938 17.5004ZM22.5635 17.1072L23.6872 15.9459L21.9417 14.2571L20.8181 15.4184L22.5635 17.1072ZM21.9416 15.9458L23.4693 17.5253L25.2151 15.8368L23.6873 14.2572L21.9416 15.9458ZM23.4691 17.5251C23.6301 17.6916 23.8235 17.826 24.0393 17.9184L24.9955 15.6858C25.0802 15.7221 25.1546 15.7742 25.2153 15.837L23.4691 17.5251ZM24.0393 17.9184C24.2552 18.0109 24.4881 18.059 24.7243 18.059L24.7239 15.6302C24.8183 15.6302 24.9107 15.6495 24.9955 15.6858L24.0393 17.9184ZM24.7229 18.059C24.9594 18.0592 25.1927 18.0111 25.409 17.9185L24.4528 15.6859C24.5379 15.6494 24.6307 15.6301 24.7254 15.6302L24.7229 18.059ZM25.409 17.9185C25.6251 17.8259 25.8187 17.6913 25.9799 17.5243L24.2323 15.8377C24.2932 15.7746 24.3678 15.7223 24.4528 15.6859L25.409 17.9185ZM25.9788 17.5255C27.5274 15.9249 27.6645 13.4572 26.4505 11.6903L24.4487 13.0657C25.0316 13.914 24.9504 15.0955 24.2333 15.8366L25.9788 17.5255ZM26.3221 13.2227L27.1249 12.3936L25.38 10.7041L24.5772 11.5333L26.3221 13.2227ZM25.3797 12.3933L26.1517 13.1912L27.8971 11.5023L27.1252 10.7045L25.3797 12.3933ZM26.1522 13.1917C26.3625 13.4088 26.6143 13.5831 26.8944 13.7026L27.8481 11.469C27.8688 11.4778 27.8849 11.4896 27.8966 11.5017L26.1522 13.1917ZM26.8944 13.7026C27.1745 13.8223 27.4761 13.8842 27.7817 13.8838L27.7787 11.4551C27.8036 11.455 27.8273 11.4601 27.8481 11.469L26.8944 13.7026ZM27.7802 13.8838C28.3743 13.8838 28.9659 13.6488 29.4087 13.1912L27.6632 11.5023C27.6901 11.4745 27.7339 11.4551 27.7802 11.4551V13.8838ZM29.4087 13.1912L30.1812 12.3927L28.4358 10.7039L27.6632 11.5023L29.4087 13.1912ZM28.4355 12.3924L29.1993 13.1825L30.9454 11.4943L30.1816 10.7042L28.4355 12.3924ZM29.1997 11.4939L28.4358 12.2834L30.1812 13.9722L30.9451 13.1828L29.1997 11.4939ZM28.4365 12.2827C28.2753 12.449 28.1494 12.6444 28.0643 12.8567L30.3183 13.7611C30.2875 13.8379 30.2413 13.9103 30.1805 13.973L28.4365 12.2827ZM28.0643 12.8567C27.9791 13.0689 27.9358 13.295 27.9358 13.5226H30.3645C30.3645 13.6034 30.3491 13.6844 30.3183 13.7611L28.0643 12.8567ZM27.9358 13.5226C27.9358 13.7501 27.9791 13.9762 28.0643 14.1884L30.3183 13.284C30.3491 13.3607 30.3645 13.4417 30.3645 13.5226H27.9358ZM28.0643 14.1884C28.1494 14.4007 28.2753 14.5961 28.4365 14.7624L30.1805 13.0722C30.2413 13.1349 30.2875 13.2072 30.3183 13.284L28.0643 14.1884ZM28.4357 14.7616L30.7273 17.1306L32.473 15.442L30.1813 13.073L28.4357 14.7616ZM30.727 17.1303C30.888 17.2969 31.0815 17.4313 31.2973 17.5237L32.2534 15.2911C32.3382 15.3274 32.4125 15.3794 32.4733 15.4423L30.727 17.1303ZM31.2973 17.5237C31.5132 17.6161 31.7461 17.6643 31.9823 17.6642L31.9819 15.2355C32.0762 15.2355 32.1686 15.2547 32.2534 15.2911L31.2973 17.5237ZM31.9808 17.6642C32.2174 17.6645 32.4507 17.6164 32.6669 17.5238L31.7107 15.2912C31.7959 15.2547 31.8886 15.2354 31.9833 15.2355L31.9808 17.6642ZM32.6669 17.5238C32.8831 17.4312 33.0767 17.2965 33.2378 17.1296L31.4902 15.443C31.5511 15.3799 31.6257 15.3276 31.7107 15.2912L32.6669 17.5238ZM33.2367 17.1307L35.5289 14.7617L33.7835 13.0729L31.4913 15.4419L33.2367 17.1307ZM35.5279 14.7627C35.6892 14.5964 35.8152 14.401 35.9004 14.1887L33.6465 13.2838C33.6774 13.207 33.7236 13.1346 33.7845 13.0718L35.5279 14.7627ZM35.9004 14.1887C35.9856 13.9765 36.029 13.7503 36.029 13.5227L33.6003 13.5225C33.6003 13.4416 33.6157 13.3606 33.6465 13.2838L35.9004 14.1887ZM36.029 13.5227C36.0291 13.2951 35.9857 13.0689 35.9005 12.8567L33.6465 13.7612C33.6157 13.6844 33.6003 13.6034 33.6003 13.5225L36.029 13.5227ZM35.9005 12.8567C35.8153 12.6444 35.6894 12.4489 35.5281 12.2826L33.7844 13.9732C33.7235 13.9104 33.6773 13.8381 33.6465 13.7612L35.9005 12.8567Z" fill="white" mask="url(#path-6-outside-1_2040_217)"/>
</svg>
