<svg width="116" height="110" viewBox="0 0 116 110" fill="none" xmlns="http://www.w3.org/2000/svg">
<g id="Group 2443">
<g id="Group 2442">
<path id="Vector" d="M33.1661 33.1258C34.5397 32.4603 35.8708 31.5058 37.2777 30.4944C40.1032 28.4694 43.3006 26.1743 47.3626 26.1743C47.3814 26.1743 47.4028 26.1885 47.4264 26.1743C48.1702 26.1743 50.51 25.1701 51.9075 24.5709C55.273 23.1215 57.4993 22.167 59.2284 23.3086C61.4974 24.8032 62.556 27.5174 62.1344 30.7572C61.6867 34.2127 59.4296 38.4831 56.1304 39.5914C54.3352 40.2001 52.5114 39.7407 51.1306 38.3407C50.6782 37.8883 50.3679 37.751 50.2874 37.7368C50.3135 37.8339 50.1594 38.452 50.2541 38.6841C51.7085 40.2212 52.2933 42.7033 51.7179 45.0789C51.185 47.2768 49.7237 48.9962 47.8075 49.6807C45.818 50.3937 43.2814 49.2355 40.3422 47.8971C39.892 47.6912 39.4404 47.4883 38.9875 47.2884C39.4493 49.8061 38.6536 52.0537 37.7962 53.7518C38.0732 53.6902 38.3766 53.6191 38.708 53.5411C44.2715 52.2078 45.5007 55.6111 46.0928 57.2478C46.377 58.0294 46.5688 58.522 46.9287 58.7968C48.7808 60.2179 48.7808 60.2179 52.5752 58.4582L52.978 58.2733C54.8562 57.4182 56.9997 56.6747 58.7782 57.6172C60.4621 58.5126 60.7583 60.2581 60.9714 61.5346C61.0947 62.2712 61.2129 62.9676 61.5163 63.4269C63.3376 66.1838 67.0465 69.026 70.1065 69.026H70.1348C71.608 69.0165 72.7946 68.3201 73.756 66.8944C73.8459 66.5557 73.9572 65.7292 74.0402 65.1133C74.4571 62.0106 74.9758 58.1476 78.012 57.1648C80.3897 56.3974 82.6279 58.1168 83.8858 59.3153H89.7477C87.3721 36.7204 68.2139 19.0518 45.0009 19.0518C41.5051 19.0518 38.1159 19.4923 34.8475 20.2503L33.0332 24.6106C32.5619 26.7871 31.5577 28.4783 30.5652 30.0248C29.9304 31.0123 30.2762 32.007 30.8091 32.6088C31.0512 32.8819 31.9324 33.7276 33.1661 33.1258Z" fill="#7D8EA0"/>
<path id="Vector_2" d="M81.8764 64.0531L81.1778 63.3142C80.3843 62.4805 79.8419 62.0755 79.5222 61.8812C79.1289 62.7908 78.8591 64.8063 78.7334 65.7442C78.5108 67.3973 78.364 68.4891 77.8239 69.3276C75.4744 72.9702 72.36 73.7518 70.1596 73.7637H70.1027C64.9964 73.7637 60.0252 69.7659 57.5594 66.0378C56.7068 64.74 56.47 63.3403 56.2993 62.3195C56.2852 62.239 56.2685 62.1513 56.2544 62.0614C55.9513 62.156 55.5272 62.3148 54.9518 62.5776L54.5635 62.7575C49.3861 65.1519 48.01 65.6021 44.0383 62.5537C42.5651 61.4194 42.0299 59.9414 41.6391 58.8615C41.5253 58.5512 41.3597 58.0893 41.2509 57.9331C41.2225 57.9614 40.8079 57.9095 39.8084 58.1487C35.9125 59.0796 33.4492 59.5176 32.1372 57.7319C30.9388 56.1024 31.9524 54.3971 32.7695 53.0257C33.956 51.0337 34.875 49.2338 34.0912 47.3604C33.7667 46.5907 32.7673 44.2293 34.4203 42.6212C36.2511 40.8355 38.9228 42.0481 42.3047 43.5876C43.5362 44.1489 45.559 45.0678 46.35 45.158C46.6958 44.9637 46.9753 44.5305 47.1127 43.9621C47.307 43.1591 47.1482 42.2804 46.7266 41.828C44.7347 39.6989 45.3339 36.0869 47.2004 34.2844C48.7422 32.7923 51.5774 32.089 54.4928 35.0044C55.1228 35.0305 56.6693 33.4413 57.2805 30.9711C57.4226 30.3932 57.7706 28.6263 57.0198 27.6388C56.2122 27.8755 54.7842 28.4889 53.775 28.9225C51.3806 29.9502 49.0525 30.8434 47.3922 30.9119H47.3614C44.8201 30.9119 42.499 32.5795 40.0382 34.3438C38.5273 35.4285 36.9663 36.549 35.228 37.3897C32.4617 38.7302 29.3329 38.0861 27.2629 35.7555C25.181 33.406 24.904 30.076 26.576 27.4706C27.3906 26.1989 28.1438 24.9363 28.4328 23.4586L28.5702 23.0015L28.9634 22.0589C12.0551 28.5386 0 44.8949 0 64.0531C0 71.246 1.73829 78.0269 4.75332 84.0639L7.88908 81.2406L12.5358 76.5892C12.7152 76.4089 12.9222 76.2586 13.1492 76.144L17.8861 73.7756C18.041 73.699 18.2038 73.6394 18.3716 73.598L27.8452 71.2297C28.1549 71.1509 28.4774 71.1362 28.7929 71.1863C29.1085 71.2364 29.4106 71.3503 29.6806 71.5211L33.2521 73.7687L38.3657 75.8956H44.9997C45.2531 75.8956 45.5065 75.9358 45.7483 76.0163L52.8535 78.3846C53.3253 78.5419 53.7356 78.8436 54.0263 79.247C54.3171 79.6503 54.4736 80.135 54.4736 80.6322V85.3692H63.9472C64.3226 85.369 64.6927 85.4583 65.0268 85.6296C65.3608 85.801 65.6492 86.0494 65.8681 86.3545C66.0876 86.6585 66.2316 87.0104 66.288 87.3811C66.3444 87.7517 66.3117 88.1305 66.1926 88.4861L63.8243 95.5913C63.7085 95.9401 63.513 96.2572 63.2533 96.5172L59.2105 100.56V106.718C77.0731 100.75 90 83.8982 90 64.0533H81.8764V64.0531Z" fill="#7D8EA0"/>
<path id="Vector_3" d="M52.1031 90.1055H60.6603L59.5068 93.5632L55.1653 97.9046C54.7216 98.349 54.4721 98.9511 54.4715 99.5791V108.03C51.414 108.688 48.2496 109.053 44.9979 109.053C29.1081 109.053 15.1488 100.751 7.13867 88.2817L11.1459 84.6746L15.6103 80.2102L19.7716 78.1283L28.0138 76.0703L30.8986 77.8844C31.0114 77.954 31.1294 78.0149 31.2514 78.0667L36.9831 80.4495C37.2711 80.57 37.5803 80.632 37.8926 80.6319H44.6143L49.7348 82.3396V87.7371C49.735 88.3652 49.9846 88.9674 50.4287 89.4115C50.8728 89.8556 51.4751 90.1052 52.1031 90.1055Z" fill="#7D8EA0"/>
</g>
<g id="Group">
<path id="Vector_4" d="M44.4402 8.57794H46.3838L49.3419 11.5361V13.4796C49.3419 14.156 49.8909 14.705 50.5673 14.705C51.2436 14.705 51.7926 14.156 51.7926 13.4796V11.5361L54.7508 8.57794H56.6943C57.3707 8.57794 57.9197 8.02894 57.9197 7.35256C57.9197 6.67618 57.3707 6.12718 56.6943 6.12718H54.751L51.7928 3.16892V1.22538C51.7928 0.549001 51.2438 0 50.5674 0C49.891 0 49.342 0.549001 49.342 1.22538V3.16892L46.3838 6.12704H44.4402C43.7638 6.12704 43.2148 6.67604 43.2148 7.35256C43.2148 8.02908 43.7638 8.57794 44.4402 8.57794ZM50.5674 5.40901L52.5109 7.35256L50.5674 9.29596L48.6239 7.35256L50.5674 5.40901Z" fill="#7D8EA0"/>
<path id="Vector_5" d="M99.2254 66.1097H101.169L104.127 69.0678V71.0113C104.127 71.6877 104.676 72.2367 105.352 72.2367C106.029 72.2367 106.578 71.6877 106.578 71.0113V69.0678L109.536 66.1097H111.479C112.156 66.1097 112.705 65.5607 112.705 64.8843C112.705 64.2079 112.156 63.6589 111.479 63.6589H109.536L106.578 60.7007V58.7571C106.578 58.0807 106.029 57.5317 105.353 57.5317C104.676 57.5317 104.127 58.0807 104.127 58.7571V60.7007L101.169 63.6588H99.2254C98.549 63.6588 98 64.2078 98 64.8843C98 65.5608 98.549 66.1097 99.2254 66.1097ZM105.353 62.9408L107.296 64.8843L105.353 66.8277L103.409 64.8843L105.353 62.9408Z" fill="#7D8EA0"/>
<path id="Vector_6" d="M101.501 31.3725C102.849 30.7854 104.478 31.0417 105.581 32.1454L112.961 39.5253C113.304 39.8677 113.576 40.2743 113.762 40.7218C113.948 41.1694 114.043 41.6492 114.043 42.1338C114.043 42.6184 113.948 43.0982 113.762 43.5458C113.576 43.9933 113.304 44.3999 112.961 44.7421L105.583 52.1201C105.241 52.4634 104.834 52.7358 104.386 52.9214L104.386 52.9214C103.938 53.1068 103.459 53.2021 102.975 53.2019C102.974 53.2019 102.973 53.2019 102.972 53.2019L102.974 51.2544C102.746 51.2544 102.52 51.2095 102.309 51.122C102.097 51.0345 101.906 50.9064 101.744 50.7447L101.501 31.3725ZM101.501 31.3725C102.741 29.3023 102.471 26.5749 100.688 24.792L99.5787 23.6829L102.523 20.7371C103.967 19.2968 103.965 16.9608 102.525 15.5211L102.524 15.52C101.832 14.8297 100.895 14.4421 99.9179 14.4421C98.9408 14.4421 98.0037 14.8297 97.3121 15.52L97.3106 15.5216L94.3647 18.4687L93.2543 17.3583C91.4715 15.5755 88.744 15.3055 86.6738 16.5455C87.261 15.1969 87.0047 13.5684 85.901 12.4647L85.9009 12.4647L78.5194 5.08341C78.5194 5.0834 78.5194 5.08339 78.5194 5.08339C77.0795 3.64348 74.7464 3.64586 73.3071 5.08175L73.3054 5.08341L65.9241 12.4647C64.4842 13.9046 64.4865 16.2377 65.9224 17.6771L65.9241 17.6788L73.3037 25.0584C73.3038 25.0584 73.3038 25.0585 73.3039 25.0586C73.6463 25.4018 74.0532 25.674 74.5011 25.8596C74.9485 26.045 75.428 26.1403 75.9123 26.1401M101.501 31.3725L68.5991 53.1287C68.6009 53.1287 68.6028 53.1287 68.6046 53.1287M89.4433 41.4228C90.4013 41.4228 91.3641 41.1681 92.2155 40.658C92.2063 40.6792 92.1972 40.7004 92.1884 40.7218C92.0028 41.1693 91.9072 41.649 91.9072 42.1335C91.9072 42.618 92.0028 43.0977 92.1884 43.5453C92.3739 43.9927 92.6459 44.3992 92.9887 44.7415C92.9887 44.7415 92.9888 44.7416 92.9888 44.7417L100.367 52.1212L89.4433 39.4753M89.4433 41.4228V39.4753M89.4433 41.4228C89.4441 41.4228 89.4449 41.4228 89.4457 41.4228L89.4433 39.4753M89.4433 41.4228C88.7363 41.4234 88.0362 41.2847 87.3827 41.0148C86.7286 40.7445 86.1341 40.348 85.6334 39.8478L85.6325 39.847L84.5232 38.7377M89.4433 39.4753C88.9915 39.4759 88.544 39.3873 88.1264 39.2148C87.7088 39.0423 87.3293 38.7892 87.0096 38.4699L84.5237 35.9839M84.5232 38.7377L85.9003 37.3615L84.5237 35.9839M84.5232 38.7377L84.3985 38.8622M84.5232 38.7377L84.0845 38.299C84.1944 38.4845 84.2991 38.6724 84.3985 38.8622M84.5237 35.9839L83.1466 37.361L83.3503 37.5648L81.9384 38.5673M84.5237 35.9839L81.9384 38.5673M75.9123 26.1401C75.9117 26.1401 75.9111 26.1401 75.9105 26.1401L75.9124 24.1926L75.9143 26.1401C75.9136 26.1401 75.9129 26.1401 75.9123 26.1401ZM75.9123 26.1401C76.3966 26.1404 76.8763 26.0451 77.3238 25.8596C77.3449 25.8509 77.3659 25.8419 77.3869 25.8328C76.1453 27.9032 76.4182 30.6305 78.2 32.4145L78.2008 32.4153L79.3091 33.5236L79.1849 33.6478C74.5223 31.2042 68.6208 31.9081 64.6938 35.8371L64.6929 35.8381C64.0026 36.5296 63.615 37.4667 63.615 38.4438C63.615 39.4208 64.0026 40.358 64.6929 41.0495L64.6944 41.051L68.2383 44.5936L65.9973 46.8346C64.5585 48.2734 64.5548 50.6068 65.9961 52.0475C66.3382 52.3909 66.7449 52.6632 67.1927 52.8488C67.6403 53.0343 68.1201 53.1294 68.6046 53.1287M68.6046 53.1287C69.0889 53.1293 69.5685 53.0342 70.0158 52.8488L70.0159 52.8488C70.4642 52.663 70.8714 52.3902 71.2138 52.0462M68.6046 53.1287L71.2138 52.0462M71.2138 52.0462C71.2143 52.0457 71.2148 52.0451 71.2154 52.0446L73.4523 49.8076L76.9945 53.3511C76.9946 53.3513 76.9948 53.3514 76.9949 53.3515C77.3372 53.694 77.7436 53.9657 78.1909 54.1511C78.6384 54.3365 79.1181 54.4319 79.6025 54.4318M71.2138 52.0462L81.9384 38.5673M79.6025 54.4318C79.6017 54.4318 79.601 54.4318 79.6002 54.4318L79.6022 52.4843L79.6025 54.4318ZM79.6025 54.4318C80.0867 54.432 80.5662 54.3367 81.0135 54.1513C81.4608 53.966 81.8671 53.6943 82.2092 53.3518M82.2092 53.3518C86.1357 49.4252 86.8415 43.5257 84.3985 38.8622M82.2092 53.3518C82.2098 53.3512 82.2103 53.3506 82.2109 53.35L80.8323 51.9748L82.2092 53.3518ZM84.3985 38.8622L83.3151 39.9449L81.9384 38.5673M92.9877 37.3592L94.0709 38.4433M92.9877 37.3592V39.5265C92.9881 39.5261 92.9885 39.5258 92.9888 39.5254L94.0709 38.4433M92.9877 37.3592L94.3648 35.9821L95.7414 37.3597M92.9877 37.3592L95.7414 37.3597M94.0709 38.4433L94.3643 38.7368L95.741 37.3601M94.0709 38.4433L95.4475 37.0667L95.741 37.3601M95.741 37.3601L95.7414 37.3597M95.741 37.3601L96.8234 38.4425L95.7414 37.3597" fill="#EE7828" stroke="white" stroke-width="3.89502"/>
</g>
</g>
</svg>
