<svg width="19" height="18" viewBox="0 0 19 18" fill="none" xmlns="http://www.w3.org/2000/svg">
<g id="Group">
<path id="Vector" d="M8.18064 0.799251V3.96422C8.18064 4.39346 7.83207 4.74126 7.40208 4.74126C5.86795 4.74126 5.03344 6.31201 4.91778 9.41216H7.40208C7.83207 9.41216 8.18064 9.76028 8.18064 10.1894V16.872C8.18064 17.3011 7.83207 17.6489 7.40208 17.6489H0.77839C0.348237 17.6489 0 17.3008 0 16.872V10.1894C0 8.7032 0.149898 7.33941 0.445393 6.13542C0.748454 4.90089 1.21366 3.82149 1.82767 2.92709C2.45949 2.00792 3.2498 1.28663 4.17683 0.784146C5.11013 0.27862 6.19545 0.0222168 7.40236 0.0222168C7.83207 0.0222168 8.18064 0.370011 8.18064 0.799251ZM18.2214 4.74131C18.6512 4.74131 19 4.39319 19 3.96428V0.799306C19 0.370065 18.6512 0.0222711 18.2214 0.0222711C17.015 0.0222711 15.9295 0.278729 14.9965 0.784201C14.0693 1.28668 13.2786 2.00797 12.6467 2.92714C12.0329 3.82154 11.5677 4.901 11.2645 6.1358C10.9692 7.34017 10.8193 8.70396 10.8193 10.1894V16.8721C10.8193 17.3011 11.168 17.649 11.5979 17.649H18.2213C18.6511 17.649 18.9996 17.3008 18.9996 16.8721V10.1894C18.9996 9.76033 18.6512 9.41216 18.2213 9.41216H15.7725C15.8864 6.31206 16.7087 4.74131 18.2214 4.74131Z" fill="#7D8EA0"/>
</g>
</svg>
