<svg width="19" height="13" viewBox="0 0 19 13" fill="none" xmlns="http://www.w3.org/2000/svg">
<g id="Group">
<path id="Vector" d="M0 8.46484V10.9439C0 11.9717 0.81626 12.6973 1.81391 12.6973H16.9298C17.9275 12.6973 18.7437 11.9717 18.7437 10.9439V8.46484H0Z" fill="#E73B36"/>
<path id="Vector_2" d="M16.9298 0H1.81391C0.81626 0 0 0.725564 0 1.75345V4.23246H18.7437V1.75345C18.7437 0.725564 17.9275 0 16.9298 0Z" fill="#F0F7F6"/>
<path id="Vector_3" d="M0 4.23242H18.7437V8.46488H0V4.23242Z" fill="#3757A6"/>
<path id="Vector_4" d="M16.8701 12.6973C17.8678 12.6973 18.7445 11.9717 18.7445 10.9439V8.46484H11.9121L16.8701 12.6973Z" fill="#D31C1C"/>
<path id="Vector_5" d="M16.9304 0H1.81445L6.83294 4.23246H18.7443V1.75345C18.7443 0.725564 17.928 0 16.9304 0Z" fill="#DFF2EF"/>
<path id="Vector_6" d="M11.9421 8.46488H18.7443V4.23242H6.80273L11.9421 8.46488Z" fill="#20448E"/>
<path id="Vector_7" d="M16.9304 0H1.81445L15.8118 4.23246H18.7443V1.75345C18.7443 0.725564 17.928 0 16.9304 0Z" fill="#CAEAE4"/>
<path id="Vector_8" d="M18.7437 5.07891V4.23242H15.6601L18.7437 5.07891Z" fill="#103577"/>
<path id="Vector_9" d="M18.7437 10.9138C18.7437 12.0324 17.9275 12.6975 16.9298 12.6975H1.81391C0.81626 12.6975 0 11.9114 0 10.8835" fill="#C41010"/>
</g>
</svg>
