<svg width="80" height="80" viewBox="0 0 80 80" fill="none" xmlns="http://www.w3.org/2000/svg">
<g id="Group">
<path id="Vector" fill-rule="evenodd" clip-rule="evenodd" d="M0 40C0 17.908 17.908 0 40 0C62.092 0 80 17.908 80 40C80 62.092 62.092 80 40 80C17.908 80 0 62.092 0 40ZM37.172 21.172C37.9221 20.4221 38.9393 20.0009 40 20.0009C41.0607 20.0009 42.0779 20.4221 42.828 21.172L58.828 37.172C59.5566 37.9264 59.9598 38.9368 59.9507 39.9856C59.9416 41.0344 59.5209 42.0376 58.7793 42.7793C58.0376 43.5209 57.0344 43.9416 55.9856 43.9507C54.9368 43.9598 53.9264 43.5566 53.172 42.828L44 33.656V56C44 57.0609 43.5786 58.0783 42.8284 58.8284C42.0783 59.5786 41.0609 60 40 60C38.9391 60 37.9217 59.5786 37.1716 58.8284C36.4214 58.0783 36 57.0609 36 56V33.656L26.828 42.828C26.0736 43.5566 25.0632 43.9598 24.0144 43.9507C22.9656 43.9416 21.9624 43.5209 21.2207 42.7793C20.4791 42.0376 20.0584 41.0344 20.0493 39.9856C20.0402 38.9368 20.4434 37.9264 21.172 37.172L37.172 21.172Z" fill="#7D8EA0"/>
</g>
</svg>
