<svg width="48" height="50" viewBox="0 0 48 50" fill="none" xmlns="http://www.w3.org/2000/svg">
<path opacity="0.972" fill-rule="evenodd" clip-rule="evenodd" d="M10.8282 6.20092C13.3138 5.87732 15.3294 6.72368 16.8751 8.73998C17.9799 10.4883 18.2612 12.3763 17.7188 14.404C17.0794 16.3072 15.8607 17.6417 14.0626 18.4079C14.0313 26.2856 14 34.1631 13.9688 42.0408C13.544 43.3938 12.6534 43.9309 11.2969 43.6521C10.5758 43.3569 10.1227 42.8198 9.93756 42.0408C9.90635 34.1631 9.87503 26.2856 9.84381 18.4079C6.93168 16.9968 5.65043 14.6204 6.00006 11.279C6.62642 8.55958 8.2358 6.86686 10.8282 6.20092ZM11.6719 10.4001C13.3359 10.5159 14.039 11.4273 13.7813 13.1345C13.0158 14.5505 11.9688 14.8272 10.6407 13.9646C9.83444 13.0436 9.78756 12.0833 10.5001 11.0837C10.8506 10.7633 11.2412 10.5354 11.6719 10.4001Z" fill="#EE7828"/>
<path opacity="0.972" fill-rule="evenodd" clip-rule="evenodd" d="M23.2969 6.20132C24.6525 5.97057 25.5431 6.52396 25.9688 7.86148C26 15.7391 26.0313 23.6167 26.0626 31.4943C28.9747 32.9054 30.2559 35.2818 29.9063 38.6232C29.1309 41.8512 27.1465 43.544 23.9532 43.7013C20.7635 43.5452 18.7791 41.8525 18.0001 38.6232C17.6505 35.2818 18.9316 32.9054 21.8438 31.4943C21.875 23.6167 21.9063 15.7391 21.9376 7.86148C22.1409 7.0804 22.5941 6.52701 23.2969 6.20132ZM23.6719 35.4005C25.3359 35.5163 26.039 36.4277 25.7813 38.1349C25.0157 39.5509 23.9688 39.8276 22.6407 38.965C21.8344 38.044 21.7876 37.0837 22.5001 36.0841C22.8506 35.7637 23.2411 35.5358 23.6719 35.4005Z" fill="#EE7828"/>
<path opacity="0.972" fill-rule="evenodd" clip-rule="evenodd" d="M35.2967 6.20132C36.6522 5.97057 37.5428 6.52396 37.9686 7.86148C37.9998 11.5724 38.0311 15.2833 38.0623 18.9943C41.288 20.6057 42.5067 23.2424 41.7186 26.9044C41.0792 28.8076 39.8604 30.1421 38.0623 30.9083C38.0311 34.6193 37.9998 38.3302 37.9686 42.0412C37.5438 43.3942 36.6532 43.9313 35.2967 43.6525C34.5756 43.3573 34.1225 42.8202 33.9373 42.0412C33.9061 38.3302 33.8748 34.6193 33.8436 30.9083C30.6177 29.296 29.399 26.6593 30.1873 22.9982C30.8267 21.0951 32.0454 19.7605 33.8436 18.9943C33.8748 15.2833 33.9061 11.5724 33.9373 7.86148C34.1407 7.0804 34.5938 6.52701 35.2967 6.20132ZM35.6717 22.9005C37.3357 23.0163 38.0388 23.9277 37.7811 25.6349C37.0155 27.0509 35.9686 27.3276 34.6404 26.465C33.8342 25.544 33.7873 24.5837 34.4998 23.5841C34.8503 23.2637 35.2409 23.0358 35.6717 22.9005Z" fill="#EE7828"/>
</svg>
