<svg width="25" height="21" viewBox="0 0 25 21" fill="none" xmlns="http://www.w3.org/2000/svg">
<g id="Group">
<path id="Vector" d="M0.14707 10.1305L10.1656 0.145041C10.3088 0.00290704 10.522 -0.0381516 10.7112 0.0369273C10.8025 0.0749313 10.8806 0.139141 10.9354 0.221452C10.9903 0.303763 11.0196 0.400486 11.0195 0.499414V6.00519H23.5327C23.809 6.00523 24.0332 6.22944 24.0332 6.50573V14.5142C24.0332 14.7905 23.809 15.0147 23.5327 15.0147H11.0195V20.4995C11.0195 20.7017 10.8973 20.8839 10.7102 20.9619C10.6481 20.988 10.583 21 10.5189 21C10.3888 21 10.2607 20.9489 10.1646 20.8538L0.146038 10.8393C0.0995598 10.7927 0.0627251 10.7375 0.0376434 10.6767C0.0125599 10.6159 -0.000276566 10.5507 -0.0001297 10.4849C-7.05719e-05 10.4191 0.0129585 10.3539 0.0382156 10.2931C0.0634727 10.2323 0.100462 10.177 0.14707 10.1305Z" fill="#7D8EA0"/>
</g>
</svg>
