<svg width="25" height="21" viewBox="0 0 25 21" fill="none" xmlns="http://www.w3.org/2000/svg">
<g id="Group">
<path id="Vector" d="M23.8861 10.1305L13.8676 0.145041C13.7244 0.00290704 13.5112 -0.0381516 13.322 0.0369273C13.2307 0.0749313 13.1526 0.139141 13.0978 0.221452C13.0429 0.303763 13.0136 0.400486 13.0137 0.499414V6.00519H0.500542C0.224251 6.00523 0 6.22944 0 6.50573V14.5142C0 14.7905 0.224251 15.0147 0.500542 15.0147H13.0137V20.4995C13.0137 20.7017 13.1359 20.8839 13.323 20.9619C13.3851 20.988 13.4502 21 13.5143 21C13.6444 21 13.7725 20.9489 13.8686 20.8538L23.8872 10.8393C23.9336 10.7927 23.9705 10.7375 23.9956 10.6767C24.0206 10.6159 24.0335 10.5507 24.0333 10.4849C24.0333 10.4191 24.0202 10.3539 23.995 10.2931C23.9697 10.2323 23.9327 10.177 23.8861 10.1305Z" fill="#7D8EA0"/>
</g>
</svg>
