<svg width="35" height="35" viewBox="0 0 35 35" fill="none" xmlns="http://www.w3.org/2000/svg">
<path d="M30.3093 13.7889L25.8271 10.8365C25.3918 10.5492 24.8653 10.415 24.3462 10.4595L21.6242 10.6907C21.1422 10.7308 20.6931 10.4777 20.4794 10.0446L18.4873 6.01013C18.0557 5.13732 17.1158 4.62034 16.1482 4.72315L9.00597 5.48367C8.44962 5.54273 7.93264 5.80013 7.55055 6.20846L2.47993 11.6218C2.19337 11.928 1.9943 12.3065 1.90462 12.7155L0.350032 19.7855C0.24722 20.2515 0.288782 20.7313 0.470345 21.1724L1.68805 24.1416C1.71992 24.1404 1.22481 24.1409 8.70934 24.1409C9.0829 24.1409 9.3602 23.7946 9.27861 23.4301L9.12045 22.7234C9.05191 22.4193 9.08472 22.0955 9.2116 21.8104L9.55503 20.9684C9.64027 20.7594 9.5974 20.5203 9.44464 20.3541C9.36997 20.273 9.26745 20.1622 9.12344 20.0065C8.9044 19.7698 8.92 19.4005 9.15625 19.1818C9.39323 18.963 9.76219 18.9784 9.98094 19.2146L10.4658 19.7403C10.5429 19.824 10.6626 19.8569 10.7765 19.8176L12.9319 19.06C13.2359 18.9536 13.5684 19.1133 13.6756 19.4173C13.7821 19.7214 13.6228 20.055 13.3183 20.1611C11.7732 20.6996 11.3123 20.8777 11.0628 20.9489C10.8908 20.998 10.7514 21.1236 10.6839 21.2892C10.6839 21.2892 10.2825 22.2745 10.2793 22.2818C10.253 22.3406 10.2447 22.4059 10.2588 22.4687L10.5314 23.6851C10.5911 23.9515 10.8276 24.1409 11.1006 24.1409H21.293C21.5831 24.1409 21.8292 23.9277 21.8704 23.6405L22.2783 20.8013C22.4599 19.5354 23.3167 18.4709 24.514 18.0217L26.428 17.3042C27.4306 16.9279 28.5324 17.0271 29.4511 17.5762L30.3992 18.1419C30.7788 18.3686 31.2628 18.1071 31.2812 17.6653L31.3573 15.8342C31.3914 15.0204 30.9896 14.2366 30.3093 13.7889ZM13.1323 11.2616L12.436 13.0517C12.1384 13.8154 11.2796 14.1776 10.5292 13.8749L8.97972 13.2464C8.05382 12.8717 7.76996 11.691 8.42774 10.9371L9.76795 9.39784C10.1814 8.92388 10.8486 8.76784 11.429 9.00992L12.3339 9.3869C13.0711 9.69388 13.4218 10.5171 13.1323 11.2616ZM19.5344 23.1062L17.6779 23.3271C16.9505 23.4204 16.2232 22.921 16.0745 22.1575L15.8178 20.837C15.6422 19.9373 16.3321 19.1001 17.2492 19.1001H19.0422C19.6875 19.1001 20.2628 19.5325 20.4429 20.1516L20.7623 21.2519C21.0148 22.1219 20.422 23.0013 19.5344 23.1062ZM22.5058 15.1181C22.3428 16.0983 21.4149 16.796 20.3905 16.6326L16.6228 16.0128C15.9287 15.8991 15.3643 15.439 15.112 14.782C14.6119 13.4812 15.5851 12.122 16.9451 12.122C17.2435 12.122 17.069 12.1002 21.0992 13.0196C22.0478 13.236 22.6662 14.1578 22.5058 15.1181Z" fill="#EE7828"/>
<path d="M12.0451 10.8387L11.3488 12.6288C11.2886 12.7831 11.1156 12.8528 10.9674 12.7936L9.41792 12.165C9.23199 12.09 9.17562 11.8551 9.30709 11.7035L10.648 10.1642C10.7304 10.0694 10.8639 10.038 10.9798 10.0862L11.8854 10.4639C12.0327 10.5251 12.1027 10.6899 12.0451 10.8387Z" fill="#EE7828"/>
<path d="M21.3551 14.9264C21.2938 15.2924 20.946 15.5418 20.58 15.4813L16.8124 14.8622C16.2062 14.7615 15.9468 14.0534 16.3224 13.5855C16.5105 13.3499 16.8226 13.2413 17.1172 13.3084L20.8396 14.1571C21.1874 14.2366 21.4141 14.5742 21.3551 14.9264Z" fill="#EE7828"/>
<path d="M19.3957 21.9483L17.54 22.1692C17.389 22.1867 17.2483 22.0839 17.2191 21.9352L16.9625 20.6139C16.9273 20.4314 17.0677 20.2668 17.249 20.2668H19.042C19.1711 20.2668 19.2863 20.3536 19.322 20.4768L19.6414 21.5772C19.6922 21.7519 19.5742 21.926 19.3957 21.9483Z" fill="#EE7828"/>
<path d="M35 27.0575V28.5399C35 29.5046 34.2147 30.2899 33.25 30.2899H1.75C0.785313 30.2899 0 29.5046 0 28.5399V27.0575C0 26.0921 0.785313 25.3075 1.75 25.3075H33.25C34.2147 25.3075 35 26.0921 35 27.0575Z" fill="#EE7828"/>
<path d="M33.3906 22.9195L33.2992 23.6318C33.2618 23.9229 33.0141 24.1409 32.7206 24.1409H23.6499C23.2947 24.1409 23.0219 23.8261 23.0724 23.4745L23.4331 20.9668C23.5541 20.1232 24.1251 19.4137 24.9228 19.114L26.8376 18.3965C27.5055 18.1457 28.2405 18.212 28.853 18.5773L32.2728 20.619C33.0698 21.0951 33.5087 21.9986 33.3906 22.9195Z" fill="#EE7828"/>
</svg>
