<svg width="28" height="35" viewBox="0 0 28 35" fill="none" xmlns="http://www.w3.org/2000/svg">
<g id="Group">
<path id="Vector" d="M27.1462 29.285L1.69044 3.82927C1.30378 3.44254 0.676762 3.44254 0.290041 3.82927C-0.0966802 4.21599 -0.0966802 4.84294 0.290041 5.22966L7.33724 12.2769L0.270368 19.7594C0.137594 19.9001 0.048914 20.0765 0.0152737 20.267C-0.0183667 20.4575 0.0045056 20.6536 0.0810672 20.8313C0.157629 21.0089 0.284528 21.1602 0.446101 21.2665C0.607674 21.3729 0.796848 21.4296 0.990271 21.4296H10.3285L7.45415 32.927C7.30819 33.5111 7.72911 34.1574 8.41448 34.1574C8.68033 34.1574 8.94268 34.0504 9.13478 33.8471L18.7387 23.6783L25.7458 30.6854C25.9392 30.8787 26.1926 30.9755 26.446 30.9755C26.6994 30.9755 26.9529 30.8788 27.1462 30.6854C27.5329 30.2987 27.5329 29.6717 27.1462 29.285ZM27.1659 14.7554C27.2987 14.6147 27.3874 14.4382 27.421 14.2478C27.4546 14.0573 27.4318 13.8611 27.3552 13.6835C27.2786 13.5059 27.1517 13.3546 26.9902 13.2482C26.8286 13.1419 26.6394 13.0852 26.446 13.0852H17.1077L19.9821 1.58776C20.0352 1.37533 20.0164 1.15128 19.9286 0.95068C19.8408 0.750076 19.689 0.584226 19.497 0.479074C19.3049 0.373921 19.0834 0.335396 18.8671 0.369525C18.6508 0.403655 18.4519 0.508514 18.3015 0.6677L10.058 9.39605L21.4594 20.7975L27.1659 14.7554Z" fill="#7D8EA0"/>
</g>
</svg>
