<svg width="40" height="40" viewBox="0 0 40 40" fill="none" xmlns="http://www.w3.org/2000/svg">
<g id="Group">
<path id="Vector" d="M20 27.5C19.8358 27.5002 19.6732 27.4679 19.5216 27.405C19.3699 27.3422 19.2322 27.25 19.1163 27.1338L9.11625 17.1337C8.62781 16.6453 8.62781 15.8544 9.11625 15.3663C9.60469 14.8781 10.3956 14.8778 10.8837 15.3663L20 24.4825L29.1162 15.3663C29.6047 14.8778 30.3956 14.8778 30.8838 15.3663C31.3719 15.8547 31.3722 16.6456 30.8838 17.1337L20.8838 27.1338C20.7678 27.25 20.6301 27.3422 20.4784 27.405C20.3268 27.4679 20.1642 27.5002 20 27.5ZM40 20C40 8.97219 31.0278 0 20 0C8.97219 0 0 8.97219 0 20C0 31.0278 8.97219 40 20 40C31.0278 40 40 31.0278 40 20ZM37.5 20C37.5 29.6497 29.6497 37.5 20 37.5C10.3503 37.5 2.5 29.6497 2.5 20C2.5 10.3503 10.3503 2.5 20 2.5C29.6497 2.5 37.5 10.3503 37.5 20Z" fill="#F9FAFB"/>
</g>
</svg>
