<svg width="80" height="80" viewBox="0 0 80 80" fill="none" xmlns="http://www.w3.org/2000/svg">
<g clip-path="url(#clip0_300_16)">
<path d="M40 80C62.0914 80 80 62.0914 80 40C80 17.9086 62.0914 0 40 0C17.9086 0 0 17.9086 0 40C0 62.0914 17.9086 80 40 80Z" fill="#039BE5"/>
<path d="M18.3042 39.1335L56.8709 24.2635C58.6609 23.6169 60.2242 24.7002 59.6442 27.4069L59.6475 27.4035L53.0809 58.3402C52.5942 60.5335 51.2909 61.0669 49.4675 60.0335L39.4675 52.6635L34.6442 57.3102C34.1109 57.8435 33.6609 58.2935 32.6275 58.2935L33.3375 48.1169L51.8709 31.3735C52.6775 30.6635 51.6909 30.2635 50.6275 30.9702L27.7242 45.3902L17.8509 42.3102C15.7075 41.6302 15.6609 40.1669 18.3042 39.1335Z" fill="white"/>
</g>
<defs>
<clipPath id="clip0_300_16">
<rect width="80" height="80" fill="white"/>
</clipPath>
</defs>
</svg>
