<svg width="55" height="56" viewBox="0 0 55 56" fill="none" xmlns="http://www.w3.org/2000/svg">
<rect x="1" y="1" width="53" height="54" rx="9" fill="#2FA2DC" stroke="#2FA2DC" stroke-width="2"/>
<g clip-path="url(#clip0_365_427)">
<path d="M27.0039 49.001C39.1542 49.001 49.0039 39.1512 49.0039 27.001C49.0039 14.8507 39.1542 5.00098 27.0039 5.00098C14.8536 5.00098 5.00391 14.8507 5.00391 27.001C5.00391 39.1512 14.8536 49.001 27.0039 49.001Z" fill="#2FA2DC"/>
<path d="M15.0707 26.5244L36.2824 18.3459C37.2669 17.9903 38.1267 18.5861 37.8077 20.0748L37.8096 20.0729L34.1979 37.0881C33.9302 38.2944 33.2134 38.5878 32.2106 38.0194L26.7106 33.9659L24.0577 36.5216C23.7644 36.8149 23.5169 37.0624 22.9486 37.0624L23.3391 31.4653L33.5324 22.2564C33.9761 21.8659 33.4334 21.6459 32.8486 22.0346L20.2517 29.9656L14.8214 28.2716C13.6426 27.8976 13.6169 27.0928 15.0707 26.5244Z" fill="white"/>
</g>
<defs>
<clipPath id="clip0_365_427">
<rect width="44" height="44" fill="white" transform="translate(5 5)"/>
</clipPath>
</defs>
</svg>
