<svg width="31" height="30" viewBox="0 0 31 30" fill="none" xmlns="http://www.w3.org/2000/svg">
<g id="Group">
<g id="Group_2">
<path id="Vector" d="M4.09375 4.94732L7.17925 2.31771C7.35178 2.15689 7.55881 2.03766 7.7845 1.96915C8.01019 1.90064 8.24856 1.88466 8.48137 1.92244L9.12687 2.02729C9.49401 2.08683 9.87032 2.01205 10.1868 1.81666L12.757 0.230296C13.0741 0.0346997 13.4511 -0.0398648 13.8188 0.0203119C14.1864 0.0804887 14.52 0.271362 14.7582 0.557837L17.8925 4.94732H4.09375Z" fill="#7D8EA0"/>
<path id="Vector_2" fill-rule="evenodd" clip-rule="evenodd" d="M0 28.7628C0 28.4347 0.130344 28.12 0.362359 27.888C0.594373 27.656 0.909052 27.5257 1.23717 27.5257H5.798C4.00719 26.6003 2.78363 24.7315 2.78363 22.577C2.78363 19.5023 5.27622 17.0097 8.3509 17.0097C11.4256 17.0097 13.9182 19.5023 13.9182 22.577C13.9182 24.7315 12.6943 26.6003 10.9038 27.5257H20.0254C18.2346 26.6003 17.0111 24.7315 17.0111 22.577C17.0111 19.5023 19.5037 17.0097 22.5783 17.0097C25.653 17.0097 28.1456 19.5023 28.1456 22.577C28.1456 24.7315 26.9217 26.6003 25.1312 27.5257H29.6921C30.0202 27.5257 30.3349 27.656 30.5669 27.888C30.7989 28.12 30.9292 28.4347 30.9292 28.7628C30.9292 29.0909 30.7989 29.4056 30.5669 29.6376C30.3349 29.8697 30.0202 30 29.6921 30H1.23717C0.909052 30 0.594373 29.8697 0.362359 29.6376C0.130344 29.4056 0 29.0909 0 28.7628ZM8.3509 24.4327C8.84307 24.4327 9.31509 24.2372 9.66311 23.8892C10.0111 23.5412 10.2067 23.0692 10.2067 22.577C10.2067 22.0848 10.0111 21.6128 9.66311 21.2648C9.31509 20.9167 8.84307 20.7212 8.3509 20.7212C7.85872 20.7212 7.3867 20.9167 7.03868 21.2648C6.69066 21.6128 6.49514 22.0848 6.49514 22.577C6.49514 23.0692 6.69066 23.5412 7.03868 23.8892C7.3867 24.2372 7.85872 24.4327 8.3509 24.4327ZM22.5783 24.4327C23.0705 24.4327 23.5425 24.2372 23.8906 23.8892C24.2386 23.5412 24.4341 23.0692 24.4341 22.577C24.4341 22.0848 24.2386 21.6128 23.8906 21.2648C23.5425 20.9167 23.0705 20.7212 22.5783 20.7212C22.0862 20.7212 21.6142 20.9167 21.2661 21.2648C20.9181 21.6128 20.7226 22.0848 20.7226 22.577C20.7226 23.0692 20.9181 23.5412 21.2661 23.8892C21.6142 24.2372 22.0862 24.4327 22.5783 24.4327Z" fill="#7D8EA0"/>
<path id="Vector_3" d="M20.7809 4.94727C19.9869 4.94727 19.3294 5.56585 19.2452 6.18444H3.23255C2.91841 6.18446 2.61172 6.28015 2.3533 6.45878C2.09489 6.63741 1.89701 6.89051 1.78599 7.18438L0.310664 11.0907C0.221458 11.327 0.191449 11.5814 0.223259 11.8319C0.255068 12.0824 0.347729 12.3213 0.493146 12.5277L2.5419 15.4354C3.09739 16.2238 3.90371 16.5553 4.80159 16.7697C5.86931 16.1157 7.09741 15.7705 8.34948 15.7725C9.28352 15.7714 10.2077 15.9631 11.0643 16.3356C11.9208 16.7082 12.6912 17.2535 13.3272 17.9375H17.5614L21.0667 7.4216H26.5977C26.9259 7.4216 27.2405 7.29126 27.4725 7.05925C27.7046 6.82723 27.8349 6.51255 27.8349 6.18444C27.8349 5.85632 27.7046 5.54164 27.4725 5.30962C27.2405 5.07761 26.9259 4.94727 26.5977 4.94727H20.7809ZM14.4119 25.6699C14.8864 24.742 15.1539 23.6904 15.1539 22.5769C15.1539 21.3376 14.8227 20.1756 14.2437 19.1747H16.6827C16.0846 20.2087 15.7706 21.3824 15.7725 22.5769C15.7725 23.6904 16.04 24.742 16.5145 25.6699H14.4119Z" fill="#7D8EA0"/>
<path id="Vector_4" d="M23.3141 14.2261H24.1269V11.7517C24.1269 11.1775 24.3551 10.6268 24.7611 10.2208C25.1671 9.81479 25.7178 9.58669 26.292 9.58669H29.2544C29.1339 9.31088 28.9357 9.0762 28.6838 8.91139C28.432 8.74658 28.1376 8.65881 27.8366 8.65881H21.9619L19.3125 16.6073C19.7521 16.3661 20.2171 16.1745 20.6991 16.0361C21.1129 14.9712 22.1614 14.2261 23.3141 14.2261ZM29.3849 22.577C29.3849 23.6397 29.1415 24.6452 28.7069 25.5412C29.9815 25.1608 30.9116 23.9812 30.9144 22.5832L30.9283 17.0128C30.9287 16.8095 30.889 16.608 30.8115 16.42C30.7339 16.2321 30.6201 16.0612 30.4764 15.9173C30.3328 15.7734 30.1622 15.6592 29.9743 15.5813C29.7865 15.5033 29.5852 15.4632 29.3818 15.4632H23.3141C22.9693 15.4632 22.6881 15.5746 22.4258 15.7725C26.1915 15.6649 29.3849 18.828 29.3849 22.577Z" fill="#7D8EA0"/>
<path id="Vector_5" d="M29.3816 10.8239L29.3773 14.2261H25.3633V11.7517C25.3633 11.5056 25.461 11.2696 25.635 11.0956C25.8091 10.9216 26.0451 10.8239 26.2912 10.8239H29.3816Z" fill="#7D8EA0"/>
</g>
</g>
</svg>
