<svg width="35" height="35" viewBox="0 0 35 35" fill="none" xmlns="http://www.w3.org/2000/svg">
<path d="M4.63281 5.77187L8.12441 2.704C8.31965 2.51637 8.55393 2.37728 8.80932 2.29735C9.06471 2.21742 9.33446 2.19877 9.59791 2.24284L10.3284 2.36517C10.7438 2.43463 11.1697 2.34739 11.5278 2.11943L14.4363 0.268679C14.7951 0.040483 15.2217 -0.0465089 15.6378 0.0236973C16.0538 0.0939034 16.4313 0.316588 16.7008 0.65081L20.2477 5.77187H4.63281Z" fill="#EE7828"/>
<path fill-rule="evenodd" clip-rule="evenodd" d="M0 33.5567C0 33.1739 0.1475 32.8068 0.41005 32.5361C0.672601 32.2654 1.0287 32.1133 1.4 32.1133H6.5611C4.5346 31.0337 3.15 28.8535 3.15 26.3399C3.15 22.7527 5.97065 19.8447 9.45 19.8447C12.9293 19.8447 15.75 22.7527 15.75 26.3399C15.75 28.8535 14.3651 31.0337 12.3389 32.1133H22.6611C20.6346 31.0337 19.25 28.8535 19.25 26.3399C19.25 22.7527 22.0707 19.8447 25.55 19.8447C29.0294 19.8447 31.85 22.7527 31.85 26.3399C31.85 28.8535 30.465 31.0337 28.4389 32.1133H33.6C33.9713 32.1133 34.3274 32.2654 34.59 32.5361C34.8525 32.8068 35 33.1739 35 33.5567C35 33.9395 34.8525 34.3066 34.59 34.5773C34.3274 34.848 33.9713 35.0001 33.6 35.0001H1.4C1.0287 35.0001 0.672601 34.848 0.41005 34.5773C0.1475 34.3066 0 33.9395 0 33.5567ZM9.45 28.5049C10.007 28.5049 10.5411 28.2768 10.9349 27.8708C11.3288 27.4648 11.55 26.9141 11.55 26.3399C11.55 25.7657 11.3288 25.215 10.9349 24.8089C10.5411 24.4029 10.007 24.1748 9.45 24.1748C8.89305 24.1748 8.3589 24.4029 7.96508 24.8089C7.57125 25.215 7.35 25.7657 7.35 26.3399C7.35 26.9141 7.57125 27.4648 7.96508 27.8708C8.3589 28.2768 8.89305 28.5049 9.45 28.5049ZM25.55 28.5049C26.107 28.5049 26.6411 28.2768 27.0349 27.8708C27.4287 27.4648 27.65 26.9141 27.65 26.3399C27.65 25.7657 27.4287 25.215 27.0349 24.8089C26.6411 24.4029 26.107 24.1748 25.55 24.1748C24.993 24.1748 24.4589 24.4029 24.0651 24.8089C23.6712 25.215 23.45 25.7657 23.45 26.3399C23.45 26.9141 23.6712 27.4648 24.0651 27.8708C24.4589 28.2768 24.993 28.5049 25.55 28.5049Z" fill="#EE7828"/>
<path d="M23.5155 5.77173C22.6171 5.77173 21.873 6.49341 21.7778 7.21509H3.65758C3.30209 7.21512 2.95504 7.32676 2.66262 7.53516C2.37019 7.74357 2.14626 8.03884 2.02063 8.38169L0.351133 12.9391C0.250186 13.2147 0.216228 13.5116 0.252224 13.8038C0.28822 14.0961 0.393077 14.3748 0.557633 14.6156L2.87603 18.0079C3.50463 18.9276 4.41708 19.3145 5.43313 19.5645C6.64138 18.8016 8.03112 18.3989 9.44798 18.4012C10.505 18.3998 11.5508 18.6235 12.5201 19.0581C13.4893 19.4928 14.3611 20.129 15.0809 20.9271H19.8724L23.8389 8.65846H30.098C30.4693 8.65846 30.8254 8.50639 31.0879 8.23571C31.3505 7.96502 31.498 7.5979 31.498 7.21509C31.498 6.83229 31.3505 6.46516 31.0879 6.19448C30.8254 5.9238 30.4693 5.77173 30.098 5.77173H23.5155ZM16.3083 29.9481C16.8452 28.8656 17.148 27.6387 17.148 26.3397C17.148 24.8938 16.7731 23.5381 16.1179 22.3704H18.878C18.2012 23.5767 17.8458 24.9461 17.848 26.3397C17.848 27.6387 18.1507 28.8656 18.6876 29.9481H16.3083Z" fill="#EE7828"/>
<path d="M26.3828 16.5969H27.3026V13.7102C27.3026 13.0403 27.5607 12.3978 28.0202 11.9241C28.4796 11.4504 29.1028 11.1843 29.7526 11.1843H33.1049C32.9686 10.8626 32.7442 10.5888 32.4592 10.3965C32.1743 10.2042 31.8411 10.1018 31.5005 10.1018H24.8526L21.8545 19.3751C22.3519 19.0936 22.8782 18.8701 23.4235 18.7086C23.8918 17.4662 25.0783 16.5969 26.3828 16.5969ZM33.2526 26.3397C33.2526 27.5795 32.9771 28.7526 32.4854 29.798C33.9277 29.3541 34.9802 27.9779 34.9833 26.3469L34.9991 19.8481C34.9996 19.6109 34.9546 19.3759 34.8669 19.1566C34.7792 18.9373 34.6503 18.7379 34.4878 18.57C34.3252 18.4021 34.1321 18.2689 33.9196 18.178C33.7071 18.0871 33.4792 18.0403 33.2491 18.0403H26.3828C25.9925 18.0403 25.6744 18.1702 25.3776 18.4012C29.6388 18.2756 33.2526 21.9659 33.2526 26.3397Z" fill="#EE7828"/>
<path d="M33.2484 12.6277L33.2435 16.5969H28.7012V13.7102C28.7012 13.4231 28.8118 13.1478 29.0087 12.9447C29.2056 12.7417 29.4727 12.6277 29.7512 12.6277H33.2484Z" fill="#EE7828"/>
</svg>
