<svg width="31" height="30" viewBox="0 0 31 30" fill="none" xmlns="http://www.w3.org/2000/svg">
<g id="Group">
<g id="Group_2">
<path id="Vector" d="M4.0918 4.94732L7.1773 2.31771C7.34983 2.15689 7.55686 2.03766 7.78255 1.96915C8.00823 1.90064 8.2466 1.88466 8.47942 1.92244L9.12491 2.02729C9.49206 2.08683 9.86837 2.01205 10.1849 1.81666L12.7551 0.230296C13.0721 0.0346997 13.4492 -0.0398648 13.8168 0.0203119C14.1845 0.0804887 14.518 0.271362 14.7562 0.557837L17.8906 4.94732H4.0918Z" fill="white"/>
<path id="Vector_2" fill-rule="evenodd" clip-rule="evenodd" d="M0 28.7629C0 28.4348 0.130344 28.1201 0.362359 27.8881C0.594373 27.6561 0.909052 27.5257 1.23717 27.5257H5.798C4.00719 26.6003 2.78363 24.7316 2.78363 22.577C2.78363 19.5024 5.27622 17.0098 8.3509 17.0098C11.4256 17.0098 13.9182 19.5024 13.9182 22.577C13.9182 24.7316 12.6943 26.6003 10.9038 27.5257H20.0254C18.2346 26.6003 17.0111 24.7316 17.0111 22.577C17.0111 19.5024 19.5037 17.0098 22.5783 17.0098C25.653 17.0098 28.1456 19.5024 28.1456 22.577C28.1456 24.7316 26.9217 26.6003 25.1312 27.5257H29.6921C30.0202 27.5257 30.3349 27.6561 30.5669 27.8881C30.7989 28.1201 30.9292 28.4348 30.9292 28.7629C30.9292 29.091 30.7989 29.4057 30.5669 29.6377C30.3349 29.8697 30.0202 30 29.6921 30H1.23717C0.909052 30 0.594373 29.8697 0.362359 29.6377C0.130344 29.4057 0 29.091 0 28.7629ZM8.3509 24.4328C8.84307 24.4328 9.31509 24.2373 9.66311 23.8892C10.0111 23.5412 10.2067 23.0692 10.2067 22.577C10.2067 22.0849 10.0111 21.6128 9.66311 21.2648C9.31509 20.9168 8.84307 20.7213 8.3509 20.7213C7.85872 20.7213 7.3867 20.9168 7.03868 21.2648C6.69066 21.6128 6.49514 22.0849 6.49514 22.577C6.49514 23.0692 6.69066 23.5412 7.03868 23.8892C7.3867 24.2373 7.85872 24.4328 8.3509 24.4328ZM22.5783 24.4328C23.0705 24.4328 23.5425 24.2373 23.8906 23.8892C24.2386 23.5412 24.4341 23.0692 24.4341 22.577C24.4341 22.0849 24.2386 21.6128 23.8906 21.2648C23.5425 20.9168 23.0705 20.7213 22.5783 20.7213C22.0862 20.7213 21.6142 20.9168 21.2661 21.2648C20.9181 21.6128 20.7226 22.0849 20.7226 22.577C20.7226 23.0692 20.9181 23.5412 21.2661 23.8892C21.6142 24.2373 22.0862 24.4328 22.5783 24.4328Z" fill="white"/>
<path id="Vector_3" d="M20.7828 4.94727C19.9889 4.94727 19.3313 5.56585 19.2472 6.18444H3.2345C2.92036 6.18446 2.61367 6.28015 2.35526 6.45878C2.09684 6.63741 1.89896 6.89051 1.78794 7.18438L0.312617 11.0907C0.223411 11.327 0.193402 11.5814 0.225212 11.8319C0.257022 12.0824 0.349682 12.3213 0.495099 12.5277L2.54385 15.4354C3.09934 16.2238 3.90567 16.5553 4.80354 16.7697C5.87126 16.1157 7.09937 15.7705 8.35144 15.7725C9.28548 15.7714 10.2097 15.9631 11.0662 16.3356C11.9228 16.7082 12.6932 17.2535 13.3292 17.9375H17.5634L21.0686 7.4216H26.5997C26.9278 7.4216 27.2425 7.29126 27.4745 7.05925C27.7065 6.82723 27.8369 6.51255 27.8369 6.18444C27.8369 5.85632 27.7065 5.54164 27.4745 5.30962C27.2425 5.07761 26.9278 4.94727 26.5997 4.94727H20.7828ZM14.4139 25.6699C14.8883 24.742 15.1559 23.6904 15.1559 22.5769C15.1559 21.3376 14.8246 20.1756 14.2456 19.1747H16.6847C16.0866 20.2087 15.7726 21.3824 15.7745 22.5769C15.7745 23.6904 16.042 24.742 16.5164 25.6699H14.4139Z" fill="white"/>
<path id="Vector_4" d="M23.3122 14.2261H24.125V11.7517C24.125 11.1775 24.3531 10.6268 24.7591 10.2208C25.1651 9.81479 25.7158 9.58669 26.29 9.58669H29.2524C29.132 9.31088 28.9337 9.0762 28.6819 8.91139C28.43 8.74658 28.1356 8.65881 27.8346 8.65881H21.9599L19.3105 16.6073C19.7501 16.3661 20.2152 16.1745 20.6971 16.0361C21.1109 14.9712 22.1594 14.2261 23.3122 14.2261ZM29.383 22.577C29.383 23.6397 29.1396 24.6452 28.705 25.5412C29.9796 25.1608 30.9096 23.9812 30.9124 22.5832L30.9263 17.0128C30.9267 16.8095 30.887 16.608 30.8095 16.42C30.732 16.2321 30.6181 16.0612 30.4745 15.9173C30.3308 15.7734 30.1602 15.6592 29.9724 15.5813C29.7846 15.5033 29.5832 15.4632 29.3799 15.4632H23.3122C22.9673 15.4632 22.6862 15.5746 22.4239 15.7725C26.1895 15.6649 29.383 18.828 29.383 22.577Z" fill="white"/>
<path id="Vector_5" d="M29.3816 10.8239L29.3773 14.2261H25.3633V11.7517C25.3633 11.5056 25.461 11.2696 25.635 11.0956C25.8091 10.9216 26.0451 10.8239 26.2912 10.8239H29.3816Z" fill="white"/>
</g>
</g>
</svg>
