<svg width="48" height="48" viewBox="0 0 48 48" fill="none" xmlns="http://www.w3.org/2000/svg">
<g id="Group 2370">
<circle id="Ellipse 80" cx="24" cy="24" r="24" fill="white"/>
<path id="Vector" d="M24 11C20.3608 11 17.4 14.0754 17.4 17.8555C17.4 21.6356 20.3608 24.7109 24 24.7109C27.6392 24.7109 30.6 21.6356 30.6 17.8555C30.6 14.0754 27.6392 11 24 11ZM32.2117 29.1896C30.4047 27.2839 28.0093 26.2344 25.4667 26.2344H22.5333C19.9907 26.2344 17.5953 27.2839 15.7883 29.1896C13.9902 31.086 13 33.5892 13 36.2383C13 36.659 13.3283 37 13.7333 37H34.2667C34.6717 37 35 36.659 35 36.2383C35 33.5892 34.0098 31.086 32.2117 29.1896Z" fill="#7D8EA0"/>
</g>
</svg>
