<svg width="88" height="89" viewBox="0 0 88 89" fill="none" xmlns="http://www.w3.org/2000/svg">
<path id="Vector" d="M6.44924 88.1444L30.2687 85.3177C32.0202 84.9656 33.7725 83.913 34.4752 81.8109C34.8273 80.0593 34.8295 77.9578 33.43 76.5583L28.8815 72.0099L37.6467 63.2447C39.7504 61.1411 39.4034 57.9893 37.654 56.2399L32.4058 50.9917C30.6564 49.2423 27.5046 48.8953 25.401 50.999L16.2852 60.1148L12.0867 55.9162C10.6871 54.5167 8.9363 54.1683 6.83411 54.871C5.08253 55.223 4.02998 56.9753 3.67792 58.7269L0.851193 82.5463C0.849735 83.9473 1.19815 85.6982 2.24779 86.7478C3.29742 87.7974 4.69767 88.4965 6.44924 88.1444ZM81.8072 34.4789C82.5077 34.4782 83.2089 33.777 83.5595 33.4264C84.2607 32.7251 84.612 31.674 84.9634 30.6229L87.7901 6.80354C87.7916 5.40256 87.4431 3.65172 86.3935 2.60208C85.3439 1.55245 83.9436 0.853418 82.192 1.20548L58.3726 4.03221C56.621 4.38428 54.8687 5.43683 54.1661 7.53901C53.4634 9.6412 53.8118 11.392 55.2113 12.7916L59.7597 17.34L50.9946 26.1051C48.8909 28.2088 49.2379 31.3606 50.9873 33.11L56.2355 38.3582C57.9848 40.1076 61.1367 40.4545 63.2403 38.3509L72.0055 29.5857L76.5539 34.1341C77.9541 34.8332 80.0549 35.5315 81.8072 34.4789ZM32.4197 37.6825L37.6788 32.4234C39.7824 30.3197 39.7854 27.5178 37.6861 25.4185L28.9391 16.6716L33.497 12.1137C34.8994 10.7112 35.2515 8.95966 34.5532 6.85893C33.8549 4.75821 32.1048 3.7093 30.3539 3.36088L6.54036 0.583725C3.38854 0.236763 0.583687 3.04162 0.930649 6.19344L3.7078 30.007C3.70489 32.809 5.1044 34.2085 6.85525 34.5569C8.6061 34.9053 10.7076 34.9031 12.11 33.5007L16.6679 28.9428L25.4148 37.6898C27.1642 39.4392 30.316 39.7861 32.4197 37.6825ZM82.1017 88.0657C85.2535 88.4126 88.0583 85.6078 87.7114 82.456L84.9342 58.6424C84.5858 56.8915 83.5369 55.1414 81.4362 54.4431C79.6853 54.0947 77.5839 54.0969 76.1814 55.4993L71.6235 60.0572L62.8766 51.3102C60.7773 49.211 57.9754 49.2139 55.8717 51.3175L50.6126 56.5766C48.509 58.6803 48.5061 61.4822 50.6053 63.5815L59.3523 72.3284L55.145 76.5357C53.7426 77.9382 53.3905 79.6897 54.0888 81.7905C54.7871 83.8912 56.5372 84.9401 58.2881 85.2885L82.1017 88.0657Z" fill="#EEF2F6"/>
</svg>
