<svg width="56" height="56" viewBox="0 0 56 56" fill="none" xmlns="http://www.w3.org/2000/svg">
<g id="Frame" clip-path="url(#clip0_13_3169)" filter="url(#filter0_d_13_3169)">
<g id="Group">
<g id="Group_2">
<path id="Vector" fill-rule="evenodd" clip-rule="evenodd" d="M28 47C39.046 47 48 38.046 48 27C48 15.954 39.046 7 28 7C16.954 7 8 15.954 8 27C8 38.046 16.954 47 28 47Z" fill="#7D8EA0"/>
<path id="Vector_2" fill-rule="evenodd" clip-rule="evenodd" d="M28.0475 37.8138C26.2101 37.8167 24.4018 37.3549 22.7909 36.4711L16.7695 38.3845L18.7322 32.5945C17.7094 30.916 17.1696 28.988 17.1722 27.0225C17.1722 21.0625 22.0409 16.2305 28.0482 16.2305C34.0542 16.2305 38.9235 21.0618 38.9235 27.0225C38.9235 32.9831 34.0535 37.8131 28.0469 37.8131L28.0475 37.8138ZM28.0475 17.9491C23.0055 17.9491 18.9042 22.0191 18.9042 27.0225C18.9042 29.0071 19.5509 30.8458 20.6455 32.3418L19.5035 35.7111L23.0169 34.5945C24.5109 35.5759 26.26 36.0977 28.0475 36.0951C33.0889 36.0951 37.1915 32.0251 37.1915 27.0225C37.1915 22.0198 33.0889 17.9491 28.0475 17.9491ZM33.5395 29.5078C33.4729 29.3978 33.2949 29.3311 33.0289 29.1991C32.7622 29.0665 31.4509 28.4265 31.2069 28.3391C30.9622 28.2505 30.7842 28.2058 30.6069 28.4711C30.4295 28.7365 29.9182 29.3311 29.7622 29.5078C29.6069 29.6845 29.4515 29.7065 29.1849 29.5745C28.9182 29.4418 28.0595 29.1625 27.0409 28.2611C26.2489 27.5605 25.7135 26.6945 25.5582 26.4298C25.4029 26.1651 25.5415 26.0218 25.6749 25.8898C25.7949 25.7718 25.9415 25.5811 26.0749 25.4271C26.2082 25.2725 26.2529 25.1625 26.3415 24.9858C26.4302 24.8091 26.3862 24.6551 26.3195 24.5225C26.2529 24.3898 25.7195 23.0885 25.4969 22.5585C25.2749 22.0291 25.0535 22.1178 24.8969 22.1178C24.7415 22.1178 24.5635 22.0951 24.3862 22.0951C24.2089 22.0951 23.9195 22.1618 23.6755 22.4265C23.4309 22.6911 22.7422 23.3311 22.7422 24.6331C22.7422 25.9345 23.6975 27.1918 23.8309 27.3678C23.9642 27.5445 25.6749 30.3025 28.3842 31.3611C31.0955 32.4205 31.0955 32.0671 31.5842 32.0231C32.0729 31.9791 33.1609 31.3831 33.3842 30.7658C33.6055 30.1478 33.6055 29.6178 33.5395 29.5078Z" fill="white"/>
</g>
</g>
</g>
<defs>
<filter id="filter0_d_13_3169" x="0.5" y="0.867522" width="55" height="55" filterUnits="userSpaceOnUse" color-interpolation-filters="sRGB">
<feFlood flood-opacity="0" result="BackgroundImageFix"/>
<feColorMatrix in="SourceAlpha" type="matrix" values="0 0 0 0 0 0 0 0 0 0 0 0 0 0 0 0 0 0 127 0" result="hardAlpha"/>
<feOffset dy="1.36752"/>
<feGaussianBlur stdDeviation="3.75"/>
<feComposite in2="hardAlpha" operator="out"/>
<feColorMatrix type="matrix" values="0 0 0 0 0.172549 0 0 0 0 0.172549 0 0 0 0 0.172549 0 0 0 0.1 0"/>
<feBlend mode="normal" in2="BackgroundImageFix" result="effect1_dropShadow_13_3169"/>
<feBlend mode="normal" in="SourceGraphic" in2="effect1_dropShadow_13_3169" result="shape"/>
</filter>
<clipPath id="clip0_13_3169">
<rect width="40" height="40" fill="white" transform="translate(8 7)"/>
</clipPath>
</defs>
</svg>
