<svg width="80" height="80" viewBox="0 0 80 80" fill="none" xmlns="http://www.w3.org/2000/svg">
<g clip-path="url(#clip0_300_20)">
<path fill-rule="evenodd" clip-rule="evenodd" d="M40 80C62.092 80 80 62.092 80 40C80 17.908 62.092 0 40 0C17.908 0 0 17.908 0 40C0 62.092 17.908 80 40 80Z" fill="#27D061"/>
<path fill-rule="evenodd" clip-rule="evenodd" d="M40.0951 61.6281C36.4202 61.634 32.8036 60.7102 29.5817 58.9428L17.5391 62.7694L21.4644 51.1894C19.4189 47.8326 18.3393 43.9764 18.3444 40.0454C18.3444 28.1254 28.0817 18.4614 40.0964 18.4614C52.1084 18.4614 61.8471 28.1241 61.8471 40.0454C61.8471 51.9668 52.1071 61.6268 40.0937 61.6268L40.0951 61.6281ZM40.0951 21.8988C30.0111 21.8988 21.8084 30.0388 21.8084 40.0454C21.8084 44.0148 23.1017 47.6921 25.2911 50.6841L23.0071 57.4228L30.0337 55.1894C33.0218 57.1524 36.5199 58.1959 40.0951 58.1908C50.1777 58.1908 58.3831 50.0508 58.3831 40.0454C58.3831 30.0401 50.1777 21.8988 40.0951 21.8988ZM51.0791 45.0161C50.9457 44.7961 50.5897 44.6628 50.0577 44.3988C49.5244 44.1334 46.9017 42.8534 46.4137 42.6788C45.9244 42.5014 45.5684 42.4121 45.2137 42.9428C44.8591 43.4734 43.8364 44.6628 43.5244 45.0161C43.2137 45.3694 42.9031 45.4134 42.3697 45.1494C41.8364 44.8841 40.1191 44.3254 38.0817 42.5228C36.4977 41.1214 35.4271 39.3894 35.1164 38.8601C34.8057 38.3308 35.0831 38.0441 35.3497 37.7801C35.5897 37.5441 35.8831 37.1628 36.1497 36.8548C36.4164 36.5454 36.5057 36.3254 36.6831 35.9721C36.8604 35.6188 36.7724 35.3108 36.6391 35.0454C36.5057 34.7801 35.4391 32.1774 34.9937 31.1174C34.5497 30.0588 34.1071 30.2361 33.7937 30.2361C33.4831 30.2361 33.1271 30.1908 32.7724 30.1908C32.4177 30.1908 31.8391 30.3241 31.3511 30.8534C30.8617 31.3828 29.4844 32.6628 29.4844 35.2668C29.4844 37.8694 31.3951 40.3841 31.6617 40.7361C31.9284 41.0894 35.3497 46.6054 40.7684 48.7228C46.1911 50.8414 46.1911 50.1348 47.1684 50.0468C48.1457 49.9588 50.3217 48.7668 50.7684 47.5321C51.2111 46.2961 51.2111 45.2361 51.0791 45.0161Z" fill="white"/>
</g>
<defs>
<clipPath id="clip0_300_20">
<rect width="80" height="80" fill="white"/>
</clipPath>
</defs>
</svg>
