<svg width="40" height="40" viewBox="0 0 40 40" fill="none" xmlns="http://www.w3.org/2000/svg">
<path fill-rule="evenodd" clip-rule="evenodd" d="M1.39542 21.7726C1.16764 21.7726 0.943333 21.8272 0.742066 21.9317C0.5408 22.0362 0.368699 22.1873 0.240791 22.372C0.112882 22.5566 0.0330555 22.7691 0.00827974 22.991C-0.016496 23.2128 0.0145326 23.4372 0.0986569 23.6446L1.95915 28.227C2.07608 28.5142 2.28846 28.7544 2.56194 28.9087L8.14341 32.0457C8.35446 32.1648 8.59378 32.2276 8.83737 32.2276C9.08097 32.2276 9.32028 32.1648 9.53134 32.0457L13.0235 30.0826V32.4285C13.0235 32.8295 13.2021 33.2104 13.5146 33.4693L20.9566 39.6739C21.3268 39.9838 21.8348 40.0804 22.2962 39.9309C22.5238 39.8586 22.7284 39.7298 22.8901 39.557C23.0518 39.3841 23.1651 39.1733 23.219 38.9448L24.9418 31.7504L29.3028 29.2988L34.1903 32.0457C34.3573 32.1395 34.5423 32.1984 34.7336 32.2188C34.925 32.2391 35.1186 32.2205 35.3022 32.164C35.4859 32.1075 35.6556 32.0143 35.8008 31.8905C35.9459 31.7666 36.0633 31.6146 36.1456 31.4442L39.8666 23.7229C39.9669 23.5146 40.0119 23.2849 39.9973 23.055C39.9828 22.8251 39.9091 22.6025 39.7833 22.4079C39.6575 22.2134 39.4835 22.0531 39.2775 21.942C39.0716 21.831 38.8403 21.7727 38.6052 21.7726H1.39542Z" fill="#7D8EA0"/>
<path fill-rule="evenodd" clip-rule="evenodd" d="M19.9989 0C17.9021 0.000966032 15.8915 0.817449 14.4088 2.27004C12.9262 3.72262 12.0928 5.69247 12.0918 7.74674C12.0918 12.7375 15.6807 17.0428 17.7458 19.0625L17.7607 19.077C18.3612 19.6459 19.164 19.9637 19.9993 19.9633C20.8346 19.963 21.637 19.6445 22.237 19.0752L22.2501 19.0606C24.3171 17.0428 27.906 12.7375 27.906 7.74674C27.905 5.69247 27.0716 3.72262 25.5889 2.27004C24.1063 0.817449 22.0957 0.000966032 19.9989 0ZM21.3144 6.45785C20.9655 6.11602 20.4923 5.92398 19.9989 5.92398C19.5054 5.92398 19.0322 6.11602 18.6833 6.45785C18.3344 6.79969 18.1384 7.26332 18.1384 7.74674C18.1384 8.23017 18.3344 8.6938 18.6833 9.03563C19.0322 9.37746 19.5054 9.5695 19.9989 9.5695C20.4923 9.5695 20.9655 9.37746 21.3144 9.03563C21.6634 8.6938 21.8594 8.23017 21.8594 7.74674C21.8594 7.26332 21.6634 6.79969 21.3144 6.45785Z" fill="#EE7828"/>
</svg>
