<svg width="391" height="186" viewBox="0 0 391 186" fill="none" xmlns="http://www.w3.org/2000/svg">
<path fill-rule="evenodd" clip-rule="evenodd" d="M536.589 187.067C521.075 208.54 425.771 164.986 413.554 187.067C413.554 198.308 424.306 216.461 413.554 224.281C407.2 230.635 368.588 222.326 350.016 224.281C313.542 243.468 368.717 304.389 318.866 303.185C285.553 302.38 254.997 314.089 221.624 314.089C184.317 314.089 145.349 313.348 113.269 303.184C80.1504 292.692 57.5189 274.644 38.9935 256.229C20.0285 237.377 -3.36227 216.461 4.52392 195.088C12.5648 173.296 60.3898 163.139 80.4993 143.743C98.57 126.314 86.4565 99.5874 115.856 87.7055C145.78 75.612 189.706 112.358 235.16 94.7628C281.591 87.7055 272.793 -5.92002 350.016 3.85503C398.402 15.0963 388.952 70.0724 422.371 82.6948C457.786 96.0713 511.134 96.8037 533.317 117.075C555.292 137.155 552.566 164.952 536.589 187.067Z" fill="#EEF2F6"/>
<path d="M197.453 61.5856C197.453 64.7018 199.67 67.4078 202.729 68.0209L203.911 68.2583C205.343 68.5351 206.706 69.0935 207.92 69.9011C209.134 70.7086 210.176 71.7493 210.985 72.9626C212.35 75.0117 214.198 78.2869 215.676 82.6962C215.749 82.6916 215.819 82.6824 215.892 82.6824C218.653 82.6832 221.378 83.3051 223.866 84.502C226.353 85.699 228.54 87.4403 230.263 89.5971H243.551C248.636 89.5971 252.771 93.7321 252.771 98.8167C252.771 100.089 253.806 101.122 255.076 101.122H264.295C268.107 101.122 271.21 104.224 271.21 108.036C271.21 111.849 268.107 114.951 264.295 114.951H248.161C245.619 114.951 243.551 117.018 243.551 119.561C243.551 122.103 245.619 124.171 248.161 124.171H291.936C296.239 120.061 299.973 115.396 303.041 110.297C298.163 110.062 294.259 106.056 294.259 101.122C294.259 98.5793 292.191 96.5118 289.649 96.5118H282.734C277.65 96.5118 273.515 92.3768 273.515 87.2922C273.515 82.2076 277.65 78.0726 282.734 78.0726H292.722C293.74 78.0707 294.716 77.6653 295.436 76.9452C296.157 76.225 296.562 75.2488 296.564 74.2303C296.564 73.0294 295.99 71.8793 295.026 71.1579L291.954 68.853C290.526 67.7764 289.367 66.3838 288.567 64.7842C287.767 63.1847 287.349 61.4217 287.344 59.6334C287.344 57.091 285.277 55.0236 282.734 55.0236C277.65 55.0236 273.515 50.8886 273.515 45.804C273.515 40.7193 277.65 36.5843 282.734 36.5843H287.651L282.679 27.4708C282.661 27.4362 282.649 27.3993 282.631 27.3647H259.572C259.336 29.8234 258.61 32.2099 257.436 34.3832L252.464 43.4991H259.685C264.77 43.4991 268.905 47.634 268.905 52.7187C268.905 57.8033 264.77 61.9383 259.685 61.9383H257.38C256.11 61.9383 255.076 62.9732 255.076 64.2432C255.076 68.0555 251.973 71.1579 248.161 71.1579H234.331C230.519 71.1579 227.417 68.0555 227.417 64.2432V61.9383C227.417 59.396 225.349 57.3285 222.807 57.3285C217.722 57.3285 213.587 53.1935 213.587 48.1089C213.587 46.8389 212.552 45.804 211.282 45.804H206.673C202.86 45.804 199.758 42.7016 199.758 38.8892C199.758 35.0769 202.86 31.9745 206.673 31.9745H223.98C223.431 30.4896 223.075 28.9404 222.92 27.3647H199.776C192.976 33.8592 187.62 41.7125 184.055 50.4138H186.281C189.243 50.4168 192.083 51.5948 194.178 53.6893C196.272 55.7838 197.45 58.6236 197.453 61.5856Z" fill="#7D8EA0"/>
<path d="M239.858 51.8958C240.411 52.91 242.073 52.91 242.631 51.8958L253.386 32.1774C254.491 30.1451 255.071 27.8689 255.073 25.5554V25.0599C255.073 17.433 248.87 11.2305 241.243 11.2305C233.617 11.2305 227.414 17.433 227.414 25.0599V25.5554C227.414 27.8603 227.997 30.1514 229.101 32.1797L239.858 51.8958ZM241.243 18.1452C243.077 18.1452 244.836 18.8737 246.133 20.1704C247.43 21.4672 248.158 23.226 248.158 25.0599C248.158 26.8938 247.43 28.6525 246.133 29.9493C244.836 31.2461 243.077 31.9746 241.243 31.9746C239.41 31.9746 237.651 31.2461 236.354 29.9493C235.057 28.6525 234.329 26.8938 234.329 25.0599C234.329 23.226 235.057 21.4672 236.354 20.1704C237.651 18.8737 239.41 18.1452 241.243 18.1452Z" fill="#EE7828"/>
<path d="M204.367 38.8894C204.367 40.1594 205.402 41.1943 206.672 41.1943H211.282C215.094 41.1943 218.197 44.2967 218.197 48.109C218.197 50.6513 220.264 52.7188 222.806 52.7188C227.891 52.7188 232.026 56.8538 232.026 61.9384V64.2433C232.026 65.5133 233.061 66.5482 234.331 66.5482H248.16C249.43 66.5482 250.465 65.5133 250.465 64.2433C250.465 60.431 253.568 57.3286 257.38 57.3286H259.685C262.227 57.3286 264.295 55.2611 264.295 52.7188C264.295 50.1765 262.227 48.109 259.685 48.109H249.949L246.678 54.104C246.146 55.0799 245.36 55.8943 244.404 56.4617C243.448 57.0292 242.357 57.3286 241.246 57.3286C240.134 57.3286 239.043 57.0292 238.087 56.4617C237.131 55.8943 236.345 55.0799 235.813 54.104L226.257 36.5845H206.672C205.402 36.5845 204.367 37.6194 204.367 38.8894ZM292.721 82.6825H282.734C280.191 82.6825 278.124 84.75 278.124 87.2923C278.124 89.8346 280.191 91.9021 282.734 91.9021H289.649C294.733 91.9021 298.868 96.0371 298.868 101.122C298.868 103.664 300.936 105.732 303.478 105.732H305.559C310.239 96.4354 312.683 86.1752 312.698 75.7678C312.698 65.1284 310.158 54.6779 305.338 45.2878L304.301 47.1893C303.768 48.1652 302.983 48.9796 302.027 49.547C301.071 50.1145 299.98 50.4139 298.868 50.4139C297.756 50.4139 296.665 50.1145 295.709 49.547C294.753 48.9796 293.968 48.1652 293.435 47.1893L290.165 41.1943H282.734C280.191 41.1943 278.124 43.2618 278.124 45.8041C278.124 48.3464 280.191 50.4139 282.734 50.4139C287.818 50.4139 291.953 54.5489 291.953 59.6335C291.953 61.7978 292.988 63.8676 294.719 65.1652L297.792 67.4701C298.84 68.2589 299.69 69.2798 300.277 70.4528C300.864 71.6258 301.17 72.9189 301.173 74.2304C301.171 76.4713 300.279 78.6197 298.695 80.2042C297.11 81.7888 294.962 82.6801 292.721 82.6825Z" fill="#7D8EA0"/>
<path d="M312.703 128.707C312.638 128.707 311.301 126.259 298.77 123.723C297.383 125.268 295.929 126.75 294.411 128.165L293.749 128.78H222.079L221.323 130.166C220.79 131.142 220.005 131.956 219.049 132.524C218.093 133.091 217.002 133.391 215.891 133.391C214.779 133.392 213.688 133.092 212.732 132.525C211.776 131.958 210.99 131.144 210.457 130.168L209.701 128.78H197.958L197.294 128.165C195.777 126.749 194.323 125.267 192.935 123.723C180.086 126.321 179.009 128.836 179 128.861C180.182 132.037 203.536 138 245.854 138C288.155 138 311.504 132.044 312.703 128.707Z" fill="#7D8EA0"/>
<path fill-rule="evenodd" clip-rule="evenodd" d="M297.481 51.6654C298.034 52.6795 299.696 52.6795 300.254 51.6654L311.009 31.9469C312.114 29.9147 312.694 27.6384 312.696 25.325V24.8294C312.696 17.2025 306.493 11 298.866 11C291.24 11 285.037 17.2025 285.037 24.8294V25.325C285.037 27.6299 285.62 29.9209 286.724 31.9492L297.481 51.6654ZM303.756 19.94C302.459 18.6432 300.7 17.9147 298.866 17.9147C297.033 17.9147 295.274 18.6432 293.977 19.94C292.68 21.2367 291.952 22.9955 291.952 24.8294C291.952 26.6633 292.68 28.4221 293.977 29.7188C295.274 31.0156 297.033 31.7441 298.866 31.7441C300.7 31.7441 302.459 31.0156 303.756 29.7188C305.053 28.4221 305.781 26.6633 305.781 24.8294C305.781 22.9955 305.053 21.2367 303.756 19.94Z" fill="#EE7828"/>
<path d="M207.187 124.171L199.701 110.447C198.227 107.737 197.454 104.702 197.451 101.617V101.122C197.451 92.6512 203.202 85.5129 210.999 83.3624C209.741 79.8567 208.266 77.1945 207.148 75.5166C206.673 74.8083 206.063 74.2014 205.352 73.7309C204.64 73.2605 203.843 72.9359 203.006 72.776L201.823 72.5386C199.293 72.0272 197.018 70.6579 195.381 68.6621C193.745 66.6664 192.847 64.1667 192.841 61.5857C192.839 59.8459 192.147 58.1779 190.917 56.9477C189.687 55.7175 188.019 55.0255 186.279 55.0237H182.352C180.147 61.718 179.02 68.7199 179.012 75.7678C179.012 93.9996 186.567 111.588 199.774 124.171H207.187Z" fill="#7D8EA0"/>
<path d="M229.719 101.121C229.719 93.4945 223.517 87.292 215.89 87.292C208.263 87.292 202.061 93.4945 202.061 101.121V101.617C202.061 103.924 202.644 106.215 203.748 108.241L214.505 127.96C215.058 128.972 216.72 128.974 217.277 127.957L228.032 108.241C229.138 106.208 229.718 103.931 229.719 101.617V101.121ZM215.89 108.036C214.056 108.036 212.297 107.308 211.001 106.011C209.704 104.714 208.975 102.955 208.975 101.121C208.975 99.2875 209.704 97.5287 211.001 96.232C212.297 94.9352 214.056 94.2067 215.89 94.2067C217.724 94.2067 219.483 94.9352 220.779 96.232C222.076 97.5287 222.805 99.2875 222.805 101.121C222.805 102.955 222.076 104.714 220.779 106.011C219.483 107.308 217.724 108.036 215.89 108.036Z" fill="#EE7828"/>
<path d="M264.293 110.341H248.158C243.074 110.341 238.939 114.476 238.939 119.561C238.948 121.184 239.391 122.776 240.223 124.17H224.593L232.077 110.447C233.552 107.737 234.326 104.702 234.329 101.617V101.121C234.329 98.6759 233.84 96.3433 232.971 94.2066H243.549C246.091 94.2066 248.158 96.2741 248.158 98.8165C248.158 102.629 251.261 105.731 255.073 105.731H264.293C264.886 105.758 265.447 106.012 265.857 106.441C266.268 106.871 266.497 107.442 266.497 108.036C266.497 108.63 266.268 109.201 265.857 109.631C265.447 110.06 264.886 110.314 264.293 110.341Z" fill="#7D8EA0"/>
</svg>
