<svg width="40" height="40" viewBox="0 0 40 40" fill="none" xmlns="http://www.w3.org/2000/svg">
<path fill-rule="evenodd" clip-rule="evenodd" d="M32.266 17.1676C30.4279 15.3436 27.9289 14.2209 25.1807 14.2209C22.0153 14.2209 19.1812 15.7103 17.3048 18.045V4.15779C17.3048 1.86578 19.1163 0 21.3435 0H32.266V17.1676ZM29.485 3.01339H20.0858V5.42603H29.485V3.01339ZM29.485 8.43942H20.0858V10.8521H29.485V8.43942ZM0 0H10.9225C13.1497 0 14.9612 1.86578 14.9612 4.15779V24.8574C13.8121 23.8675 12.3318 23.2699 10.7186 23.2699H0V0ZM2.78101 16.2781H12.1802V13.8655H2.78101V16.2781ZM2.78101 10.8521H12.1802V8.43942H2.78101V10.8521ZM2.78101 5.42603H12.1802V3.01339H2.78101V5.42603ZM10.7186 25.6826C11.3147 25.6826 11.8826 25.8088 12.3982 26.0364C13.5715 26.5543 14.4753 27.5974 14.83 28.8769H0V25.6826H10.7186Z" fill="#7D8EA0"/>
<path d="M39.549 37.2817L33.4143 30.9671C32.7995 31.8265 32.062 32.5854 31.227 33.2181L37.3617 39.5335C37.6538 39.8343 38.0421 40 38.4553 40C39.8221 40.0059 40.5172 38.2751 39.549 37.2817Z" fill="#EE7828"/>
<path d="M25.1796 32.8268C29.5127 32.8268 33.0253 29.2106 33.0253 24.7498C33.0253 20.289 29.5127 16.6729 25.1796 16.6729C20.8466 16.6729 17.334 20.289 17.334 24.7498C17.334 29.2106 20.8466 32.8268 25.1796 32.8268Z" fill="#EE7828"/>
</svg>
