<svg width="40" height="40" viewBox="0 0 40 40" fill="none" xmlns="http://www.w3.org/2000/svg">
<path d="M5.52111 15.9325C5.52111 16.914 6.18446 17.7663 7.09951 17.9594L7.45325 18.0342C7.8816 18.1213 8.28924 18.2972 8.65252 18.5516C9.0158 18.8059 9.32749 19.1337 9.56951 19.5158C9.97773 20.1612 10.5308 21.1928 10.9728 22.5815C10.9948 22.5801 11.0155 22.5772 11.0376 22.5772C11.8635 22.5774 12.6788 22.7733 13.423 23.1503C14.1673 23.5273 14.8214 24.0757 15.337 24.755H19.3123C20.8335 24.755 22.0705 26.0574 22.0705 27.6588C22.0705 28.0596 22.3802 28.3848 22.7601 28.3848H25.5183C26.6589 28.3848 27.587 29.3619 27.587 30.5626C27.587 31.7634 26.6589 32.7405 25.5183 32.7405H20.6914C19.9308 32.7405 19.3123 33.3917 19.3123 34.1924C19.3123 34.9931 19.9308 35.6443 20.6914 35.6443H33.7875C35.0749 34.3501 36.1922 32.8806 37.1098 31.2748C35.6507 31.2008 34.4826 29.9391 34.4826 28.3848C34.4826 27.5841 33.8641 26.9329 33.1035 26.9329H31.0348C29.5137 26.9329 28.2766 25.6305 28.2766 24.0291C28.2766 22.4276 29.5137 21.1253 31.0348 21.1253H34.0227C34.3274 21.1247 34.6194 20.997 34.8349 20.7702C35.0504 20.5434 35.1716 20.2359 35.1722 19.9151C35.1722 19.5369 35.0005 19.1746 34.7122 18.9474L33.7931 18.2214C33.3658 17.8824 33.019 17.4438 32.7797 16.94C32.5405 16.4362 32.4153 15.8809 32.4139 15.3176C32.4139 14.5169 31.7954 13.8657 31.0348 13.8657C29.5137 13.8657 28.2766 12.5634 28.2766 10.9619C28.2766 9.36047 29.5137 8.05811 31.0348 8.05811H32.5057L31.0183 5.18769C31.0128 5.1768 31.0093 5.16519 31.0038 5.1543H24.1054C24.0347 5.92869 23.8174 6.68032 23.4662 7.36482L21.9788 10.236H24.1392C25.6604 10.236 26.8975 11.5383 26.8975 13.1398C26.8975 14.7412 25.6604 16.0436 24.1392 16.0436H23.4497C23.0697 16.0436 22.7601 16.3695 22.7601 16.7695C22.7601 17.9703 21.832 18.9474 20.6914 18.9474H16.5541C15.4135 18.9474 14.4854 17.9703 14.4854 16.7695V16.0436C14.4854 15.2429 13.8669 14.5917 13.1063 14.5917C11.5851 14.5917 10.348 13.2893 10.348 11.6879C10.348 11.2879 10.0384 10.9619 9.65847 10.9619H8.27935C7.13881 10.9619 6.21067 9.98479 6.21067 8.78406C6.21067 7.58334 7.13881 6.6062 8.27935 6.6062H13.4573C13.2929 6.13852 13.1863 5.65056 13.1401 5.1543H6.21618C4.18179 7.1998 2.57921 9.67328 1.5127 12.4138H2.17881C3.06496 12.4148 3.91456 12.7858 4.54116 13.4455C5.16777 14.1052 5.52019 14.9996 5.52111 15.9325Z" fill="#7D8EA0"/>
<path d="M18.2073 12.8806C18.3728 13.2 18.87 13.2 19.0369 12.8806L22.2543 6.67009C22.585 6.03001 22.7585 5.31307 22.7591 4.58443V4.42835C22.7591 2.02617 20.9035 0.0726318 18.6217 0.0726318C16.34 0.0726318 14.4844 2.02617 14.4844 4.42835V4.58443C14.4844 5.31038 14.6588 6.03198 14.9891 6.67082L18.2073 12.8806ZM18.6217 2.25049C19.1704 2.25049 19.6966 2.47994 20.0845 2.88837C20.4725 3.2968 20.6904 3.85074 20.6904 4.42835C20.6904 5.00595 20.4725 5.5599 20.0845 5.96833C19.6966 6.37676 19.1704 6.60621 18.6217 6.60621C18.0731 6.60621 17.5469 6.37676 17.159 5.96833C16.771 5.5599 16.5531 5.00595 16.5531 4.42835C16.5531 3.85074 16.771 3.2968 17.159 2.88837C17.5469 2.47994 18.0731 2.25049 18.6217 2.25049Z" fill="#EE7828"/>
<path d="M7.59082 8.78394C7.59082 9.18394 7.90043 9.50989 8.28038 9.50989H9.6595C10.8 9.50989 11.7282 10.487 11.7282 11.6877C11.7282 12.4885 12.3467 13.1397 13.1073 13.1397C14.6285 13.1397 15.8655 14.442 15.8655 16.0435V16.7694C15.8655 17.1694 16.1752 17.4954 16.5551 17.4954H20.6925C21.0724 17.4954 21.382 17.1694 21.382 16.7694C21.382 15.5687 22.3102 14.5916 23.4507 14.5916H24.1403C24.9008 14.5916 25.5194 13.9404 25.5194 13.1397C25.5194 12.3389 24.9008 11.6877 24.1403 11.6877H21.2276L20.2491 13.576C20.0898 13.8833 19.8548 14.1398 19.5688 14.3185C19.2828 14.4973 18.9564 14.5916 18.6238 14.5916C18.2912 14.5916 17.9648 14.4973 17.6788 14.3185C17.3928 14.1398 17.1578 13.8833 16.9985 13.576L14.1396 8.05798H8.28038C7.90043 8.05798 7.59082 8.38394 7.59082 8.78394ZM34.0237 22.577H31.0359C30.2753 22.577 29.6567 23.2282 29.6567 24.029C29.6567 24.8297 30.2753 25.4809 31.0359 25.4809H33.1045C34.6257 25.4809 35.8628 26.7832 35.8628 28.3847C35.8628 29.1854 36.4813 29.8366 37.2419 29.8366H37.8646C39.2645 26.9087 39.9957 23.6771 40.0001 20.3992C40.0001 17.0482 39.2402 13.7567 37.7984 10.7992L37.4881 11.3981C37.3288 11.7055 37.0938 11.962 36.8078 12.1407C36.5218 12.3194 36.1954 12.4137 35.8628 12.4137C35.5302 12.4137 35.2038 12.3194 34.9178 12.1407C34.6318 11.962 34.3968 11.7055 34.2375 11.3981L33.259 9.50989H31.0359C30.2753 9.50989 29.6567 10.1611 29.6567 10.9618C29.6567 11.7625 30.2753 12.4137 31.0359 12.4137C32.557 12.4137 33.7941 13.7161 33.7941 15.3175C33.7941 15.9992 34.1037 16.6511 34.6216 17.0598L35.5408 17.7858C35.8543 18.0342 36.1088 18.3557 36.2843 18.7252C36.4598 19.0946 36.5516 19.5019 36.5523 19.915C36.5516 20.6208 36.285 21.2974 35.8109 21.7965C35.3369 22.2956 34.6941 22.5763 34.0237 22.577Z" fill="#7D8EA0"/>
<path d="M40 37.073C39.9807 37.073 39.5807 36.302 35.8316 35.5034C35.4169 35.9898 34.9818 36.4566 34.5277 36.9024L34.3298 37.0962H12.8879L12.6617 37.5325C12.5025 37.8399 12.2675 38.0965 11.9816 38.2752C11.6956 38.454 11.3692 38.5484 11.0366 38.5485C10.704 38.5485 10.3776 38.4543 10.0915 38.2756C9.80551 38.097 9.57047 37.8405 9.41112 37.5332L9.18494 37.0962H5.67163L5.47304 36.9024C5.01926 36.4563 4.58419 35.9895 4.16908 35.5034C0.324783 36.3216 0.00275824 37.1136 0 37.1216C0.353744 38.122 7.34037 40 20.0007 40C32.6562 40 39.6414 38.1241 40 37.073Z" fill="#7D8EA0"/>
<path fill-rule="evenodd" clip-rule="evenodd" d="M35.4462 12.808C35.6117 13.1274 36.1088 13.1274 36.2757 12.808L39.4932 6.59746C39.8239 5.95738 39.9974 5.24044 39.998 4.5118V4.35572C39.998 1.95354 38.1423 0 35.8606 0C33.5788 0 31.7232 1.95354 31.7232 4.35572V4.5118C31.7232 5.23775 31.8977 5.95935 32.228 6.59819L35.4462 12.808ZM37.3234 2.81574C36.9354 2.40731 36.4092 2.17786 35.8606 2.17786C35.3119 2.17786 34.7858 2.40731 34.3978 2.81574C34.0099 3.22417 33.7919 3.77811 33.7919 4.35572C33.7919 4.93332 34.0099 5.48727 34.3978 5.8957C34.7858 6.30412 35.3119 6.53358 35.8606 6.53358C36.4092 6.53358 36.9354 6.30412 37.3234 5.8957C37.7113 5.48727 37.9293 4.93332 37.9293 4.35572C37.9293 3.77811 37.7113 3.22417 37.3234 2.81574Z" fill="#EE7828"/>
<path d="M8.43407 35.6442L6.19437 31.3219C5.75361 30.4683 5.52228 29.5123 5.52136 28.5407V28.3847C5.52136 25.7168 7.24182 23.4685 9.5746 22.7912C9.1981 21.687 8.75678 20.8485 8.42234 20.32C8.28035 20.097 8.0977 19.9058 7.88499 19.7577C7.67228 19.6095 7.43374 19.5073 7.1832 19.4569L6.82946 19.3821C6.07261 19.221 5.39181 18.7898 4.90217 18.1612C4.41253 17.5326 4.14409 16.7453 4.14224 15.9324C4.1417 15.3844 3.93469 14.8591 3.56664 14.4716C3.19859 14.0841 2.69956 13.8662 2.17907 13.8656H1.00406C0.344564 15.974 0.00730618 18.1794 0.00488281 20.3992C0.00488281 26.1415 2.26526 31.6812 6.21644 35.6442H8.43407Z" fill="#7D8EA0"/>
<path d="M15.1741 28.3848C15.1741 25.9826 13.3185 24.0291 11.0368 24.0291C8.75502 24.0291 6.89941 25.9826 6.89941 28.3848V28.5409C6.89941 29.2675 7.07387 29.9891 7.40417 30.6272L10.6223 36.8378C10.7878 37.1565 11.285 37.1572 11.4519 36.837L14.6694 30.6272C15.0002 29.9869 15.1737 29.2697 15.1741 28.5409V28.3848ZM11.0368 30.5626C10.4881 30.5626 9.96195 30.3332 9.574 29.9247C9.18604 29.5163 8.96809 28.9624 8.96809 28.3848C8.96809 27.8072 9.18604 27.2532 9.574 26.8448C9.96195 26.4364 10.4881 26.2069 11.0368 26.2069C11.5854 26.2069 12.1116 26.4364 12.4996 26.8448C12.8875 27.2532 13.1055 27.8072 13.1055 28.3848C13.1055 28.9624 12.8875 29.5163 12.4996 29.9247C12.1116 30.3332 11.5854 30.5626 11.0368 30.5626Z" fill="#EE7828"/>
<path d="M25.5175 31.2886H20.6906C19.1694 31.2886 17.9324 32.5909 17.9324 34.1924C17.9351 34.7037 18.0677 35.205 18.3164 35.6443H13.6405L15.8795 31.322C16.3208 30.4686 16.5524 29.5125 16.5532 28.5408V28.3848C16.5532 27.6145 16.407 26.8799 16.1471 26.2069H19.3115C20.0721 26.2069 20.6906 26.8581 20.6906 27.6588C20.6906 28.8595 21.6187 29.8367 22.7593 29.8367H25.5175C25.6951 29.845 25.8627 29.9252 25.9855 30.0604C26.1084 30.1956 26.1769 30.3755 26.1769 30.5626C26.1769 30.7497 26.1084 30.9296 25.9855 31.0648C25.8627 31.2001 25.6951 31.2802 25.5175 31.2886Z" fill="#7D8EA0"/>
</svg>
