<svg width="447" height="188" viewBox="0 0 447 188" fill="none" xmlns="http://www.w3.org/2000/svg">
<path d="M304.363 275.473C301.826 258.874 302.249 240.495 291.825 227.338C270.37 200.257 222.236 194.658 213.79 161.148C207.065 134.47 240.251 113.756 257.878 92.6602C275.402 71.6873 289.821 38.6313 317.116 37.487C348.655 36.1647 365.127 84.4486 396.605 86.8438C425.203 89.0199 444.806 43.2583 472.839 49.3365C497.866 54.7631 511.362 87.1269 514.965 112.508C518.564 137.863 486.913 159.725 492.068 184.81L455.5 197C455.5 197 453.342 214.257 446.5 223C437.5 234.5 404.5 229.5 404.5 229.5L304.363 275.473Z" fill="#EEF2F6"/>
<path d="M111.363 328.473C108.826 311.874 109.249 293.495 98.8247 280.338C77.3703 253.257 29.236 247.658 20.7895 214.148C14.0651 187.47 47.2509 166.756 64.8779 145.66C82.402 124.687 96.8214 91.6313 124.116 90.487C155.655 89.1647 172.127 137.449 203.605 139.844C232.203 142.02 251.806 96.2583 279.839 102.337C304.866 107.763 318.362 140.127 321.965 165.508C325.564 190.863 293.913 212.725 299.068 237.81L243.5 246C243.5 246 246.842 262.257 240 271C231 282.5 212 279 212 279L111.363 328.473Z" fill="#EEF2F6"/>
<path d="M309.337 117.409C330.22 96.526 330.219 62.546 309.337 41.6626C288.453 20.7791 254.474 20.7791 233.591 41.6626C215.874 59.3793 213.191 85.7286 225.534 106.305C225.534 106.305 226.421 107.792 225.223 108.989L197.897 136.315C192.458 141.754 191.163 149.359 195.986 154.183L196.817 155.013C201.64 159.837 209.246 158.543 214.684 153.104L241.953 125.834C243.208 124.58 244.695 125.466 244.695 125.466C265.271 137.809 291.62 135.126 309.337 117.409ZM243.479 107.521C228.048 92.09 228.049 66.9828 243.479 51.5521C258.91 36.1218 284.017 36.1214 299.448 51.5521C314.878 66.9824 314.878 92.09 299.448 107.521C284.017 122.951 258.91 122.951 243.479 107.521Z" fill="#7D8EA0"/>
<path d="M243.479 107.521C228.048 92.09 228.049 66.9828 243.479 51.5521C258.91 36.1218 284.017 36.1214 299.448 51.5521C314.878 66.9824 314.878 92.09 299.448 107.521C284.017 122.951 258.91 122.951 243.479 107.521Z" fill="white"/>
<path d="M253.389 84.2476L250.671 87.2307V94.4795H244.047V66.9941H250.671V79.1117L252.975 75.619L258.901 66.9922H267.093L257.806 79.1479L267.093 94.4757H259.241L253.389 84.2457V84.2476ZM277.476 66.996L283.61 86.118L289.725 66.996H298.445V94.4795H291.801L292.443 74.9242L285.799 94.4795H281.421L274.758 74.9051L275.399 94.4795H268.774V66.9941H277.476V66.996Z" fill="#EE7828"/>
</svg>
