<svg width="224" height="145" viewBox="0 0 224 145" fill="none" xmlns="http://www.w3.org/2000/svg">
<path d="M227 0.0492865C211.755 -0.587859 181.22 4.82139 164.061 23.9423C135.529 55.736 123.843 92.2709 106.157 102.63C85.597 114.672 58.3235 115.691 47.8336 117.284C17.6229 121.872 0 138.947 0 145H207C218.046 145 227 136.046 227 125V0.0492865Z" fill="#EEF2F6"/>
<path d="M120.644 59.4148L89.666 47.0237V59.695C89.666 60.4984 89.976 61.2711 90.5314 61.8517C90.9529 62.2925 101.118 72.6453 124.122 72.6453C147.126 72.6453 157.291 62.2925 157.713 61.8517C158.268 61.271 158.578 60.4985 158.578 59.695V47.0237L127.599 59.4154C126.49 59.8595 125.319 60.0851 124.122 60.0851C122.925 60.0851 121.755 59.8595 120.644 59.4148Z" fill="#EE7828"/>
<path d="M75.962 34.8192L122.965 53.6205C123.337 53.7694 123.731 53.8437 124.124 53.8437C124.518 53.8437 124.911 53.7694 125.283 53.6205L168.007 36.5309V54.3942C168.007 60.943 170.557 67.1 175.188 71.7309C175.478 72.0212 175.822 72.2514 176.2 72.4082C176.579 72.5651 176.985 72.6456 177.395 72.645C178.193 72.645 178.992 72.3402 179.601 71.7309C180.82 70.5124 180.82 68.5367 179.601 67.3178C176.149 63.8657 174.248 59.276 174.248 54.3942V31.9221C174.248 31.2984 174.061 30.6891 173.712 30.1726C173.362 29.6562 172.866 29.2564 172.286 29.0247L125.283 10.2234C124.539 9.92552 123.709 9.92552 122.965 10.2234L75.962 29.0247C75.3828 29.2562 74.8864 29.656 74.5366 30.1724C74.1869 30.6889 74 31.2983 74 31.922C74 32.5457 74.1869 33.155 74.5366 33.6715C74.8864 34.1879 75.3828 34.5877 75.962 34.8192Z" fill="#EE7828"/>
<path d="M174.759 77.7398C176.257 77.4684 177.733 78.3196 178.25 79.7526C178.342 80.0091 180.515 86.1202 180.515 93.3447C180.515 100.569 178.342 106.68 178.25 106.937C177.733 108.37 176.257 109.221 174.759 108.95C174.561 108.914 157.266 105.827 136.645 105.027V81.6628C157.266 80.8631 174.561 77.7758 174.759 77.7398Z" fill="#7D8EA0"/>
<path d="M127.258 81.8509C128.31 81.8509 129.36 81.8427 130.404 81.8284V104.861C129.36 104.847 128.31 104.839 127.258 104.839C126.205 104.839 125.156 104.847 124.111 104.861V81.8284C125.156 81.8427 126.205 81.8509 127.258 81.8509Z" fill="#7D8EA0"/>
<path d="M79.7568 77.7398C79.9546 77.7756 97.2497 80.8629 117.87 81.6628L117.87 105.027C97.25 105.827 79.955 108.914 79.757 108.95C79.0176 109.084 78.2548 108.946 77.6087 108.563C76.9626 108.179 76.4765 107.575 76.2397 106.862C76.1482 106.587 74.0004 100.039 74.0004 93.3449C74.0004 86.6503 76.1482 80.1029 76.2397 79.8275C76.729 78.3533 78.2294 77.4646 79.7568 77.7398Z" fill="#7D8EA0"/>
</svg>
