<svg width="233" height="155" viewBox="0 0 233 155" fill="none" xmlns="http://www.w3.org/2000/svg">
<path d="M233 0.0526856C217.352 -0.628401 186.01 5.1539 168.397 25.5935C139.111 59.5799 127.117 98.6344 108.963 109.708C87.8595 122.58 59.8651 123.67 49.098 125.373C18.0887 130.277 0 148.53 0 155H213C224.046 155 233 146.046 233 135V0.0526856Z" fill="#EEF2F6"/>
<path fill-rule="evenodd" clip-rule="evenodd" d="M84.8963 76.052C84.2603 76.052 83.634 76.2076 83.072 76.5054C82.51 76.8032 82.0295 77.234 81.6723 77.7602C81.3152 78.2865 81.0923 78.8921 81.0231 79.5244C80.9539 80.1566 81.0406 80.7961 81.2755 81.3871L86.4703 94.4471C86.7969 95.2656 87.3899 95.9501 88.1535 96.3899L103.738 105.33C104.327 105.67 104.996 105.849 105.676 105.849C106.356 105.849 107.024 105.67 107.613 105.33L117.364 99.7354V106.421C117.364 107.564 117.863 108.65 118.736 109.388L139.515 127.071C140.549 127.954 141.967 128.229 143.256 127.803C143.891 127.597 144.462 127.23 144.914 126.737C145.366 126.245 145.682 125.644 145.832 124.993L150.643 104.489L162.819 97.5016L176.466 105.33C176.933 105.598 177.449 105.766 177.984 105.824C178.518 105.882 179.058 105.828 179.571 105.667C180.084 105.506 180.558 105.241 180.963 104.888C181.369 104.535 181.696 104.102 181.926 103.616L192.316 81.6105C192.596 81.0168 192.722 80.362 192.681 79.7068C192.64 79.0516 192.435 78.4173 192.083 77.8628C191.732 77.3083 191.246 76.8515 190.671 76.535C190.096 76.2184 189.45 76.0523 188.794 76.052H84.8963Z" fill="#7D8EA0"/>
<path fill-rule="evenodd" clip-rule="evenodd" d="M136.844 14C130.989 14.0028 125.375 16.3297 121.235 20.4696C117.095 24.6095 114.768 30.2236 114.766 36.0782C114.766 50.3018 124.787 62.5721 130.553 68.328L130.594 68.3696C132.271 69.9907 134.513 70.8965 136.845 70.8955C139.177 70.8946 141.418 69.9869 143.093 68.3644L143.13 68.3228C148.901 62.5721 158.922 50.3018 158.922 36.0782C158.919 30.2236 156.592 24.6095 152.452 20.4696C148.313 16.3297 142.699 14.0028 136.844 14ZM140.517 32.4049C139.543 31.4307 138.222 30.8833 136.844 30.8833C135.466 30.8833 134.145 31.4307 133.171 32.4049C132.196 33.3791 131.649 34.7005 131.649 36.0782C131.649 37.456 132.196 38.7773 133.171 39.7515C134.145 40.7258 135.466 41.2731 136.844 41.2731C138.222 41.2731 139.543 40.7258 140.517 39.7515C141.491 38.7773 142.039 37.456 142.039 36.0782C142.039 34.7005 141.491 33.3791 140.517 32.4049Z" fill="#EE7828"/>
</svg>
