<svg width="216" height="189" viewBox="0 0 216 189" fill="none" xmlns="http://www.w3.org/2000/svg">
<path fill-rule="evenodd" clip-rule="evenodd" d="M282.46 261.493C259.493 294.208 213.423 295.403 173.443 294.825C139.427 294.333 108.515 281.61 83.4392 258.614C55.3934 232.895 21.9696 200.888 30.6136 163.845C38.9943 127.929 87.287 125.701 118.89 106.688C151.057 87.337 175.891 45.5332 212.353 54.5101C250.664 63.9422 265.357 108.5 278.013 145.864C291.033 184.305 305.772 228.284 282.46 261.493Z" fill="#EEF2F6"/>
<path d="M80.5745 128.46L83.6741 126.845C80.5715 120.156 79 113.223 79 106.195C79 78.8242 101.41 56 129 56C156.648 56 179 78.8828 179 106.195C179 133.701 156.469 156 129 156C127.383 156 126.07 154.688 126.07 153.07V147.205C126.07 145.59 127.379 144.281 128.994 144.281H129C150.01 144.281 167.281 127.23 167.281 106.195C167.281 85.1406 149.996 67.7188 129 67.7188C108.025 67.7188 90.7188 85.123 90.7188 106.195C90.7188 111.326 91.8498 116.437 94.0811 121.423L94.3491 121.283C95.9901 120.429 98.0161 121.298 98.5225 123.086C99.8858 127.896 101.607 133.278 103.21 138.035C103.935 140.184 102.035 142.308 99.8188 141.833C95.4059 140.887 89.711 141.256 80.0684 133.321C78.4467 131.986 78.7153 129.429 80.5745 128.46Z" fill="#EE7828"/>
<path d="M129 73.5781C109.522 73.5781 94.9417 90.4609 96.7073 108.906C96.8304 110.549 97.2816 113.012 98.0452 115.416C100.946 116.227 103.313 118.5 104.16 121.488C104.909 124.127 105.739 126.848 106.543 129.383C112.701 135.301 120.76 138.422 129 138.422C146.434 138.422 161.422 124.471 161.422 106C161.422 88.0723 146.887 73.5781 129 73.5781ZM142.791 119.986C141.654 121.124 139.795 121.135 138.647 119.986L126.928 108.268C126.379 107.718 126.071 106.972 126.071 106.195V88.6172C126.071 87 127.383 85.6875 129 85.6875C130.617 85.6875 131.93 87 131.93 88.6172V104.982L142.791 115.842C143.934 116.986 143.934 118.842 142.791 119.986Z" fill="#7D8EA0"/>
</svg>
