<svg width="40" height="40" viewBox="0 0 40 40" fill="none" xmlns="http://www.w3.org/2000/svg">
<path d="M0.629784 28.9841L1.86963 28.3379C0.628612 25.6624 1.78923e-05 22.8891 1.78923e-05 20.0781C1.78923e-05 9.12969 8.96408 0 20 0C31.0594 0 40 9.15313 40 20.0781C40 31.0805 30.9875 40 20 40C19.3531 40 18.8281 39.475 18.8281 38.8281V36.4821C18.8281 35.8362 19.3517 35.3124 19.9977 35.3125H20C28.4039 35.3125 35.3125 28.4922 35.3125 20.0781C35.3125 11.6562 28.3985 4.6875 20 4.6875C11.6102 4.6875 4.68752 11.6492 4.68752 20.0781C4.68752 22.1304 5.13994 24.1748 6.03244 26.1691L6.13963 26.1134C6.79603 25.7715 7.60642 26.1194 7.809 26.8343C8.35432 28.7584 9.04283 30.9111 9.68416 32.8141C9.97385 33.6737 9.21385 34.5232 8.32752 34.3332C6.56236 33.9547 4.28439 34.1024 0.427362 30.9282C-0.22131 30.3944 -0.113888 29.3718 0.629784 28.9841Z" fill="#EE7828"/>
<path d="M20.0005 7.03125C12.2091 7.03125 6.3771 13.7844 7.08335 21.1625C7.13257 21.8195 7.31304 22.8047 7.61851 23.7664C8.77866 24.0906 9.72554 25 10.0646 26.1953C10.3638 27.2508 10.6958 28.3391 11.0177 29.3531C13.481 31.7203 16.7044 32.9687 20.0005 32.9687C26.974 32.9687 32.9693 27.3883 32.9693 20C32.9693 12.8289 27.1552 7.03125 20.0005 7.03125ZM25.5169 25.5945C25.0619 26.0496 24.3186 26.0541 23.8591 25.5945L19.1716 20.907C18.9521 20.687 18.8288 20.3889 18.8287 20.0781V13.0469C18.8287 12.4 19.3537 11.875 20.0005 11.875C20.6474 11.875 21.1724 12.4 21.1724 13.0469V19.593L25.5169 23.9367C25.974 24.3945 25.974 25.1367 25.5169 25.5945Z" fill="#7D8EA0"/>
</svg>
