<svg width="407" height="225" viewBox="0 0 407 225" fill="none" xmlns="http://www.w3.org/2000/svg">
<path fill-rule="evenodd" clip-rule="evenodd" d="M221.037 128.53C165.834 140.936 88.8239 107.355 56.0695 153.496C29.212 191.33 85.3031 241.699 116.046 276.431C140.226 303.748 188.377 298.935 210.488 327.952C238.238 364.37 209.268 442.446 252.967 456.121C295.657 469.48 316.574 394.997 355.765 373.413C382.692 358.584 420.466 371.335 443.628 351.121C466.974 330.746 476.771 297.497 478.213 266.549C479.546 237.955 457.719 214.446 451.296 186.553C444.563 157.314 456.061 123.926 439.594 98.8463C422.517 72.838 392.894 49.5092 361.784 50.2263C329.8 50.9635 311.16 86.8954 283.199 102.451C263.223 113.565 243.34 123.518 221.037 128.53Z" fill="#EEF2F6"/>
<path fill-rule="evenodd" clip-rule="evenodd" d="M312.291 103.772C304.754 96.5081 294.508 92.0369 283.241 92.0369C270.263 92.0369 258.643 97.9686 250.95 107.266V51.9596C250.95 42.8315 258.377 35.4009 267.508 35.4009H312.291V103.772ZM300.888 47.402H262.352V57.0105H300.888V47.402ZM300.888 69.0116H262.352V78.6202H300.888V69.0116ZM180 35.4009H224.782C233.914 35.4009 241.341 42.8315 241.341 51.9596V134.398C236.63 130.455 230.56 128.075 223.946 128.075H180V35.4009ZM191.402 100.23H229.939V90.6212H191.402V100.23ZM191.402 78.6202H229.939V69.0116H191.402V78.6202ZM191.402 57.0105H229.939V47.402H191.402V57.0105ZM223.946 137.684C226.39 137.684 228.719 138.187 230.832 139.093C235.643 141.156 239.349 145.31 240.803 150.406H180V137.684H223.946Z" fill="#7D8EA0"/>
<path d="M342.151 183.879L316.999 158.73C314.478 162.153 311.454 165.175 308.031 167.695L333.183 192.847C334.381 194.045 335.972 194.704 337.667 194.704C343.271 194.728 346.12 187.835 342.151 183.879Z" fill="#EE7828"/>
<path d="M283.238 166.136C301.003 166.136 315.405 151.735 315.405 133.969C315.405 116.204 301.003 101.802 283.238 101.802C265.472 101.802 251.07 116.204 251.07 133.969C251.07 151.735 265.472 166.136 283.238 166.136Z" fill="#EE7828"/>
</svg>
