<svg width="40" height="40" viewBox="0 0 40 40" fill="none" xmlns="http://www.w3.org/2000/svg">
<path d="M35.2539 27.6999C41.5821 21.3716 41.582 11.0746 35.2539 4.74624C28.9255 -1.58208 18.6286 -1.58208 12.3003 4.74624C6.93159 10.115 6.11849 18.0996 9.85886 24.3348C9.85886 24.3348 10.1275 24.7855 9.76467 25.1481L1.48384 33.4289C-0.164383 35.077 -0.556756 37.3816 0.904884 38.8435L1.15654 39.0949C2.61818 40.5568 4.92294 40.1645 6.57104 38.5163L14.8345 30.2529C15.2147 29.8727 15.6653 30.1413 15.6653 30.1413C21.9004 33.8815 29.8851 33.0686 35.2539 27.6999ZM15.2968 24.7033C10.6208 20.0273 10.6209 12.4191 15.2969 7.74308C19.9729 3.06723 27.5813 3.0671 32.2571 7.74308C36.9332 12.4189 36.9332 20.0273 32.2571 24.7033C27.5811 29.379 19.9729 29.379 15.2968 24.7033Z" fill="#7D8EA0"/>
<path d="M15.2968 24.7033C10.6208 20.0273 10.6209 12.4191 15.2969 7.74308C19.9729 3.06723 27.5813 3.0671 32.2571 7.74308C36.9332 12.4189 36.9332 20.0273 32.2571 24.7033C27.5811 29.379 19.9729 29.379 15.2968 24.7033Z" fill="white"/>
<path d="M18.2998 17.6508L17.4762 18.5548V20.7514H15.4688V12.4225H17.4762V16.0944L18.1743 15.0361L19.9701 12.4219H22.4525L19.6382 16.1054L22.4525 20.7502H20.0731L18.2998 17.6502V17.6508ZM25.5987 12.423L27.4576 18.2176L29.3107 12.423H31.9532V20.7514H29.9399L30.1343 14.8255L28.121 20.7514H26.7942L24.7752 14.8197L24.9695 20.7514H22.962V12.4225H25.5987V12.423Z" fill="#EE7828"/>
</svg>
