<svg width="40" height="40" viewBox="0 0 40 40" fill="none" xmlns="http://www.w3.org/2000/svg">
<path d="M17.516 19.9655L5.88281 14.959V20.0787C5.88281 20.4033 5.99922 20.7155 6.20781 20.9501C6.36609 21.1282 10.1835 25.3111 18.8222 25.3111C27.4609 25.3111 31.2783 21.1282 31.4366 20.9501C31.6452 20.7155 31.7616 20.4034 31.7616 20.0787V14.959L20.1279 19.9657C19.7113 20.1452 19.2718 20.2363 18.8223 20.2363C18.3728 20.2363 17.9332 20.1452 17.516 19.9655Z" fill="#EE7828"/>
<path d="M0.736786 10.028L18.3881 17.6244C18.5278 17.6846 18.6755 17.7146 18.8233 17.7146C18.9712 17.7146 19.1189 17.6846 19.2586 17.6244L35.3028 10.7196V17.937C35.3028 20.583 36.2605 23.0707 37.9995 24.9418C38.1082 25.0591 38.2374 25.1521 38.3796 25.2155C38.5218 25.2788 38.6742 25.3113 38.8282 25.3111C39.128 25.3111 39.428 25.188 39.6568 24.9418C40.1144 24.4495 40.1144 23.6512 39.6568 23.1587C38.3604 21.7639 37.6465 19.9095 37.6465 17.937V8.8574C37.6465 8.60542 37.5763 8.35921 37.445 8.15055C37.3137 7.94189 37.1273 7.78035 36.9098 7.68676L19.2585 0.090274C18.9791 -0.0300913 18.6674 -0.0300913 18.388 0.090274L0.736786 7.68676C0.519299 7.7803 0.332859 7.94182 0.201527 8.15048C0.0701954 8.35914 0 8.60536 0 8.85736C0 9.10936 0.0701954 9.35557 0.201527 9.56423C0.332859 9.77289 0.519299 9.93441 0.736786 10.028Z" fill="#EE7828"/>
<path d="M37.8383 27.3696C38.4009 27.2599 38.9553 27.6039 39.1493 28.1829C39.184 28.2865 40 30.7556 40 33.6746C40 36.5936 39.184 39.0628 39.1493 39.1664C38.9553 39.7455 38.401 40.0895 37.8383 39.9797C37.764 39.9652 31.2691 38.7178 23.5254 38.3946V28.9547C31.2691 28.6316 37.7639 27.3842 37.8383 27.3696Z" fill="#7D8EA0"/>
<path d="M20.0001 29.0306C20.3954 29.0306 20.7894 29.0274 21.1817 29.0216V38.3278C20.7894 38.322 20.3954 38.3188 20.0001 38.3188C19.6047 38.3188 19.2108 38.322 18.8184 38.3278V29.0216C19.2108 29.0274 19.6047 29.0306 20.0001 29.0306Z" fill="#7D8EA0"/>
<path d="M2.16186 27.3696C2.23616 27.3841 8.73105 28.6315 16.4747 28.9547L16.4748 38.3947C8.73113 38.7178 2.23631 39.9652 2.16194 39.9798C1.88428 40.0338 1.59784 39.9782 1.3552 39.8232C1.11256 39.6683 0.930018 39.4244 0.841086 39.1363C0.806711 39.0249 0.000152587 36.3796 0.000152587 33.6747C0.000152587 30.9698 0.806711 28.3244 0.841086 28.2131C1.02484 27.6175 1.58827 27.2584 2.16186 27.3696Z" fill="#7D8EA0"/>
</svg>
