<svg width="40" height="40" viewBox="0 0 40 40" fill="none" xmlns="http://www.w3.org/2000/svg">
<path fill-rule="evenodd" clip-rule="evenodd" d="M20 36.6666C28.0603 36.6666 34.5944 30.1936 34.5944 22.2088C34.5944 14.224 28.0603 7.75106 20 7.75106C11.9397 7.75106 5.40556 14.224 5.40556 22.2088C5.40556 30.1936 11.9397 36.6666 20 36.6666ZM20 14.5783C20.6717 14.5783 21.2162 15.1178 21.2162 15.7832V21.7098L24.914 25.3729C25.389 25.8434 25.389 26.6063 24.914 27.0768C24.439 27.5473 23.669 27.5473 23.194 27.0768L19.14 23.0608C18.9119 22.8348 18.7838 22.5284 18.7838 22.2088V15.7832C18.7838 15.1178 19.3283 14.5783 20 14.5783Z" fill="#7D8EA0"/>
<path fill-rule="evenodd" clip-rule="evenodd" d="M13.7342 3.89968C14.0902 4.46394 13.917 5.20725 13.3474 5.55991L6.86095 9.57595C6.29136 9.92861 5.54102 9.75708 5.18503 9.19282C4.82903 8.62856 5.00219 7.88525 5.57178 7.53259L12.0582 3.51655C12.6278 3.16389 13.3782 3.33542 13.7342 3.89968Z" fill="#7D8EA0"/>
<path fill-rule="evenodd" clip-rule="evenodd" d="M26.2659 3.89968C26.6219 3.33542 27.3722 3.16389 27.9418 3.51655L34.4282 7.53259C34.9978 7.88525 35.171 8.62856 34.815 9.19282C34.459 9.75708 33.7086 9.92861 33.139 9.57595L26.6526 5.55991C26.083 5.20724 25.9099 4.46393 26.2659 3.89968Z" fill="#7D8EA0"/>
</svg>
