<svg width="18" height="18" viewBox="0 0 18 18" fill="none" xmlns="http://www.w3.org/2000/svg">
<path d="M1.125 16.0312C1.125 16.255 1.21389 16.4696 1.37213 16.6279C1.53036 16.7861 1.74497 16.875 1.96875 16.875H16.0312C16.255 16.875 16.4696 16.7861 16.6279 16.6279C16.7861 16.4696 16.875 16.255 16.875 16.0312V6.1875H1.125V16.0312ZM12.375 7.45312C12.375 7.41583 12.3898 7.38006 12.4162 7.35369C12.4426 7.32732 12.4783 7.3125 12.5156 7.3125H13.9219C13.9592 7.3125 13.9949 7.32732 14.0213 7.35369C14.0477 7.38006 14.0625 7.41583 14.0625 7.45312V8.85938C14.0625 8.89667 14.0477 8.93244 14.0213 8.95881C13.9949 8.98518 13.9592 9 13.9219 9H12.5156C12.4783 9 12.4426 8.98518 12.4162 8.95881C12.3898 8.93244 12.375 8.89667 12.375 8.85938V7.45312ZM12.375 10.2656C12.375 10.2283 12.3898 10.1926 12.4162 10.1662C12.4426 10.1398 12.4783 10.125 12.5156 10.125H13.9219C13.9592 10.125 13.9949 10.1398 14.0213 10.1662C14.0477 10.1926 14.0625 10.2283 14.0625 10.2656V11.6719C14.0625 11.7092 14.0477 11.7449 14.0213 11.7713C13.9949 11.7977 13.9592 11.8125 13.9219 11.8125H12.5156C12.4783 11.8125 12.4426 11.7977 12.4162 11.7713C12.3898 11.7449 12.375 11.7092 12.375 11.6719V10.2656ZM9.5625 7.45312C9.5625 7.41583 9.57732 7.38006 9.60369 7.35369C9.63006 7.32732 9.66583 7.3125 9.70312 7.3125H11.1094C11.1467 7.3125 11.1824 7.32732 11.2088 7.35369C11.2352 7.38006 11.25 7.41583 11.25 7.45312V8.85938C11.25 8.89667 11.2352 8.93244 11.2088 8.95881C11.1824 8.98518 11.1467 9 11.1094 9H9.70312C9.66583 9 9.63006 8.98518 9.60369 8.95881C9.57732 8.93244 9.5625 8.89667 9.5625 8.85938V7.45312ZM9.5625 10.2656C9.5625 10.2283 9.57732 10.1926 9.60369 10.1662C9.63006 10.1398 9.66583 10.125 9.70312 10.125H11.1094C11.1467 10.125 11.1824 10.1398 11.2088 10.1662C11.2352 10.1926 11.25 10.2283 11.25 10.2656V11.6719C11.25 11.7092 11.2352 11.7449 11.2088 11.7713C11.1824 11.7977 11.1467 11.8125 11.1094 11.8125H9.70312C9.66583 11.8125 9.63006 11.7977 9.60369 11.7713C9.57732 11.7449 9.5625 11.7092 9.5625 11.6719V10.2656ZM9.5625 13.0781C9.5625 13.0408 9.57732 13.0051 9.60369 12.9787C9.63006 12.9523 9.66583 12.9375 9.70312 12.9375H11.1094C11.1467 12.9375 11.1824 12.9523 11.2088 12.9787C11.2352 13.0051 11.25 13.0408 11.25 13.0781V14.4844C11.25 14.5217 11.2352 14.5574 11.2088 14.5838C11.1824 14.6102 11.1467 14.625 11.1094 14.625H9.70312C9.66583 14.625 9.63006 14.6102 9.60369 14.5838C9.57732 14.5574 9.5625 14.5217 9.5625 14.4844V13.0781ZM6.75 10.2656C6.75 10.2283 6.76482 10.1926 6.79119 10.1662C6.81756 10.1398 6.85333 10.125 6.89062 10.125H8.29688C8.33417 10.125 8.36994 10.1398 8.39631 10.1662C8.42268 10.1926 8.4375 10.2283 8.4375 10.2656V11.6719C8.4375 11.7092 8.42268 11.7449 8.39631 11.7713C8.36994 11.7977 8.33417 11.8125 8.29688 11.8125H6.89062C6.85333 11.8125 6.81756 11.7977 6.79119 11.7713C6.76482 11.7449 6.75 11.7092 6.75 11.6719V10.2656ZM6.75 13.0781C6.75 13.0408 6.76482 13.0051 6.79119 12.9787C6.81756 12.9523 6.85333 12.9375 6.89062 12.9375H8.29688C8.33417 12.9375 8.36994 12.9523 8.39631 12.9787C8.42268 13.0051 8.4375 13.0408 8.4375 13.0781V14.4844C8.4375 14.5217 8.42268 14.5574 8.39631 14.5838C8.36994 14.6102 8.33417 14.625 8.29688 14.625H6.89062C6.85333 14.625 6.81756 14.6102 6.79119 14.5838C6.76482 14.5574 6.75 14.5217 6.75 14.4844V13.0781ZM3.9375 10.2656C3.9375 10.2283 3.95232 10.1926 3.97869 10.1662C4.00506 10.1398 4.04083 10.125 4.07812 10.125H5.48438C5.52167 10.125 5.55744 10.1398 5.58381 10.1662C5.61018 10.1926 5.625 10.2283 5.625 10.2656V11.6719C5.625 11.7092 5.61018 11.7449 5.58381 11.7713C5.55744 11.7977 5.52167 11.8125 5.48438 11.8125H4.07812C4.04083 11.8125 4.00506 11.7977 3.97869 11.7713C3.95232 11.7449 3.9375 11.7092 3.9375 11.6719V10.2656ZM3.9375 13.0781C3.9375 13.0408 3.95232 13.0051 3.97869 12.9787C4.00506 12.9523 4.04083 12.9375 4.07812 12.9375H5.48438C5.52167 12.9375 5.55744 12.9523 5.58381 12.9787C5.61018 13.0051 5.625 13.0408 5.625 13.0781V14.4844C5.625 14.5217 5.61018 14.5574 5.58381 14.5838C5.55744 14.6102 5.52167 14.625 5.48438 14.625H4.07812C4.04083 14.625 4.00506 14.6102 3.97869 14.5838C3.95232 14.5574 3.9375 14.5217 3.9375 14.4844V13.0781ZM16.0312 2.25H14.0653V1.125H12.3778V2.25H5.62219V1.125H3.93469V2.25H1.96875C1.85837 2.24907 1.7489 2.26999 1.64664 2.31156C1.54438 2.35313 1.45135 2.41452 1.37292 2.4922C1.2945 2.56988 1.23221 2.6623 1.18966 2.76416C1.14711 2.86601 1.12514 2.97528 1.125 3.08566V5.0625H16.875V3.08566C16.8749 2.97528 16.8529 2.86601 16.8103 2.76416C16.7678 2.6623 16.7055 2.56988 16.6271 2.4922C16.5486 2.41452 16.4556 2.35313 16.3534 2.31156C16.2511 2.26999 16.1416 2.24907 16.0312 2.25Z" fill="#2C2C2C" fill-opacity="0.5"/>
</svg>
