<svg width="40" height="40" viewBox="0 0 40 40" fill="none" xmlns="http://www.w3.org/2000/svg">
<path fill-rule="evenodd" clip-rule="evenodd" d="M5.77378 5.77403C3.33301 8.21481 3.33301 12.1432 3.33301 19.9999C3.33301 27.8567 3.33301 31.785 5.77378 34.2258C8.21456 36.6666 12.1429 36.6666 19.9997 36.6666C27.8564 36.6666 31.7848 36.6666 34.2256 34.2258C36.6663 31.785 36.6663 27.8567 36.6663 19.9999C36.6663 12.1432 36.6663 8.21481 34.2256 5.77403C31.7848 3.33325 27.8564 3.33325 19.9997 3.33325C12.1429 3.33325 8.21456 3.33325 5.77378 5.77403ZM28.333 20.4166C29.0234 20.4166 29.583 20.9762 29.583 21.6666V29.9999C29.583 30.6903 29.0234 31.2499 28.333 31.2499C27.6427 31.2499 27.083 30.6903 27.083 29.9999V21.6666C27.083 20.9762 27.6427 20.4166 28.333 20.4166ZM21.2497 9.99992C21.2497 9.30956 20.69 8.74992 19.9997 8.74992C19.3093 8.74992 18.7497 9.30956 18.7497 9.99992V29.9999C18.7497 30.6903 19.3093 31.2499 19.9997 31.2499C20.69 31.2499 21.2497 30.6903 21.2497 29.9999V9.99992ZM11.6663 13.7499C12.3567 13.7499 12.9163 14.3096 12.9163 14.9999V29.9999C12.9163 30.6903 12.3567 31.2499 11.6663 31.2499C10.976 31.2499 10.4163 30.6903 10.4163 29.9999V14.9999C10.4163 14.3096 10.976 13.7499 11.6663 13.7499Z" fill="#7D8EA0"/>
</svg>
