<svg width="35" height="35" viewBox="0 0 35 35" fill="none" xmlns="http://www.w3.org/2000/svg">
<path fill-rule="evenodd" clip-rule="evenodd" d="M0 17.5C0 7.83502 7.83502 0 17.5 0C27.165 0 35 7.83502 35 17.5C35 27.165 27.165 35 17.5 35C7.83502 35 0 27.165 0 17.5ZM16.1875 5.25C16.1875 4.52513 16.7751 3.9375 17.5 3.9375C24.9904 3.9375 31.0625 10.0096 31.0625 17.5C31.0625 24.9904 24.9904 31.0625 17.5 31.0625C10.0096 31.0625 3.9375 24.9904 3.9375 17.5C3.9375 16.7751 4.52513 16.1875 5.25 16.1875C5.97487 16.1875 6.5625 16.7751 6.5625 17.5C6.5625 23.5406 11.4594 28.4375 17.5 28.4375C23.5406 28.4375 28.4375 23.5406 28.4375 17.5C28.4375 11.4594 23.5406 6.5625 17.5 6.5625C16.7751 6.5625 16.1875 5.97487 16.1875 5.25ZM17.5 9.1875C16.7751 9.1875 16.1875 9.77513 16.1875 10.5C16.1875 11.2249 16.7751 11.8125 17.5 11.8125C20.6411 11.8125 23.1875 14.3589 23.1875 17.5C23.1875 20.6411 20.6411 23.1875 17.5 23.1875C16.7751 23.1875 16.1875 23.7751 16.1875 24.5C16.1875 25.2249 16.7751 25.8125 17.5 25.8125C22.0909 25.8125 25.8125 22.0909 25.8125 17.5C25.8125 12.9091 22.0909 9.1875 17.5 9.1875Z" fill="#7D8EA0"/>
</svg>
