<svg width="35" height="35" viewBox="0 0 35 35" fill="none" xmlns="http://www.w3.org/2000/svg">
<path fill-rule="evenodd" clip-rule="evenodd" d="M11.4698 26.6215C12.0659 27.1049 12.1589 27.9937 11.6831 28.5993L9.79618 30.9881C9.31488 31.5881 8.43981 31.6881 7.84913 31.2048C7.52098 30.9325 7.32955 30.5326 7.32955 30.1048C7.32955 29.7937 7.43347 29.4937 7.6413 29.227L9.47349 26.8215C9.69773 26.5215 10.0259 26.3327 10.3978 26.2882C10.4525 26.2827 10.5072 26.2771 10.5619 26.2771C10.8791 26.2771 11.1854 26.3882 11.4698 26.6215ZM8.68592 26.0382L6.84279 28.4493C6.59668 28.7715 6.24118 28.977 5.83646 29.0215C5.4372 29.0715 5.04342 28.9604 4.72073 28.7048C4.06443 28.1882 3.94957 27.2215 4.45821 26.5493L6.30134 24.1383C6.54746 23.8161 6.90295 23.6049 7.30768 23.555C7.37331 23.5494 7.43894 23.5438 7.50457 23.5438C7.83819 23.5438 8.16088 23.6549 8.4234 23.8661C8.79531 24.166 9.00861 24.6105 9.00861 25.0882C9.00861 25.4327 8.89375 25.7605 8.68592 26.0382ZM4.98326 18.7995L3.33702 21.0661C3.33155 21.0661 3.33155 21.0717 3.33155 21.0717L3.0198 21.4994C2.96511 21.5717 2.89948 21.5939 2.85573 21.5994C2.78463 21.6106 2.719 21.5939 2.6643 21.5494L0.0937663 19.4884C-0.010149 19.3995 -0.0320259 19.2495 0.0500126 19.1384L6.27946 10.5497C6.33416 10.4775 6.40526 10.4608 6.44354 10.4553H6.47636C6.51464 10.4553 6.56933 10.4608 6.62402 10.5053L9.21644 12.583C9.26481 12.6206 9.29697 12.6757 9.30615 12.7368C9.31533 12.7979 9.30082 12.8603 9.26566 12.9108L9.18362 13.0219L9.16722 13.0386L5.59034 17.9662L5.5794 17.9773L4.98326 18.7995ZM14.2427 31.0603L14.2208 31.0936L12.9246 32.8603C12.7332 33.1158 12.4597 33.288 12.1425 33.3325C11.8253 33.3769 11.508 33.2991 11.2893 33.1325L11.1908 33.0492C10.9283 32.8492 10.7642 32.5658 10.7205 32.2381C10.6767 31.9047 10.7642 31.577 10.9721 31.3159L12.3667 29.5604C12.5964 29.2659 12.9465 29.1104 13.2965 29.1104C13.4529 29.11 13.6078 29.1411 13.7524 29.2019C13.8969 29.2627 14.0281 29.352 14.1384 29.4646C14.2488 29.5772 14.3361 29.7109 14.3953 29.858C14.4545 30.005 14.4844 30.1626 14.4833 30.3214C14.4833 30.5659 14.4122 30.8048 14.2755 31.0048C14.2727 31.0103 14.2686 31.0173 14.2645 31.0242C14.2604 31.0311 14.2563 31.0381 14.2536 31.0436C14.2536 31.0492 14.2481 31.0548 14.2427 31.0603ZM26.182 13.5385L27.3743 16.5274L29.9503 22.9994L28.5502 23.1994C28.3642 23.2272 28.1618 23.2327 27.9267 23.2272C27.8337 23.2272 27.7407 23.2216 27.6094 23.205C27.512 23.2 27.4146 23.1818 27.3094 23.1622C27.2965 23.1598 27.2835 23.1574 27.2704 23.155C27.1938 23.1438 27.1172 23.1272 27.0133 23.0939C26.9367 23.0772 26.8602 23.0494 26.7891 23.0216C26.6852 22.9827 26.5758 22.9383 26.4828 22.8994C26.1984 22.7772 25.9195 22.5994 25.6515 22.3883L20.144 17.9051L19.8486 17.6662C19.3728 17.2718 18.7876 17.0718 18.1969 17.0718C17.7758 17.0718 17.3546 17.1718 16.9718 17.3773L16.3757 17.694C15.2818 18.2773 13.9692 18.3051 12.8535 17.7607C12.6074 17.644 12.5199 17.3996 12.5199 17.2162C12.5199 17.0996 12.5527 16.9329 12.7003 16.7885L14.9646 14.583L14.9701 14.5774L15.5553 14.0052C15.8299 13.7401 16.16 13.5415 16.5208 13.4242C16.8816 13.3068 17.2639 13.2737 17.639 13.3274L23.8083 14.2552C24.3881 14.3385 24.9842 14.2219 25.4765 13.9385L26.182 13.5385ZM30.6432 10.5492C30.6659 10.5732 30.6832 10.6018 30.6941 10.6331L34.982 21.405C35.0312 21.5328 34.9765 21.6717 34.8562 21.7272L31.4981 23.2327C31.3942 23.2827 31.2629 23.2494 31.1809 23.105L27.6094 14.1496L27.1172 12.9219L26.882 12.333C26.8328 12.2108 26.893 12.0664 27.0188 12.0108L30.3714 10.4997C30.4011 10.485 30.4335 10.4768 30.4665 10.4759C30.4995 10.4749 30.5324 10.4812 30.5628 10.4942C30.5932 10.5065 30.6206 10.5253 30.6432 10.5492Z" fill="#7D8EA0"/>
<path fill-rule="evenodd" clip-rule="evenodd" d="M17.5023 9.83864C20.1713 9.83864 22.3426 7.63314 22.3426 4.9221C22.3426 2.21105 20.1713 0 17.5023 0C14.8333 0 12.6566 2.2055 12.6566 4.9221C12.6566 7.63314 14.8333 9.83864 17.5023 9.83864ZM15.2673 4.67964C15.2011 4.70752 15.141 4.74838 15.0904 4.79988C14.9885 4.9025 14.9308 5.04189 14.9298 5.18761C14.9287 5.33333 14.9845 5.47355 15.0849 5.57763L16.2553 6.76649C16.3592 6.86649 16.496 6.9276 16.6437 6.9276C16.7913 6.9276 16.928 6.87205 17.032 6.76649L19.9088 3.84435C19.9594 3.79291 19.9996 3.73185 20.027 3.66465C20.0544 3.59745 20.0685 3.52543 20.0685 3.45269C20.0685 3.37995 20.0544 3.30793 20.027 3.24073C19.9996 3.17353 19.9594 3.11247 19.9088 3.06103C19.8581 3.0096 19.798 2.9688 19.7319 2.94097C19.6657 2.91313 19.5948 2.8988 19.5232 2.8988C19.4516 2.8988 19.3807 2.91313 19.3145 2.94097C19.2484 2.9688 19.1883 3.0096 19.1376 3.06103L16.6437 5.5943L15.8616 4.79988C15.811 4.74838 15.7509 4.70752 15.6847 4.67964C15.6185 4.65176 15.5476 4.63741 15.476 4.63741C15.4043 4.63741 15.3334 4.65176 15.2673 4.67964Z" fill="#EE7828"/>
<path d="M27.5115 24.2994C27.3967 24.2938 27.249 24.2661 27.1013 24.2383C26.992 24.2216 26.8607 24.1938 26.7294 24.1494C26.6419 24.1272 26.5325 24.0883 26.4286 24.055C26.3083 24.0105 26.1825 23.9605 26.0567 23.905C25.6848 23.7383 25.3293 23.5161 24.9847 23.2439L19.1764 18.5218C18.6951 18.1273 18.0334 18.0607 17.4864 18.3495L16.8903 18.6662C16.1988 19.0335 15.4329 19.2327 14.6527 19.2482C13.8726 19.2636 13.0996 19.0948 12.3946 18.7551C12.1058 18.6177 11.8618 18.3994 11.6912 18.1257C11.5206 17.8521 11.4307 17.5346 11.432 17.2107C11.432 16.744 11.6125 16.3107 11.9461 15.9829L13.2204 14.7441H10.9616C10.5515 14.7441 10.1577 14.5941 9.85686 14.3219L9.69825 14.1719L6.46594 18.6329C6.44953 18.6495 6.43859 18.6718 6.42219 18.6884L6.13232 19.0884L5.23536 20.3273L4.54077 21.2828L4.87439 21.5384C5.35022 21.8883 5.64009 22.4717 5.64009 23.0939V23.255C6.08316 22.7822 6.68344 22.4937 7.32428 22.4454C7.96511 22.3972 8.60072 22.5927 9.10758 22.9939C9.74748 23.505 10.1084 24.2661 10.1084 25.0883C10.1084 25.1327 10.0975 25.1771 10.0975 25.2216C10.1577 25.2105 10.2178 25.1883 10.278 25.1827C10.9452 25.1049 11.6015 25.2938 12.1266 25.7271C12.458 25.998 12.7172 26.3489 12.8806 26.7477C13.044 27.1466 13.1063 27.5807 13.0618 28.0104C13.6142 27.9493 14.1885 28.0937 14.6698 28.4604C15.2495 28.8993 15.5886 29.577 15.5886 30.3215C15.5886 30.3381 15.5831 30.3548 15.5831 30.377C16.1489 30.2845 16.7285 30.405 17.213 30.7159C17.8802 31.1548 18.2795 31.8992 18.2795 32.7103C18.2795 33.1769 18.1482 33.6214 17.9076 33.9991L17.924 34.0103C18.4217 34.3936 19.1819 34.3491 19.6249 33.8936C19.8929 33.6214 20.0296 33.2547 20.0023 32.8714C19.9804 32.4936 19.7944 32.1436 19.4936 31.9103L16.2394 29.3326C16.0043 29.1437 15.9605 28.7937 16.1465 28.5548C16.3324 28.316 16.677 28.2715 16.9122 28.4604L20.6312 31.4048C21.0961 31.7659 21.7524 31.7214 22.1681 31.2992C22.4142 31.0492 22.5345 30.7103 22.5072 30.3603C22.4798 30.0104 22.3048 29.6937 22.0204 29.4937C21.736 29.2937 22.0204 29.4937 22.015 29.4937L18.2467 26.7549C18.1347 26.6663 18.0609 26.5371 18.0407 26.3945C18.0205 26.2518 18.0554 26.1068 18.1381 25.9897C18.2208 25.8726 18.345 25.7926 18.4845 25.7664C18.624 25.7403 18.7681 25.77 18.8866 25.8494L22.8299 28.7159C23.4315 29.1493 24.2683 29.0437 24.7441 28.4715C25.0012 28.1604 25.116 27.766 25.0668 27.366C25.0176 26.966 24.8152 26.6104 24.4925 26.3716L22.6002 24.9438L20.3523 23.2494C20.1117 23.0661 20.057 22.7217 20.2375 22.4717C20.2812 22.4106 20.3359 22.3661 20.3906 22.3328L20.3961 22.3272C20.582 22.2161 20.8172 22.2217 21.0031 22.355L25.5754 25.7882C26.0731 26.1605 26.806 26.1049 27.2599 25.6549C27.6045 25.3049 27.7194 24.7827 27.5717 24.3161C27.5498 24.3049 27.5279 24.3049 27.5115 24.2994Z" fill="#7D8EA0"/>
<path d="M16.7255 33.799L16.9825 33.3935C17.1138 33.1935 17.1794 32.9546 17.1794 32.7046C17.1794 32.2713 16.9661 31.8713 16.6161 31.6435C16.2169 31.3824 15.6973 31.3824 15.2871 31.6324C15.2433 31.6546 15.2269 31.6769 15.1996 31.6991C15.1941 31.7046 15.1832 31.7102 15.1777 31.7157C15.1722 31.7157 15.1722 31.7213 15.1668 31.7269C15.1449 31.7435 15.1175 31.7769 15.0957 31.7991C14.9425 31.9935 14.5542 32.5046 14.2096 32.9657C14.0128 33.249 13.9362 33.5879 13.9963 33.9268C14.062 34.2712 14.2534 34.5601 14.5433 34.749L14.6198 34.799C14.8878 34.9768 15.2215 35.0434 15.5387 34.9712C15.8668 34.899 16.1458 34.7046 16.3262 34.4212L16.7255 33.799C16.72 33.8046 16.72 33.8046 16.7255 33.799Z" fill="#7D8EA0"/>
</svg>
