<svg width="40" height="40" viewBox="0 0 40 40" fill="none" xmlns="http://www.w3.org/2000/svg">
<path fill-rule="evenodd" clip-rule="evenodd" d="M8.46447 8.44843C14.79 2.1318 25.0728 2.19896 31.437 8.5632C37.804 14.9302 37.8685 25.219 31.5436 31.5439C25.2187 37.8688 14.9299 37.8043 8.56289 31.4373C4.78981 27.6642 3.23173 22.5168 3.90078 17.6356C3.99453 16.9517 4.62499 16.4732 5.30895 16.5669C5.99291 16.6607 6.47137 17.2912 6.37762 17.9751C5.811 22.109 7.1297 26.4686 10.3307 29.6695C15.7381 35.077 24.444 35.108 29.7758 29.7761C35.1077 24.4443 35.0767 15.7384 29.6692 10.331C24.2645 4.92627 15.5648 4.89256 10.2322 10.2162L11.4784 10.2225C12.1688 10.2259 12.7256 10.7884 12.7221 11.4787C12.7186 12.1691 12.1562 12.7259 11.4659 12.7224L7.22327 12.7011C6.53782 12.6977 5.98301 12.1428 5.97956 11.4574L5.95824 7.21482C5.95477 6.52447 6.5116 5.96202 7.20195 5.95855C7.89229 5.95508 8.45474 6.51191 8.45821 7.20225L8.46447 8.44843ZM19.9998 12.0834C20.6902 12.0834 21.2498 12.6431 21.2498 13.3334V19.4823L25.0504 23.2829C25.5385 23.771 25.5385 24.5625 25.0504 25.0507C24.5622 25.5388 23.7707 25.5388 23.2826 25.0507L18.7498 20.5179V13.3334C18.7498 12.6431 19.3094 12.0834 19.9998 12.0834Z" fill="#EE7828"/>
</svg>
