<svg width="35" height="35" viewBox="0 0 35 35" fill="none" xmlns="http://www.w3.org/2000/svg">
<path fill-rule="evenodd" clip-rule="evenodd" d="M18.7448 11.3012H7.76853C7.4605 11.3011 7.15945 11.2082 6.90349 11.0344C6.64752 10.8605 6.44816 10.6136 6.33064 10.3247C6.21311 10.0359 6.18271 9.71817 6.24328 9.4118C6.30385 9.10542 6.45267 8.82417 6.6709 8.60364C6.94814 8.31666 7.33853 8.13873 7.76853 8.13873H18.7448C19.6048 8.13873 20.3007 8.85044 20.3007 9.72286C20.3007 10.1591 20.1253 10.5551 19.8424 10.8363C19.5652 11.1233 19.1748 11.3012 18.7448 11.3012ZM17.9074 5.91177L17.534 6.99082H8.88879L6.94248 0L8.49839 0.757625L10.0543 0L10.7842 0.355854L11.1689 0.545261L11.6102 0.757625L13.1775 0L14.7334 0.757625L16.2893 0L17.8452 0.757625L19.4124 0L18.2186 4.6835L17.9074 5.91177Z" fill="#7D8EA0"/>
<path fill-rule="evenodd" clip-rule="evenodd" d="M33.5119 18.3093H23.3447C22.5243 18.3093 21.8623 18.9866 21.8623 19.8188V33.4962C21.8623 34.3285 22.5243 35 23.3447 35H33.5119C34.3323 35 34.9999 34.3285 34.9999 33.4962V19.8188C34.9999 18.9866 34.3323 18.3093 33.5119 18.3093ZM32.7763 20.5305H24.0179V24.0546H32.7763V20.5305ZM26.5187 32.7845C26.9261 32.7845 27.2543 32.4516 27.2543 32.0384V30.6609C27.2543 30.2476 26.9261 29.9147 26.5187 29.9147H24.7478C24.3404 29.9147 24.0123 30.2476 24.0123 30.6609V32.0384C24.0123 32.4516 24.3404 32.7845 24.7478 32.7845H26.5187ZM26.5187 28.4224C26.9261 28.4224 27.2543 28.0895 27.2543 27.6763V26.2988C27.2543 25.8798 26.9261 25.5469 26.5187 25.5469H24.7478C24.3404 25.5469 24.0123 25.8798 24.0123 26.2988V27.6763C24.0123 28.0895 24.3404 28.4224 24.7478 28.4224H26.5187ZM32.1087 32.7845C32.5161 32.7845 32.8442 32.4516 32.8442 32.0384V30.6609C32.8442 30.2476 32.5161 29.9147 32.1087 29.9147H30.3378C29.9304 29.9147 29.6023 30.2476 29.6023 30.6609V32.0384C29.6023 32.4516 29.9304 32.7845 30.3378 32.7845H32.1087ZM32.1087 28.4224C32.5161 28.4224 32.8442 28.0895 32.8442 27.6763V26.2988C32.8442 25.8798 32.5161 25.5469 32.1087 25.5469H30.3378C29.9304 25.5469 29.6023 25.8798 29.6023 26.2988V27.6763C29.6023 28.0895 29.9304 28.4224 30.3378 28.4224H32.1087Z" fill="#EE7828"/>
<path d="M24.3911 17.161C23.2991 15.1981 21.8733 13.3901 20.2835 11.9609C19.8422 12.2709 19.3047 12.4488 18.7502 12.4488H7.76826C7.21945 12.4488 6.71024 12.2824 6.28024 11.9954C2.71578 15.1981 0 20.2948 0 24.7832C0 32.0036 7.0384 34.9193 13.296 34.9193C15.8194 34.9193 18.4617 34.4429 20.7248 33.404V19.8184C20.7248 18.3548 21.896 17.161 23.3387 17.161H24.3911ZM13.296 29.7077C9.66931 29.7077 6.72721 26.7232 6.72721 23.0441C6.72721 19.365 9.66931 16.3804 13.296 16.3804C16.9227 16.3804 19.8648 19.365 19.8648 23.0441C19.8648 26.7232 16.9227 29.7077 13.296 29.7077Z" fill="#7D8EA0"/>
<path d="M14.016 24.3389C15.2863 24.3389 16.3122 23.296 16.3122 22.0095C16.3122 20.7251 15.2821 19.6802 14.016 19.6802H11.7044C11.5853 19.6802 11.4886 19.7782 11.4886 19.8991V22.9631H11.011C10.8918 22.9631 10.7952 23.0611 10.7952 23.182V24.12C10.7952 24.2409 10.8918 24.3389 11.011 24.3389H11.4886V24.839H11.011C10.8918 24.839 10.7952 24.9371 10.7952 25.058V25.996C10.7952 26.1169 10.8918 26.2149 11.011 26.2149H11.4886V26.9339C11.4886 27.0548 11.5853 27.1528 11.7044 27.1528H12.6291C12.7483 27.1528 12.8449 27.0548 12.8449 26.9339V26.2149H14.2472C14.3663 26.2149 14.463 26.1168 14.463 25.9959V25.058C14.463 24.9371 14.3663 24.839 14.2472 24.839H12.8449V24.3389H14.016ZM12.8449 21.056H14.016C14.5343 21.056 14.956 21.4838 14.956 22.0095C14.956 22.5353 14.5343 22.9631 14.016 22.9631H12.8449V21.056Z" fill="#7D8EA0"/>
</svg>
