<svg width="40" height="40" viewBox="0 0 40 40" fill="none" xmlns="http://www.w3.org/2000/svg">
<path d="M20.1816 12.39C21.3713 9.51719 24.2013 7.5 27.4994 7.5C30.7976 7.5 33.6275 9.51719 34.8173 12.39C35.0814 13.0278 35.8126 13.3307 36.4504 13.0666C37.0882 12.8024 37.3912 12.0712 37.127 11.4334C35.5639 7.65899 31.8436 5 27.4994 5C23.1552 5 19.4349 7.65899 17.8718 11.4334C17.6077 12.0712 17.9106 12.8024 18.5484 13.0666C19.1862 13.3307 19.9174 13.0278 20.1816 12.39Z" fill="#EE7828"/>
<path fill-rule="evenodd" clip-rule="evenodd" d="M4.30932 20.5596C3.33301 21.536 3.33301 23.1073 3.33301 26.25C3.33301 29.3927 3.33301 30.964 4.30932 31.9404C5.28563 32.9167 6.85698 32.9167 9.99967 32.9167H29.9997C33.1424 32.9167 34.7137 32.9167 35.69 31.9404C36.6663 30.964 36.6663 29.3927 36.6663 26.25C36.6663 23.1073 36.6663 21.536 35.69 20.5596C34.7137 19.5833 33.1424 19.5833 29.9997 19.5833H28.7497V14.5833C28.7497 13.893 28.19 13.3333 27.4997 13.3333C26.8093 13.3333 26.2497 13.893 26.2497 14.5833V19.5833H9.99967C6.85698 19.5833 5.28563 19.5833 4.30932 20.5596ZM9.99967 27.9167C10.9201 27.9167 11.6663 27.1705 11.6663 26.25C11.6663 25.3295 10.9201 24.5833 9.99967 24.5833C9.0792 24.5833 8.33301 25.3295 8.33301 26.25C8.33301 27.1705 9.0792 27.9167 9.99967 27.9167ZM14.9997 27.9167C15.9201 27.9167 16.6663 27.1705 16.6663 26.25C16.6663 25.3295 15.9201 24.5833 14.9997 24.5833C14.0792 24.5833 13.333 25.3295 13.333 26.25C13.333 27.1705 14.0792 27.9167 14.9997 27.9167Z" fill="#EE7828"/>
<path d="M23.9002 14.3637C24.3553 12.8041 25.7967 11.6667 27.5006 11.6667C29.2045 11.6667 30.646 12.8041 31.1011 14.3637C31.2945 15.0264 31.9885 15.4069 32.6512 15.2135C33.3139 15.0201 33.6944 14.3261 33.501 13.6634C32.7431 11.0662 30.3453 9.16667 27.5006 9.16667C24.6559 9.16667 22.2581 11.0662 21.5002 13.6634C21.3069 14.3261 21.6873 15.0201 22.35 15.2135C23.0128 15.4069 23.7068 15.0264 23.9002 14.3637Z" fill="#EE7828"/>
</svg>
