<svg width="40" height="40" viewBox="0 0 40 40" fill="none" xmlns="http://www.w3.org/2000/svg">
<rect width="40" height="40" fill="#EEF2F6"/>
<path fill-rule="evenodd" clip-rule="evenodd" d="M7.6164 29.7762C8.76115 27.9865 11.2122 28.0452 12.4292 29.603C14.0792 31.7151 16.3824 33.75 20 33.75C23.681 33.75 25.9495 32.1186 27.5082 30.0349C28.7082 28.4308 31.3178 28.1688 32.576 30.0724C33.6177 31.6486 34.7477 32.8843 36.9533 33.404C37.6253 33.5623 38.0416 34.2354 37.8833 34.9073C37.725 35.5793 37.0519 35.9957 36.3799 35.8373C33.2933 35.11 31.7006 33.282 30.4903 31.4509C30.3954 31.3073 30.2528 31.2343 30.0677 31.2378C29.8701 31.2416 29.6557 31.3378 29.5101 31.5324C27.564 34.134 24.6003 36.25 20 36.25C15.2623 36.25 12.3143 33.5168 10.4591 31.1421C10.3395 30.9891 10.1835 30.9308 10.0494 30.9337C9.92281 30.9364 9.80704 30.991 9.72243 31.1233C8.48994 33.0502 6.89848 35.0648 3.61998 35.8373C2.94803 35.9957 2.27494 35.5793 2.11661 34.9073C1.95828 34.2354 2.37465 33.5623 3.0466 33.404C5.38151 32.8538 6.51259 31.5019 7.6164 29.7762Z" fill="#EE7828"/>
<path d="M36.9533 25.0706C34.7477 24.5509 33.6177 23.3152 32.576 21.7391C31.4086 19.9729 29.0778 20.0709 27.789 21.3756L25.8333 19.1667L15.0012 6.89029C14.0974 5.86595 12.5167 5.8166 11.5507 6.78257C10.6757 7.65763 10.6218 9.05887 11.4272 9.99847L13.0734 11.919C14.0808 13.0943 12.4615 15.6897 12.4615 15.6897L8.33055 20.6661C8.06113 20.8688 7.81842 21.127 7.6164 21.4429C6.51259 23.1686 5.38151 24.5205 3.0466 25.0706C2.37465 25.229 1.95828 25.9021 2.11661 26.574C2.27494 27.246 2.94803 27.6623 3.61998 27.504C6.89848 26.7315 8.48994 24.7168 9.72243 22.7899C9.80704 22.6577 9.92281 22.6031 10.0494 22.6004C10.1835 22.5975 10.3395 22.6557 10.4591 22.8088C12.3143 25.1835 15.2623 27.9167 20 27.9167C24.6003 27.9167 27.564 25.8006 29.5101 23.1991C29.6557 23.0045 29.8701 22.9082 30.0677 22.9045C30.2528 22.901 30.3954 22.9739 30.4903 23.1176C31.7006 24.9487 33.2933 26.7767 36.3799 27.504C37.0519 27.6623 37.725 27.246 37.8833 26.574C38.0416 25.9021 37.6253 25.229 36.9533 25.0706Z" fill="#EE7828"/>
<path d="M28.3333 13.3333C30.6345 13.3333 32.5 11.4679 32.5 9.16667C32.5 6.86548 30.6345 5 28.3333 5C26.0321 5 24.1666 6.86548 24.1666 9.16667C24.1666 11.4679 26.0321 13.3333 28.3333 13.3333Z" fill="#EE7828"/>
</svg>
