<svg width="32" height="32" viewBox="0 0 32 32" fill="none" xmlns="http://www.w3.org/2000/svg">
<path d="M16.0003 13.3334C18.9458 13.3334 21.3337 10.9456 21.3337 8.00008C21.3337 5.05456 18.9458 2.66675 16.0003 2.66675C13.0548 2.66675 10.667 5.05456 10.667 8.00008C10.667 10.9456 13.0548 13.3334 16.0003 13.3334Z" fill="#7D8EA0"/>
<path d="M3.63737 7.75746C3.50342 7.22166 2.96049 6.8959 2.42469 7.02985C1.8889 7.1638 1.56314 7.70673 1.69709 8.24253L2.20637 10.2797C3.14605 14.0384 5.99504 16.9995 9.66723 18.105L9.66723 24.0693C9.66719 25.2673 9.66716 26.2663 9.77378 27.0593C9.88632 27.8964 10.1339 28.6521 10.7412 29.2594C11.3485 29.8667 12.1042 30.1142 12.9413 30.2268C13.7343 30.3334 14.7333 30.3334 15.9312 30.3333H16.0699C17.2679 30.3334 18.2668 30.3334 19.0599 30.2268C19.8969 30.1142 20.6527 29.8667 21.2599 29.2594C21.8672 28.6521 22.1148 27.8964 22.2273 27.0593C22.334 26.2663 22.3339 25.2673 22.3339 24.0694L22.3339 18.4787C23.6421 18.8687 24.6413 20.0052 24.8081 21.4228L25.6741 28.7835C25.7386 29.332 26.2356 29.7243 26.7841 29.6598C27.3326 29.5953 27.7249 29.0983 27.6604 28.5498L26.7944 21.1891C26.4686 18.4201 24.1219 16.3333 21.3339 16.3333H10.7799C7.52199 15.5686 4.95975 13.047 4.14666 9.79461L3.63737 7.75746Z" fill="#7D8EA0"/>
</svg>
