<svg width="39" height="38" viewBox="0 0 39 38" fill="none" xmlns="http://www.w3.org/2000/svg">
<g clip-path="url(#clip0_2045_1582)" filter="url(#filter0_d_2045_1582)">
<path fill-rule="evenodd" clip-rule="evenodd" d="M19.5 32C26.956 32 33 25.956 33 18.5C33 11.0439 26.956 5 19.5 5C12.0439 5 6 11.0439 6 18.5C6 25.956 12.0439 32 19.5 32Z" fill="#71CA3F"/>
<path fill-rule="evenodd" clip-rule="evenodd" d="M19.5328 25.7993C18.2926 25.8013 17.072 25.4895 15.9846 24.893L11.9202 26.1845L13.245 22.2762C12.5546 21.1433 12.1902 19.8418 12.192 18.5151C12.192 14.4921 15.4783 11.2305 19.5333 11.2305C23.5873 11.2305 26.8741 14.4917 26.8741 18.5151C26.8741 22.5386 23.5869 25.7988 19.5324 25.7988L19.5328 25.7993ZM19.5328 12.3906C16.1295 12.3906 13.3611 15.1379 13.3611 18.5151C13.3611 19.8548 13.7976 21.0959 14.5365 22.1057L13.7656 24.38L16.1371 23.6262C17.1456 24.2887 18.3262 24.6409 19.5328 24.6392C22.9357 24.6392 25.705 21.8919 25.705 18.5151C25.705 15.1383 22.9357 12.3906 19.5328 12.3906ZM23.2399 20.1927C23.1949 20.1185 23.0748 20.0735 22.8952 19.9844C22.7152 19.8948 21.8301 19.4628 21.6654 19.4039C21.5002 19.344 21.3801 19.3139 21.2604 19.493C21.1407 19.6721 20.7955 20.0735 20.6902 20.1927C20.5854 20.312 20.4805 20.3268 20.3005 20.2377C20.1205 20.1482 19.5409 19.9596 18.8533 19.3512C18.3187 18.8783 17.9574 18.2937 17.8525 18.1151C17.7477 17.9364 17.8413 17.8397 17.9313 17.7506C18.0123 17.6709 18.1113 17.5422 18.2013 17.4383C18.2913 17.3339 18.3214 17.2596 18.3813 17.1404C18.4411 17.0211 18.4114 16.9172 18.3664 16.8276C18.3214 16.7381 17.9614 15.8597 17.8111 15.5019C17.6613 15.1446 17.5119 15.2045 17.4061 15.2045C17.3013 15.2045 17.1811 15.1892 17.0614 15.1892C16.9417 15.1892 16.7464 15.2342 16.5817 15.4128C16.4166 15.5915 15.9517 16.0235 15.9517 16.9023C15.9517 17.7807 16.5966 18.6294 16.6866 18.7482C16.7766 18.8675 17.9313 20.7291 19.7601 21.4437C21.5902 22.1588 21.5902 21.9203 21.9201 21.8906C22.2499 21.8609 22.9843 21.4586 23.1351 21.0419C23.2845 20.6247 23.2845 20.267 23.2399 20.1927Z" fill="white"/>
</g>
<defs>
<filter id="filter0_d_2045_1582" x="0.9375" y="0.860577" width="37.125" height="37.125" filterUnits="userSpaceOnUse" color-interpolation-filters="sRGB">
<feFlood flood-opacity="0" result="BackgroundImageFix"/>
<feColorMatrix in="SourceAlpha" type="matrix" values="0 0 0 0 0 0 0 0 0 0 0 0 0 0 0 0 0 0 127 0" result="hardAlpha"/>
<feOffset dy="0.923077"/>
<feGaussianBlur stdDeviation="2.53125"/>
<feComposite in2="hardAlpha" operator="out"/>
<feColorMatrix type="matrix" values="0 0 0 0 0.172549 0 0 0 0 0.172549 0 0 0 0 0.172549 0 0 0 0.1 0"/>
<feBlend mode="normal" in2="BackgroundImageFix" result="effect1_dropShadow_2045_1582"/>
<feBlend mode="normal" in="SourceGraphic" in2="effect1_dropShadow_2045_1582" result="shape"/>
</filter>
<clipPath id="clip0_2045_1582">
<rect width="27" height="27" fill="white" transform="translate(6 5)"/>
</clipPath>
</defs>
</svg>
